<svg version="1" xmlns="http://www.w3.org/2000/svg" width="582.667" height="582.667" viewBox="0 0 437.000000 437.000000"><path d="M214.5 56.7c-4.2.6-5.2 1.8-4.7 5.2.3 2.5 0 3-3 3.9-1.8.6-5.9 1.6-9 2.1-9.9 1.8-34.9 10.1-46.4 15.6-16.1 7.6-19.7 10.4-25.8 19.9-2.9 4.4-7.8 11.5-11 15.6-7.1 9.5-12 18.7-14.1 26.8-2.2 8.8-2.3 26.5-.2 31.5 3.7 8.5 7.5 11.8 16.7 14.2 4.2 1.1 4.5 1.4 4.6 4.6.1 1.9 1.2 6.3 2.4 9.8l2.4 6.4-1.8 10.3c-1.4 8.4-1.5 11.1-.5 14.6 1.5 5.7 3.6 9.7 6.7 13.1 2.7 2.8 2.9 4 2.2 15.1-.1 2.6.5 4.8 2 6.8s2.1 4 1.8 5.9c-.3 1.6-.1 2.9.3 2.9.3 0 .5 2.8.2 6.2-.3 5 0 7.5 1.9 12.1 1.3 3.3 2.5 5.8 2.8 5.6.8-.4 5.2 2.2 4.6 2.8-.3.3-1.2 0-2.1-.7-.8-.7-1.5-.8-1.5-.3s1.1 1.5 2.4 2.2c2.6 1.5 3.6 4.7 3.6 12.2 0 3.5.4 4.9 1.4 4.9 1.9 0 3.9 5.4 3.1 8.1-.6 1.8-.4 2.1.9 1.6.9-.4 1.6-.2 1.6.3 0 .6.7 1 1.5 1 2.9 0 5.5 3.8 5.5 7.9 0 3.2.5 4.3 2.9 6 1.6 1.2 3.2 2.1 3.6 2.1.4 0 2.4 1.4 4.6 3.1 2.1 1.6 5.4 3.3 7.3 3.6 2.3.3 3.8 1.2 4.1 2.4.7 2.1 2 2.5 3 .9 1.3-2 3.7-.9 8.3 4 2.6 2.7 5.5 5 6.4 5 1.9 0 3.3 3.3 2.2 5.2-.5 1-.4 1 .7 0 .8-.7 1.9-2.7 2.5-4.5 1.4-4.1 3.9-4.7 4.8-1.2.4 1.4.4 3 .1 3.5-.4.6.2 1 1.3 1 1 0 2.7.9 3.7 2 2 2.3 7.5 2.8 7.5.7 0-.8 1.1-2.4 2.4-3.6 1.3-1.2 3.1-4.1 4.1-6.4.9-2.3 2.3-5.6 3.1-7.2 1.2-2.4 1.4-2.5 1-.6-.3 1.7 0 2.5 1.5 2.8 1.1.3 1.9 1.4 1.9 2.7 0 1.6.4 1.3 1.8-1.4 2.2-4.6 5.1-4.6 7.4-.2 2.1 4.3 2.3 4.4 2.5 1.9.5-6.5 1-8.5 3-11.1 1.4-1.7 2.8-2.6 3.8-2.2.9.3 3-.7 5-2.5 2.3-2.1 4.2-2.9 5.5-2.6 1.6.4 2 0 2-1.9 0-3.1 2.5-3.2 4.2-.2l1.2 2.3.6-2.5c.3-1.4 1.5-2.7 2.5-2.9 3.1-.6 7.3-6.2 9.2-12.3 1-3.2 2.4-5.8 3.1-5.8.6 0 1.2.4 1.2.9s.8 1.2 1.7 1.5c1.6.6 1.6.6 0-1.2-1.3-1.4-1.7-3.8-1.7-10.6v-8.8l2.5.6c2.6.7 2.6.6.9-1.9-.9-1.4-1.4-2.8-1.1-3.2.4-.3.9.2 1.3 1.1 1 2.6 3.2 1.9 2.6-.9-.6-3.5.7-9.5 2.1-9.5.9 0 1.1-1.3.9-4-.3-3.4 0-4.5 2.1-6.4 4.2-3.9 5.1-9.3 3-19.2l-1.7-8.4 3.6-3.1c2.1-1.6 5.1-5.8 6.9-9.4l3.1-6.4-.7-12.5c-.9-15.9-.2-18.4 6-21 5.5-2.2 9.9-7.3 12.1-14 2.2-6.4 1.4-24.5-1.6-36.5-3.1-12.9-7.3-20.4-16.1-29.1-6.4-6.4-8.4-9.1-12.7-18.2-8.9-18.5-17.5-25.6-38.2-31.7-5.8-1.7-12.3-3.8-14.5-4.7-2.2-.9-6.6-1.6-9.7-1.6-5.1.1-5.7-.1-6-2.1-.2-1.5-2.2-3.2-6.3-5.4-5.9-3.2-9.2-3.7-17-2.6zm14.3 4c6.6 3.7 6.7 3.8 3.7 4.4-4.2.9-11.6.9-14 0-1.2-.5-2-1.7-2-3.2 0-1.6-.5-2.3-1.5-2.1-1 .1-.9-.2.4-1.3 3.1-2.3 6.2-1.8 13.4 2.2zm-13 9c2.9 1.6 2.9 1.8 2.4 8-.3 4.3-.1 6.3.7 6.3.6 0 1.1-1.6 1.1-3.8 0-4.5.9-8.2 2-8.2.4 0 1.6 2 2.7 4.5 1 2.5 2.1 4.5 2.5 4.5.9 0-.1-2.8-1.9-5.5-2.3-3.4-1.6-4.5 2.7-4.5 3 0 5.4.9 9.1 3.5 4.7 3.2 6.9 4.2 6.9 3.1 0-.3-2.2-1.7-5-3.3-5.2-2.9-6.2-4.3-3.2-4.3 2.2 0 3.9.7 22.6 9.8 16.7 8.1 17.8 7.1 1.5-1.4-5.7-2.9-10.2-5.3-9.9-5.4.3 0 6.2 1.6 13 3.5 13.9 4 19.3 7 25.3 14.4 5.4 6.5 13.3 23.1 15.8 33.1 2.3 9.3 5.2 15.2 9.5 19l2.8 2.5-1.8-2.9c-4.6-7.2-5.6-9.6-7.5-17.5-2.6-10.2-2.5-9.9-.1-6.8 1.1 1.4 2 3 2 3.6 0 .6.6 1.1 1.4 1.1.7 0 4.2 3 7.6 6.7 6.7 7.2 11.9 16.8 16 29.8 2.5 8.2 2.1 16.8-1.1 22.5-1.1 1.9-1.7 2.6-1.4 1.5.4-1.1.9-4.9 1.1-8.5l.3-6.5-1.4 7.8c-1.4 8.2-5.5 16.7-8 16.7-1.8 0-2-1.6-.4-2.6 2.8-1.7 4.9-9 4.7-16.4l-.1-7.5-.7 7.5c-.8 10.2-5.9 19.1-8.5 15-.3-.6.5-1.4 1.8-1.9 5.4-2.1 6.4-15.6 2.1-28.4-1.4-4.3-2.8-7.6-3.1-7.3-.3.3 0 3.4.8 6.8 1.4 6.7 1.6 17.6.2 21.9-.7 2.3-1.1 2.5-4 1.7l-3.2-.8 1.9-3.3c4-6.5 2.1-17.6-5.2-30.3-2.7-4.9-5.5-9.4-6-9.9-.6-.6.6 1.9 2.6 5.5 7.4 13 8.1 14.9 8.1 23.5 0 5.2-.5 9.1-1.5 11-1.5 2.9-1.8 3-7 2.7-3-.2-10-1-15.5-1.7-5.5-.8-16.2-2.2-23.7-3.1l-13.7-1.7 2.6-3.4c3.5-4.6 2.3-5.2-1.5-.8-1.7 1.9-3.5 3.5-4 3.5s-.7-2.1-.5-4.8c.2-2.6-.3-7-1-9.7-1.4-5-1.5-5-.9 4.7.4 8.6.3 9.8-1.2 9.8-1.1 0-1.6-.9-1.7-2.8l-.1-2.7-.7 2.5c-1 3.6-3.2 3.4-6.4-.5-2.1-2.5-3.8-7-6.3-16.2-1.8-7.1-5-18-7-24.3-2.4-7.7-3.8-14.6-4.3-21l-.8-9.5-.2 9.1c-.1 7.4.4 10.8 2.9 19 1.6 5.5 3.9 15.5 5 22.4 1.8 11.1 3.2 16.5 5.5 22.2.6 1.5.1 1.8-3.3 1.8-2.2 0-12.3 1.1-22.4 2.5-18.5 2.6-31.3 3.2-55.8 2.7-7.4-.1-16.1 0-19.2.4l-5.6.7-1.6-5.3c-2.3-7.9-1.9-17.7 1.4-34 1.6-7.9 2.7-14.6 2.5-14.9-.6-.5-2.5 4.6-2.5 6.5 0 .9-1.6 6.3-3.5 12.2-4.7 13.9-5.3 20.9-2.8 28.4 1.4 4.1 1.6 5.4.6 4.7-2.3-1.9-4.3-10.9-4.3-19.2 0-6.9.5-9.2 3.9-17.6 2.2-5.4 4.2-11.5 4.6-13.7.5-3.1.1-2.6-1.8 2.6-1.4 3.6-3.7 9.3-5.1 12.8-4.4 10.2-4.5 25-.3 33.2.7 1.4 1 3.6.7 5l-.6 2.4-1.7-2.4c-2.9-4.1-4-10-4-20.5.1-7.7-.1-9.3-.9-7-1.3 4.3-1.3 16.3 0 21.1.7 2.3 3 6.2 5.2 8.7l4 4.5-3.7-1c-5.5-1.5-6-2.2-8.9-11.2-3.1-9.8-2.9-17.2 1.1-28.6 1.4-4.1 2.4-7.9 2.2-8.4-.2-.5-1.6 2.8-3.1 7.5-3.9 11.5-4.6 24.3-1.8 31.6 2.4 6.2 2 6.9-.7 1.4-4.5-8.7-3.1-27.5 2.8-39.6 1.7-3.4 6.2-10.6 10.1-15.9 3.9-5.3 9-12.8 11.5-16.6 7.6-11.8 16.5-19 31.2-24.9 10.8-4.4 13.5-4.5 5-.2-13.2 6.6-23.3 15.7-28.3 25.4-2.5 4.8-1 4 3.7-1.9 4.9-6.2 17.5-16.7 24.1-20.1 16.8-8.7 24.4-11.5 33.2-12.4 4.9-.5 9.9-1.5 11-2.3 2.7-1.9 2.9-1.9 6.4.1zm83.8 32.6c2 3.8 3.4 7.1 3.1 7.3-.2.3-1-1-1.8-2.7-.7-1.8-3.1-6-5.4-9.3-5.5-8.1-6.3-9.8-2.6-5.6 1.7 1.9 4.7 6.6 6.7 10.3zM273 179.1c12 1.3 29.3 4.1 30.8 4.9 3.1 1.6-18.2 3.4-39.8 3.4-12.4 0-19.6.2-16 .5l6.5.6-7 .7c-8.5.9-31.9.8-36-.1-2.3-.6-.8-1 6.5-1.8l9.5-1-8-.1c-4.4-.1-12 .5-17 1.3-5.9 1-16.4 1.6-30.6 1.6-20.8.1-21.8 0-29.5-2.6-4.3-1.5-8.1-2.9-8.3-3.1-.3-.2 12.8-.4 29-.3 26.5.1 31.1-.2 47.4-2.5 9.9-1.4 20.7-2.7 24-2.9 7.9-.5 27.8.2 38.5 1.4zm61 8.5c-2.7 5.4-8.1 11.4-10.3 11.4-.4 0-.7-1.1-.7-2.5 0-1.6.6-2.5 1.6-2.5 1.4 0 1.5.2.3 1.7-.9 1-1 1.5-.2 1.2 1.4-.5 11.3-15.4 11.4-17.2 0-.8.2-.8.6.1.3.7-.9 4.2-2.7 7.8zm-200.7-3.1c5.4 3.5 13.9 5.5 24.1 5.6l10.1.1-4.3 1.5c-3.8 1.3-5.2 1.3-13.3-.1-6.1-1-10.7-2.5-14.4-4.6-5-2.9-6.4-4-5-4 .3 0 1.6.7 2.8 1.5zm179.7 1.4c0 .5-2.3 1.8-5.1 3.1-4.6 1.9-6.1 2.1-13.8 1.4l-8.6-.8 7.2-.8c4-.5 8.9-1.5 11-2.3 4.4-1.6 9.3-1.9 9.3-.6zm-182.6 4.8c.4 1-.1 2.5-1.4 3.7-1.7 1.8-2 1.8-2 .4 0-.9.5-2 1.1-2.3.6-.4.8-1.3.5-2.1-.3-.8-.1-1.4.3-1.4.5 0 1.2.8 1.5 1.7zm2.6-.7c0 .5-.2 1-.4 1-.3 0-.8-.5-1.1-1-.3-.6-.1-1 .4-1 .6 0 1.1.4 1.1 1zm143.3-.3c-.7.2-2.1.2-3 0-1-.3-.4-.5 1.2-.5 1.7 0 2.4.2 1.8.5zm-135.7 1.4c4.8 1.2 5.3 1.9 2.7 4-1.5 1.2-1.6 1.2-1-.4.3-.9.2-1.7-.2-1.7-.5 0-1.1.4-1.3.9-.1.5-1.9-.2-3.8-1.5-3.8-2.7-3-2.9 3.6-1.3zm176.2 2.4c1.4 3 1.6 9.1.4 9.9-.5.3-2.3-1.5-4-3.9-2.3-3.3-3.6-4.3-4.9-3.9-1 .3 0-.5 2.2-1.9 5.1-3.2 5-3.2 6.3-.2zm-164.7 4.8c-3.4 3.4-5.5 3-2.5-.5l1.9-2.2-2.9 1.8c-3.6 2.3-5.9.7-3.2-2.3 1.5-1.6 2.2-1.7 5.7-.8l4.1 1-3.1 3zm-21.5-1.5c-1.9 3.6-2.3 6-1.2 6.4.5.2 1-.4 1.1-1.3.2-.9 1-2.9 1.8-4.5 1.2-2.3 1.7-2.6 2.2-1.3.6 1.5-5.2 12.9-6.6 12.9-.3 0-.9-2.1-1.3-4.7-.5-4.2-.3-5 2.1-7.5 3.4-3.5 3.7-3.5 1.9 0zm65.5-1.1c2.1 1.3 2.7 2.2 2.3 3.8-.4 1.6.2 2.6 2.1 3.9 12 7.9 6.3 27.5-10.2 34.8-5.5 2.4-16.5 3.4-22 1.9-9.4-2.6-17.8-12.3-19-21.9-.8-7.2 1.6-13 7.4-18.2 4.2-3.7 5-4 10.7-4.1 3.4 0 8.1-.4 10.6-.8 8-1.5 15-1.2 18.1.6zm10.3-.2c-1 .8-1.5 1.5-1 1.5s1.7-.7 2.7-1.6c1.2-1 3.2-1.4 6.7-1.2l5 .3-5.4 6c-4.4 4.9-5.6 5.7-6.4 4.5-.7-1.1 0-2.4 2.7-5.2 2.1-2.1 3.2-3.8 2.6-3.8-.6 0-2.3 1.3-3.6 3-2.8 3.3-3.7 3.7-3.7 1.7 0-.7-1.1-2.5-2.5-4l-2.6-2.7h3.8c3.4 0 3.6.1 1.7 1.5zm14.4 5.4l-5.3 5.6 6-5.8 6.1-5.7h7.3c7 0 7.3.1 5.9 1.7-2.3 2.8-6.5 10.5-7.2 13.5-.6 2.6-.7 2.6-3.4 1.2-3-1.6-10.8-1.8-16.4-.5-3.7.9-3.8.8-3.8-1.7 0-3.7 11.3-15.2 14.2-14.4 1.7.4 1.3 1.2-3.4 6.1zm62-4.5c4.3 2.2 10.1 9.3 10.8 13.3 1.9 10-2.7 20.5-11.5 26.4-5.9 3.9-11.3 5.2-18.6 4.6-8.5-.6-15.7-4-20.8-9.7-8.3-9.2-8.6-18.2-1-25.7 2.6-2.7 4.2-5.1 3.9-5.9-.3-.9.7-2.2 2.7-3.5 2.9-1.8 4.4-2 17.3-1.5 10.1.3 15 .9 17.2 2zm9.2-.4c0 .5-.4 1-.9 1-.6 0-1.3-.5-1.6-1-.3-.6.1-1 .9-1 .9 0 1.6.4 1.6 1zm5.4 2.5c-1.8 2.7-2.9 3.1-3.9 1.5-1.2-1.9.4-4 3-4 2.5 0 2.5.1.9 2.5zm16 3.9c2.1 3.6 2.6 5.8 2.6 11.1v6.6l-4.1-4.1c-2.3-2.3-3.8-4.4-3.4-4.8.4-.4 1-.1 1.2.5.6 1.7 2.1 1.6 3.9-.2 1.1-1.1 1.2-2 .5-3.3-1.2-2.2-4-10.2-3.6-10.2.2 0 1.5 2 2.9 4.4zM137 203.5c0 1.7-1.7 2.8-3 2-.7-.4-.7-1.3 0-2.6 1.2-2.1 3-1.7 3 .6zm163 .4c-.7 1.4-.7 2.1 0 2.1.5 0 1 1.3 1 3 0 1.6.7 4.7 1.5 6.7 1.3 3.3 1.3 4.4.1 8.3l-1.4 4.5-.1-3.5c-.1-2.4-.4-3.1-1.2-2.3-.6.6-1.1 5.2-1.1 11.4.1 8-.1 9.8-.9 7.9-.6-1.4-.8-4-.5-5.8.2-1.7 0-3.2-.5-3.2-1.9 0-2.2 3.3-1 11.3 1.1 7.8 1 8.3-.9 9.6-2.3 1.5-2.6 5.9-1 15.5.8 5.2.7 6.1-.8 7.2-1.4 1-1.8 3.3-2 12.5-.3 7.1-.7 10.7-1.3 9.8-.5-.8-.9-2.8-.9-4.4 0-3.9-1-7.5-2-7.5-.5 0-.6 1.9-.4 4.2.3 3.4.2 3.8-.5 1.8-.8-2.3-.9-2.2-1 1.2-.1 2.1-.5 3.8-1.1 3.8-.5 0-.7 2.3-.5 5.2l.5 5.3-1.1-4.3c-.6-2.3-1.4-4.2-2-4.2-1.1 0-1.1.2 0 5.7.5 2.4.7 4.3.6 4.3-.4 0-7.2-11.5-7.8-13.2-.3-1-1.2-1.5-2-1.2-.8.3-1.8-.6-2.5-2.1-1.1-2.3-.9-2.6 2.2-3.9 1.9-.8 3.9-2.3 4.5-3.4 1.4-2.6 1.4-7.2.1-7.2-.5 0-1 .6-1 1.3 0 1.5-5.1 4.7-7.6 4.7-1.6 0-1.6-.1.2-1.6s1.7-1.5-1.2-1c-1.8.3-4.5.8-6 1.1-2.5.5-2.6.4-.8-.4 3.9-1.7 3.8-3.1-.3-3.1h-3.8l2.5-2.1 2.5-2-4 .6c-3.2.4-4.9 0-8.9-2.4-2.9-1.7-4.3-3.1-3.5-3.4 2-.7-2.9-2.5-9-3.3-3.8-.5-5.7-.3-7.5.9-1.8 1.2-2.6 1.3-2.9.4-.7-2.2-3.7 1.3-3.7 4.5 0 4.7 4 10.8 8.5 12.9 1.8.9 1.9.9.3-.4-1-.8-1.8-1.7-1.8-2.1 0-1.3 2-.5 4.2 1.7 1.3 1.3 4 2.9 6.1 3.6 3.7 1.2 8.2.7 7.2-.9-1.2-1.9 1.5-1.9 6.9 0 6.2 2.1 11.2 5.5 9.7 6.4-.5.4-.9 4.6-.8 9.4.1 5.1-.4 10.4-1.2 12.7-1.9 5.3-5.7 11.1-6.4 9.3-.3-.9-.7-.7-1.2.7-2.5 7.1-3.9 9.8-5.5 10.3-.7.3-1 0-.6-.7 1.3-2.1-1.5-1.1-4.1 1.5-1.7 1.7-2.4 2-1.9.9.4-1.3.2-1.6-.9-1.1-1 .3-2-.5-3-2.4-.9-1.7-2-3-2.6-3-.5 0-1.4-1.2-1.9-2.8-.6-1.5-1.5-3.7-2.2-4.9-.6-1.2-.8-4.5-.6-7.4.5-4.6.4-5-.8-3.4-.8 1-1.4 2.8-1.5 3.9-.1 1.2-.5.6-.9-1.4-.5-1.9-.7-4.4-.5-5.5.3-1.1-.2-3.4-.9-5l-1.3-3-.8 3.7c-.4 2-.5 4.1-.2 4.5.3.5.2 1.5-.3 2.3-.7 1.1-1 .8-1.5-1.2-.4-1.5-.4-3.2 0-3.8.3-.5 0-1.7-.9-2.5-2-2-2.9-1.9-2.3.4.4 1.5.1 1.8-1.2 1.3-.9-.3-1.9-1-2.3-1.6-.4-.6-1.2-.5-2.2.3-1.1 1-1.4 2.4-.9 5.6.3 2.6.1 4.5-.6 4.9-.7.5-1.1-.2-1.1-1.8 0-1.4-.4-2.6-1-2.6-.5 0-1 1.1-1 2.3 0 1.3-.6 3.7-1.4 5.3-.8 1.6-1.9 6.5-2.5 10.8-.6 4.4-1.4 8.2-1.7 8.5-.3.3-2.3-1.4-4.4-3.9-2.1-2.5-4.2-4.2-4.6-3.7-.4.4.2 1.7 1.3 3 3.4 3.7 7.3 10.5 7.3 12.8 0 3.4-2.8.5-4-4.2-.6-2.2-1.5-3.9-2-3.9-.6 0-.9-.3-.8-.8.3-.9-6.4-10.1-7.4-10.2-1.3 0-.9 1.9.8 4.8l1.6 2.7-2.1-2.5c-1.2-1.4-2.4-3.5-2.7-4.8-.3-1.2-1-2.2-1.4-2.2-.5 0-1.1-1.4-1.5-3-.5-2.2-1-2.8-1.9-2.1-.8.7-1-.1-.8-3.1.3-2.7.1-3.8-.6-3.4-.8.5-1-2.8-.9-10.6l.2-11.3 2.6-.1c1.4-.1 3.9-1.1 5.5-2.3 2.5-1.8 3.5-2 5.7-1.2 1.8.7 3.6.7 5.6 0 2.1-.7 3.6-.7 5 0 1.6.9 2.5.7 4.7-1.4 3.1-2.9 4.2-3.2 2.4-.8-.7 1 0 .4 1.6-1.2 1.6-1.7 2.5-2.2 2.1-1.3-.3 1-.2 1.8.3 1.8.6 0 1-.7 1-1.5s.4-1.5 1-1.5c1.4 0 4-5.5 4-8.5 0-1.5-.6-2.5-1.4-2.5-.8 0-1.6-1-1.8-2.3-.4-3.1-5.7-3.5-10.8-.8-3 1.5-3.8 1.7-3.3.6.3-.8 0-1.5-.5-1.5-.6 0-1.3.9-1.7 1.9-.4 1.5-2.5 2.4-8.3 3.7-8.6 1.9-11.3 3.4-6.4 3.4 1.8 0 3.2.4 3.2 1 0 1.5-5.1 2.4-7 1.2-1-.6-2.3-.7-3.1-.2-1.1.7-1 1 .5 1.6 1.4.5 1.5.9.4 1.5-1.9 1.3-6.2 1.1-7.6-.3-.9-.9-1.2-.8-1.2.5 0 1.1-.5 1.4-1.7 1-1.2-.5-1.5-.2-1.1.9.5 1.1 0 1.4-1.9 1.2-4.2-.4-5.2-3.1-2.9-7.6 1.2-2.3 1.2-2.6 0-2.1-3.2 1.2-4.6 8.1-2.1 10.1.6.5 2.3 1.3 3.7 1.6 1.4.4 3.5 1.2 4.6 1.8 2.2 1 2.2 1 .3 6.1-1 2.8-2.5 5.5-3.3 5.9-.8.5-2.5 2.6-3.7 4.8-2.3 4-3.9 5.1-3.9 2.7 0-.8 1.1-2.4 2.5-3.7 1.4-1.3 2.5-2.8 2.5-3.3s-1.1-.2-2.5.7c-2.4 1.6-2.5 1.6-2.5-.9 0-2.8 1.6-6.6 3.4-7.7.7-.5.5-.8-.5-.8-2 0-3.8 2-4.9 5.7-.7 2-.8 1.2-.4-3.2.5-5.7.4-5.9-1-3.5-1.5 2.4-1.6 2.4-.9-1.9.6-4.2.5-4.3-1.6-3.2-1.1.7-2.1 1.6-2.1 2.1 0 .6-.5 1-1.1 1-1.8 0-.3-8.2 1.7-9.7 1-.7 1.5-1.6 1.1-1.9-.4-.4-1.4-.1-2.2.6-1.4 1.2-1.5.8-1-3.1l.5-4.4-2 4c-1.1 2.2-1.8 3.1-1.5 2 1.8-7.7 3.1-16.7 2.3-17.1-.4-.3-1.1.9-1.4 2.6-.9 4.4-2.4 4.7-2.4.4 0-2 1-5.2 2.2-7.2 1.2-2 2.3-4.3 2.4-5.1.2-.9.6-3.4.9-5.6.5-3 .1-4.9-1.4-7.5-5-8.7-6.1-12.1-5-14.2 1-1.8.9-2-.5-1.5-1.3.5-1.6.3-1.2-1.1 1.4-5.1 1.7-8.2.7-8.2-1.7 0-1.3-5.1.6-7.2 2.3-2.6 4-2.2 1.7.4l-1.9 2.2 2.8-1.8 2.9-1.8-.8 2.4c-.4 1.2-.7 5.2-.7 8.8 0 8.8 3.9 17.6 10.1 23.1 17 14.9 48.4 3.5 52.7-19.2.6-3.1 1.1-3.7 5.1-4.7 5.5-1.5 9.6-1.5 14.4-.1 3.4 1 3.9 1.6 5.3 6.8 2.2 7.9 6.8 14.6 12.4 18.2 13.6 8.6 30.6 7.5 40.8-2.6 6-6.1 8.9-13.5 9.1-23.2.1-6.2.6-8.7 2-10.6 2.2-2.9 3.1-2.8 1.4.2zm-157-.9c0 .5-.4 1-1 1-.5 0-1-.5-1-1 0-.6.5-1 1-1 .6 0 1 .4 1 1zm-12.9 13.2c-2.6 4.5-3.1 4.9-3.1 2.7 0-1.5.7-3.2 1.5-3.9.8-.7 1.5-1.8 1.5-2.6 0-.7.6-2.6 1.3-4.1l1.2-2.8.3 2.7c.2 1.6-.9 4.8-2.7 8zm7.4-6.2c-.3 4.1-1.5 5.1-1.5 1.3 0-2.5.6-4.3 1.6-4.3.1 0 .1 1.4-.1 3zM316 224.8c0 .7-1.8-.6-4-2.9-2.2-2.4-4-5-4-5.8 0-.8 1.8.5 4 2.9s4 5 4 5.8zm-182-5.5c0 2.1-2 6.2-2 4.3 0-.5-.9-.1-2 .9-2 1.8-2 1.7.1-3.3 2.2-5.2 3.9-6 3.9-1.9zm4 6.8c0 .5-.4.9-1 .9-.5 0-1-.7-1-1.6 0-.8.5-1.2 1-.9.6.3 1 1 1 1.6zm178 4.6c0 1.3-.4 2.3-.9 2.3-1.8 0-4.9-5-4.4-7.1.6-2 .6-2 2.9.2 1.3 1.2 2.4 3.3 2.4 4.6zm-184.5-4c-.4 1-1.3 4-2 6.8l-1.2 5-.8-3.7c-.6-2.9-.3-4.2 1.6-6.7 2.5-3.5 3.5-4 2.4-1.4zm174.2.5c-.3.8-.6.5-.6-.6-.1-1.1.2-1.7.5-1.3.3.3.4 1.2.1 1.9zM134 233.5c-.5 2.7-1.1 5.8-1.5 6.7-.5 1.3-.2 1.8.9 1.8 1.7 0 2.1 1.7.7 3.8-.6 1-1.2.7-2.4-1.2-1.9-2.9-2.2-4.6-.6-4.6.6 0 .8-.9.4-2.1-.8-2.5 1.4-11.4 2.6-10.2.4.4.3 3-.1 5.8zm181 2.7c.1 2.1-2.3 1.4-4.9-1.4-3.1-3.3-3.7-4.9-2.4-6.1.6-.7 7.2 6.1 7.3 7.5zm-5.2.7l3.1 3.8-2 3.2c-2.3 3.7-3 3.3-7.1-4.1-3.4-6.1-2.3-7 1.4-1.2 1.6 2.6 3.2 4.4 3.5 4 .3-.3-.5-2-1.9-3.8-2.3-3-2.7-5.8-.9-5.8.4 0 2.2 1.7 3.9 3.9zm-163.1 4.3c-.3.8-.6.5-.6-.6-.1-1.1.2-1.7.5-1.3.3.3.4 1.2.1 1.9zm158.5 8c-.8 1-1.9 1.5-2.3 1.2-1.3-.7-1.1-4.4.2-4.4.6 0 .8-.9.4-2.3-.5-1.7-.2-1.5 1.3.8 1.7 2.7 1.8 3.2.4 4.7zM148 244c0 .5-.5 1-1.1 1-.5 0-.7-.5-.4-1 .3-.6.8-1 1.1-1 .2 0 .4.4.4 1zm-3.3 4.2c-.3.8-.6.5-.6-.6-.1-1.1.2-1.7.5-1.3.3.3.4 1.2.1 1.9zm-2 6c-.3.7-.5.2-.5-1.2s.2-1.9.5-1.3c.2.7.2 1.9 0 2.5zm157.9 6.4c-.8 2.1-1.1 1.7-2-2.1-.7-2.8-.6-2.9 1-1.3 1 1 1.4 2.3 1 3.4zm5.1 2.6c-.3.8-.6.5-.6-.6-.1-1.1.2-1.7.5-1.3.3.3.4 1.2.1 1.9zm-.4 16c-1.6 2.9-1.8 3.1-2.1 1.1-.2-1.1.5-4.7 1.5-8l1.8-5.8.3 4.7c.2 3.1-.3 5.8-1.5 8zm-90.9-6.4c-.4 1.7-1 2.9-1.4 2.7-.5-.3-.6-1.4-.3-2.5s0-2-.6-2-1.1.7-1.1 1.5-.5 1.5-1.2 1.5c-.6 0-2 .8-3.1 1.7-1.9 1.7-2 1.7-.9-.3 1.7-3.2 7.3-7.7 8.4-6.6.4.4.5 2.3.2 4zm-72.1 4.6c-.9 4.5-2.1 3.8-2.1-1.1 0-2.7.3-5.2.6-5.8.9-1.5 2 4 1.5 6.9zm53.7 4.1c-2.1 2.6-3.1 1.6-1.3-1.1.9-1.5 1.9-2.1 2.1-1.5.2.6-.2 1.8-.8 2.6zm7-1.2c0 .2-1.2 1.4-2.7 2.8-2.4 2.2-2.4 1.3 0-1.9.8-1.1 2.7-1.7 2.7-.9zm44 2.3c0 .2-.7.4-1.5.4s-1.5-.4-1.5-1c0-.5.7-.7 1.5-.4.8.4 1.5.8 1.5 1zm-105.2 5c-.7 1.5-1.5 2.1-2.1 1.5-.5-.5-.4-1.7.3-3 1.5-3 3.2-1.6 1.8 1.5zm32.7-2.6c.8 1.3-.5 1.3-2.5 0-1.3-.8-1.3-1 .2-1 .9 0 2 .4 2.3 1zm22.1 2.5c-1.1.8-2.5 1.5-3 1.5-.6 0-.2-.7.8-1.5 1.1-.8 2.5-1.5 3-1.5.6 0 .2.7-.8 1.5zm70.1 5c0 .8-.4 1.2-.9.9-.4-.3-.8-.9-.8-1.5 0-.5.4-.9.8-.9.5 0 .9.7.9 1.5zm-121.1 5.1c-1.1 2.8-2.8.1-2-3.2.7-2.7.8-2.8 1.7-.7.5 1.2.7 3 .3 3.9zm28.6-1.9c-.3 1.6-.7 2.2-1 1.5-.4-1.3.4-4.2 1.1-4.2.2 0 .2 1.2-.1 2.7zm120.5.5c-.3.7-.5.2-.5-1.2s.2-1.9.5-1.3c.2.7.2 1.9 0 2.5zm-29.2 3c.4 1.8.6 3.7.5 4.3-.2.5-.6 4.8-1 9.5l-.7 8.5-.1-10.1c-.1-5.6-.5-11.6-.9-13.4-.8-4.4 1.2-3.2 2.2 1.2zm22.2 1c-.3.7-.5.2-.5-1.2s.2-1.9.5-1.3c.2.7.2 1.9 0 2.5zM147 302.6c0 .8-.4 1.2-1 .9-.5-.3-1-1-1-1.6 0-.5.5-.9 1-.9.6 0 1 .7 1 1.6zm5.7 3.6c-.3.7-.5.2-.5-1.2s.2-1.9.5-1.3c.2.7.2 1.9 0 2.5zm122.7 5.1c4.4 9.4 5.6 12.9 5.6 16.1 0 2.4-.6 1.4-2.5-4.2-1.4-4-3.7-9.5-5-12.2-2.7-5.4-3-6.4-1.5-5.5.5.3 2.1 3 3.4 5.8zm-111.9-.4c-.4 1.7-1.3 3.1-2.1 3.1-1.1 0-1.1-.6.3-3.5 2-4.1 2.8-3.9 1.8.4zm9.6 7.6c-.5 7.6-.8 8.7-1.8 6.9-1.9-3.4-1.9-10.9.1-13.9 1-1.5 1.9-2.5 2.1-2.3.1.1 0 4.3-.4 9.3zm-21.6-3.3c.5 1.8.3 2.8-.4 2.8-.6 0-1.1-.9-1.1-1.9 0-1.1-.3-2.8-.6-3.8-.5-1.2-.4-1.5.4-.8.6.5 1.4 2.2 1.7 3.7zm65.6 4.9c.1 1.3.1 4.4 0 6.9-.3 4.4-.3 4.4-1.6-2.5-1.8-9.5-1.8-10-.1-8.2.8.8 1.6 2.5 1.7 3.8zm-56.1-2.9c0 .7-.4 1.9-.9 2.6-.7 1.1-1 1-1.5-.3-1-2.6-.7-3.5.9-3.5.8 0 1.5.6 1.5 1.2zm60.9 10.2c-.9.8-1 .3-.5-2.3.3-1.8.7-4.3.8-5.5.1-1.1.3-.1.5 2.3.3 2.6-.1 4.8-.8 5.5zm-67.3-5.8c-.3.9-.6 2.5-.7 3.7 0 2.1-.1 2.1-1-.2-1.1-2.8-.5-5.1 1.2-5.1.6 0 .8.7.5 1.6zm12.7 1.7c.3.7-.1 2.1-.9 3.2-1.3 1.7-1.4 1.7-1.4-1.3 0-3.2 1.4-4.3 2.3-1.9zm10.2 1.8c.4 1.2.3 2.5-.3 3.1-.6.6-1.1-.1-1.4-2.1-.5-3.5.7-4.2 1.7-1zm85.2.1c-.3.8-.6.5-.6-.6-.1-1.1.2-1.7.5-1.3.3.3.4 1.2.1 1.9zM157.3 333c-1 1.1-1.9-2.3-1.4-5.7l.5-3.8.7 4.5c.3 2.5.5 4.7.2 5zm26.2 1.3c.5 2.4.3 3.7-.4 3.7-.6 0-.8.7-.4 1.6.4 1.2.2 1.5-.8 1.2-1-.3-1.5-2.5-1.6-7.9-.2-6.8-.1-7.2 1.1-4.9.8 1.4 1.7 4.2 2.1 6.3zm27.4 3.1c.7.8 1.1 2.5.9 3.8-.4 2.1-.6 2.1-1.9-1-.9-1.8-1.9-2.9-2.4-2.5-.4.5-.5-.3-.2-1.6s.1-3.3-.4-4.3c-.6-1-.7-2.9-.3-4.1.6-1.8.9-1.3 1.9 3 .7 2.9 1.8 5.9 2.4 6.7zm14.8-7.2c-.3.7-.5.2-.5-1.2s.2-1.9.5-1.3c.2.7.2 1.9 0 2.5zm-63.4 6.1c-.9 1.4-2.2-2-2.2-5.8 0-2.9.1-2.9 1.5.9.7 2.1 1.1 4.3.7 4.9zm6.9-5.8c.3 1.4.2 2.8-.2 3-1.3.8-3.1-2.1-2.4-3.9.9-2.4 2.1-2 2.6.9zm42.5 1.2c-.3 1-.5.4-.5-1.2 0-1.7.2-2.4.5-1.8.2.7.2 2.1 0 3zm75.1-.5c-1.3 4-2.8 5.9-2.8 3.6 0-2.6 1.8-6.8 2.9-6.8.6 0 .6 1.2-.1 3.2zm-65.9 0c0 .7-.4 2.2-.9 3.3-.7 1.7-.9 1.5-.9-1.3-.1-1.7.4-3.2.9-3.2.6 0 1 .6.9 1.2zm52.1 2.7c0 1.1-.4 2.3-1 2.6-.6.4-1-.5-1-1.9s.5-2.6 1-2.6c.6 0 1 .9 1 1.9zm-18.9 3.4c-1.3 1.3-1.5-.1-.4-3 .7-1.7.8-1.7 1.1.1.2 1-.1 2.3-.7 2.9zm-80.2 5.2c0 1.2-.8.2-1.9-2.4-1.1-2.4-2-4.8-2-5.5.1-1.9 3.9 5.8 3.9 7.9zm86.3-6.3c-.7.7-1.2.8-1.2.2 0-1.4 1.2-2.6 1.9-1.9.2.3-.1 1.1-.7 1.7zm-70.7 3.5c.5 1.7.2 2.3-.9 2.3-.9 0-1.6-.6-1.6-1.3 0-.6-.3-2.3-.6-3.7-.6-2.2-.5-2.3.9-1 .8.8 1.8 2.5 2.2 3.7zm89.6-1.4c-1 .9-1.1.8-.5-.6.3-1 .9-1.5 1.2-1.2.3.3 0 1.1-.7 1.8zM167 339.8c0 .9 1.1 3.9 2.5 6.7 2 4 2.4 4.4 2 2l-.5-3 1.5 2.5c1.9 3.4 1.9 3.7-.7 3.6-2.7-.1-5.5-4.6-6.4-10.5-.5-3.2-.4-4.2.4-3.7.7.4 1.2 1.5 1.2 2.4zm51.9 4.1c-.8 1.7-1.7 3.1-2.1 3.1-1 0-1-3.6-.1-6.8.5-2.1.7-2.2 2.1-.9 1.2 1.3 1.3 1.9.1 4.6zm7.8 3.9c-1.3 1.6-1.3 1.6-2-4.3l-.7-5 1.9 4c1.3 2.8 1.5 4.4.8 5.3zm37-4.6c-.3.7-.5.2-.5-1.2s.2-1.9.5-1.3c.2.7.2 1.9 0 2.5zm-84 0c-.3.8-.6.5-.6-.6-.1-1.1.2-1.7.5-1.3.3.3.4 1.2.1 1.9zm29.2 4c0 3.3-.2 3.8-.9 2.3-1.2-2.8-1.2-6.5 0-6.5.6 0 1 1.9.9 4.2zm22.5-2.6c1 2.5-.1 2.9-1.4.5-.6-1.2-.7-2.1-.1-2.1.5 0 1.2.7 1.5 1.6zm5.6 6c0 1.6-.6 3.8-1.2 4.7-1.1 1.4-1.3.7-1.5-4.9-.2-6-.1-6.5 1.2-4.8.8 1 1.5 3.3 1.5 5zm15-3.9c0 1-.8 2.7-1.7 3.8-1.5 2-1.5 1.9-.9-.5.3-1.4.6-3.1.6-3.8 0-.6.5-1.2 1-1.2.6 0 1 .8 1 1.7zm4.2 3.5c-1.2 2.5-2.1 3.5-2.1 2.5-.1-1.9 3-8 3.7-7.3.2.2-.5 2.4-1.6 4.8zm5.7-1.1c-.9 1.8-2.8 3.4-3.3 2.8-.2-.2.3-1.9 1.1-3.8 1.1-2.6 1.7-3.1 2.3-2.1.5.8.5 2.2-.1 3.1zm-81.2-2c.9.9.8 1.9-.3 4-1.9 3.8-4.3 3.9-3.7.1.9-5.5 1.7-6.4 4-4.1zm48.2 5.1c-.7 1.3-1.4 1.8-1.6 1.1-.3-.7.1-2.2.8-3.5.7-1.3 1.4-1.8 1.6-1.1.3.7-.1 2.2-.8 3.5zm-35.3 0c.9 1.7 2 4.6 2.5 6.2.7 2.6.6 2.8-.4 1.2-.7-1.1-2-2.8-2.9-3.8-1.6-1.6-2.6-6.8-1.3-6.8.2 0 1.2 1.4 2.1 3.2zm10.1 1c-.3.7-.5.2-.5-1.2s.2-1.9.5-1.3c.2.7.2 1.9 0 2.5zm11 0c-.3.8-.6.5-.6-.6-.1-1.1.2-1.7.5-1.3.3.3.4 1.2.1 1.9zm27.9 4.9c-.9 2.2-1.5 2.7-1.5 1.6-.1-2.1 1.8-6.1 2.5-5.4.3.3-.2 2-1 3.8zm-24.3-1.5c.3.4 0 2.1-.8 3.9-1.6 4-.9 5.2 1.7 2.8 1.8-1.6 1.9-1.5 1.3 4.7-.4 3.6-.8 6.7-1.1 6.9-1.1 1.2-2.8-2.3-2.6-5.3.2-1.9-.1-3.7-.7-4.1-1.9-1.1-1.1-9.5.8-9.5.4 0 1 .3 1.4.6zm12.1 3.9c.5 2.9.4 3.6-.3 2.5-.6-.8-1.1-2.8-1.1-4.4 0-3.9.6-3.1 1.4 1.9zm-47.4-2.6c0 .5-.9.7-2 .4-1.1-.3-2-.7-2-.9 0-.2.9-.4 2-.4s2 .4 2 .9zm23 4.7c1.7 3.1 2.9 5.8 2.7 6.1-.5.4-6.7-9.9-6.7-11.1 0-1.5 1-.2 4 5zm43-3.4c0 1.6-.3 1.9-1.1 1.1-.6-.6-.8-1.6-.5-2.2 1.1-1.7 1.6-1.3 1.6 1.1zm-22 7.3c.6.8.9 2.3.5 3.6-.8 2.5-2 1.5-2.9-2.4-.7-2.9.4-3.6 2.4-1.2zm5-.3c0 .7-.5 2-1 2.8-.8 1.2-1 .9-1-1.3 0-1.5.5-2.7 1-2.7.6 0 1 .6 1 1.2z"/><path d="M229.5 75.2c1.5 1.8 3.5 3.7 4.4 4.2.9.5-.2-1-2.4-3.3-4.7-4.9-5.7-5.4-2-.9zM253.9 82.4c.7.8 4.7 2.9 8.9 4.7 4.2 1.7 8.6 3.8 9.7 4.5 1.1.8 2.4 1.4 3 1.4 1.9 0-6-4.7-12.8-7.5-3.7-1.6-7-3.2-7.3-3.7-.3-.4-1-.8-1.6-.8-.7 0-.6.5.1 1.4zM257 90.8c0 1.2 7.9 6.7 8.5 6 .3-.3-.9-1.6-2.7-3-4.6-3.4-5.8-4.1-5.8-3zM281.1 94.5c1.8 2.5 3.4 4.3 3.7 4 .5-.4-5.6-8.5-6.4-8.5-.3 0 .9 2 2.7 4.5zM144.6 108.5c-.3.9-.6 2.6-.5 3.8.1 1.4.4.9.9-1.3.9-3.7.7-5.2-.4-2.5zM289 108.2c0 .9.5 2 1 2.3 1.3.8 1.3-.5 0-2.5-.8-1.3-1-1.3-1 .2zM151 112.9c0 1.1-1.1 4.5-2.4 7.6-1.4 3-2.1 5.5-1.7 5.5.8 0 4.1-7 5.5-11.7.4-1.2.2-2.4-.4-2.8-.5-.3-1 .3-1 1.4zM155 114.3c0 2 .5 3.9 1.1 4.2.7.5.8-.5.3-3.2-.9-5.1-1.4-5.4-1.4-1zM142.5 117.7c-.3 1.5-1.8 4-3.3 5.5-1.4 1.6-2.1 2.8-1.5 2.8 2.5 0 7.6-9 6-10.6-.2-.3-.8.8-1.2 2.3zM165 118.8c0 1.2 1.9 2.6 2.6 1.9.2-.2-.2-1-1.1-1.7-.9-.8-1.5-.8-1.5-.2zM310.1 125c-.1 2.8 4.9 12.2 8.9 16.7 2.5 2.9 4.7 6.9 6 10.7 1 3.4 1.9 5.2 1.9 4.1.1-3.4-4.4-13.1-8.2-17.7-2-2.5-4.8-6.9-6.1-9.9-1.4-3-2.5-4.7-2.5-3.9zM232.2 132c0 3.6.6 8.1 1.4 10l1.4 3.5-.6-4c-.4-2.2-1-6.7-1.4-10l-.7-6-.1 6.5zM113.7 135.3c-2.1 6.7-2.1 8.3-.1 3.7 2.3-5 3.4-9 2.5-9-.4 0-1.5 2.4-2.4 5.3zM128.7 147.1c-1.5 6.4-2.7 13.8-2.7 16.5 0 5 2.8 12.5 5.1 14 .7.4.2-1-1.2-3.2-3.3-5.4-3.3-16.7 0-27.5 1.3-4.2 2.1-8.5 1.9-9.5-.2-1-1.6 3.3-3.1 9.7zM240 156c.6 1.1 1.3 2 1.6 2 .2 0 0-.9-.6-2s-1.3-2-1.6-2c-.2 0 0 .9.6 2zM133.1 164.8c-.1 4.1 3.4 13.1 4.6 11.8.3-.3-.2-1.7-1.2-3.2-1-1.5-2.1-5-2.5-7.8l-.8-5.1-.1 4.3zM243.1 165.6c0 1.1.3 1.4.6.6.3-.7.2-1.6-.1-1.9-.3-.4-.6.2-.5 1.3zM138 169.3c0 2.6 3 6.7 4.9 6.7 1 0 1.2-.3.5-.8-.6-.4-2.1-2.3-3.3-4.2-1.4-2.3-2.1-2.9-2.1-1.7zM260.6 170.5c-1.6 1.2-1.7 1.5-.4 1.5.8 0 2.1-.7 2.8-1.5 1.6-1.9.1-1.9-2.4 0zM266 172.5c-.7.8-.8 1.5-.2 1.5.5 0 1.5-.7 2.2-1.5.7-.8.8-1.5.2-1.5-.5 0-1.5.7-2.2 1.5zM288 172c-.8.4-2.6 1.3-4 1.8l-2.5 1.1h2.6c1.5.1 3.7-.8 5-1.9 2.4-1.9 1.7-2.6-1.1-1zM306.6 174.7c-1.6 2-2.3 3.4-1.6 3.1 1.6-.5 5.6-5.6 4.9-6.2-.3-.3-1.8 1.1-3.3 3.1zM296.9 174.6c-1.3 1.5-1.8 2.5-1 2.2 1.3-.4 4.9-4.8 3.9-4.8-.2 0-1.5 1.2-2.9 2.6zM146.2 174.5c.9 1 2.1 1.6 2.8 1.3.7-.2-.1-1-1.6-1.7-2.7-1.2-2.8-1.1-1.2.4zM153 175c0 .9 3.9 2.5 4.6 1.8.2-.3-.7-1-2.1-1.6-1.4-.6-2.5-.7-2.5-.2zM187.3 203.3c-1.1 1.2-4.3 5.8-7 10.2-2.7 4.4-7 10.9-9.6 14.5-3 4.1-4.3 6.6-3.5 6.9 1.6.5 5.8-4.6 11.5-13.9 2.5-4.1 6.3-10.1 8.4-13.2 3.8-5.8 3.9-8.6.2-4.5zM168.2 209.5c-4.2 4.8-5.1 6.5-3.3 6.5 1.5 0 8.3-8.8 7.9-10.1-.2-.6-2.3 1-4.6 3.6zM183.7 221c-1.6 2.7-2.4 5-1.8 5 1.4 0 5.3-6.7 4.9-8.5-.2-.9-1.5.5-3.1 3.5zM226.6 200.6c-3.1 2.5-5.6 5-5.6 5.5 0 .6 2.7-1.4 6-4.3s6-5.4 6-5.5c0-.8-1.3.1-6.4 4.3zM232.5 200.5c-1.6 1.4-2.5 2.5-1.8 2.5s2.5-1.1 4-2.5c3.6-3.2 1.7-3.2-2.2 0zM260.4 207.3C254.2 211.8 245 222 247 222c.6 0 4.4-2.9 8.3-6.4 4-3.5 8.5-7.5 10.1-8.9 5.3-4.3 1-3.9-5 .6zM278 207.6c-8.1 4.6-15.4 11.4-12.2 11.4.4 0 3.9-2.4 7.9-5.3 3.9-3 8.2-6.1 9.5-7 3.8-2.7-.2-2-5.2.9zM284 213.5c-1.9 2.3-.1 3.9 2.1 1.9 1-.9 1.6-2.1 1.3-2.5-.8-1.3-2-1.1-3.4.6zM24.5 165.1C14.7 176 12.2 182.8 11.6 201c-.6 19-1.8 23.5-7.2 28.5C.6 233 0 234.1 0 237.7c0 4.3 1 5.7 5.1 6.6 4.6 1.1 5.3 4.4 5.9 27.7l.5 21.5 3.3 6.9c3.6 7.6 9.6 15.6 11.6 15.6 1.7 0 9.6-7.6 9.6-9.1 0-.6-1.8-3.7-3.9-6.9-5.4-7.9-6.3-12-6.7-30.5-.4-17.4-1.4-23.3-5-28.2-2.9-3.9-3-6-.5-8.7 1.1-1.2 2.9-5.3 4-9.3 1.6-5.9 1.9-9.2 1.5-18.2-.5-10.2-.3-11.4 2.2-17.8 3.2-8.1 6.9-13.3 9.5-13.3 3.9 0 1.5-4.8-5-9.9l-3.9-3.1-3.7 4.1zM408.4 163.3c-1.1.7-3.7 2.5-5.7 4.1-3.3 2.5-3.6 3.1-2.3 4.5.7.9 2.9 4.3 4.7 7.6l3.4 6 .5 19.5c.6 20.9 1 22.9 6.4 27.9 2.8 2.7 3.4 5.9 1.2 6.7-.8.3-2.8 3.2-4.6 6.5-3.1 5.9-3.2 6.2-3.9 24.8-.8 20.4-1.7 23.7-7 26.1-2.2 1.1-2.3 1.3-.9 1.9 1.5.5 1.4 1.1-1.1 4.9-3.1 4.5-3.1 8-.2 8.9.9.3 2.6 1 3.8 1.5 2.9 1.4 4.3.2 9.8-8.2 5.9-8.9 7.5-15 7.5-28.4 0-6.5.6-13.4 1.5-16.6 1.8-6.7 8.2-16.4 11.2-16.8 2.1-.3 2.1-.4 3.5-11.2.2-2-.4-2.8-2.9-3.9-2-.9-4.1-3.1-5.8-6.3-2.6-4.8-2.7-5-2.3-23.1.3-18 .3-18.3-2.4-23.7-2.4-5.1-9.9-14-11.6-14-.4.1-1.6.6-2.8 1.3z"/></svg>