<svg xmlns="http://www.w3.org/2000/svg" width="717.64368" height="598.33136" viewBox="0 0 717.64367 598.33135"><defs><clipPath id="a"><path d="M0 841.89h1190.55V0H0z"/></clipPath></defs><g clip-path="url(#a)" transform="matrix(1.33333 0 0 -1.33333 -434.87822 860.42534)"><path d="M683.2803 548.3407c-1.588-4.547-4.994-9.127-9.385-11.347.173 1.118.116 2.446-.202 3.683 1.15.094 1.956.544 2.575 1.204-.461-.847-.936-1.686-1.479-2.498-.384-.573.424-1.06.887-.685 1.073.868 1.461 2.514 2.106 3.705 1.069 1.975 2.506 3.667 3.809 5.486 2.636 3.678 2.708 6.157 2.362 10.548-.041.52-.819.536-.821 0-.034-4.659-.925-7.611-3.764-11.352-.451-.594-.854-1.207-1.23-1.83.278.641.569 1.286.923 1.891 2.104 3.587 2.213 8.338 2.015 12.383-.018.361-.608.489-.67.09-.488-3.111-.151-6.628-1.074-9.595-.58-1.864-3.731-8.559-5.771-8.746-.015-.002-.026-.009-.041-.012-.161.482-.369.935-.618 1.348 1.954 1.687 3.116 4.613 3.982 6.891 1.56 4.109.153 8.29.864 12.44.064.373-.496.539-.576.158-.689-3.275-.08-6.692-.808-9.984-.667-3.015-2.542-5.871-4.245-8.515-.658.629-1.493 1.019-2.534.989-1.168-.033-1.853-1.475-1.018-2.328 2.246-2.292 1.36-6.208.599-9.526-.145.284-.345.551-.54.831-.657.945-1.334 1.876-1.979 2.83-.882 1.304-1.702 3.291-3.263 3.901-.474.185-.752-.554-.338-.802 1.347-.808 2.191-3.105 3.032-4.38.775-1.175 1.761-2.34 2.389-3.594.088-.177.229-.246.373-.243-.108-.51-.199-.995-.257-1.444-.568-4.305-.017-7.999.097-12.265.011-.401-.004-.807-.012-1.212-.582.998-1.296 1.92-1.936 2.885-.128.194-.502.074-.401-.169.094-.226.201-.446.306-.667-.569.693-1.131 1.393-1.72 2.077-.705.818-1.369 1.619-1.976 2.458.029.192-.088.395-.316.475-.276.839-.287 1.801-.225 2.762.228-.312.457-.623.702-.927 1.313-1.626 2.555-3.839 4.158-5.175.296-.246.856-.205.943.249.25 1.307-1.024 2.449-1.642 3.522-.216.375-.818.126-.7-.295.045-.158.135-.346.239-.545-.484.664-.948 1.345-1.428 1.913-.764.904-1.499 1.798-2.136 2.753.018.19.038.379.054.563.237.058.447.204.53.439.077.217.121.459.178.691.213-.896.517-1.74.965-2.449.352-.555 1.396-.742 1.727 0 .201.452.314.933.367 1.433.112-.091.223-.185.339-.265.406-.28.839.106.885.508.122 1.067-.472 2.102-1.189 2.864-.085.09-.193.124-.301.123-.263 1.307-.618 2.604-.73 3.744-.055.562-.387.92-.786 1.067-.539 1.983-1.732 3.642-3.623 3.635.182.036.365.062.546.103 3.726.849 6.668 3.658 9.477 6.137.396-.217.898-.278 1.396-.064 1.057.456 1.277 1.048 1.687 2.017 1.047 2.471 1.575 7.343 1.467 10.109-.208 5.341-2.719 9.449-4.106 14.374-.204.723-1.355.412-1.143-.313.959-3.272 1.713-6.321 2.127-9.734.347-2.847.384-5.4-.268-8.213-.204-.88-.444-3.501-.948-5.025-1.849.653-3.673 1.123-5.511 1.459 4.878 4.148 3.949 9.209 2.613 15.232-1.5 6.76-5.972 11.88-9.11 17.909-.193.37-.737.045-.556-.326 2.245-4.615 5.731-8.969 7.559-13.765 2.563-6.721 2.384-12.806-1.153-18.824-.022-.037-.013-.07-.02-.105-2.613.435-5.279.638-8.147.777-5.645.272-11.038 1.626-16.654 2.171-6.372.619-12.879 1.698-19.386 2.44 1.618 1.533 3.168 2.952 4.03 5.052.15.361-.338.672-.637.49-.359-.218-.527-.489-.748-.847-.323-.524-.706-.998-1.108-1.463-.755-.872-1.585-1.67-2.366-2.513-.186-.2-.186-.432-.091-.615-.707.077-1.414.15-2.121.217.124.026.243.089.298.226.899 2.262.853 4.936.622 7.314-.227 2.328-1.362 4.347-1.517 6.663-.033.499-.799.51-.785 0 .059-2.171 1.022-3.987 1.265-6.119.304-2.661-.258-5.134-.301-7.761-.003-.17.092-.258.206-.304-.936.087-1.873.161-2.808.226.416 1.04.217 2.304.041 3.385-.324 1.993-.73 4.005-1.378 5.912-.027.079-.148.047-.126-.035.408-1.582.543-3.168.742-4.785.146-1.193.514-2.835.067-4.029-.042-.035-.074-.08-.09-.137-.021-.082-.044-.164-.065-.246-.001-.004 0-.008-.001-.012-.874.055-1.746.099-2.618.128.523 1.296-2.576 2.683-3.364 4.045-.96 1.66-1.181 4.31-1.788 6.195-1.401 4.363-2.112 8.89-3.511 13.26-3.322 10.379-7.484 20.487-6.246 31.684.043.396-.569.39-.617 0-.683-5.503-.681-12.327 1.127-17.565 2.757-7.982 4.332-14.902 5.27-23.39.213-1.92 1.453-9.84 4.102-14.221-.651-.022-1.302-.05-1.953-.092-11.732-.762-23.452-3.356-35.208-4.246-7.81-.591-15.689.08-23.513.056-4.423-.014-8.873.153-13.295-.104-1.959-.114-4.203-.537-6.33-.508.014.174.002.356-.077.544-3.164 7.513-2.964 15.786-1.04 23.657 1.183 4.835 1.473 10.813 3.391 15.42.325.782-.935 1.128-1.253.347-1.193-2.925-1.261-6.5-2.287-9.594-1.182-3.564-2.746-7.137-3.773-10.739-1.553-5.452-1.405-14.552 2.341-19.268-.426.126-.838.29-1.231.5-3.998 6.013-4.67 13.411-3.457 20.635 1.253 7.461 6.764 12.761 6.398 20.711-.014.313-.47.313-.486 0-.313-6.377-3.816-10.443-5.966-16.082-1.3-3.409-1.499-7.368-1.516-10.977-.022-5.001.776-10.031 3.407-14.182-.604-.334-.975-1.076-.85-1.771-.036-.131-.052-.269-.041-.411.14-1.895 1.904-3.324 3.264-4.5.611-.529 1.259-.952 1.813-1.521.288-.295.573-.475.87-.598-.18-.058-.352-.133-.518-.218-.112.451-.411.858-.953 1.121-.224.108-.448.202-.671.299.099.104.126.288-.026.403-9.657 7.311-8.845 17.613-7.666 28.475.033.301-.432.342-.514.069-3.122-10.508-2.6-22.152 7.256-28.565-2.787 1.036-5.549 1.416-7.951 2.623-1.906 5.177-4.327 10.655-4.274 16.23.067 7.062 3.191 13.337 5.038 20.013.102.37-.443.51-.568.157-4.248-11.997-9.089-23.564-1.86-35.364-1.075.825-2.047 1.932-2.873 3.498-3.276 6.212-1.656 19.506.82 25.986 4.156 10.878 12.893 19.076 18.559 29.086 7.126 12.589 23.511 18.878 36.878 22.139-6.036-2.474-12.024-4.593-17.745-8.517-6.599-4.525-12.625-10.494-15.312-18.203-.098-.282.301-.425.457-.195 5.585 8.225 12.25 14.26 20.762 19.458 5.733 3.5 13.301 5.179 18.702 9.019 1.994.406 4.002.737 5.96.855 3.088.188 5.402-.284 8.344 1.019 1.128.5 2.505 1.331 3.75 2.338 1.207-1.258 2.45-2.251 3.142-2.603.533-.27 1.16-.434 1.831-.537-.573-.815-.819-1.858-.959-2.885-.293-2.147-.305-4.598.099-6.718.132-.694 1.137-.384 1.051.289-.377 2.969.04 6.42 1.376 9.187.398-.007.798-.001 1.201.017-.077-.05-.137-.119-.136-.224.013-1.382 1.056-2.822 1.621-4.049.417-.906.573-2.508 1.478-3.092.226-.145.571.1.474.365-.335.908-.587 1.841-1.009 2.715-.61 1.264-1.791 2.753-1.977 4.141-.011.079-.052.13-.104.165 1.406.084 2.793.276 3.892.399 2.141.239 4.878.351 7.219.816.124-.077.274-.136.453-.167 4.639-.807 8.849-2.245 13.375-3.55 5.339-1.54 10.722-2.708 15.718-4.823-.007-.299.134-.605.486-.738 5.863-2.224 12.154-13.076 14.805-18.805 1.896-4.095 3.589-8.84 4.709-13.195.552-2.145.659-4.241 1.461-6.3 1.444-3.707 3.947-5.662 6.373-8.708.312-.392.988.122.716.544-2.274 3.526-4.803 6.37-5.74 10.58-1.074 4.827-2.022 8.909-3.735 13.568-1.504 4.096-3.563 7.8-6.155 11.278-1.736 2.331-3.265 4.921-5.073 7.187.012-.01.023-.018.036-.028 4.616-3.729 7.877-9.156 10.192-14.613 1.781-4.194 2.292-7.934 5.68-11.02-.166.007-.344-.114-.3-.331.815-3.974 2.804-9.146 5.275-12.479 1.478-1.995 3.408-3.232 4.641-5.486 1.573-2.874 3.064-7.371 3.372-10.5.031-.303.506-.307.477 0-.356 3.745-2.012 9.395-4.027 12.693-1.477 2.417-3.811 4.155-5.228 6.714-1.501 2.709-3.148 6.222-3.954 9.158 5.516-5.001 10.238-8.839 13.263-15.983 1.453-3.435 3.112-6.772 4.231-10.334 2.008-6.395 4.216-13.886 1.921-20.454m-18.981-45.202c-.501-.656-1.117-1.256-1.789-1.829-.048.461-.289.908-.439 1.35-.075.222-.427.197-.422-.057.001-.065.023-.158.042-.25-.533.835-1.113 1.648-1.596 2.509-.807 1.445-1.419 2.992-2.063 4.513-.138.326-.588.243-.76.001-.028.146-.055.292-.081.439.138.05.257.139.331.274.21.381.426.799.643 1.234.969-2.573 2.686-5.064 4.503-6.964.247-.259.67-.119.769.203.014.042.027.083.039.124.067.211-.061.371-.234.436-.931 1.328-2.027 2.521-2.905 3.904-.263.413-.504.835-.749 1.255.097.046.187.112.25.22.39.683.768 1.36 1.124 2.043.305-.428.624-.838.937-1.224 1.146-1.407 2.545-4.049 4.25-4.801.069-.031.137-.029.204-.035-.573-1.172-1.255-2.296-2.054-3.345m-3.236-14.251c-.274.003-.555-.112-.675-.392-.23-.538-.439-1.086-.663-1.628-.007.042-.014.083-.022.124.562 1.874.27 4.191.102 5.724-.052.483-.137.97-.239 1.46.079.037.158.076.237.115.324-1.413.834-3.319 1.26-5.403m-2.392-13.941c.126 1.382.198 2.767.223 4.154.282.865.541 1.738.792 2.614.425-.238.969.136.894.556-.093.518-.19 1.037-.286 1.555.331 1.146.686 2.284 1.08 3.41.794-4.708.838-9.883-2.703-12.289m-14.464-41.571c.057 1.011.038 2.024.001 2.989.311.778.62 1.557.913 2.338.492.836.949 1.697 1.377 2.573.048-.079.086-.164.136-.241.159-.248.534-.267.782-.132-.553-2.632-1.602-5.259-3.209-7.527m-2.612-2.885c.119.209.24.416.351.629-.021-.128-.042-.256-.064-.384-.093-.084-.192-.163-.287-.245m-4.804-.089c.109-.461.261-.906.468-1.324-.212.333-.417.669-.616 1.01.05.105.101.211.148.314m-2.481.197c-.031.258-.049.414-.05.423 0 .037.004.074.003.111.054-.099.106-.199.16-.298-.037-.078-.076-.157-.113-.236m-2.337-2.419c.122-.149.258-.285.408-.412-.165-.14-.347-.246-.548-.318.05.244.093.487.14.73m-6.978-5.873c-.009.001-.017-.003-.026-.002.966 2.115 1.628 4.358 2.197 6.144.317-1.004.757-1.928 1.358-2.593-.692-2.018-1.789-3.696-3.529-3.549m-3.445-2.313c.173 1.307.335 2.498.46 3.365.221.572.451 1.14.689 1.695.993 1.397 1.942 2.803 2.84 4.211-.865-3.218-1.988-6.683-3.989-9.271m-5.043-2.891c.71.838 1.412 1.686 2.1 2.543-.265-1.276-.506-2.682-.618-4.069-.618.369-1.147.925-1.482 1.526m-4.177 1.252c.116.093.215.201.26.342l.004-.004c.293.776.582 1.563.873 2.346.271-.042.554.016.758.227.152.156.291.321.432.486-.001-.004-.002-.007-.003-.01-.213-.458-.368-.933-.473-1.413-.22-.683-.435-1.367-.653-2.055-.307-.966-.776-1.897-1.244-2.825-.142.511-.281 1.016-.39 1.508-.014.067-.025.135-.039.203.166.395.325.794.475 1.195m-5.061.092c-.039-.067-.079-.148-.118-.22.321 2.878.271 5.747-.048 8.706 0 .027.002.054.002.082.004 1.248-.109 2.458-.273 3.653.468-1.577 1.004-3.511 2.117-4.857-.164-.342-.262-.688-.118-1.051.058-.146.181-.26.325-.346-.077-.989-.121-1.989-.098-2.989-.596-.991-1.208-1.976-1.789-2.978m-3.474-10.104c.089.812.097 1.6.094 2.223-.006 1.873-.295 3.863-.548 5.718-.101.729-.289 1.434-.517 2.127.553.913 1.139 1.845 1.68 2.796-.317-1.7-.621-3.402-.717-5.125-.027-.488.613-.712 1.063-.564-.006-.437 0-.876.009-1.314-.267-.317-.553-.606-.875-.822-.492-.333-.084-.953.454-.971.488-.016.915.12 1.295.348-.29-.941-.622-1.873-1.038-2.78-.266-.579-.569-1.119-.9-1.636m-4.112-3.868c.121.041.233.09.347.137-.215-.276.022-.546.335-.629-.042-.052-.085-.101-.127-.153-.049-.06-.076-.123-.095-.187-.158.277-.326.554-.46.832m-2.174-2.041c.21.062.424.147.641.248.086-.096.192-.181.286-.273-.326-.031-.636-.025-.927.025m-12.286 6.043c.22.197.284.485-.034.699-.145.098-.27.203-.407.303-.145.315-.294.628-.46.936-.089.164-.194.321-.288.482.196-.012.393.048.53.153.798-1.414 1.392-2.855 1.389-4.201-.261.535-.496 1.081-.73 1.628m-3.599 1.359c.295-.054.6-.091.915-.113.074-.069.156-.134.233-.203.21-.367.406-.735.596-1.103-.577.049-1.182.639-1.744 1.419m-9.224 8.583c.295-.499.603-.987.915-1.458-.23.141-.454.287-.672.438-.085.336-.166.676-.243 1.02m-.466-4.222c-.4.734-.717 1.502-.97 2.294.109-.096.217-.193.331-.285.194-.66.411-1.329.639-2.009m-3.18 3.142c-1.904.487-3.369 1.055-4.751 1.875 1.589-.431 3.194-.725 4.643-.748.092-.411.194-.815.306-1.214-.057.037-.123.067-.198.087m-13.735 10.195c.397-.21 1.032.079.897.539-.108.365-.202.729-.289 1.093.166.137.187.41-.043.51-.027.012-.051.029-.077.041-.291 1.393-.429 2.783-.375 4.155.508-.542 1.076-1.051 1.705-1.523-.04-1.129.146-2.28.56-3.523.634-1.9 1.727-3.746 2.593-5.575.192-.403.363-.798.572-1.174-.124.048-.253.095-.374.142-.124.047-.234.106-.356.156-1.593 1.33-3.249 2.956-3.198 4.655.022.715-1.253.706-1.319 0-.083-.889.207-1.766.702-2.606-.035.025-.069.051-.104.076-.472.956-.741 1.98-.894 3.034m-4.685 7.61c.042-.112.078-.233.121-.343-.059.069-.118.136-.177.205.018.046.04.091.056.138m-2.498 3.114c.317 1.745.677 3.493.954 5.202.018.114.033.228.051.342.217-.341.455-.671.714-.99-.357-1.764-.25-3.723.148-5.526-.092-.398-.207-.789-.336-1.175-.554.701-1.069 1.417-1.531 2.147m-1.901 8.622c.258-.233.718-.314 1.081-.043.077.058.148.119.224.177.374-2.006-.345-4.281-.568-6.213-.012-.098-.028-.196-.04-.294-.875 2.013-1.226 4.133-.697 6.373m-1.619 1.238c-.244 1.513-.602 3.02-1.01 4.514.158.525.305 1.052.443 1.581.394-1.738 1.052-3.382 1.998-4.747-.775-1.408-1.189-2.85-1.311-4.292.024.982.037 1.966-.12 2.944m-6.409 11.319c.867-1.494 2.234-2.616 4.204-3.057-.053-.242-.099-.483-.139-.724-.327.006-.663-.186-.694-.498-1.662.8-2.704 2.391-3.371 4.279m-5.198 24.896c.223.045.41.175.46.407.186.882.486 1.741.816 2.595-.007-.424.002-.855.021-1.293-.555-1.427-.831-2.95-.802-4.433-.102.909-.3 1.815-.495 2.724m-2.589 18.806c-2.328 3.25-3.501 7.207-3.732 11.163 1.884-.337 3.228 3.157 3.886 4.316.263.465-.399.824-.702.41-.078-.106-1.93-2.423-2.416-2.87.305.422 1 2.347 1.057 2.495.778 2.044 1.712 4.111 2.692 6.106.275-.611.673-1.201 1.056-1.772.018-.58.041-1.16.073-1.741-.713-1.515-1.396-3.043-1.969-4.622-1.018-2.806-2.7-6.895-1.869-9.912.162-.591.825-.67 1.251-.331.728.577.595.448 1.08 1.263.321.542-.379.974-.815.629l-.139-.085c-.047 3.075 1.367 6.71 2.429 9.478.022-.04.049-.077.071-.117-.02-1.229.102-2.322.453-3.003-1.096-1.542-1.18-3.26-.544-5.051-.598-1.187-1.167-2.386-1.623-3.627-.001-.002-.004-.004-.005-.006l-.134-.334c-.316-.787.825-1.078 1.249-.527.336.435.608.944.862 1.47-.113-.398-.221-.799-.329-1.205-.082-.306.197-.602.523-.645.038-.275.084-.55.143-.821-.119-.42-.253-.852-.411-1.301-.14-.394-.285-.791-.43-1.19-.648.574-1.235 1.173-1.707 1.83m-2.482 39.126c.721.703.418 1.794-.36 2.179.322.136.555.382.69.684.261-.08.525-.157.793-.225-.039-.047-.066-.103-.063-.174.035-.715.616-1.366 1.262-1.987-1.307-1.222-2.618-2.444-3.775-3.812-.031-.036-.073-.081-.108-.12.157 1.321.605 2.523 1.561 3.455m133.602-3.3c.595-.385.946-1.149 1.159-1.977-.327.731-.72 1.396-1.159 1.977m-.043-11.712c-.037.335-.068.671-.094 1.009.039-.075.075-.151.116-.225-.001-.129.001-.26-.002-.387-.004-.127-.012-.263-.02-.397m1.039-11.746c.003.007.004.015.007.022.183-.11.394-.177.631-.173.536-.7 1.106-1.376 1.694-2.026 1.01-1.119 1.985-2.408 3.085-3.501-.233-.775-.519-1.534-.835-2.281-.123.283-.29.521-.465.833-.139.248-.549.167-.584-.108-.982 1-1.815 2.302-2.67 3.291-.537.622-1.109 1.304-1.625 2.03.288.623.555 1.254.762 1.913m-2.116.658c.48 1.579.798 3.199.815 4.718.173-.162.354-.317.541-.463-.064-.443-.123-.886-.183-1.329-.238-.065-.442-.28-.334-.544.056-.136.134-.26.195-.393-.145-.9-.331-1.794-.657-2.67-.018-.048-.042-.095-.062-.143-.124.27-.226.545-.315.824m-51.868-84.684c-.228.676-.432 1.346-.623 1.99.223-.659.429-1.323.623-1.99m49.317 87.722c.251.758-1.107 1.073-1.39.323-1.258-3.35-.986-6.746-.473-10.165.109-.729.173-1.582.283-2.454-.212-.092-.388-.253-.424-.499-.305-2.034.139-3.891.678-5.757.012-.605.032-1.21.063-1.813-.152.993-.35 1.979-.578 2.93-.689 2.888-2.472 6.753-.833 9.621.406.711-.804 1.342-1.258.623-1.452-2.301-.942-4.757-.514-7.22.459-2.652.614-5.658 1.375-8.335-.487.455-1.573.329-1.555-.45.052-2.293.533-4.553 1.063-6.81-.344.053-.749-.106-.777-.489-.007-.104-.001-.208-.006-.313-.257 2.27-.387 4.553-.367 6.882.008.844-1.523.845-1.567 0-.288-5.472.387-10.54 1.374-15.825-.101-.057-.184-.14-.253-.246.001.005.001.009.002.013.111.841-1.42.817-1.555 0-.156-.947-.26-1.896-.335-2.846-.356.024-.731-.11-.811-.449-.744-3.129-.399-6.633.081-9.961-.137-1.983-.272-4.261-.893-6.005-.581 3.759-.896 7.631-1.352 11.232-.095.744-1.5.77-1.425 0 .387-3.925 1.054-7.818 1.442-11.743.069-.694.067-1.5.129-2.306-.715 3.549-1.432 7.112-1.562 10.764-.018.511-.928.517-.954 0-.105-2.083-.042-4.147.121-6.206-.079.353-.154.71-.233 1.063-.157.706-1.426.402-1.293-.296.417-2.198.632-4.382.997-6.57-.043-.782-.081-1.564-.119-2.347-.804 2.548-1.463 5.12-1.491 7.787-.009.793-1.474.797-1.477 0-.01-3.139.626-5.988 1.44-8.951-1.06 2.479-2.431 4.837-4.027 7.13-.249.358-.777.935-1.421 1.622-.43 1.207-.852 2.416-1.254 3.638-.235.712-1.579.409-1.344-.308.089-.269.18-.54.268-.809-.791.893-1.526 1.796-2.03 2.596-.193.444-.398.881-.614 1.312-.068.292-.066.548.039.749.078.148.055.278-.022.384 1.167.158 2.308.496 3.338 1.04 2.937 1.552 3.03 4.32 3.232 6.925.068.896-1.465.837-1.62 0-.088-.473-.172-.958-.273-1.438-.002-.002-.005-.001-.008-.003-1.287-.57-2.172-1.607-3.493-2.158-1.003-.418-2.185-.432-3.244-.147 1.042.438 2.021 1.027 2.895 1.807.363.323.02.777-.47.703-1.675-.253-3.005-.914-4.446-1.392-.051.052-.113.096-.16.151-.441.51-1.476.048-1.086-.495-.701-.147-1.453-.222-2.298-.164-.224.143-.447.287-.654.457 1.417.215 2.766.711 3.953 1.61.742.563-.181 1.622-1.038 1.159-.561-.303-1.126-.517-1.69-.687-.042.138-.156.258-.351.3-.633.137-1.268.264-1.903.389.61.391 1.145.868 1.58 1.429.48.256.982.563 1.551.924.278.177.266.671-.188.631-1.621-.142-3.304-.886-4.993-.693-2.275.258-4.526 2.151-6.28 3.209-.987.594-1.934 1.067-2.881 1.449.357-.044.705-.089 1.05-.141.163-.063.333-.123.483-.193.185-.087.386-.061.553.019.079-.014.168-.026.245-.041.411-.079.907.321.623.659-.639.761-2.025 1.031-3.291 1.188-.528.13-1.089.239-1.715.369-1.92.398-4.287 1.048-6.295.594-1.714-.388-2.789-1.273-3.376-2.374-.182-.204-.325-.424-.405-.662-.014.22-.024.44-.022.658.004.471.208.847.294 1.305.11.583-.887 1.118-1.266.45-.204-.361-.426-.64-.589-.954-.229.053-.492.009-.633-.199-2.243-3.312-.112-7.675 2.849-10.074.044-.035.095-.06.147-.08.691-1.456 2.19-2.38 3.703-2.803.312-.086.495.292.3.516-.412.473-1.209.595-1.734.946-.307.205-.599.434-.865.686.215.114.346.336.189.577-1.072 1.657-1.569 3.448-1.981 5.264.105-.025.208-.022.312.011.005-.954.153-1.892.482-2.764.475-1.257 2.196-3.013 3.808-3.262.106-.016.202-.012.29.003.511-.494 1.051-.962 1.624-1.41-.381.223-.742.486-1.113.805-.403.345-.99-.229-.588-.588.779-.696 1.978-1.876 3.11-1.392.052.022.078.061.104.1.245-.159.493-.315.751-.467 2.394-1.407 3.977-1.662 6.597-.494.437.195.153.843-.323.679-1.965-.675-3.597-.279-5.06.573 1.615-.48 3.297-.617 4.726-.239.472.125.62.522.466.829.196.039.384.133.509.261.939-.335 1.919-.613 2.918-.819.718-.568 1.661-.575 2.643-.903 1.408-.473 2.765-1.146 4.005-1.866 2.717-1.579 4.942-4.208 4.736-7.136-.023-.308.351-.553.705-.509.063-.217.126-.43.189-.652.128-.447.238-.881.359-1.303-.089.088-.164.182-.257.269-.445.421-1.356-.138-.971-.616.266-.329.5-.663.728-.997-.317.014-.637-.109-.704-.415-.668-3.049-.164-6.197-.119-9.332-.001-.002-.002-.003-.003-.004-.374-1.258-.71-2.52-1.032-3.783-.454.13-1.088-.172-.968-.697.131-.569.254-1.138.372-1.708-.057-.232-.116-.465-.173-.697-.016.227-.044.454-.096.683-.055.245-.357.372-.636.348.171.743.279 1.513.347 2.297.454-.135 1.053.141.917.663-.239.916.16 2.1.222 3.016.02.31.023.621.031.932.093.126.145.278.122.441-.041.307-.071.617-.094.927.001.303.002.606.007.908.017 1.067.034 2.132.002 3.194.043 1.022.085 2.042.064 3.051-.06 2.74-.587 5.444-.704 8.181-.029.664-1.196.672-1.242 0-.225-3.344.195-6.671.079-10.017-.028-.841-.141-1.719-.202-2.593-.432-1.465-.711-2.952-.879-4.449-.333.069-.739-.079-.758-.459-.042-.837-.138-1.68-.256-2.525-.347.131-.79.091-.988-.249-.866-1.491-1.695-3.017-2.467-4.562-.01.591-.038 1.163-.099 1.68-.069.59-.991.587-1.098 0-.22-1.219-.362-2.445-.585-3.661-.385.118-.899.019-.978-.377-.16-.805-.318-1.597-.527-2.375-.498-.594-.882-1.282-1.167-2.03-.288.346-1.036.373-1.248-.161-.129-.328-.275-.65-.413-.976-.018.002-.034.011-.052.012.138.728.284 1.437.464 2.104.209.773-1.173 1.108-1.415.329-.112-.366-.225-.731-.337-1.097-.31.204-.772.255-1.095-.036-1.284-1.162-1.85-2.532-2.474-3.957.146 1.015.503 1.986.93 3.023.327.792-1.08 1.078-1.452.337-.19-.376-.36-.757-.514-1.14-.428 1.652-1.13 3.26-2.368 4.795-.314.389-1.08.256-1.172-.16-.842 2.173-1.815 4.393-2.437 6.572-.129.456-.908.336-.952-.108-.008-.081-.001-.164-.003-.246-.065 2.763-.281 6.26.849 8.508.261.521-.774.892-1.076.383-1-1.687-1.298-3.989-1.411-6.221-.129.797-.273 1.588-.379 2.356-.089.646-.246 1.301-.41 1.96-.059.755-.239 1.537-.413 2.327.339.636.686 1.27 1.059 1.902.397.673-.539 1.272-1.128.937-.059.114-.151.206-.271.269.059.596.223 1.184.554 1.755.288.495-.462.864-.857.425-.006-.007-.011-.015-.018-.022-.01.271-.036.541-.042.813-.013.617-1.111.621-1.149 0-.126-2.052-.2-4.155-.056-6.232-.318-.598-.621-1.199-.907-1.803-.363 1.572-.852 3.133-1.302 4.701.272.227.548.451.829.667.54.415-.152 1.233-.768.858-.134-.081-.271-.166-.411-.253-.158.604-.304 1.211-.426 1.821-.102.508-1.142.4-1.094-.124.075-.82.234-1.625.42-2.425-.178-.125-.354-.253-.529-.386.008.029.016.056.024.085.214.807-1.178 1.149-1.477.343-.068-.183-.15-.35-.221-.529-.18.725-.333 1.454-.462 2.188-.129.736-1.226.608-1.554.055-.09.005-.186-.01-.283-.062-2.008-1.097-.613-3.93-.341-5.553.071-.422.128-.839.19-1.259-.485-.75-.989-1.488-1.508-2.224-.119 1.249-.269 2.486-.495 3.695-.105.561-1.157.417-1.171-.132-.051-1.906.004-3.835.122-5.762-.067-.096-.134-.192-.2-.289.058.433.098.868.099 1.306.001.628-1.013.713-1.267.144-.781-1.752-1.079-3.505-1.119-5.266-.979-2.22-1.143-4.39-.572-6.838-.384-.008-.766-.216-.78-.63-.05-1.442-.172-2.865-.331-4.281-.096.516-.176 1.031-.217 1.543-.042.521-.726.676-1.126.473-.235.358-.477.698-.699 1.009-1.198 1.67-2.62 3.093-4.162 4.546-.537.506-1.403-.23-.908-.742 1.431-1.477 2.687-3.048 3.761-4.725.776-1.213 1.015-2.644 2.075-3.704.048-.047.101-.082.158-.11.163-.579.378-1.135.666-1.639-.145-.928-.305-1.855-.472-2.78-.607.744-1.224 1.482-1.855 2.212-.505 1.818-1.026 3.632-1.577 5.442-.171.561-.958.536-1.295.181-.047.28-.094.558-.173.811.136.153.276.297.421.434.605.568-.319 1.386-.975.834-.004-.003-.008-.007-.011-.01-.292.516-.637 1.024-1.053 1.576-.533.707-.889 1.483-1.397 2.197-.632.888-1.526 1.483-1.808 2.558-.214.815-1.58.446-1.471-.337.126-.899.479-1.465 1.048-2.215.625-.824 1.035-1.692 1.584-2.551.564-.883 1.246-1.677 1.738-2.596-.057-.067-.11-.136-.164-.205-.457 1.118-1.096 2.189-2.216 2.663-.006.009-.006.02-.012.029-.914 1.348-1.901 2.59-2.682 4.014-.121.22-.263.453-.411.689-.07.476-.129.953-.162 1.435-.03.422-.57.553-.899.388-.287.603-.48 1.214-.429 1.802.038.431-.659.538-.919.209-.937-1.183.3-3.067.851-4.18.182-.369.359-.741.539-1.11.206-1.187.488-2.366.77-3.547.183-.766.34-1.531.482-2.296-.01-.1-.017-.199-.029-.298-.234.221-.473.439-.703.663-.555.541-1.464-.238-.954-.78.289-.309.589-.609.88-.915-.305.008-.615-.16-.664-.52-.052-.39-.099-.797-.142-1.211-.233.522-.464 1.041-.696 1.552-.32.706-1.53.45-1.382-.317.208-1.079.539-2.181.97-3.28-.638.483-1.212 1.008-1.753 1.556.661 2.222 1.345 4.442 1.859 6.701.07.304-.316.638-.649.503.006 3.231-.18 6.572.754 9.705.167.561-.836.799-1.026.239-.32-.937-.534-1.867-.683-2.806-.127.55-.25 1.1-.361 1.65.216 1.895.334 3.786.841 5.673.136.506-.758.725-.927.216-.211-.641-.402-1.293-.564-1.951-.175 1.334-.316 2.67-.387 4.01.186 1.076.422 2.145.725 3.198.107.373-.386.661-.752.432-.006.029-.01.059-.016.088.063 2.664.335 5.34.884 8.034.051.249-.093.439-.293.54.076.401.152.668.222.693.513.183.19.734-.229.774-.061.006-.121.011-.181.017-.222.021-.483-.155-.533-.334-.002-.004-.003-.009-.004-.014-.029.051-.078.091-.162.085-.079.021-.157.041-.235.062.041.221.091.44.142.659.083-.007.165-.012.239.002 2.06-.495 4.055-.35 5.965 1.022.78.559 1.499 1.15 2.159 1.773.604.127 1.199.35 1.708.56.265.109.497.229.738.346-.204-.183-.407-.364-.61-.55-.542-.494.095-1.123.783-.875 3.137 1.13 5.254 3.754 7.011 6.114.359.483.687.967.998 1.455.043.054.079.107.119.16-.006-.165-.021-.331-.009-.496.027-.395.445-.607.817-.553-.085-.111-.171-.225-.257-.334-.491-.627-1.13-1.347-1.621-2.106-.694-.424-1.494-.613-2.229-1.031-.795-.451-.091-1.526.722-1.076.243.134.488.236.734.33-.028-.038-.058-.075-.085-.114-1.48-.912-2.957-1.845-4.708-2.122l.006-.015c-.254-.072-.342-.517-.006-.6.58-.142.963.126 1.52.274.673.179 1.264.28 1.912.573.42.188.832.394 1.237.612-.044-.249.108-.501.498-.512.424-.013.83.028 1.219.114-.189-.156-.192-.515.114-.621.626-.216 1.165-.426 1.811-.186.575.213 1.075.605 1.512 1.024.45.431.843.919 1.184 1.44.175.016.339.089.44.253.018.029.037.058.055.087.011.006.023.008.033.015.617.394 1.186.828 1.711 1.291-.125-.229-.249-.459-.386-.682-.377-.618-.765-1.649-1.587-1.674-.376-.012-.368-.55 0-.58 1.04-.084 1.379.469 1.897 1.28.335.524.817 1.155 1.047 1.811.046.019.093.038.131.067.191.143.353.313.507.488.017-.355.532-.693.997-.484 1.633.731 2.305 2.195 2.865 3.597.536 1.342 1.482 3.267.689 4.618-.141.241-.465.367-.773.376l-.261.008c-.246.008-.463-.148-.539-.337-.176-.44-.033-.615-.001-1.072.056-.791-.266-1.611-.513-2.37-.419-1.286-.836-2.893-2.08-3.825.34.508.621 1.057.937 1.543.706 1.085 1.114 2.256 1.502 3.437.088.269-.029.476-.224.602.337 1.38.17 2.998-.089 4.224-.027.124-.126.204-.247.247-.067.27-.137.545-.211.836-.056.222-.333.287-.554.227.023.223-.151.456-.49.481-.84.062-1.59-.106-2.283-.391-.094.062-.205.109-.342.114-1.084.039-2.195-.203-3.271-.628-.195.078-.442.07-.664-.089-.189-.136-.349-.299-.514-.457-1.365-.734-2.622-1.751-3.634-2.897.005.012.008.023.01.035.569.97 1.099 1.971 1.606 3.021.239.494-.732.843-1.017.362-.66-1.115-1.35-2.223-2.098-3.301-.094.06-.207.103-.34.111-1.809.105-3.825-.941-5.546-1.377-1.806-.458-3.82-.54-5.566-1.088-.506-.159-.505-.68-.023-.843 1.377-.467 3.29-.113 4.81.195-.38-.748-.911-1.452-1.525-2.106-.487-.125-.974-.26-1.477-.324-.277.176-.692.156-.939-.062-1.314-.031-3.295.124-2.845 1.186.122.289-.434.496-.592.211-.132-.239-.2-.458-.23-.664-.138.051-.272.104-.415.151-.703.231-1.184-.718-.542-1.019.695-.325 1.241-.814 1.96-1.106.259-.104.543-.173.819-.254-.956-.206-2.053-.434-3.13-.6-.034.012-.066.019-.099.031-.285.109-.559.067-.76-.053-.255.101-.568.02-.742-.172-1.724-.137-3.08.044-3.123.993-.025.552-.95.545-1.019 0-.199-1.573 1.916-2.081 3.41-2.242.247-.027.503-.036.757-.047.145-.282.356-.543.604-.765-2.34-.28-3.717.755-5.649 1.791-.615.329-1.551-.358-1.088-.89.213-.244.443-.463.677-.675.061-.285.133-.566.269-.836.133-.264.311-.515.504-.762-.216.109-.414.237-.602.373.162.242.094.599-.284.658-.146.023-.294.041-.441.06-.119.164-.234.332-.312.523-.198.481-1.106.291-.938-.215.018-.056.051-.102.071-.157-1.481.199-2.763.54-3.019 2.156-.226 1.425-.043 4.273 1.672 5.054.481.219.178.911-.357.749-2.656-.807-3.321-4.099-3.009-6.137.395-2.574 2.765-3.381 5.436-3.05.807-.95 2.029-1.594 3.424-1.946-1.131-1.35-1.354-2.945-1.449-4.654-.568-.798-1.016-1.639-1.232-2.534-.01-.044-.006-.083-.007-.123-.061-.054-.123-.106-.169-.186-.243-.415-.505-.865-.762-1.332-.11.419-.943.597-1.272.148-1.498-2.044-2.222-4.374-3.802-6.381-.147-.186-.302-.369-.451-.553-.283.864-.5 1.738-.634 2.623 1.506 1.213 2.827 2.68 3.814 3.574.668.604-.324 1.466-1.047.896-.97-.764-1.877-1.564-2.856-2.311.126.195.245.392.33.608.128.326-.054.559-.332.665.167 1.851.601 6.064 2.702 6.815.446.159.229.759-.221.743-3.078-.108-3.642-3.758-4.113-5.752-.127-.535-.22-1.072-.296-1.609-.08-.33-.157-.664-.231-1.006-.071 1.92.378 3.981.469 6.143.002.057-.008.107-.027.151.35 1.256.548 2.5.516 3.681-.011.373-.722.501-.819.093-.208-.864-.536-1.716-.921-2.561-.189.138-.448.202-.701.146.333 1.713.704 3.417 1.176 5.103.184.656-.967.934-1.202.279-.1-.28-.176-.565-.27-.846-.184.4-.908.576-1.304.103-.438-.523-.712-1.119-.935-1.737-.276.202-.76.21-1.017-.119-.144-.184-.276-.373-.401-.565.01.441.03.88.068 1.315.202 2.348.202 6.168 3.187 7.273.657.243.219 1.173-.462.969-1.695-.507-2.705-1.572-3.328-2.855-.005.005-.01.009-.016.014.879 2.134 1.43 4.399 1.852 6.379.148.694-1.087 1.009-1.277.296-.654-2.458-1.574-4.867-2.63-7.236-.084.309-.168.619-.249.928.419.882.783 1.796 1.067 2.726.177.081.297.237.224.441-.018.047-.034.099-.051.146.113.424.203.85.276 1.275 1.067 3.431 1.157 6.955 2.023 10.546.169.702-1.077 1.015-1.29.3-.397-1.338-.617-2.682-.828-4.028-.263-.222-.516-.451-.738-.702-.261.469-.573.921-.951 1.352.023 1.121.151 2.228.404 3.288.012.01.022.021.035.03.168.136.168.309.082.445.553 1.979 1.576 3.763 3.274 5.085.557.433-.162 1.289-.798.892-.028-.017-.049-.034-.077-.052 2.485 4.483 2.822 9.533-1.169 13.505-.005-.008-.011-.016-.017-.024-.136.111-.334.136-.512.101-.482 2.023-1.435 4.053-2.135 5.657-.031.071-.064.141-.095.211.11 1.091.421 2.062 1.178 2.608.464.336-.105.95-.623.696-.712-.351-1.149-.847-1.433-1.412-.021.044-.042.088-.064.131.154.555.303 1.085.409 1.563.473 2.131 1.002 4.094.781 6.269-.061.603-1.001.591-1.111 0-.24-1.296-.52-2.582-.81-3.867-.006.437-.005.874-.015 1.311.047.182.097.359.141.547.281 1.197.594 2.397.789 3.604.129.799.028 1.807.074 2.758.938.952 1.802 1.978 2.665 3.001.545-.268 1.036-.389 1.538-.006.059-.003.117-.012.176-.014-1.143-1.11-2.298-2.206-3.538-3.193-.354-.281.119-.902.486-.631 1.315.972 2.657 2.079 3.912 3.263.06-.047.118-.095.179-.141-.418-1.046-.778-2.186-1.068-3.462-1.28-5.626-.25-11.227 2.296-16.333 6.719-13.476 23.639-14.598 35.61-6.131 4.819 3.409 8.848 10.57 9.462 17.21.076.025.151.036.228.082.075.044.155.076.231.117.182-.211.455-.327.787-.255 1.899.404 3.722 1.152 5.553 1.629.482.022.958.039 1.422.056 1.28.048 2.717.186 3.94-.286.617-.238 1.057-.643 1.703-.794.208-.049.392-.011.553.069.921-.439 1.96-.848 2.802-.792.366-6.591 4.044-13.657 8.667-17.036 11.584-8.467 28.555-7.345 35.89 6.131 2.779 5.106 4.065 10.707 3.042 16.333-.136.749-.304 1.442-.487 2.11.182.1.314.238.485.487.026.038.022.081.036.121 1.045.985 2.013 2.093 3.028 3.097.257.255.498.525.749.785-.029-.283-.06-.567-.09-.851-.744-.997-1.456-2.032-1.947-3.108-.187-.411.206-.896.646-.646.443.253.738.673.996 1.121-.06-.496-.108-.991-.173-1.487-.22-1.689-.577-3.639.723-5.033.045-.048.095-.079.147-.109.076-1.198.448-2.355 1.192-3.428.015-2.391-.77-4.804-1.61-7.085-.214-.58-.514-1.2-.8-1.833-.005 1.824.223 3.601.762 5.229m-.09-16.422c-.092.041-.188.067-.293.079-.022.127-.043.253-.062.379.107-.161.226-.313.355-.458m-5.851-37.101c.109.831.186 1.663.239 2.495.185-.71.435-1.393.77-2.024.112-.21.333-.289.564-.283-.345-.854-.758-1.735-1.246-2.574-.124.776-.233 1.578-.327 2.386m-1.255-7.002c.16.073.312.154.459.243.002-.01.004-.02.007-.03-.023-.051-.044-.103-.066-.155-.133.013-.272-.009-.4-.058m-2.515-14.316c-.038-.788-.116-1.588-.245-2.394-.028.488-.073.975-.138 1.458.131.311.259.623.383.936m-7.838-13.225c.197 1.344.398 2.694.56 4.044.526 1.992.986 3.985.869 6.083-.02.337-.384.543-.727.542-.012.104-.012.21-.027.314-.037.264-.084.528-.134.791.086.155.168.325.24.533.157.457-.157.767-.56.855-1.137 4.241-3.66 8.393-5.245 12.421-.062.157-.177.252-.309.301-.019.625-.095 1.252-.214 1.876.324-.954.722-2.014 1.778-2.306.663-1.52 1.462-3.008 2.242-4.484 1.01-1.914 1.869-5.002 3.286-7.405.243-1.44.424-2.89.534-4.343-.459-1.293-.86-2.579-.966-3.84-.007-.093.025-.176.077-.249-.162-.216-.312-.433-.484-.647-.414-.517.048-1.006.609-1.093-.433-1.155-.924-2.313-1.529-3.393m-1.095 5.626c-.04-.522-.086-1.046-.144-1.569-.001-.002-.001-.005-.002-.007-.213-.682-.393-1.367-.554-2.054-.026.272-.049.544-.066.811.3.938.554 1.876.766 2.819m-9.246-3.736c-.005-.323-.01-.646-.029-.971-.032-.565-.152-2.054-.473-3.701-.396.497-.648 1.133-.802 1.82.511.871.942 1.833 1.304 2.852m-11.109-8.354c.305.101.542.346.445.694-.042.153-.064.322-.1.48.211.759.393 1.519.518 2.278.067.407-.375.664-.813.674.002.157.003.313.011.471.046.019.099.023.145.046.109.053.216.117.318.186.019-.015.032-.033.05-.047.141-.111.347-.136.528-.096.187-1.212.498-2.329.907-3.245-.208-.423-.404-.854-.581-1.294-.822-1.067-1.624-2.147-2.415-3.234.32 1.028.668 2.058.987 3.087m-2.612 3.384c.205.195.404.395.595.601-.374-.796-.766-1.588-1.194-2.37.205.589.4 1.179.599 1.769m-2.584 2.129c-.309-.356-.554-.744-.745-1.157.399 1.039.77 2.099 1.336 3.072-.197-.638-.393-1.277-.591-1.915m11.343 11.326c-.242-.39-.463-.795-.666-1.215-.005.134-.006.266-.004.397.317.706.649 1.406.974 2.109-.094-.433-.196-.862-.304-1.291m-2.817-11.935c.565.005.803.404.763.798.152.285.33.573.518.862-.136-.564-.316-1.124-.53-1.684-.215-.304-.425-.611-.629-.921-.037.31-.078.625-.122.945m2.827 6.84c.401.485.704 1.039.936 1.621.054.001.107.01.161.023-.33-.597-.69-1.186-1.069-1.763-.009.04-.019.08-.028.119m-2.287.661c.107.242.215.484.322.726.049-.191.099-.381.15-.573-.352-1.281-.58-2.562-.721-3.723-.022-.184.117-.35.307-.439-.31-.431-.612-.864-.892-1.303-.088.752-.145 1.504-.151 2.244.01.177.009.358.005.539.005.142.013.282.023.422.334.748.674 1.467.957 2.107m-10.418-13.288v-.001zm-.246-.545c-.164-.36-.327-.73-.482-1.105-.004.016-.006.033-.009.05.167.35.33.702.491 1.055m15.339 11.94c-.137-.169-.275-.337-.413-.505-.099-.068-.172-.163-.224-.273-.38-.462-.759-.92-1.135-1.379-.026.313-.065.629-.115.947.952 1.202 1.904 2.431 2.553 3.69-.21-.828-.439-1.654-.666-2.48m4.922 20.975c-.116-.103-.178-.25-.127-.423.13-.44.103-1.618-.019-3.1-.042-.004-.083-.009-.124-.018-.061 1.29-.059 2.579.076 3.87.062-.11.135-.218.194-.329m-5.684 14.753c.073-.023.143-.048.216-.07-.308-.157-.442-.487-.345-.774-.196.103-.386.21-.589.308-.284.139-.577.263-.868.392.552.026 1.085.071 1.586.144m-13.041 4.469c.163-.025.322-.059.488-.08.547-.069.923.291.984.647.012-.004.022-.007.034-.011.973-.848 2.037-1.669 3.134-2.448-1.561.502-3.278 1.044-4.64 1.892m-5.301-1.246c.451-.132.91-.241 1.373-.323 1.067-.491 2.19-.827 3.342-.935.179-.134.36-.261.547-.376-1.485.187-2.982.281-4.319 1.014-.32.176-.639.387-.943.62m-4.119 2.272c-.117.019-.237-.002-.344-.048-.441.656-.746 1.373-.943 2.121.217-.765.671-1.461 1.287-2.073m-1.342 3.921c-.131-.623-.112-1.217.035-1.775-.155.608-.236 1.237-.256 1.871.069-.035.14-.067.221-.096m-3.968.635c.01-.121.011-.239.026-.361-.04.163-.081.325-.108.489.024-.044.052-.086.082-.128m34.912-9.932c.117.092.165.204.17.316.848.186 1.733.556 2.534 1.03-.434-.536-1.001-.998-1.814-1.322-.493-.196-.976-.307-1.457-.383.196.104.386.218.567.359m-2.158-3.095c-.175-.143-.27-.34-.163-.563.437-.92.804-1.864 1.158-2.811-.183.284-.369.566-.566.842-.027.097-.053.194-.081.291-.057.2-.217.32-.407.382-.651.885-1.31 1.765-1.88 2.691.711-.124 1.436-.181 2.164-.161-.127-.208-.199-.433-.225-.671m2.188-19.858c.104-1.701.018-3.412-.441-5.312-.052.765-.111 1.53-.173 2.294.306 1.003.469 2.049.614 3.018m-2.382-9.292c-.011-.178-.031-.357-.047-.535-.008.046-.018.09-.028.135.026.135.05.267.075.4m-19.698 38.41c-.083.142-.151.293-.218.446.467-.203.944-.386 1.381-.556.146-.111.301-.211.458-.311-.556.113-1.097.252-1.621.421m-4.05-.102c-.452.359-.869.765-1.288 1.172.006.016.017.031.024.047.548-.524 1.342-.966 1.862-1.251.425-.233.86-.437 1.303-.621.294-.372.599-.743.922-1.112.041-.046.088-.1.13-.148-.127.015-.252.033-.377.049-.906.547-1.742 1.2-2.576 1.864m1.691 3.511c-.169.068-.339.134-.509.202-.068.194-.128.392-.177.593.409-.148.808-.311 1.209-.47-.206-.042-.391-.148-.523-.325m4.517-1.784c-.981.513-1.926 1.013-2.824 1.436-.064.029-.127.041-.189.054.006.084-.002.159-.03.228.542-.239 1.075-.491 1.576-.774.599-.338 1.2-.687 1.793-1.041-.112.03-.215.066-.326.097m-3.623-.537c.009-.005.019-.01.027-.015-.003-.002-.008-.003-.011-.005-.005.007-.011.013-.016.02m-3.954 1.884c-.047-.035-.085-.07-.131-.104-.086-.044-.163-.1-.222-.176-.168-.137-.321-.277-.458-.417-.195.449-.369.908-.513 1.393-.07.239-.185.557-.301.904.832-.667 1.826-1.24 2.879-1.722.062-.206.139-.405.217-.604-.076.054-.147.113-.227.163-.054.034-.088.047-.113.052.117.459-.584.902-1.131.511m-1.417 2.662c-.151.12-.295.247-.433.379.073.05.146.103.223.146v-.019c0-.171.075-.363.21-.506m.23-.161c.705-.267 1.431-.52 2.161-.774-.01-.04-.028-.077-.025-.122.006-.11.027-.213.037-.32-.813.359-1.583.762-2.251 1.262.027-.015.048-.035.078-.046m2.277-3.127c0 .001.002.002.002.003 0-.002-.002-.002-.002-.003m27.791-38.716c-.086.025-.178.035-.272.029.058.201.112.399.167.596.032-.208.068-.417.105-.625m2.723 1.105c-.021.406-.033.811-.043 1.217.116-.12.238-.23.362-.336-.116-.291-.218-.586-.319-.881m11.539 16.397c.003.001.005.001.008.001.251-.037.523.003.72.155.006.004.01.012.016.017.124.039.247.08.363.129-.109-.061-.204-.143-.257-.256-.21-.45-.404-.902-.59-1.354-.088.435-.181.868-.26 1.308m-.752-3.852c.016-.027.033-.053.05-.079-.049-.148-.101-.295-.149-.443-.009.052-.02.104-.03.157.034.127.075.251.129.365m7.211 39.999c.127-.498.523-.894 1.156-.959.049-.418.099-.835.15-1.253-.077-.84-.157-1.68-.259-2.519-.05-.412-.112-.821-.176-1.23-.687 2.452-1.45 4.851-1.708 7.034.074-.209.141-.424.225-.628.106-.255.348-.402.612-.445m-.558-17.779c.025-.163.047-.331.071-.496-.088.462-.165.928-.234 1.39.056-.298.115-.596.163-.894m-26.222-4.366c.101-.069.2-.138.305-.202-.235.035-.463.087-.693.131.129.024.26.042.388.071m-7.593 4.852c-.768.156-1.535.317-2.298.501-.33.08-.697.155-1.079.229-.887.456-1.651 1.331-2.438 1.828-1.043.659-2.088 1.399-3.222 1.954-.883.432-1.837.843-2.813 1.22.149.003.302.014.454.027 1.248-.352 2.459-.843 3.724-1.596 1.978-1.178 3.802-2.63 6.09-3.405.951-.323 1.719-.469 2.412-.496-.272-.104-.548-.191-.83-.262m-18.188-34.844c-.001.146.002.279 0 .431.11-1.122.685-2.286 1.071-3.377.02-.547.059-1.092.112-1.635-.484 1.508-.903 3.029-1.183 4.581m-1.628-20.1c.506 1.151 1.128 2.281 1.861 3.396.17-.171.324-.353.514-.513.196-.164.434-.198.654-.159-.412-.949-1.314-2.747-2.342-4.654-.247.639-.485 1.281-.687 1.93m-2.484-15.737c.159-.164.335-.32.522-.469-.12-.052-.242-.098-.365-.144-.066.202-.103.409-.157.613m-4.831-.366c-.019.014-.041.016-.061.028-.227.62-.418 1.287-.577 1.982v.002c.098-.111.188-.226.289-.335.269-.289.747.033.686.329-.123.602-.333 1.208-.591 1.813.113.59.223 1.179.349 1.767.15.704-.988 1.04-1.325.475-.181 2.298-.133 4.44-.012 5.713.128.294.255.578.386.829.278.533.549 1.069.82 1.606.414-.687.866-1.343 1.359-1.962-.606-1.573-1.256-3.136-1.874-4.707-.183-.462.47-.896.971-.635 1.145.596 1.935 1.636 2.513 2.844.119-.154.243-.303.367-.454-.045-.358-.096-.713-.127-1.08-.03-.343-.056-.695-.078-1.052-.579-.032-.963-.565-.693-1.032l.085-.146c.112-.196.331-.309.572-.35.002-.08.003-.16.005-.239-.564-1.949-.848-4.157-.399-6.102-.963-.019-1.901.186-2.665.706m-6.265 8.269c.323.187.525.569.35.927-.038.079-.076.169-.116.252.131-.022.264-.036.397-.044.037-.419.115-.937.236-1.531-.078-.284-.149-.568-.216-.853-.241.413-.464.828-.651 1.249m-6.379 1.47c.308-.518.672-1.072 1.06-1.652-.377.521-.742 1.052-1.086 1.596zm-2.03-2.159c.091-.01.177-.03.27-.037.466-1.031 1.069-2.009 1.83-2.91-.247.09-.487.197-.721.314-.635 1.109-1.143 2.227-1.379 2.633m-17.278 9.684c-.074-.532-.137-1.06-.19-1.59-1.657 1.749-2.487 5.259-3.089 7.359-.238.83-.344 1.64-.376 2.444 1.112-2.76 1.798-5.833 3.655-8.213m-6.653 13.267c.539-.788 1.122-1.565 1.633-2.356-.01-.034-.017-.067-.025-.1-.578.696-1.16 1.386-1.68 2.111.024.115.045.23.072.345m-9.026 11.857c.008-.009.015-.019.022-.028l-.085-.114c.019.047.043.095.063.142m-.278 5.563c-.002-.01-.004-.018-.007-.028-.002.008-.004.016-.007.024.005.001.009.003.014.004m-6.643 6.785c-.006.014-.014.028-.02.042.039-.009.076-.021.115-.024.537-.041 1.001.126 1.418.393.229-1.091.597-2.146 1.071-3.106.003-.008.011-.011.015-.019-1.108.6-1.857 1.331-2.344 2.195.045.196-.029.4-.255.519m-3.61 14.686c.392.05.729.47.548.835-.038.074-.067.151-.103.225.046.063.081.136.086.229.031.557.017 1.121-.017 1.687.524.45.213.286.745 1.078.234.348-.362.643-.623.309-.079-.101-.15-.17-.217-.223-.028.259-.06.518-.093.777.066.431.125.853.181 1.242.05.338.09.677.127 1.017.418 1.476.612 3.026.794 4.53.013-.022.025-.043.037-.064-.051-2.047.135-4.066.84-5.981.037-.548.125-1.089.305-1.604-.013-.057-.031-.112-.044-.169-.345.167-.898.036-.93-.409-.061-.828.003-1.645.113-2.457-.053-.162-.099-.323-.154-.486-.006-.003-.013-.003-.02-.005-.658-.284-1.219-.663-1.694-1.11.041.193.077.386.119.579m-4.136 51.036c.006-.086.007-.173.012-.26-.012.011-.022.023-.034.034-.022.02-.047.03-.07.047.03.059.062.12.092.179m-4.733-1.406c.243-.169.567-.233.807-.052.643.486.684.498 1.052 1.233.174.347-.125.785-.489.732.554 2.259 2.325 4.891 3.25 6.678.515.995 1.066 1.97 1.626 2.94.136-.57.255-1.149.369-1.741.069-.362.656-.228.708.079.15.905.117 1.765-.059 2.604.05-.039.101-.077.152-.115.006-.273.029-.542.088-.805.005-.363.019-.726.033-1.088-.132-.558-.2-1.114-.22-1.669-.549-.853-1.08-1.724-1.598-2.598l-.631.847c-.258.637-1.491.362-1.23-.282.282-.923.459-1.844.597-2.764-.547-.982-1.075-1.962-1.574-2.923-.984-1.892-2.435-4.262-3.397-6.649.186 1.898.407 3.72.516 5.573m3.664 16.8c.071-.069.134-.137.202-.206-.063-.047-.12-.107-.168-.187-.849-1.444-1.731-2.867-2.356-4.426-.391-.976-1.057-2.362-.575-3.39.153-.328.581-.363.867-.227.367.174.596.449.936.668.366.236.187.719-.207.766-.121.015-.227.01-.325-.006.163.777.519 1.601.777 2.239.498 1.234 1.183 2.38 1.835 3.536.452-.733.796-1.48 1.068-2.244-1.325-2.065-2.579-4.167-3.684-6.374-.544-1.085-1.446-2.468-1.981-3.858-.015.512-.044 1.031-.089 1.559-.167 1.932-.881 4.522-1.02 6.971.101.139.206.277.309.415.523.703 1.077 1.374 1.67 2.02.875.952 1.81 1.847 2.741 2.744m7.187-2.431l-.021.018c-.024.02-.067.052-.107.082.109.642.28 1.419.651 1.262.204-.087.399.085.311.254-.126.241-.258.385-.505.541-.138.087-.367.071-.512 0-.581-.283-.8-.807-.932-1.352-.179.126-.374.261-.577.402-.067.225-.17.439-.332.63-.178.208-.461.22-.675.064-.353.243-.705.484-1.041.714-.009.028-.02.056-.028.085-.053.166-.241.234-.414.216-.85.58-1.494 1.017-1.494 1.017.224.534-.608.819-.896.378-.054-.082-.108-.164-.161-.246-.064-.099-.071-.24-.043-.369-.095.071-.207.115-.327.116-.555.425-1.148.882-1.341 1.358 2.207-.473 4.573-.67 6.683-1.26 1.509-.422 3.003-.899 4.498-1.376-.96-.772-1.853-1.667-2.737-2.534m6.758-2.759c-.541-.488-1.073-.986-1.6-1.494-.057.041-.113.087-.178.104-.349.093-.689.294-1.019.54-.029.025-.059.048-.087.073 1.107 1.147 2.286 2.223 3.188 3.545.17.249-.172.6-.422.422-1.294-.922-2.449-2.082-3.52-3.277-.739.688-1.469 1.381-2.204 2.044 1.081.954 2.152 1.918 3.209 2.898 1.971-.619 3.954-1.195 5.98-1.617-1.299-.9-2.411-1.96-3.347-3.238m-7.567-3.256c-.081-.066-.151-.141-.224-.213.155.606.391 1.508.674 2.137.522-.339 1.052-.669 1.589-.976-.309-.376-.62-.749-.931-1.121-.036-.042-.169-.212-.35-.443.019.027.029.06.049.086.318.427-.377.881-.807.53m4.884-31.16c-.005.001-.007.004-.011.005-.154.022-.309.044-.464.067-.29.041-.508-.035-.685-.232-.671-.743-1.06-1.829-1.35-2.968-.025.866-.202 1.751-.333 2.624.034.149.068.297.101.448.18-.158.42-.28.765-.338.299-.051.541.04.72.243 1.392 1.571.132 4.486-.166 6.247.004.199-.002.402-.015.605.909-1.912 1.64-3.686 1.521-5.94-.013-.257-.047-.51-.083-.761m-.93-3.221c.209.982.458 1.877.752 2.302-.188-.78-.456-1.543-.752-2.302m-8.459 42.282c-.189.274-.409.532-.624.793.233-.222.48-.436.741-.644-.046-.043-.085-.092-.117-.149m5.995-45.979c-.056-.173-.112-.345-.168-.517-.01.313-.107.633-.323.913-.245.316-.518.615-.801.907.388.546.693 1.18.937 1.828.066-.224.133-.452.202-.687.072-.242.425-.336.675-.249-.165-.8-.319-1.568-.522-2.195m-.901-2.973c-.051.37-.128.728-.224 1.08.276.084.498.237.659.436-.157-.505-.306-1.01-.435-1.516m-1.914 8.21c.081.012.159.034.232.063-.15-.591-.395-1.188-.719-1.787-.036.101-.075.204-.113.307.202.472.403.945.6 1.417m-1.061 4.598c.271-.29.544-.581.824-.869-.146-.385-.295-.768-.442-1.153-.232.464-.403.974-.544 1.498.055.175.113.349.162.524m-1.262 12.517c.247.358.48.713.694 1.065.303-.648.594-1.301.871-1.958-.065-.301-.121-.598-.158-.889-.302.18-.743.212-1.024-.014-.12.379-.259.752-.428 1.116.012.22.026.444.045.68m2.862 20.787c-.002.058-.005.117-.006.175-.001.099.001.202.003.305.046-.034.095-.066.141-.099-.045-.127-.085-.256-.138-.381m-.515-31.647c.054 1.075-.162 2.194-.447 3.299.054.105.102.212.158.317.144-.859.292-1.717.435-2.575-.013-.577.01-1.146.059-1.71-.211-.019-.401-.142-.453-.352-.142.186-.279.367-.409.544.321-.028.643.195.657.477m1.846 1.09c-.02.089-.038.178-.059.267.011.049.023.098.033.148.016-.093.03-.185.044-.277-.005-.046-.012-.092-.018-.138m.794 28.948c-.04.049-.088.089-.147.121-.133.116-.257.236-.368.358.039.06.075.122.114.182.495-.46.984-.941 1.474-1.424-.016.01-.034.015-.049.026-.241.163-.646.429-1.024.737m-3.962-5.329c.033-.328.068-.657.103-.985-.251-1.528-.336-2.836-.262-3.239.037-.199.213-.311.418-.348-.264-.607-.536-1.211-.816-1.811-.03-.002-.06 0-.091-.006-.132 1.326-.362 2.64-.692 3.915.437.826.886 1.652 1.34 2.474m2.079-63.404c-.029.47-.057.911-.092 1.287-.038.413-.53.518-.827.327.285 1.312.841 2.596 1.571 3.74.127-.084.274-.146.455-.142.043.001.087.002.131.003.152.003.281.054.396.121.067-.387.124-.776.172-1.165-.784-1.275-1.332-2.619-1.806-4.171m4.236-4.667c-.489-.626-1.03-1.192-1.611-1.591-.219 1.006-.249 2.138-.189 3.394.016.351.038.706.067 1.062.655 1.05 1.126 2.164 1.222 3.426.043.564.004 1.124-.063 1.683.181.405.396.797.634 1.181-.186-1-.269-2.007-.352-2.903-.151-1.642-.231-3.728.312-5.528-.015-.241-.022-.482-.02-.724m2.873-1.015c-.237.345-.44.702-.614 1.071.096.149.189.294.277.421.449.653.827 1.328 1.139 2.026-.281-1.172-.542-2.345-.802-3.518m1.739 6.983l.01.033c-.003-.011-.007-.022-.01-.033m-3.041-7.822c.282-.254.6-.482.963-.674-.043-.189-.084-.379-.127-.567-.087-.377-.2-.783-.323-1.206-.295.839-.457 1.65-.513 2.447m3.708-4.759c.074-.345.174-.657.288-.953-.221-.083-.447-.152-.677-.215-.224.956-.376 1.921-.424 2.88.195.335.387.678.575 1.025-.036-.867.029-1.762.238-2.737m8.619-2.193c.012-.038.035-.067.052-.1-.471-.86-.791-1.805-1.138-2.649-.102-.25-.199-.499-.296-.749-.72-.286-1.474-.399-2.257-.283 1.543 2.111 2.698 4.419 3.833 6.718-.327-1.002-.469-2.01-.194-2.937m10.373 16.196c.709.211 1.421.497 2.085.846.431.124.842.281 1.204.452.096.045.186.104.281.152.033.004.065.011.098.015-.009-.03-.018-.061-.027-.092-.097-.321.102-.578.451-.693.156-.052.315-.086.476-.104-.251-.146-.504-.284-.76-.411.239.47-.277.952-.925.714-1.311-.48-2.438-1.153-3.715-1.526-.35.063-.704.153-1.063.282-.016.006-.03.004-.046.008.633.056 1.278.159 1.941.357m13.522 9.529c-.275-.065-.55-.128-.832-.21-.547-.159-1.03-.472-1.535-.704-.502-.23-1.033-.407-1.508-.677-.08-.046-.154-.095-.232-.142.082.244.138.488.193.733 1.507.363 2.875.837 4.26 1.447-.114-.15-.229-.299-.346-.447m2.818-2.214c-.149-.235-.311-.457-.469-.683-.171-.167-.341-.335-.507-.505.553 1.104 1.209 2.237 1.995 3.297-.307-.755-.624-1.484-1.019-2.109m10.833 7.291c.057-.85.105-1.638.094-2.405-.05-.348-.097-.697-.147-1.043-.101-.706-.322-1.432-.384-2.146-.111-.313-.236-.631-.391-.958-.287-.605-.633-1.177-1.014-1.729.217.85.316 1.703.642 2.525.103.259-.18.549-.487.555.077.302.139.606.191.91.134.4.239.802.274 1.205.014.16-.047.279-.145.361.001.184.011.368 0 .551-.024.422-.709.515-.883.1-.363-.868-.614-1.747-.877-2.621-.287-.463-.635-.93-1.02-1.386.179.274.355.55.495.838.254.525-.668.956-1.11.548-1.156-1.071-2.138-2.34-3.088-3.589 1.359 3.213 3.661 7.134 7.756 8.243.037.01.063.027.094.041m-7.699-14.417c.015-.172.132-.317.296-.395-.55-.417-1.179-.632-1.98-.428-.024.006-.043.002-.065.004.628.172 1.21.455 1.749.819m-10.464 1.298c.345-.088.696-.144 1.058-.136-.288-.166-.589-.32-.914-.452-.219-.088-.521-.226-.856-.368.255.31.492.629.712.956m-.64 3.706c.017.062.019.123.011.183.046.014.09.02.135.034.232.072.36.22.396.377.361.142.679.325 1.005.522-.497-.391-1.014-.766-1.547-1.116m4.309-.178c.275.317.021.715-.349.853.802.83 1.509 1.68 2.16 2.554-.431-.938-.67-1.876-.628-2.742.014-.31.27-.479.549-.498-.085-.081-.166-.167-.253-.246-.717-.646-2.077-1.532-3.411-1.912.704.656 1.358 1.329 1.932 1.991m-13.688-7.401c-.03.084-.076.162-.145.227.202.028.406.051.606.089 1.345-.245 2.547-.068 3.929.426-1.248-.693-2.685-1.019-4.39-.742m1.188-27.805c-.009-.15-.02-.301-.03-.452-.333.376-1.235.38-1.355-.186-.145-.684-.269-1.367-.402-2.051-.082 2.576-.559 5.756-.571 6.623.22-.107.515-.099.702.027.125-.344.256-.683.397-1.018.016-.216.029-.433.055-.647.026-.21.194-.317.373-.328.216-.45.447-.892.695-1.323.043-.074.105-.117.174-.147-.012-.166-.029-.33-.038-.498m-.162-3.291c.011-.819.1-1.631.334-2.426-.335-.548-.607-1.138-.833-1.749.186 1.394.351 2.786.499 4.175m-13.277 3.236c.232-1.544.727-3.043 1.505-4.431-.009-.404-.02-.811-.035-1.218-.158-.977-.191-1.955-.092-2.919-.001-.018-.001-.036-.001-.054-1.014 1.847-1.523 4.213-1.677 5.678-.114 1.089-.177 2.186-.194 3.284.156-.118.328-.227.494-.34m6.174 19.444c-.003-.324.006-.646.019-.968-.161.046-.333.062-.507.031.15.317.322.626.488.937m.494-3.992c-.419-.599-.875-1.217-1.37-1.813-.079-.002-.156-.015-.232-.039.572.703 1.062 1.464 1.481 2.266.036-.139.078-.277.121-.414m4.129 10.231c-.926-1.094-.708-2.684-.805-3.993-.333.732-.685 1.457-1.07 2.145-.032.112-.062.223-.092.335.619.762 1.342 1.451 2.094 2.12-.048-.201-.086-.405-.127-.607m.219-31.776c-.011-.004-.022-.003-.033-.007.014.005.023.023.037.03-.001-.008-.002-.015-.004-.023m-7.125 11.773c.407-1.177.927-2.314 1.517-3.391l.01-.074c-.775-.858-1.467-1.793-2.051-2.779.06 2.103.202 4.184.524 6.244m1.612 5.77c-.157-.382-.306-.767-.449-1.155-.008.07-.015.141-.023.211.076.237.141.474.224.711.083.078.167.154.248.233m3.966 15.383c-.034.218-.285.414-.57.393.05.104.106.206.164.308.248-.15.505-.283.779-.397-.125-.1-.249-.201-.373-.304m-2.851-17c.917.831 1.475 2.105 1.854 3.398.187.078.324.224.299.433-.005.042-.011.083-.016.125.334-.134.843.039.864.422.007.124.001.246.002.37.058-.022.116-.039.178-.048-.086-1.059-.108-2.095-.06-3.097-.816-3.016-.74-6.446-.59-9.361.034-.674.036-1.401.038-2.149-.66 1.003-1.269 2.017-1.811 3.066-.341 2.36-.548 4.686-.758 6.841m-5.236-5.293c.01.127-.03.224-.087.306.235.48.436.976.626 1.472-.253-1.731-.315-3.5-.3-5.197-.052-.01-.1-.025-.146-.047-.161 1.14-.188 2.299-.093 3.466m-1.704-1.882c.063.054.124.108.183.164-.007-.16-.008-.321-.01-.481-.06.105-.115.211-.173.317m8.617-4.389c.31-.326.626-.628.948-.91.093-1.585.343-3.144 1.048-4.434.088-.161.293-.253.51-.28-.032-.193-.067-.385-.099-.579-1.094 1.926-1.852 4.034-2.407 6.203m-10.746 9.944c.3.317.582.642.855.973.549-.611 1.447-.694 2.372-.522-.533-1.389-1.091-2.762-1.818-4.09-.206.925-.466 1.854-.785 2.805-.07.21-.279.282-.478.261-.049.191-.102.381-.146.573m-.512 4.12c.177-.312.383-.616.606-.916l-.51-.609c-.05.505-.081 1.014-.096 1.525m9.125-16.715c-.094-.172-.167-.34-.249-.51-.61.808-1.222 1.63-1.718 2.463.382 1.002.885 1.985 1.535 2.939.788-3.754 2.274-7.459 4.585-10.559-.169-.866-.335-1.73-.429-2.597-.585 1.578-1.154 3.163-1.905 4.684-.293.594-.695 1.202-1.139 1.82.062.514.133 1.031.203 1.558.05.382-.687.562-.883.202m6.592-15.654c-.407.124-.81.251-1.209.382.045.323.085.648.141.969.397-.118.861.269.637.636-.136.224-.255.453-.38.681.303 1.451.677 2.887 1.088 4.316.928-.834 1.946-1.583 3.054-2.232-.675-1.723-1.703-3.833-3.331-4.752m20.612 14.54c.03.572.084 1.12.158 1.652.055-.005.111-.007.168-.002.093-.847-.002-1.743-.195-2.647-.236.031-.486-.009-.679-.133.006.194.011.391.016.583.001.014-.007.023-.008.036.275.052.526.229.54.511m2.288 4.935c-.054-.085-.093-.17-.149-.255-.199-.296-.026-.679.28-.841.31-2.412.804-4.592 2.601-6.467-.095-1.001-.141-2.016-.097-3.014-.132-.586-.247-1.174-.354-1.763-.241 1.33-.589 2.633-1.125 3.866-.179.41-.978.391-.978-.111 0-3.119.684-6.177 1.056-9.279-.903.939-1.523 2.167-1.937 3.511-.003.038-.012.074-.015.111-.008.085-.037.156-.074.222.084 1.309.207 2.63.49 3.916.023.034.041.072.065.104.135.183.146.359.083.51.227.848.531 1.677.97 2.468.332.597-.625 1.114-1.057.524-.413-.564-.728-1.153-.997-1.754.128.434.245.869.346 1.307.439 1.905 1.214 3.928-.47 5.437-.023.021-.052.031-.078.047-.026.309-.046.616-.064.924.323 1.027.738 2.011 1.247 2.979.08-.817.165-1.632.257-2.442m1.422 3.183c-.056.593-.106 1.188-.153 1.783.242.358.495.721.759 1.088-.149-.971-.332-1.926-.606-2.871m9.493 5.295c.023-.752.082-1.511.189-2.221-.19-1.616-.163-3.288 0-4.965-.243.061-.532-.013-.619-.276-.14-.426-.262-.853-.37-1.283-.181.796-.574 1.564-.727 2.374-.025.132-.038.266-.059.398.262-.058.59.04.661.292.425 1.499.517 2.961.416 4.401.156.431.336.855.509 1.28m2.478-23.783c-.15.313-.557.438-.908.371.149 1.02.275 2.041.34 3.065.021.322-.294.519-.624.551.065 1.745.076 3.49.161 5.244.494-2.45.984-5.11 2.442-7.257-.518-.658-.98-1.316-1.411-1.974m-1.059-8.604c-.019.019-.036.038-.054.057.147 1.02.353 2.02.627 3.001.129-.468.262-.94.396-1.413-.329-.574-.656-1.13-.969-1.645m.977-1.906c.311.13.486.476.244.744.116.209.23.417.339.629.192-.751.363-1.503.497-2.252-.376.271-.738.563-1.08.879m.636-7.018c-.147-.154-.317-.299-.495-.44-.504 2.08-1.257 3.96-1.385 6.132.061.06.111.13.168.193.661-.496 1.373-.946 2.145-1.33.08-.041.159-.057.236-.071.132-1.488.048-2.945-.414-4.328-.089-.03-.176-.074-.255-.156m-9.451 13.092c-.033.072-.092.125-.173.168.167 1.054.343 2.104.533 3.149.036.003.069.014.104.021.188-.513.397-1.017.626-1.513-.368-.606-.738-1.212-1.09-1.825m-1.62-7.622c.103-.191.211-.38.317-.569.023-.161.048-.321.075-.482-.146.332-.281.668-.403 1.007zm-3.713 6.802c-.02.281-.036.563-.046.848.502-1.302 1.112-2.58 1.776-3.856-.354.216-.692.459-1.015.734-.258.71-.503 1.473-.715 2.274m2.302-.754c-.216.44-.423.884-.616 1.33.185-.103.377-.196.588-.263.017-.355.028-.711.028-1.067m1.713 23.134c.015-2.025-.067-4.062-.237-6.138-.497 1.326-.835 2.698-1.077 4.095.59.595 1.015 1.287 1.314 2.043m3.579-1.059c-.175-.881-.437-1.981-.591-3.118-.026-.119-.052-.237-.08-.356-.122.009-.24-.015-.35-.059.29 1.859.403 3.742.17 5.685-.037.306-.445.504-.754.443-.078 1.138-.191 2.271-.31 3.388-.102.966-.261 1.914-.434 2.86.114.206.227.412.333.617.007.001.015-.001.022 0 .294-.559.623-1.095 1.019-1.579.197-.242.515-.301.788-.237.277-1.07.513-2.144.529-3.225.021-1.481-.119-2.953-.342-4.419m2.855-3.897c-.414.145-.991-.023-1.008-.521-.03-.886-.034-1.774-.032-2.661-.305.565-.494 1.21-.579 1.914.196.85.33 1.722.431 2.557l.003.012c.005.015 0 .027.003.042.053.443.099.874.14 1.283.05-.069.085-.147.14-.214.14-.174.375-.341.651-.317.081.007.163.015.245.022.157.014.28.068.375.142-.162-.75-.284-1.502-.369-2.259m2.495-14.206c.006-.041.014-.082.021-.123-.019-.036-.04-.071-.059-.106.013.076.026.153.038.229m-5.28 9.909c.062.099.12.202.177.305.303-.351.681-.656 1.173-.885.147-.068.285-.083.415-.076.015-.953.033-1.906.057-2.859-.336.059-.738-.064-.884-.397-.587-1.345-.893-2.784-.959-4.241-.467 1.16-.84 2.345-1.073 3.538.335 1.538.694 3.075 1.094 4.615m4.918 4.431c-.125-.007-.246-.037-.361-.084.027.588.049 1.176.065 1.764.092-.565.191-1.125.296-1.68m2.23-3.161c-.707 2.485-1.162 5.073-1.336 7.578.187-.437.74-.52 1.134-.326-.125-2.427-.263-4.902.202-7.252m-11.519-7.218c.034-.013.072-.018.109-.026-.026-.095-.05-.191-.075-.286-.013.104-.02.209-.034.312m-9.615-8.996c-.071.517-.131 1.039-.182 1.564.073-.168.153-.334.236-.498.048-.355.127-.712.235-1.072-.026-.138-.049-.277-.075-.415-.074.14-.144.281-.214.421m-1.366-2.637c.114.175.104.407-.149.544-.165.089-.318.188-.478.282-.61 1.415-1.184 2.864-2.09 4.044-.263.343-.936.353-1.213.055-.622 1.799-.838 3.823-.695 5.781.504-.507 1.005-1.017 1.511-1.524.361-1.236.756-2.462 1.367-3.636.14-.269.41-.336.669-.286.152-.809.366-1.616.647-2.406.121-1.007.331-2.001.644-2.962-.071.037-.143.071-.213.108m-6.308 12.401c-.269-1.589-.249-3.234-.041-4.85-.419 1.451-.589 2.948-.337 4.5.005.029-.004.051-.005.077.05.168.099.336.157.501.076-.076.151-.152.226-.228m2.158.178c-.063.059-.124.12-.187.179.017.084.033.168.051.251.045-.148.09-.293.136-.43m2.97-2.826c-.105.095-.211.191-.316.288-.254.813-.524 1.624-.81 2.43.446-.565.891-1.13 1.341-1.693-.088-.335-.159-.676-.215-1.025m1.02-.876c.002.037 0 .073.002.111.011-.047.022-.093.033-.139-.012.01-.023.019-.035.028m-10.671-2.465c-.043-.009-.084-.024-.126-.04.038.06.076.12.114.182.005-.047.008-.094.012-.142m1.759 4.331l-.003.12c.213.732.397 1.47.556 2.188.028-.233.06-.466.088-.699-.19-.737-.273-1.509-.303-2.272-.113.221-.228.441-.338.663m13.637-3.825c.129.611.244 1.225.344 1.843.063.073.12.146.189.219.231.247.155.52-.046.72.051.364.096.729.139 1.095.109.326.219.652.336.977-.217-1.595-.135-3.245.02-4.628.009-.079.017-.168.025-.249-.052-.404-.101-.815-.14-1.227-.298.428-.586.845-.867 1.25m21.674 3.933c-.075-.014-.147-.036-.212-.071-1.007 1.559-1.871 3.334-2.587 5.223.28-.578.612-1.144 1.021-1.693.395-.527 1.556-.203 1.29.451-.748 1.845-1.173 3.666-1.411 5.507.759-2.517 1.518-5.043 1.785-7.7.057-.574.092-1.146.114-1.717m-9.434 24.649c.023-.204.04-.409.058-.614-.447 1.327-1.046 2.652-1.02 4.013.07.074.142.147.214.219.306-1.192.611-2.386.748-3.618m-5.169 4.957c.175-.923.382-1.872.666-2.802-.008-.015-.015-.031-.023-.045-.259.868-.578 1.946-.643 2.847m-14.298-24.264c.216-.117.531-.064.722.085.181-.709.356-1.419.533-2.128-.581.675-1.147 1.358-1.703 2.046.039.072.082.14.123.211.1-.072.195-.144.325-.214m-4.495 3.28c.014-.008.029-.008.042-.015.023-.026.037-.054.069-.079.951-.761 1.515-2.072 1.939-3.433-.222-.408-.412-.826-.576-1.251-.085.409-.66.689-1.124.326-.111.1-.222.201-.333.302-.165.886-.378 1.763-.61 2.638.014.184.024.349.027.477.006.22-.114.368-.28.458-.138.496-.277.993-.414 1.491.362-.34.772-.651 1.26-.914m-7.898 31.664c.002.001.002.004.005.006-.087-.307-.175-.622-.261-.937-.01.438.039.82.256.931m23.532 18.186c-.585-.518-1.131-1.071-1.647-1.578-.315-.31-.618-.647-.909-.996.193.533.402 1.06.626 1.533.593.41 1.237.757 1.93 1.041m-27.261-13.59c.736-.217 1.515-.326 2.33-.315-.236-.111-.397-.306-.42-.51-.111.004-.225.012-.339.019-.191.173-.512.234-.818.076-.038.005-.076.009-.114.014-.221.236-.43.476-.639.716m13.579 70.432c.459.027.92.035 1.38.054 2.19-.794 4.198-1.944 5.891-3.514-1.236-.071-1.837-2.03-.642-2.766 13.313-8.197 3.713-24.295-8.068-27.885-10.551-3.216-20.338-1.265-26.25 8.15-6.078 9.681-2.091 19.203 6.62 24.04 7.248-.427 13.846 1.494 21.069 1.921m19.394-4.102c-1.686-1.832-3.32-3.708-4.979-5.563-.416.996-.963 1.929-1.67 2.767-.762 3.078-2.543 5.349-4.928 6.984 5.21-.133 10.447-.548 15.599-.689-1.509-.572-3.031-2.421-4.022-3.499m16.187-2.796c-1.847-2.078-2.782-4.713-3.009-7.544-.901.416-2.085 1.15-2.756 1.432-1.389.583-2.35.91-3.843.91-1.577-.001-4.305.076-6.603-.545-1.414-.001-2.81-.223-4.008-1.052-.093 1.144-.312 2.248-.667 3.291 2.928 3.27 5.738 6.943 9.257 9.559.081.06.098.151.08.23 5.254-.133 10.532-.144 15.801-.014-1.971-1.564-3.475-3.617-4.252-6.267m40.709 3.865c-.762.813-1.626 1.524-2.597 2.152 1.163-.125 2.331-.265 3.498-.394-.423-.595-.811-1.246-.901-1.758m5.767 1.368c-.435-.588-.821-1.213-1.259-1.799-.295-.396-.661-.753-.831-1.215-.371-.279-.736-.566-1.12-.827-.18-.123-.365-.237-.55-.355-.383.725-.815 1.389-1.295 1.998.061.033.11.088.128.159.221.83.735 1.578 1.26 2.301 1.235-.124 2.465-.216 3.68-.25-.004-.005-.009-.007-.013-.012m.65-.82c.072.104.139.212.213.315.134.188.108.369.004.504.263-.001.527-.002.787.005-.338-.267-.673-.544-1.004-.824m2.43-9.787c.028 1.051.191 2.126.342 3.159.046-1.102-.004-2.189.016-3.251-.109.053-.231.084-.358.092m.941 9.534c.16-.222.297-.445.422-.67-.201.209-.41.405-.637.575l.171.195c.016-.034.018-.066.044-.1m-7.115-4.54c.308.16.628.347.955.558-.282-.288-.556-.581-.831-.873-.041.106-.082.211-.124.315m9.498-11.761c-.097-.015-.184-.051-.262-.098-.626.574-1.16 1.207-1.504 1.748-.102.263-.219.518-.356.762-.024.044-.057.074-.09.105-.175.423-.303.856-.382 1.299.242-.826.633-1.629 1.277-2.398.109-.131.279-.188.447-.19.088-.278.194-.547.349-.79.068-.108.209-.185.359-.216.052-.074.11-.148.162-.222m-1.009 10.607c-.091-.829-.084-1.689-.054-2.547-.036.097-.077.191-.11.291-.023.067-.056.122-.095.167-.012.197-.022.393-.035.592-.087 1.314-.643 3.265-.501 4.82.233-.331.461-.669.682-1.014.095-.763.11-1.535.113-2.309m-38.88 8.15c5.968.36 11.796-.853 17.762-.343.185.015.372.02.557.031 10.4-4.228 15.436-14.703 8.254-25.367-6.342-9.415-16.219-11.366-26.623-8.15-11.617 3.59-20.482 19.688-6.795 27.885 1.229.736.718 2.695-.516 2.766 1.458 1.296 3.119 2.302 4.905 3.063.818.04 1.638.066 2.456.115m-89.369-40.683c.1.286.204.572.312.856.171-.421.369-.844.509-1.299-.02-.047-.042-.094-.063-.141-.254.194-.509.388-.758.584m34.944-80.553c-.363.083-.734.174-1.107.27.27.234.524.511.766.824.01-.063.022-.126.06-.192.111-.193.228-.388.349-.584-.073-.089-.108-.198-.068-.318m2.39-.358c-.135.921-.219 1.858-.274 2.801.07-.097.136-.195.208-.291.052-.969.175-1.901.348-2.821-.096.1-.188.207-.282.311m17.288-10.503c-.627 3.361-3.994 6.576-4.926 9.848.092.278.174.56.258.842.399-.533.895-1.163 1.473-1.77.133-1.07.454-2.077 1.106-2.928.099-.129.23-.19.365-.209.565-1.24 1.308-2.418 2.2-3.514-.171-.689-.309-1.472-.476-2.269m38.199 21.247c-.046.078-.104.148-.178.206.117.155.233.312.352.466-.058-.222-.116-.445-.174-.672m9.492 2.758c-.238.578-.478 1.191-.696 1.824.226 1.526.506 3.047.636 4.58.127-.513.269-1.024.441-1.532.067-.198.253-.329.467-.383.025-.357.051-.712.079-1.068-.26-1.147-.543-2.292-.927-3.421m14.179 15.038c-.053.181-.109.365-.167.553.048.16.097.319.142.479.006-.349.015-.693.025-1.032m8.99 50.207c-.17.539-.339 1.078-.5 1.616-.039.798-.062 1.596-.062 2.398 0 .084-.027.153-.053.222.2-.175.417-.338.665-.474.409-.225 1.079.155.898.568-.794 1.812-1.483 3.867-1.951 5.998 1.146-2.753 2.38-5.533 4.275-7.854-1.059-.829-2.196-1.628-3.272-2.474m.117 13.954c.384.821.756 1.705 1.09 2.624.08-.177.162-.352.252-.525-.439-.799-.928-1.606-1.17-2.43-.058.11-.115.22-.172.331m9.582-.409l-.117.144c-.194.239-.461.074-.534-.156-.569.626-1.129 1.262-1.702 1.875-.661.708-1.333 1.419-1.96 2.164.732.698.884 2.12 1.103 2.995.004.015.004.029.007.043 1.029-1.297 2.061-2.592 3.232-3.765.13-.131.278-.169.417-.155-.084-1.051-.224-2.103-.446-3.145m-1.166 35.559c-2.688-1.64-5.513-3.507-8.347-3.723-6.725-.511-13.215 1.644-20.072.755-.46-.059-.926-.087-1.389-.124-1.763.337-3.667.579-5.63.694 2.285-.041 4.532-.078 6.692-.141 7.912-.231 17.178-.406 24.427 3.242.071.036.112.086.14.139 1.397-.276 2.792-.556 4.179-.842m-136.212 1.373c1.28-1.081 2.269-1.757 3.925-2.254 2.553-.768 5.647-1.977 8.237-2.359 2.612-.384 5.771-.013 8.443-.106 1.804-.063 3.697-.227 5.373.494.32.138.09.645-.234.555-1.996-.556-4.505-.167-6.534.008-2.677.231-5.631-.249-8.224.463-3.642.999-7.136 2.548-10.645 3.785-.078.027-.152.017-.219-.011.94.096 1.858.185 2.729.223 8.914.382 17.885.019 26.754-.468 11.599-.637 24.097 1.393 35.646 3.108 21.562 3.203 43.932.465 65.275-3.675-8.18-1.409-15.881-2.798-24.415-2.532-8.464.264-18.279-.473-26.577.894-.282.046-.404-.382-.119-.432 5.618-.983 11.911-1.256 18.063-1.396-1.618-.031-3.238-.159-4.819-.403-1.051.03-2.099.043-3.135.004-8.06-.303-16.119-.428-24.2-.276-4.019.076-7.969.319-11.925.403 6.109.789 12.23 1.855 18.433 1.371.228-.018.271.339.054.395-9.64 2.456-19.779-1.23-29.547-1.933-6.005.976-12.74.241-17.509-1.161-1.375-.405-2.639-.841-3.807-1.327-2.859.026-5.769.188-8.597.649.13.122.263.242.393.364.247.23-.009.725-.345.593-.476-.187-.922-.435-1.358-.706-1.841.367-3.641.854-5.348 1.543-2.661 1.074-5.28 2.916-7.924 4.541.763.063 1.523.143 2.269.22-.203-.097-.312-.406-.113-.574m65.892 94.96c2.745.079 4.119-1.225 6.143-2.624 1.38-.954 3.289-1.512 4.532-2.577.643-.551.728-.407.81-.739-1.274.063-2.587-.062-3.847-.215-2.056-.251-4.521-.607-6.595-.43-1.169.1-2.84.739-4.097 1.727.3.451.542.911.697 1.371.507 1.508-1.389 2.395-2.43 1.489.003 1.947 3.363 1.957 4.787 1.998m88.983-87.013c-1.038 11.6-2.684 23.821-9.769 33.343-1.977 2.656-4.377 4.578-6.787 6.737-4.217 3.775-5.095 6.783-7.245 11.568-2.554 5.682-6.359 11.904-11.193 15.943-5.897 4.928-14.008 7.282-21.347 9.1-5.928 1.469-11.497 5.264-17.636 3.478-.363.196-.733.367-1.118.493 1.457 3.339-5.037 5.072-7.272 6.59-3.041 2.064-5.762 1.507-9.33.829-1.3-.247-3.308-.012-4.454-.53-2.292-1.038-1.872-3.188-.555-5.297-4.299-2.523-11.263-2.467-15.561-4.005-7.855-2.812-16.075-4.675-23.761-7.909-6.151-2.588-12.774-5.675-18.196-9.612-5.117-3.717-6.609-9.294-10.369-14.023-8.596-10.811-15.608-20.377-16.058-34.636-.221-7.017-1.047-13.953 3.197-19.829 4.122-5.706 7.877-5.676 14.177-7.311.125-.033.248-.049.369-.057-.649-1.56-.851-3.413-.627-4.832.472-2.989 2.745-5.705 3.118-8.927.479-4.133-.952-8.035-1.617-12.083-.914-5.568.777-11.74 4.286-16.118.617-.77 1.594-1.783 2.728-2.76-.057-.674-.037-1.35.1-2.024.1-.493.883-.542 1.252-.259.064-.104.161-.178.28-.22-.225-.373-.435-.744-.607-1.111-2.068-4.409-1.849-8.016.768-12.121.174-.272.711-.209.815.067.056-.84.206-1.657.466-2.427-.256-1.039-.464-2.076-.537-3.109-.029-.412.639-.655.983-.344.068.061.119.136.183.2-1.209-3.882-1.56-9.826.957-13.171.025-.906.241-1.771.76-2.538.89-2.884 2.58-5.349 5.572-6.092.634-2.652 1.16-5.411 1.123-8.097-.02-1.43-.859-3.385.888-4.156.5-.22.974.141.908.574-.084.559-.112 1.121-.117 1.685.119-2.015.776-3.996 1.843-5.84-.179-1.278-.334-2.556-.347-3.826-.007-.707 1.248-.701 1.307 0 .057.67.147 1.348.245 2.027.387-.511.794-1.013 1.238-1.491-.29-.566-.629-1.11-1.028-1.623-.299-.385.315-.717.695-.457.498.339.888.75 1.204 1.203.767-.735 1.59-1.422 2.464-2.043.35-.541.747-1.051 1.199-1.467.051-1.3.196-2.576.523-3.802-.062.062-.131.113-.191.177-.382.4-1.262-.029-1.063-.51 1.003-2.419 3.604-3.945 6.279-4.994.171-.067.36-.139.54-.207.344-.303.677-.591.98-.856 2.16-1.89 4.933-4.325 8.421-3.637.219.043.354.161.424.303.461-1.445 1.068-2.79 1.864-3.956.52-.761 1.952-.075 1.44.695-.005.008-.008.015-.013.022.521-.243 1.361.091 1.163.716-.087.275-.175.557-.262.844.582-.272 1.204-.476 1.862-.608 1.012-1.303 2.184-2.542 3.629-3.408.01-.019.022-.038.033-.056.921-1.625 2.575-4.367 5.073-3.534.435-.845.892-1.673 1.465-2.462-.23-.376-.537-.739-.937-1.081-.441-.377-.179-1.129.51-1.091.877.048 1.497.323 1.932.738.504-.014.965.541.638.997.13.343.211.716.253 1.104.515.725.823 1.571 1.157 2.601.171.525.337 1.058.503 1.59.212-.204.423-.408.647-.604.046-.04.097-.058.146-.084.316-.778.672-1.546 1.064-2.273-.577-1.393-1.47-2.657-2.057-4.041-.172-.406.379-.654.773-.506 1.273.48 1.874 1.724 2.359 2.817.353-.489.726-.936 1.121-1.315 1.109-1.821 2.782-3.061 5.581-2.435.225.05.372.157.454.286.307-.184.637-.353 1.003-.499.495-.2 1.207.236.849.695-.292.377-.547.754-.793 1.131.216-.09.471-.101.706.039 4.807 2.86 6.103 8.517 6.777 13.077.028.053.056.107.083.156.402.737.796 1.475 1.186 2.214.034-.205.053-.413.095-.616.017-.091.043-.186.062-.277-.443-1.185-.863-2.375-1.237-3.575-.231-.743.962-1.188 1.467-.521.216.285.411.582.603.881.474-1.729 1.18-5.092-1.038-4.227-.803.314-1.549-.667-.74-1.019 2.481-1.08 4.028.321 4.291 2.437.033.268.039.538.032.81.415.642.772 1.303 1.091 1.975.413.458.826.916 1.234 1.382.146-.183.303-.36.477-.53.627-.609 1.409-.956 2.227-1.108.01-1.73.309-3.319 1.142-4.424.288-.384.997-.535 1.411-.154.168.154.335.308.502.461.458.421.039 1.033-.617.923 0 0 .192 1.52.453 3.555.651.3 1.239.732 1.678 1.318.414.553-.577 1.03-1.013.502-.158-.191-.324-.344-.493-.477.061.469.123.954.187 1.442 1.394 1.064 2.469 2.564 3.323 4.217.266-.184.533-.368.799-.552.351-.243.792-.33 1.217-.132 1.566.729 2.718 1.776 3.547 3.034.401-.117.878-.014.996.432.067.251.124.502.188.753.38.059.786.176 1.226.374.279.126.539.282.791.45.405-1.509.942-2.961 1.606-4.308.137-.276.598-.317.881-.194.221.096.441.193.662.288.608.266.209 1.166-.448.939-.346-.119-.804 2.306-1.158 4.613.163.089.264.235.256.397.273.355.523.725.752 1.105 1.132-1.728 2.36-3.313 3.409-4.633.29-.364 1.135-.15.929.324-.306.706-.678 1.379-1.077 2.039.235.111.421.299.441.587.023.308.061.621.091.931.46.472.881.987 1.262 1.542.139-.144.371-.238.614-.21.026.002.048.011.072.014-.022-.097-.039-.194-.062-.291-.154-.638.876-1.111 1.312-.468.305.45.531.949.724 1.467 2.877 1.746 4.477 6.119 5.275 8.501.56 1.674.865 3.409.984 5.147.483-2.24 1.869-3.893 5.345-2.771.75.242.62 1.046-.152 1.128-4.635.491-3.24 5.084-3.139 8.086.063 1.881-.116 4.1.119 6.207.383-.545.869-1.033 1.51-1.43.304-.188.776-.146 1.095 0 .258.119.517.237.775.356.758.347.449 1.351-.399 1.344-.876-.008-1.575 1.185-2.125 2.977.147.31.309.612.503.9.272.405.004.771-.379.907.144.232.28.466.41.702.125-1.694.472-3.331 1.406-4.552.548-.718 1.746-.397 1.862.419l.12.845c.039.271-.216.45-.505.503-.242.889-.387 1.808-.487 2.737.607 1.648 1.12 3.306 1.544 4.971.106-.207.201-.42.321-.621.254-.425.97-.561 1.453-.321.181.089.361.179.54.268.744.369.539 1.55-.431 1.456-.198-.019-.591 1.188-1.07 3.034.156.891.287 1.784.397 2.679 3.232.17 4.367 4.448 4.717 6.522.892 5.295-1.029 10.07-2.188 15.146 2.155 1.336 4.251 3.283 5.334 4.561 3.709 4.378 5.683 10.55 5.023 16.118-.481 4.048-1.734 7.95-1.067 12.083.314 1.938 1.304 3.692 2.178 5.434.115-.012.237-.013.37.001.068.007.136.015.204.022.086.009.149.048.228.066.001-.01.003-.02.004-.03 10.245 2.299 13.155 14.318 12.342 23.394" fill="#231f20"/><path d="M555.1255 524.4564c2.264 2.207 4.782 4.492 6.265 7.332.287.55-.262 1.172-.837.856-1.338-.734-2.263-2.218-3.269-3.34-1.184-1.323-2.042-2.712-2.966-4.214-.315-.512.375-1.055.807-.634M558.1113 513.8334c-.442-.582-2.24-2.15-1.277-2.35-.634.131-1.101-.482-.837-1.057.017-.035.033-.071.05-.106.22-.48.859-.458 1.214-.157 7.461 6.332 10.796 16.905 17.017 24.273.459.544-.099 1.519-.791 1.056-3.245-2.17-5.427-7.239-7.545-10.415-1.595-2.392-3.176-4.794-4.831-7.145-.975-1.386-1.974-2.749-3-4.099M571.3018 524.432c.215-.555-1.578-2.77-1.878-3.241-.695-1.093-1.765-2.34-2.092-3.588-.151-.572.543-1.012.986-.582 1.264 1.23 2.109 2.998 2.898 4.549.429.843 1.012 2.075.684 3.026-.129.374-.739.199-.598-.164M617.2432 519.8334c2.405 2.217 4.772 4.468 7.242 6.613 2.538 2.205 5.305 4.139 7.654 6.554.413.425.035 1.34-.603 1.077-6.105-2.521-10.863-8.518-15.313-13.2-.662-.697.312-1.697 1.02-1.044M631.707 522.4823c4.193 3.652 8.573 6.566 13.201 9.61.452.298.205 1.083-.36.905-5.573-1.753-9.812-5.386-14.171-9.155-.948-.819.387-2.181 1.33-1.36M644.1719 526.2177c-1.13-1.151.628-2.928 1.704-1.744.163.179.332.363.464.566.043.087.074.154.097.203.052.056.104.113.158.168.405.442.657.811.49 1.426-.112.413-.456.64-.867.673-.773.06-1.538-.775-2.046-1.292M591.6211 473.5663c-.213-.389-.519-.68-.895-.917-.38-.239-.04-.829.353-.604.485.275 1.132.843 1.003 1.46-.045.213-.36.246-.461.061M530.4575 584.0135c-.043.492-.7.48-.757 0-1.175-9.931-8.371-21.957.174-30.772.264-.273.643.126.409.409-4.863 5.882-3.898 13.107-2.242 19.914.844 3.468 2.736 6.801 2.416 10.449M531.7349 566.0087c.049.325-.434.475-.504.139-.94-4.491.627-9.739 3.78-13.073.199-.21.619.007.508.296-.662 1.717-1.913 3.111-2.677 4.806-1.064 2.361-1.494 5.264-1.107 7.832M536.9175 557.2469c-.404.629-1.537 2.191-1.021 3.007.249.393-.34.864-.653.504-.961-1.108-.099-2.813.533-3.858.678-1.121 1.589-2.904 3.152-2.626.401.072.38.602.104.794-.91.634-1.51 1.236-2.115 2.179M542.1562 555.7289c-.599.366-1.136.821-1.728 1.199-.394.252-.887-.36-.509-.66.896-.712 2.555-2.768 3.87-1.816.13.093.211.317.056.44-.493.393-1.149.507-1.689.837M549.5996 554.536c-.509.226-1.058.238-1.563.477-.523.248-1.008.565-1.535.807-.462.212-.862-.43-.405-.694 1.038-.6 2.11-1.787 3.417-1.247.246.101.403.516.086.657M606.25 591.4257c.278.07.189.441-.063.468-.096.011-.193.021-.289.032-.126.013-.247-.1-.279-.213-1.303-4.502-.021-10.459 2.106-14.509.109-.207.441-.065.376.159-.705 2.415-1.233 4.883-1.658 7.361-.11.645-1.198 6.449-.193 6.702M609.7432 574.1053c-.066.148-.319.043-.265-.111.349-.98.604-1.909 1.069-2.854.61-1.243 1.386-2.377 2.077-3.568.077-.133.269-.042.239.1-.248 1.168-.986 2.139-1.576 3.151-.619 1.064-1.046 2.173-1.544 3.282M628.5937 560.0389c-1.008-.517-1.434-1.965-2.794-1.487-.468.165-.806-.61-.342-.811.751-.326 1.423-.393 2.172.002.704.371 1.326 1.072 1.568 1.832.114.36-.301.619-.604.464M632.5137 558.4432c-.357-.203-.65-.48-.956-.753-.28-.251-.523-.634-.847-.813-.61-.338-.064-1.274.547-.936.338.187.567.46.792.769.309.423.703.776.969 1.228.189.321-.187.685-.505.505M659.6387 552.7196c2.49.446 3.723 3.243 4.364 5.444.159.545-.676.77-.846.234-.377-1.187-1.028-2.438-1.842-3.392-.295-.345-.653-.697-1.031-.948-.385-.255-.77-.25-1.063-.62-.269-.34-.023-.797.418-.718M655.79 557.8046c-.533-.596-.875-1.309-1.359-1.939-.48-.624-1.124-.948-1.818-1.289-.451-.222-.101-.8.314-.743.772.106 1.41.415 1.947.993.646.697.92 1.64 1.523 2.37.347.42-.234 1.025-.607.608M648.8018 558.1244c-.888-.58-1.687-1.06-2.704-1.386-.949-.304-1.94-.334-2.903-.552-.396-.09-.397-.712 0-.802 2.25-.51 4.359.58 6.154 1.804.571.39.042 1.32-.547.936M518.3037 589.6927c-.813-3.328-2.69-6.425-2.82-9.89-.013-.325.46-.309.495 0 .387 3.397 3.264 6.418 2.794 9.89-.033.244-.415.218-.469 0M534.0562 591.8397c2.699.459 3.984 3.283 4.939 5.589 1.278 3.085.601 6.78 2.387 9.533.19.293-.261.537-.46.268-1.033-1.394-1.298-2.209-1.419-3.895-.259-3.601-1.83-9.459-5.603-10.928-.354-.137-.22-.631.156-.567M545.2466 603.2191c-.293.181-.653-.117-.569-.437.377-1.438-.565-3.478-1.039-4.83-.68-1.935-1.446-3.716-2.546-5.456-.3-.476.424-.873.742-.434 1.567 2.162 2.578 4.481 3.375 7.022.384 1.224 1.414 3.286.037 4.135M549.1445 597.2699c.067.941-.279 1.965-.43 2.898-.187 1.152-.522 2.275-.701 3.426-.056.356-.668.276-.634-.085.203-2.103.148-4.5 1.112-6.416.168-.333.63-.143.653.177M556.9873 596.4803c-.843.298-1.268 1.153-1.616 1.923-.181.401-.886.111-.717-.302.361-.878 1.086-2.903 2.408-2.193.253.136.165.487-.075.572M607.4346 626.6844c.378.005.498.499.188.696-1.064.68-1.929 1.562-2.776 2.493-.865.952-1.679 1.686-2.718 2.437-.28.204-.616-.243-.367-.476 1.106-1.034 2.06-2.08 3.064-3.216.637-.723 1.546-1.948 2.609-1.934M614.3936 628.9691c-1.661.686-3.276 1.565-4.803 2.511-1.11.688-2.195 1.467-3.488 1.766-.345.079-.466-.401-.144-.523 2.81-1.057 5.119-4.531 8.338-4.47.438.009.46.566.097.716M636.4932 620.9506c.202-.131.421.163.254.33-3.616 3.617-8.548 5.061-12.854 7.628-2.107 1.255-4.401 2.286-6.653 3.313-2.079.949-4.158.937-6.27 1.609-.491.156-.669-.576-.208-.756 2.511-.983 4.89-1.248 7.35-2.59 1.825-.996 3.674-1.939 5.494-2.944 4.254-2.351 8.781-3.933 12.887-6.59M645.2607 612.1371c.267-.082.443.262.264.453-.86.906-1.573 2.031-2.297 3.045-.843 1.18-1.822 2.253-2.6 3.481-.227.359-.801.027-.572-.335.922-1.46 2.068-2.787 3.087-4.179.497-.679 1.297-2.215 2.118-2.465M648.7461 606.1278c-.125.591-1.012.338-.9-.248.122-.648.486-1.142.796-1.711.295-.543.493-1.087 1.041-1.423.244-.148.6.101.501.385-.168.486-.392.972-.641 1.422-.29.526-.67.974-.797 1.575M638.8857 617.139c-1.392.386-2.678 1.649-3.921 2.36-1.271.727-2.613 1.311-3.971 1.856-3.06 1.228-6.633 2.452-9.242 4.58-.277.226-.806.026-.664-.386.649-1.876 5.019-3.361 6.651-4.026 2.272-.928 4.577-1.669 6.752-2.834 1.379-.739 2.646-1.97 4.189-2.298.484-.103.69.613.206.748M630.6875 614.5966c-1.811 1.526-3.889 2.824-5.821 4.2-.578.411-1.11-.532-.552-.944 1.888-1.394 3.672-2.985 5.812-3.982.439-.205.994.362.561.726M585.647 538.7509c.46.315.953.596 1.43.884.439.264.909.393 1.26.781.272.302-.066.687-.413.536-.937-.408-1.841-.928-2.682-1.508-.423-.291-.023-.986.405-.693M587.1504 534.3978c.753 1.042 1.628 1.975 2.564 2.854.862.808 1.873 1.523 2.644 2.417.206.238-.061.659-.356.462-2.054-1.362-4.016-3.389-5.457-5.379-.265-.366.343-.717.605-.354M600.0273 538.349c.663.577 1.347.982 1.839 1.722.147.223-.184.471-.367.283-.584-.595-1.3-1.007-1.926-1.551-.804-.7-1.469-1.547-2.209-2.309-1.34-1.381-2.626-2.726-3.879-4.19-.265-.31.188-.762.449-.449 1.301 1.556 2.661 2.939 4.065 4.395.674.7 1.293 1.459 2.028 2.099M597.793 531.5834c1.363 1.428 2.827 2.754 4.266 4.105 1.26 1.185 2.896 2.065 4.027 3.353.216.246-.058.653-.361.47-3.286-1.981-5.807-4.655-8.612-7.248-.455-.42.251-1.13.68-.68M603.8477 533.891c1.035.129 1.803.732 2.574 1.396 1.068.919 2.177 1.908 3.082 2.989.19.225-.057.633-.339.44-.846-.581-1.66-1.244-2.465-1.879-.831-.656-1.738-1.77-2.852-1.89-.672-.073-.67-1.139 0-1.056M351.1709 298.0111c.35-4.84.701-9.679 1.051-14.519.113-1.555.653-2.856 1.621-3.905.967-1.049 2.153-1.904 3.555-2.568 1.401-.665 2.862-1.156 4.382-1.477 1.518-.32 2.919-.49 4.203-.508 6.236-.035 11.038 1.342 14.423 4.151 3.384 2.805 5.2 6.325 5.437 10.564.101 4.69-1.312 8.437-4.251 11.232s-6.545 4.373-10.808 4.727c-1.698.135-4.075.083-7.133-.161-3.056-.245-5.468-.592-7.234-1.036-1.592-.362-2.873-1.048-3.842-2.058-.97-1.01-1.438-2.493-1.404-4.442m7.613 44.745c-1.918-.133-3.716-.526-5.397-1.177-1.679-.651-3.028-1.619-4.043-2.898-1.016-1.282-1.446-2.982-1.292-5.102.346-4.767.702-9.677 1.069-14.729.172-2.368.779-4.152 1.821-5.355 1.042-1.204 2.406-2.003 4.091-2.398 1.684-.396 3.603-.536 5.755-.421 3.371.198 6.434 1.069 9.195 2.62 2.76 1.551 4.893 3.657 6.398 6.329 1.505 2.669 2.021 5.764 1.545 9.282-.751 4.389-2.709 7.813-5.881 10.268-3.629 2.78-8.055 3.976-13.261 3.581m-24.007-14.907c-.591 7.733-2.92 12.778-7 15.125-1.385.957-1.882 1.938-1.487 2.947.393 1.007 1.459 1.367 3.195 1.075 2.418-.63 4.851-1.136 7.302-1.518 2.45-.383 4.942-.482 7.476-.295 4.043.437 7.78 1.113 11.21 2.029 2.288.586 4.558 1.062 6.808 1.429 2.25.365 4.582.486 6.992.362 5.161-.44 9.561-1.962 13.191-4.557 3.631-2.597 6.226-5.766 7.791-9.503 1.525-3.671 1.896-7.676 1.129-12.015-.769-4.34-2.948-8.072-6.532-11.204-.446-.346-.679-.654-.698-.922-.019-.267.281-.47.901-.608 4.193-.911 7.609-2.588 10.248-5.02 2.639-2.434 4.478-5.266 5.523-8.486 1.045-3.222 1.266-6.482.671-9.78-.787-4.302-3.02-8.042-6.691-11.222-3.671-3.183-8.971-5.253-15.909-6.234-3.351-.394-6.726-.547-10.127-.459-3.401.089-6.73.249-9.982.482-4.293.335-8.253.455-11.877.364-4.014-.122-7.704-.794-11.062-2.013-1.491-.506-2.509-.347-3.055.482-.545.826-.179 1.947 1.1 3.362 1.751 1.77 2.928 3.718 3.533 5.842.604 2.125.814 4.404.627 6.843-1.108 14.477-2.201 28.976-3.277 43.494M477.5854 289.7953c.001-.035.002-.062.003-.081 0-.017.036-.025.108-.023 0-.017.001-.035.002-.052-.038.052-.075.104-.113.156m-33.128.485c.003-1.668.399-3.341 1.188-5.025.787-1.687 2.23-2.533 4.331-2.549 3.802.165 7.693.256 11.679.273 2.596.031 5.12.076 7.573.133 2.024.111 3.528.777 4.517 2 .988 1.223 1.655 2.718 2.003 4.485.346 1.765.579 3.52.696 5.26.079.819.159 1.583.241 2.295.059.322.101.677.123 1.067.043.817.148 1.627.317 2.43.168.804.534 1.338 1.097 1.608.742.272 1.563.336 2.463.19.898-.148 1.417-.679 1.555-1.595.089-3.718.429-7.463 1.018-11.236.588-3.773 1.583-7.461 2.979-11.064.578-1.436.633-2.576.164-3.423-.47-.849-1.545-1.034-3.228-.559-2.043.64-4.104 1.217-6.181 1.727-2.077.511-4.218.798-6.422.858-4.325-.197-8.741-.352-13.246-.466-3.089-.057-6.139-.152-9.154-.284-2.73-.119-6.177-.505-10.338-1.162-4.162-.656-7.656-1.482-10.482-2.476-.766-.286-1.338-.395-1.715-.326-.376.07-.696.223-.955.456-.479.331-.786.794-.923 1.39-.138.595.118 1.158.766 1.689 1.766 2.323 3.116 4.492 4.049 6.506.932 2.015 1.414 4.546 1.443 7.598-.186 3.785-.357 7.624-.512 11.518-.441 12.636-1.235 25.205-2.395 37.701-.18 1.445-.675 3.043-1.487 4.794-.813 1.75-1.768 3.077-2.867 3.978-.378.3-.755.583-1.132.847-.378.301-.776.601-1.19.897-.92.946-1.192 1.81-.814 2.592.378.783 1.317 1.086 2.818.914.66-.108 1.319-.217 1.98-.326 4.887-1.034 9.816-1.577 14.797-1.634 3.918.108 8.376.323 13.375.636 5.435.333 10.202.538 14.302.619 2.507-.012 4.886.199 7.14.632 2.254.434 4.467 1.308 6.639 2.622.713.413 1.477.686 2.29.819.813.133 1.48.031 1.999-.306.52-.339.668-1.008.446-2.006-.813-2.969-1.513-5.401-2.104-7.298-.926-2.723-1.579-5.376-1.963-7.959-.385-2.582-.435-6.437-.154-11.567-.011-.743-.334-1.304-.97-1.679-.636-.377-1.314-.559-2.034-.548-1.368-.012-2.189.808-2.464 2.465-.093.564-.151 1.235-.179 2.014-.007 1.205-.118 2.609-.338 4.215-.218 1.604-.687 3.368-1.406 5.293-.722 1.958-1.88 3.724-3.477 5.296s-3.613 2.367-6.041 2.378c-.109-.004-.2-.006-.272-.009-.072-.003-.162-.006-.271-.011-1.049-.076-2.224-.139-3.528-.191-1.34-.052-2.534-.1-3.583-.143-2.715-.146-5.428-.275-8.143-.393-2.097-.162-3.581-.847-4.451-2.054-.871-1.209-1.381-2.571-1.53-4.084-.15-1.514-.181-2.852-.092-4.019.304-4.755.607-9.51.91-14.265.106-1.59.344-2.68.712-3.265.368-.587 1.036-.841 2.003-.762 2.622.079 4.525.575 5.709 1.496 1.184.918 2.417 2.396 3.703 4.435.204.292.408.601.61.928.651.805 1.513 1.117 2.584.93 1.07-.188 1.927-.66 2.569-1.414.642-.754.676-1.621.102-2.601-1.797-2.801-2.771-5.568-2.93-8.305-.159-2.736-.069-5.179.269-7.326.053-.424.088-.848.105-1.273.131-1.484-.828-2.09-2.879-1.818-.795.144-1.328.466-1.598.97-.271.502-.46 1.141-.564 1.918-.135.667-.345 1.384-.628 2.153-.642 1.639-1.246 2.774-1.812 3.406-.565.632-1.296.911-2.19.837-1.343-.076-2.686-.152-4.029-.229-.572-.062-.954-.344-1.147-.85-.193-.506-.293-1.085-.299-1.741-.005-.657.02-1.231.078-1.725.011-.248.019-.442.026-.584.125-2.794.251-5.592.376-8.386.123-2.758.248-5.538.373-8.332M532.5493 310.4506c.202-1.236 1.548-1.937 4.039-2.106 2.491-.169 5.103-.092 7.837.234 2.733.322 4.563.631 5.491.929 1.177.369 1.779.837 1.809 1.404.027.565-.177 1.237-.618 2.01-.185.388-.37.811-.555 1.268-1.785 4.794-3.593 9.48-5.424 14.057-.335.811-.672 1.638-1.009 2.483-.039.141-.114.352-.226.635-.189.599-.443 1.249-.76 1.953-.317.703-.658 1.159-1.022 1.367-.365.206-.738-.119-1.121-.975-1.456-3.672-2.82-7.218-4.091-10.641-.721-1.997-1.493-4.048-2.316-6.152 0-.035-.018-.088-.051-.159-.172-.465-.412-1.116-.719-1.953-.306-.837-.588-1.676-.841-2.512-.253-.838-.395-1.452-.423-1.842m.363 42.038c-.439.239-.772.551-.996.939-.225.383-.27.772-.131 1.167.066.318.279.615.637.887.357.272.845.415 1.462.426 1.016.018 2.071-.088 3.164-.317 1.567-.399 3.784-.594 6.651-.585 2.867.007 7.082.776 12.657 2.293.797.185 1.405.21 1.824.073.418-.138.684-.347.796-.629.407-.706.106-1.539-.898-2.507-1.185-1.146-1.93-2.537-2.237-4.17-.437-2.979-.052-6.402 1.147-10.267 1.199-3.866 2.537-7.562 4.013-11.088.739-1.906 1.386-3.617 1.94-5.135.829-2.187 1.658-4.376 2.484-6.564.293-.636.78-.969 1.462-.999.825.043 1.982.007 3.471-.104 1.489-.114 2.854-.388 4.094-.823 1.24-.436 1.917-1.131 2.029-2.086-.03-1.099-.322-1.765-.875-1.998-.555-.235-1.314-.318-2.283-.253-.931.064-1.969.022-3.114-.127-.43-.003-.832-.114-1.206-.328-.374-.217-.579-.535-.61-.961.077-.78.639-2.687 1.68-5.726 1.042-3.039 2.278-6.314 3.708-9.83 1.43-3.515 2.754-6.386 3.974-8.61 1.614-2.789 4.125-4.354 7.532-4.697.817-.103 1.376-.474 1.68-1.112.303-.636.17-1.282-.394-1.939-.567-.656-1.807-.988-3.72-.994-1.807-.007-3.405.083-4.788.269-1.383.19-2.714.403-3.992.643-1.918.413-4.039.687-6.364.83-2.324.138-5.311-.089-8.958-.697-.778-.15-1.379-.317-1.802-.499-.707-.256-1.275-.2-1.704.167-.43.367-.623.86-.577 1.48.046.621.437 1.201 1.177 1.74.176.109.326.208.449.298.123.089.29.19.502.299 2.046 1.12 3.227 2.124 3.537 3.015.311.886.207 2.266-.31 4.139-.15.706-.319 1.52-.506 2.439-1.048 3.159-2.1 6.317-3.154 9.475-.372 1.341-.714 2.295-1.024 2.858-.311.563-.699.849-1.164.862-.464.013-1.124-.094-1.979-.317-.214-.038-.446-.094-.695-.167-3.063-.857-6.235-1.371-9.518-1.545-3.285-.177-6.471.184-9.56 1.083-1.009.371-1.806.436-2.39.194-.585-.242-1.08-1.004-1.484-2.287-1.577-5.097-3.148-10.195-4.71-15.295-.3-.963-.359-1.938-.178-2.927.181-.988.72-1.756 1.62-2.302.79-.409 1.684-.747 2.684-1.009.891-.266 1.696-.569 2.413-.909.287-.172.498-.488.63-.944.133-.457.061-.892-.214-1.305-.277-.413-.839-.627-1.689-.644-1.882.032-3.8.26-5.759.677-1.532.321-3.151.562-4.858.716-1.706.157-3.549.069-5.527-.264-.318-.042-.656-.105-1.006-.184-.636-.157-1.29-.246-1.963-.262-.816-.021-1.415.23-1.802.751-.386.52-.499 1.093-.337 1.718.16.624.611 1.087 1.348 1.39 1.585.537 3.101 1.301 4.553 2.292 1.449.993 2.441 2.31 2.972 3.95 4.605 13.022 9.266 26.034 13.985 39.036.171.428.395.981.67 1.66.722 1.784 1.536 4.057 2.442 6.82.905 2.761 1.533 5.58 1.881 8.455.249 2.306.14 4.44-.329 6.396-.469 1.959-1.291 3.281-2.463 3.969M651.6045 318.057c2.362 1.695 4.1 3.904 5.209 6.631 1.111 2.723 1.605 5.61 1.482 8.66-.413 6.879-2.946 11.729-7.609 14.532-4.662 2.802-10.48 3.348-17.419 1.619-2.508-.682-4.029-1.641-4.564-2.875-.537-1.235-.744-2.861-.619-4.881-.001-.143-.002-.285-.003-.425.048-6.252.096-12.504.143-18.756.116-2.871 1.22-4.793 3.309-5.774 2.089-.977 4.474-1.572 7.163-1.784 4.76-.664 9.058.352 12.908 3.053m-7.188-12.907c-1.29 2.391-3.308 3.962-6.055 4.705-1.071.262-2.314.516-3.725.764-1.413.247-2.636.391-3.675.439-1.327-.059-2.201-.563-2.621-1.516-.421-.951-.619-2.01-.595-3.18.01-4.517.021-9.034.031-13.549-.063-2.763.717-5.143 2.33-7.142 1.615-2.003 4.333-3.625 8.152-4.878.742-.257 1.161-.687 1.261-1.292.099-.603-.124-1.184-.662-1.744-.573-.452-1.428-.671-2.563-.657-3.901.083-7.228.471-9.988 1.169-2.338.552-4.801.873-7.39.963-2.589.09-5.788-.458-9.586-1.647-.71-.174-1.224-.038-1.54.406-.319.443-.441.984-.368 1.622.074.635.358 1.168.859 1.59 2.028 1.621 3.53 3.605 4.503 5.957.972 2.348 1.466 4.764 1.48 7.244l.299 43.245c-.11 6.091-1.478 10.793-4.107 14.099-.399.461-.885.888-1.462 1.282-.291.213-.544.408-.76.587-.651.605-.958 1.232-.918 1.888.037.656.321 1.176.85 1.565.526.387 1.17.49 1.933.311 3.336-1.042 6.687-1.983 10.055-2.821 2.68-.444 5.327-.573 7.941-.385 2.614.188 5.246.495 7.902.924.798.133 1.599.247 2.4.343 3.162.456 6.269.661 9.318.615 3.049-.047 5.963-.486 8.743-1.314 4.728-1.574 8.564-4.264 11.507-8.062 2.943-3.803 4.628-7.977 5.066-12.52.401-4.51-.591-8.765-2.96-12.767-2.372-4.007-6.041-7.371-11.001-10.112-.797-.447-.969-1.063-.518-1.85 1.945-3.153 3.59-6.781 4.938-10.883 1.01-2.89 2.123-5.596 3.335-8.119 1.21-2.524 2.705-4.514 4.484-5.972 1.225-.914 2.564-1.405 4.02-1.474 1.454-.071 2.532.417 3.234 1.464.408.695.899 1.092 1.471 1.185.57.092 1.011-.071 1.321-.487.311-.413.274-1.079-.104-1.989-1.423-2.8-3.581-4.674-6.478-5.634-2.898-.957-5.898-1.192-9.01-.701-5.158.994-8.951 3.081-11.382 6.277-2.431 3.195-4.257 6.785-5.477 10.771-.273.783-.546 1.568-.819 2.352-1.02 3.273-2.242 6.251-3.669 8.928M733.6963 280.8187c4.896-.271 9.072 1.353 12.545 4.884 3.471 3.531 6.14 8.149 8.002 13.858 1.86 5.71 2.804 11.683 2.813 17.923.01 6.24-.99 11.919-3.011 17.03-2.023 5.112-5.159 8.827-9.409 11.14-2.093 1.049-4.38 1.67-6.856 1.862-2.478.191-4.77-.176-6.872-1.104-2.102-.927-3.635-2.578-4.595-4.952-.907-2.907-1.529-8.138-1.872-15.691-.34-7.556-.569-14.786-.688-21.692-.069-3.65-.142-6.534-.222-8.657-.095-2.479.05-4.779.433-6.904.38-2.122 1.32-3.859 2.816-5.211 1.493-1.353 3.799-2.179 6.916-2.486m7.497 72.11c7.491.141 13.683-1.671 18.548-5.415 4.865-3.744 8.433-8.641 10.707-14.681 2.274-6.041 3.295-12.48 3.08-19.313-.221-7.577-1.904-14.653-5.028-21.23-3.126-6.579-7.637-11.616-13.526-15.128-3.905-2.084-8.237-3.115-13.01-3.102-4.775.016-9.253.513-13.439 1.493-1.97.432-3.642.833-5.012 1.205-2.318.656-4.507 1.064-6.56 1.228-2.054.162-4.924-.114-8.606-.841-.465-.128-1.003-.252-1.61-.371-1.432-.342-2.734-.602-3.912-.776-.638-.016-1.13.205-1.469.657-.341.454-.447 1.007-.32 1.659.127.65.607 1.246 1.441 1.787 2.07 1.351 3.565 3.313 4.487 5.887.921 2.574 1.496 5.328 1.72 8.263.223 2.933.34 5.622.352 8.066-.003.993.01 1.878.036 2.658.449 11.237.899 22.473 1.351 33.709.051 1.521.034 2.869-.053 4.042-.088 1.172-.43 2.325-1.026 3.463-.595 1.136-1.579 2.383-2.949 3.738-.209.219-.457.458-.739.714-.493.407-.962.837-1.4 1.295-.44.456-.707.915-.8 1.38-.093.535-.043.993.151 1.377.194.385.476.641.842.771.443.199.934.227 1.476.086.539-.141 1.13-.348 1.777-.617.537-.228 1.093-.442 1.669-.638 2.55-.83 4.881-1.415 6.993-1.756 2.112-.34 4.561-.562 7.353-.666 4.027-.116 7.663.061 10.916.531 2.114.232 4.302.407 6.56.525M820.3516 304.2904c.038.564-.016 1.127-.158 1.687-.144.559-.303 1.113-.483 1.657-.033.037-.047.092-.043.162-1.201 3.557-3.04 8.037-5.525 13.432-2.485 5.395-4.794 10.235-6.92 14.519-1.158 2.341-2.044 4.172-2.653 5.485-.473 1.166-1.25 2.392-2.335 3.682-1.084 1.29-2.357 2.191-3.817 2.704-.535.174-.871.478-1.008.911-.138.435-.088.813.148 1.136.238.323.68.412 1.325.267 2.689-.657 4.951-.971 6.79-.943 1.838.029 3.477.175 4.911.441 1.841.344 3.792.417 5.854.212.612-.112 1.026-.325 1.241-.639.217-.317.267-.655.153-1.022-.115-.364-.377-.624-.788-.774-1.852-.52-3.386-1.345-4.602-2.474-1.217-1.128-1.381-2.732-.497-4.812 3.915-8.358 7.799-16.722 11.649-25.093.384-.735.839-1.067 1.365-.997.528.07.973.412 1.34 1.027 3.849 6.217 7.716 12.427 11.602 18.63 1.172 1.691 1.801 3.405 1.89 5.138.087 1.733-.846 3.133-2.808 4.195-1.612.858-2.215 1.736-1.807 2.629.409.896 1.674 1.18 3.8.851 2.908-.564 5.965-.82 9.172-.772 3.207.047 6.128.164 8.766.353 2.455.202 4.262.259 5.421.168.975-.112 1.598-.419 1.868-.919.271-.501.25-.998-.061-1.488-.311-.492-.852-.76-1.62-.806-1.212-.117-2.428-.557-3.65-1.316-1.224-.758-2.221-1.675-2.994-2.753-1.224-1.754-3.386-5.097-6.472-10.034-3.086-4.936-6.117-9.9-9.091-14.886-2.974-4.989-4.952-8.426-5.948-10.307-.084-.172-.149-.31-.191-.413-.044-.105-.078-.207-.102-.313-.027-.103-.045-.247-.057-.421-.514-7.012-1.027-14.024-1.54-21.036-.152-2.155.157-4.078.929-5.765 1.141-1.999 2.74-3.532 4.799-4.606.683-.368 1.061-.804 1.131-1.308.072-.501-.058-.928-.385-1.277-.33-.347-.743-.521-1.24-.521-1.52.11-3.001.305-4.438.586-1.44.28-2.84.591-4.202.934-2.413.594-4.857 1.038-7.326 1.329-2.47.292-5.099.104-7.879-.566-1.01-.219-1.713-.093-2.11.376-.395.47-.518 1.045-.368 1.728.151.682.578 1.248 1.284 1.7 1.889 1.119 3.257 2.315 4.109 3.591.85 1.274 1.487 2.961 1.913 5.064.212 1.051.444 3.332.698 6.849.251 3.513.515 7.606.79 12.273.058.849.112 1.696.17 2.545M499.2988 218.8275l-.842-.051c-.895 0-1.737-.422-2.262-1.105-.632-.737-.896-1.737-.738-2.738.317-1.839 1.421-2.892 2.947-2.892.369 0 .789.052 1.158.21.157 0 .21.054.315.054.106 0 .211-.054.317-.054.052-.053.105-.053.209-.053h.527c1.158 0 2.263.264 3.262.526l.474.106c1.578.368 2.578 1.577 2.526 2.999-.053 1.263-1.001 2.262-2.526 2.631-1.316.367-2.684.367-3.526.367zm0-10.839c-.316 0-.526 0-.79-.053-2.104-.314-3.473-2.419-3.21-4.839.264-1.947 1.842-3.421 3.684-3.421h.368c2.368.263 4.367.526 6.314.842 1.684.263 2.789 1.263 3.052 2.737.264 1.63-.316 2.892-1.841 3.788-1.158.736-2.369.843-3.263.843-.315 0-.683 0-1-.054h-.736c-.421 0-.684 0-.894.104h-.316c-.316 0-.579.053-.79.053zm-7.63-11.418c-.316 0-.684.475-.737 1-.052.316-.105.632-.105.948-.316 2.368-.21 4.63-.105 6.998.105 2.472.21 4.999-.105 7.578-.211 1.629-.158 3.261-.106 5.05.053 1.106.053 2.21.053 3.368-.053.473 0 .895.105 1.158.263.631 1.947.841 3.263.841h6.051c1.315 0 3.21-.263 4.156-.42.579-.107 1.158-.211 1.789-.211 3.104-.053 4.999-1.842 5.42-5.052l.053-.474c.263-1.788.473-3.367-.264-4.892-.525-1.158-.21-2.578.948-3.684 1.421-1.367 1.579-3.104 1.421-5.367-.264-3.21-1.895-5.262-4.894-6.209-1.579-.473-3.473-.525-5.262-.579h-.683c-1.632-.053-3.316-.053-4.947-.053H492.2478zM549.0674 196.7298c-.421 0-.789.21-1 .526-.105.158-.263.473-.105.894.526 1.684.473 3.263-.052 4.946-.106.263 0 .632.21 1.158.158.473.315.999.368 1.579.105 1.946-.526 3.525-1.211 4.893-1.051 2.105-2.473 3.894-3.893 5.63-1.052 1.315-2.052 2.525-2.841 3.894l-1.158 1.736-.526.736c0 .053-.052.053-.052.158 0 .054.157.105.368.054h.316c.368 0 .683.051.947.157.525.158 1.262.42 1.736.42.421 0 1.21-.104 1.736-.314.316-.159.579-.317.684-.579.684-1.368 1.579-2.474 2.473-3.527.474-.526.895-1 1.316-1.579.473-.683 1.21-1.472 2.21-1.472.999 0 1.736.736 2.315 1.472.578.739 1.053 1.475 1.526 2.211.473.736.947 1.473 1.473 2.106.842 1.051 1.947 1.682 2.21 1.682.211 0 1-.314 1.789-.473.474-.104.948-.158 1.421-.158h.578c.106 0 .211-.105.158-.262 0-.107-.052-.159-.105-.264-1.894-2.157-3.473-4.525-4.998-6.841-1-1.578-2.053-3.157-3.21-4.682-.789-1.053-1.158-2.157-1.158-3.419.053-1.422.053-2.843.053-4.263 0-1.632 0-3.21.053-4.789 0-1.577-.053-1.63-1.527-1.63-.368-.053-.736-.053-1.104-.053-.316 0-.631 0-1 .053M596.6797 197.1498c-.105.106-.158.21-.211.264-.104.157.263 1.315.422 2.683.103 1.21.051 2.473-.054 3.578 0 .473-.053.947-.053 1.42-.052 1.264 0 2.631.053 3.894.054 2.315.157 4.682-.262 7.051-.158 1.105-.42 2.578-2.579 2.894-1.578.263-3.104.263-4.577.317h-.842c-.526 0-.948.103-1.105.315-.158.157-.21.578-.106 1.157.053.316.053.632.053.999 0 .264 0 .527.053.789.157.633.42.738.789.738.053 0 .157-.052.263-.052.316-.053.632-.053.947-.053.369 0 .685 0 .999.053.526.104 2.001.314 3.316.314h10.47c1.316 0 2.578-.051 2.788-.051l.369-.106c.58-.053 1.159-.157 1.737-.263 1.578-.369 1.842-1.948 1.578-3.315-.053-.525-.736-.842-1.578-.842-.264 0-.527.053-.841.106-.738.157-1.525.211-2.316.211-.474 0-1 0-1.474-.107-1.999-.263-3.208-1.632-3.208-3.631 0-1.051 0-2.051-.053-3.05-.054-2.159-.106-4.42.104-6.63.159-1.369.106-2.737 0-4.21-.104-1.316-.158-2.684-.051-4.052 0-.474-.053-.736-.107-.788-.052-.053-.21-.106-.526-.106h-.21c-.263.053-.526.053-.789.053-.369 0-.684-.053-1-.053h-1.158c-.21 0-.579.158-.841.473M636.5566 196.7826c-.053.104-.106.263-.053.474.053 1.156-.053 2.261-.211 3.367-.21 1.525-.367 2.945.107 4.367.367 1.156.157 2.368-.053 3.524-.106.422-.157.843-.211 1.212-.053.894 0 1.788.054 2.682 0 .369 0 .736.051 1.105.052 2.159.159 4.999 0 7.893-.051 1.264.159 1.578.21 1.631.106.106.369.159.738.159.264 0 .526-.053.789-.053.211-.052.368-.052.578-.052.315 0 .632.052.948.105.527.105 2.052.315 3.367.315h9.945c1.368 0 2.683-.263 2.736-.631v-.737l-.053-.526c0-.422.053-.789 0-1.158 0-.63-.579-1.209-1.158-1.209H650.3956c-2.105 0-4.21-.054-6.367-.369-1.999-.264-3.158-1.527-2.999-3.369.263-2.63 2.525-3.05 3.261-3.208 1.053-.211 2.211-.316 3.527-.316 1.052 0 2.052.053 3.052.157.841 0 1.682.053 2.471.106.579 0 .79-.106 1-.789.369-.947.053-1.895-.367-3.052l-.106-.315s-.158-.053-.368-.053h-.159c-.893.157-1.842.21-3.104.21h-1.578c-.527-.053-1.053-.053-1.58-.053-.789 0-1.472.053-2.051.105-.21 0-.474.053-.684.053-1.999 0-3.314-1.262-3.314-3.21 0-1.157.473-2.315 1.315-3.157.79-.79 1.789-1.263 2.842-1.263.157 0 .315 0 .473.053 1.579.21 3.315.316 5.577.316.948 0 1.894 0 2.894-.053.789 0 1.316-.157 1.526-.367.159-.263.159-.896 0-1.685-.263-.946-.474-1.999-.684-2.157-.157-.105-1.315-.105-1.735-.105h-.633c-1.052 0-2.105-.052-3.157-.052-.999 0-2.052-.054-3.052-.054-2.315 0-4.051.106-5.683.316h-.525c-.579 0-1.106-.105-1.579-.157-.42-.105-.842-.159-1.21-.159h-.158c-.369 0-.579.106-.684.159M682.0645 199.5707c-1.315 1.21-1.526 1.526 0 3.472.21.263.579.422.999.422.526 0 1.053-.21 1.526-.526 1.684-1.053 3.368-1.579 5.157-1.579.579 0 1.158.053 1.735.157.843.159 2.79.527 3.211 2.738.263 1.209.053 2.893-2.263 3.788-1.211.472-2.421.736-3.577.946-1 .212-1.948.422-2.894.738-2.685.999-4.158 2.841-4.368 5.576-.212 2.631 0 4.158 1.683 5.367 1.842 1.422 3.474 2.579 5.736 2.737.789.053 1.526.104 2.262.104 2.211 0 3.946-.314 5.578-.893l.789-.317c1.842-1.158 1.474-1.894 1.263-2.209-1.105-2.158-2.105-2.158-2.474-2.158-.314 0-.631.105-1.052.264-1.157.526-2.579 1.156-4.208 1.156-.316 0-.685-.051-.999-.103-1.895-.264-3.105-1.369-3.264-2.842-.105-1.368.843-2.578 2.525-3.157.212-.053.422-.158.632-.264.633-.263 1.369-.525 2.21-.525h.475l.472.105c2.842 0 6.262-3.104 6.736-6.052.316-1.999.052-3.524-.685-4.946-.893-1.631-2.367-2.841-4.788-3.894-.684-.262-1.421-.316-2.21-.369h-.211c-.842 0-1.683-.05-2.525-.05-2.578 0-5.262.262-7.471 2.314M458.8882 561.2738c.914-.761 1.675-1.752 2.285-2.97l-.228-1.143c.304-.076.456-.229.456-.457v-.229c0-.838-.228-1.333-.685-1.485h-.457c-.077 0-.457.305-1.143.914-1.066-.609-1.942-1.675-2.628-3.2-.762 0-1.752-1.637-2.971-4.912-.304-.153-1.066-1.943-2.285-5.371.153-.304.229-.533.229-.685-.457 0-.801-1.257-1.029-3.771.305-3.046.648-5.523 1.029-7.427h-.229c0-.152.076-.229.229-.229-.381-1.294-.572-2.133-.572-2.513.381-1.143.572-2.095.572-2.856v-.229l-3.314-12.112c-.761 0-1.866-1.18-3.313-3.542v-.229c3.123-2.97 4.684-5.598 4.684-7.884.914-2.436 1.486-4.532 1.714-6.283-.228-.305-.343-.611-.343-.914v-.687c0-.532.115-.951.343-1.256l-.343-1.372v-.456c0-.534.115-.914.343-1.143-.228-2.057-.495-3.085-.8-3.085.305-1.37.457-2.971.457-4.799l-.229-1.256c.382-.687.572-1.372.572-2.057h-.343l.343-.458c0-7.236 1.599-12.073 4.799-14.511.38-1.218 1.257-2.742 2.628-4.57l.686-1.485c-.99-2.667-3.619-5.371-7.884-8.113h-.801c-4.646 4.571-7.274 8.15-7.884 10.741-1.447 2.285-2.627 5.446-3.541 9.483.228.305.343.648.343 1.029l-.571 1.599c0 1.752.19 4.685.571 8.798-.229.305-.343.647-.343 1.029 0 .153.114.227.343.227l-.343 1.601v9.369c0 .533-.077 1.219-.228 2.057.151.229.228.534.228.914-.914 4.95-2.438 7.428-4.571 7.428-2.36.379-3.542 1.104-3.542 2.17l-.229 1.142.457 1.144-.685 1.371c.076.99.228 1.485.457 1.485l-.229.457c.534 2.438 1.296 3.656 2.286 3.656 1.219.305 2.628 1.637 4.228 3.999l1.143 3.999-.229.457c.99 3.886 1.485 6.132 1.485 6.742-.153.609-.343.913-.571.913l.343 1.6v2.4l-.571.685v.229c0 .153.076.229.228.229l-.228.457v.228c0 .152.266.381.799.686 0 .456-.19 1.066-.571 1.827.305.458.571 1.943.8 4.457-.153.304-.229.609-.229.914 0 3.123 1.143 6.779 3.428 10.969 0 .609 1.714 3.123 5.142 7.541 0 .305 1.256 1.6 3.77 3.885 1.142 0 3.39-1.714 6.742-5.142M746.4014 560.017c2.591-3.808 4.229-7.77 4.914-11.883 0-5.408-.228-8.112-.685-8.112 0-.229.077-.457.227-.686l-.456-3.314c.152-1.675.229-3.16.229-4.456 0-.762-.077-1.675-.229-2.742 0-4.266.762-7.313 2.285-9.14 1.294-2.972 2.932-4.457 4.912-4.457 1.525-.99 2.286-2.057 2.286-3.199-1.219-2.439-1.828-3.771-1.828-4v-.685c0-.838.076-1.943.229-3.313 0-.611-.837-.991-2.514-1.143-1.904-1.448-3.618-3.618-5.141-6.512-.458-.382-1.258-1.867-2.401-4.458l.229-.456c-.913-2.056-1.37-4-1.37-5.827v-1.601c0-.608.075-1.446.227-2.513-.152-.305-.227-.724-.227-1.256 0-.152.075-.229.227-.229l-.227-1.6v-2.057c0-.153-.077-.227-.229-.227l.229-.458v-2.628c0-.305-.077-.609-.229-.914l.229-.458c-.077-.913-.229-1.37-.458-1.37l.229-.457c-1.371-6.779-2.933-10.741-4.685-11.884l-2.056-3.769c-.382 0-.99-.877-1.829-2.628-.38 0-1.257-.687-2.628-2.057h-1.37c-.458.151-1.41 1.028-2.858 2.627-.228-1.447-.684-2.171-1.371-2.171 0 1.067-.532 2.02-1.598 2.857-.154.838-.23 1.523-.23 2.057h.23l-.23.456c0 1.371 1.066 3.162 3.199 5.371 1.067.38 1.638.762 1.715 1.143-.153 0-.229.076-.229.227l-1.143-.227h-1.256c-.914.608-1.372.99-1.372 1.143 0 .38 1.029.875 3.086 1.485 0 .456.152.685.456.685.381 0 .914-.229 1.601-.685h.228c0 .152.075.38.228.685-.456 0-.686.152-.686.458v.685c1.067.838 1.6 1.448 1.6 1.828 0 .533.457 2.704 1.371 6.512 0 .61-.076 1.334-.229 2.172l.458 5.598-.229.458c0 .151.076.228.229.228l-.229 1.6.229 1.372c0 .151-.077.227-.229.227l.229 1.258v1.37c0 .838-.077 1.904-.229 3.199.306.458.647 2.667 1.029 6.628 2.361 6.17 4.685 9.254 6.97 9.254v.229c-1.219 1.524-2.933 3.466-5.142 5.827-1.524 2.515-2.286 5.485-2.286 8.912 0 .153.076.229.23.229-.154 1.524-.23 2.667-.23 3.428 0 3.428.153 5.142.458 5.142l-.228.914c.152 3.657.228 5.522.228 5.599 0 5.941-1.409 10.854-4.228 14.739-.38.381-1.333 1.943-2.857 4.685-.227 0-.533.305-.914.914 0 .533 1.866 2.247 5.599 5.142 2.361 1.523 4.075 2.285 5.142 2.285 1.6-2.209 3.465-4.227 5.598-6.056" fill="#231f20"/></g></svg>