<svg xmlns="http://www.w3.org/2000/svg" version="1" id="svg4103" width="438.95865" height="325.76572" viewBox="0 0 438.95865 325.76571"><g id="g4111" transform="matrix(1.33333 0 0 -1.33333 -123 468)"><g id="g4113" transform="matrix(.1 0 0 .1 -12 -98)" fill="#231f20"><path d="M3571 3518c-16-46-50-92-94-114 2 11 2 25-2 37 12 1 20 5 26 12-5-8-9-17-15-25-4-6 5-10 9-7 11 9 15 25 21 37 11 20 25 37 38 55 27 37 27 62 24 106 0 5-8 5-8 0-1-47-10-76-38-114l-12-18c3 6 5 13 9 19 21 36 22 83 20 124 0 3-6 4-7 0-4-31-1-66-10-95-6-19-38-86-58-88l-7 13c20 17 32 47 40 69 16 41 2 83 9 125 1 3-5 5-6 1-7-32-1-67-8-100-7-30-25-58-42-85-7 7-15 11-26 10-11 0-18-15-10-23 23-23 14-62 6-95l-5 8-20 28c-9 13-17 33-33 39-4 2-7-5-3-8 13-8 22-31 30-44 8-11 18-23 24-35 1-2 2-3 4-3l-3-14c-5-43 0-80 1-123v-12l-19 29c-2 2-5 0-4-2l3-7-17 21a370 370 0 0 0-23 29c-3 9-3 19-3 28l7-9c14-16 26-39 42-52 3-2 9-2 9 3 3 13-10 24-16 35-2 4-8 1-7-3l2-6-14 20-21 27v6c3 0 5 2 6 4l1 7 10-24c4-6 14-8 17 0l4 14 3-3c4-3 9 1 9 5 1 11-4 21-12 29l-3 1c-2 13-6 26-7 38-1 5-4 9-8 10-5 20-17 37-36 37l5 1c38 8 67 36 95 61 4-2 9-3 14-1 11 5 13 11 17 21 10 24 16 73 15 101-2 53-28 94-41 143-2 8-14 4-12-3 10-33 17-63 21-97 4-29 4-54-2-82-2-9-5-35-10-50-18 6-36 11-55 14 49 42 40 92 26 152-15 68-59 119-91 179-2 4-7 1-5-3 22-46 57-89 75-137 26-68 24-128-11-189v-1c-27 5-53 7-82 8-56 3-110 16-167 22-63 6-128 17-193 24 16 16 31 30 40 51 1 3-3 6-6 5-4-3-6-5-8-9l-11-15-24-25c-2-2-2-4-1-6l-21 2c1 1 3 1 3 3 9 22 9 49 6 73-2 23-13 43-15 66 0 5-8 6-8 0 1-21 11-39 13-61 3-26-3-51-3-77 0-2 1-3 2-3l-28 2c4 10 2 23 0 34a366 366 0 0 1-15 58c4-15 6-31 8-47 1-12 5-29 0-41v-1l-1-3-26 2c5 13-26 26-34 40-9 17-12 43-18 62-14 44-21 89-35 133-33 103-75 205-62 316 0 4-6 4-7 0-6-55-6-123 12-175 27-80 43-149 52-234 3-19 15-98 41-142l-19-1c-117-8-235-34-352-43-78-6-157 1-235 1-45 0-89 1-133-1-20-1-42-5-64-5v5c-32 75-30 158-11 237 12 48 15 108 34 154 3 8-9 11-12 3-12-29-13-65-23-95-12-36-28-72-38-108-15-54-14-145 23-193l-12 5c-40 61-47 135-34 207 12 74 67 127 64 207-1 3-5 3-5 0-3-64-38-105-60-161-13-34-15-74-15-110 0-50 8-100 34-141-6-4-10-11-9-18v-4c1-19 19-34 33-45l18-16 9-5-6-3c-1 5-4 9-9 12l-7 3v4c-97 73-89 176-77 284 1 3-4 4-5 1-31-105-26-222 73-286-28 11-56 15-80 27-19 51-43 106-43 162 1 70 32 133 51 200 1 4-5 5-6 2-42-120-91-236-19-354-10 8-20 19-28 35-33 62-17 195 8 260 42 109 129 191 186 291 71 126 235 188 368 221-60-25-120-46-177-85a383 383 0 0 1-153-182c-1-3 3-4 4-2 56 82 123 142 208 194 57 35 133 52 187 91 20 4 40 7 60 8 30 2 54-3 83 10 11 5 25 14 38 24 12-13 24-23 31-26 5-3 12-5 18-6-5-8-8-18-9-28-3-22-3-46 1-68 1-7 11-4 10 3-4 30 1 64 14 92h12l-1-2c0-14 10-28 16-40 4-10 5-26 15-31 2-2 5 1 4 3l-10 27c-6 13-18 28-20 42l-1 1 39 4c22 3 49 4 72 9l5-2c46-8 89-23 134-36 53-15 107-27 157-48 0-3 1-6 5-7 58-22 121-131 148-188 19-41 36-89 47-132 5-22 7-43 15-63 14-37 39-57 63-87 3-4 10 1 7 5-22 35-48 64-57 106-11 48-20 89-37 136-15 41-36 78-62 112-17 24-32 50-51 72h1c46-37 79-92 102-146 18-42 23-79 57-110-2 0-4-1-3-4 8-39 28-91 52-124 15-20 34-33 47-55 15-29 30-74 33-105 1-3 5-3 5 0-3 37-20 94-40 127-15 24-38 41-52 67-15 27-32 62-40 91 55-50 102-88 133-159 14-35 31-68 42-104 20-64 42-139 19-204zm-190-452l-17-19-5 14c-1 2-4 2-4-1v-2l-16 25c-8 14-14 30-20 45-2 3-6 2-8 0l-1 4 4 3 6 13c10-26 27-51 45-70 3-3 7-1 8 2v1c1 2 0 4-2 4l-29 40-8 12 3 2 11 21 9-13c12-14 26-40 43-48h2c-6-12-13-23-21-33zm-32-143c-3 0-6-1-7-4l-6-16-1 1c6 19 3 42 1 57l-2 15 2 1c4-14 9-33 13-54zm-24-139l2 41 8 26c5-2 10 2 9 6l-3 16 11 34c8-47 9-99-27-123zm-145-416v30l10 23 13 26 2-2c1-3 5-3 8-2-6-26-16-52-33-75zm-26-29l4 6-1-3-3-3zm-48-1l5-13-6 10 1 3zm-24 2l-1 5v1l2-3-1-3zm-24-24l4-4-5-3 1 7zm-70-59c10 21 16 44 22 62 3-10 8-19 14-26-7-20-18-37-36-36zm-34-23l5 34 6 17 29 42c-9-32-20-67-40-93zm-51-29l21 26c-2-13-5-27-6-41-6 4-11 9-15 15zm-41 13l2 3 9 24c3-1 6 0 8 2l4 5-5-14-6-21c-3-10-8-19-13-28l-4 15v2l5 12zm-51 1l-1-2c3 28 3 57-1 87 1 13-1 25-2 37 4-16 10-35 21-49-2-3-3-6-1-10 0-2 2-3 3-4l-1-29-18-30zm-35-101l1 22c0 19-3 39-5 57l-5 21 16 28c-3-17-6-34-7-51 0-5 6-7 11-6v-13l-9-8c-5-3-1-9 5-10 5 0 9 2 13 4a226 226 0 0 0-20-44zm-41-39l4 1c-2-2 0-5 3-6l-1-1-1-2-5 8zm-21-20l6 2 3-3-9 1zm-123 60c2 2 2 5-1 7l-4 3-4 9-3 5 5 2c8-14 14-29 14-42l-7 16zm-36 14l9-1 2-3 6-11c-6 1-12 7-17 15zm-93 85l10-14-7 4-3 10zm-4-42l-10 23 3-3 7-20zm-32 32c-19 5-34 10-48 18 16-4 32-7 47-7l3-12-2 1zm-137 102c4-2 10 0 9 5l-3 11c1 1 2 4-1 5h-1c-2 14-4 28-3 42l17-15c-1-12 1-23 5-35 7-19 18-38 26-56l6-12-4 1-3 2c-16 13-33 30-32 47 0 7-13 7-13 0-1-9 2-18 7-26h-1c-5 10-8 20-9 31zm-47 76l1-4-2 2 1 2zm-25 31l9 52 1 3 7-10c-4-17-3-37 1-55l-3-12-15 22zm-19 86c2-2 7-3 11 0l2 1c4-20-4-42-6-62v-3c-9 20-13 42-7 64zm-16 12c-3 16-6 31-11 46l5 15c4-17 10-33 20-47-8-14-12-29-13-43l-1 29zm-65 114c9-15 23-27 43-31l-2-7c-3 0-6-2-7-5-16 8-27 24-34 43zm-51 249c2 0 4 1 4 4l8 26v-13c-5-15-8-30-8-45l-4 28zm-26 188c-24 32-35 72-38 111 19-3 33 32 39 43 3 5-4 9-7 5-1-1-19-25-24-29 3 4 10 23 11 25 7 20 17 41 26 61l11-18 1-17-20-46c-10-29-27-69-19-100 2-5 9-6 13-3 7 6 6 5 11 13 3 5-4 9-8 6l-2-1c0 31 14 67 24 95l1-1c0-13 1-23 5-30a52 52 0 0 1-6-51l-16-36-1-3c-4-8 8-11 12-6l9 15-4-12c0-3 2-6 6-7l1-8a216 216 0 0 0-8-25c-7 6-13 12-17 19zm-25 391c7 7 4 18-4 22 3 1 6 4 7 7l8-3-1-1c1-8 7-14 13-20l-38-38-1-2c2 14 6 26 16 35zm1336-33c6-4 9-12 11-20l-11 20zm-1-117l-1 10 2-2v-4l-1-4zm11-118v1c2-2 4-2 6-2l17-20c10-12 20-25 31-35l-8-23-5 8c-1 3-6 2-6-1-10 10-18 23-27 33l-16 20 8 19zm-21 7c4 16 8 32 8 47l5-5-2-13c-2 0-4-3-3-5l2-4c-1-9-3-18-7-27v-1c-1 2-3 5-3 8zm-519-847zm493 877c3 8-11 11-14 4-12-34-10-68-5-102 2-7 2-16 3-25-2-1-4-2-4-5-3-20 1-39 7-57v-18l-5 29c-7 29-25 67-9 96 4 7-8 14-12 6-15-23-10-47-5-72 4-26 6-56 13-83-4 4-15 3-15-5 0-23 5-45 10-68-3 1-7-1-7-5v-3c-3 23-4 46-4 69 0 8-15 8-16 0-3-55 4-105 14-158l-2-3c1 9-15 9-16 0-2-9-3-18-3-28-4 0-8-1-8-4-8-32-4-67 0-100-1-20-2-43-9-60l-13 112c-1 8-15 8-14 0 3-39 10-78 14-117l1-23c-7 35-14 71-15 107 0 5-10 6-10 0-1-20 0-41 1-62l-2 11c-2 7-14 4-13-3l10-66-1-23c-8 25-15 51-15 78 0 8-15 8-15 0 0-32 6-60 15-90a400 400 0 0 1-55 88l-12 36c-3 7-16 4-14-3l3-8-20 26-7 13 1 7v4c11 2 23 5 33 11 29 15 30 43 32 69 1 9-14 8-16 0l-3-14c-13-6-21-17-35-22-10-4-22-4-32-2 10 5 20 11 29 19 3 3 0 7-5 7-17-3-30-10-44-14l-2 1c-4 5-15 1-11-5-7-1-14-2-23-1l-6 4c14 2 27 7 39 16 8 6-2 16-10 12l-17-7a1070 1070 0 0 1-23 7c7 4 12 9 16 14l16 9c3 2 2 7-2 7-16-2-33-9-50-7-23 2-45 21-63 32-10 6-19 11-29 14l11-1 5-2h8c4-1 9 3 6 6-7 8-20 11-33 12l-17 4c-19 4-43 10-63 6-17-4-28-13-34-24l-4-6v6c0 5 2 9 3 13 1 6-9 11-13 5l-6-10c-2 1-5 0-6-2-23-33-1-77 28-101h2c7-15 22-24 37-28 3-1 5 2 3 5-4 4-12 6-17 9l-9 7c2 1 3 3 2 6-11 16-16 34-20 52l3 1c0-10 2-19 5-28 5-13 22-30 38-33h3a203 203 0 0 1 5-6c-4 4-10-2-6-6 8-7 20-18 31-14l1 1 8-4c24-14 40-17 66-5 4 2 1 8-4 7-19-7-35-3-50 5 16-4 33-6 47-2 5 1 6 5 5 8l5 3 29-8c7-6 17-6 27-9 14-5 27-12 40-19 27-16 49-42 47-71 0-3 3-6 7-5l2-7 3-13-2 3c-5 4-14-2-10-6l7-10c-3 0-6-2-7-5-6-30-1-62-1-93l-10-38c-5 2-11-1-10-7l4-17-2-7-1 7c0 2-3 4-6 4 2 7 3 15 3 22 5-1 11 2 10 7-3 9 1 21 2 30v10l1 4a152 152 0 0 0-1 18v32l1 31c-1 27-6 54-7 82 0 6-12 6-12 0-3-34 2-67 0-101l-2-25c-4-15-7-30-8-45-4 1-8-1-8-5l-3-25c-3 1-7 1-9-2l-25-46-1 17c-1 6-10 6-11 0l-6-37c-4 1-9 0-10-3l-5-24c-5-6-9-13-12-21-3 4-10 4-12-1l-4-10h-1l5 21c2 8-12 11-14 4l-4-11c-3 2-7 2-11-1-12-11-18-25-24-39 1 10 5 19 9 30 3 8-11 11-15 3l-5-11c-4 16-11 32-23 48-4 4-11 2-12-2-9 22-18 44-24 66-2 4-10 3-10-1v-3c-1 28-3 63 8 85 3 6-7 9-10 4-10-17-13-40-14-62l-4 24-4 19-4 23 10 20c4 6-5 12-11 9l-3 3c1 6 2 11 6 17 3 5-5 9-9 4v8c-1 6-12 6-12 0-1-20-2-41-1-62l-9-18c-3 16-8 31-13 47l9 7c5 4-2 12-8 8l-4-2-4 18c-1 5-12 4-11-1 0-9 2-17 4-25l-5-3c2 8-12 12-15 4l-2-5-5 21c-1 8-12 6-15 1l-3-1c-20-11-6-39-4-55l2-13-15-22c-1 12-2 25-5 37-1 6-11 4-11-1-1-19 0-39 1-58l-2-3 1 13c0 6-10 7-13 2-8-18-11-35-11-53-10-22-11-44-6-68-4-1-7-3-8-7l-3-43-2 16c0 5-7 7-11 5a301 301 0 0 1-49 55c-5 5-14-2-9-7 14-15 27-31 38-48 7-12 10-26 20-37l2-1 7-16-5-28-19 22-15 55c-2 5-10 5-13 1l-2 9 4 4c6 6-3 14-10 8l-10 16c-6 7-9 15-14 22-7 9-16 15-18 25-2 9-16 5-15-3 1-9 5-15 10-22 7-8 11-17 16-26 6-8 13-16 18-26l-2-2c-5 12-11 22-22 27-9 14-19 26-27 41l-4 6-2 15c0 4-6 5-9 4-3 6-5 12-4 18 0 4-7 5-9 2-10-12 3-31 8-42l6-11 7-36 5-23v-3l-7 7c-6 5-15-2-10-8l9-9c-3 0-6-1-7-5l-1-12-7 15c-3 7-15 5-14-3 2-11 6-22 10-33l-18 16c7 22 14 44 19 67 1 3-3 6-6 5 0 32-2 66 7 97 2 6-8 8-10 2-3-9-6-18-7-28l-4 17c2 19 4 38 9 57 1 5-8 7-10 2l-5-20-4 40 7 32c1 4-4 7-7 5 0 27 3 54 8 81 1 2-1 4-3 5l3 7c5 2 2 8-3 8h-1c-3 0-5-1-6-3h-1l-3 1 2 7h2c21-5 41-4 60 10 7 5 15 11 21 18l17 5 8 4-6-6c-6-5 1-11 7-9 32 12 53 38 71 62l10 14 1 2v-5c0-4 4-6 8-6l-3-3-16-21-22-10c-8-5-1-16 7-11l7 3-1-1c-14-9-29-19-47-21-2-1-3-6 0-6 6-2 10 1 16 2l19 6 12 6c0-2 1-5 5-5l12 1c-2-1-2-5 1-6 7-2 12-4 19-2 5 2 10 6 15 10l11 15 5 2v1h1l17 13-4-7c-4-6-8-16-16-16-4 0-4-6 0-6 11-1 14 5 19 13 3 5 8 11 11 18h1l5 5c0-3 5-7 10-5 16 8 23 22 29 36 5 14 14 33 6 47-1 2-4 3-7 3h-3c-2 1-5-1-5-3-2-4-1-6 0-11 0-8-3-16-5-23-5-13-9-29-21-39l9 16c7 11 11 22 15 34 1 3 0 5-2 6 3 14 2 30-1 42 0 2-1 2-2 3l-3 8c0 3-3 3-5 3 0 2-2 4-5 4-8 1-16-1-23-4l-3 2c-11 0-22-2-33-7-2 1-4 1-7-1l-5-4c-13-7-26-18-36-29l16 30c2 5-7 9-10 4l-21-33-3 1c-19 1-39-9-56-14-18-4-38-5-56-10-5-2-5-7 0-9 14-5 33-1 48 2-3-7-9-14-15-21l-15-3c-2 1-7 1-9-1-13 0-33 1-29 12 2 3-4 5-5 2-2-2-2-4-3-7l-4 2c-7 2-12-7-5-10l19-11 8-3-31-6h-1c-3 2-5 1-7 0-3 1-6 0-8-2-17-1-31 1-31 10 0 6-10 6-10 0-2-16 19-21 34-22l7-1 6-7c-23-3-37 7-56 18-6 3-16-4-11-9l7-7a34 34 0 0 1 8-16c-3 1-5 2-6 4 1 2 0 6-3 6l-5 1-3 5c-2 5-11 3-9-2v-2c-14 2-27 6-30 22-2 14 0 43 17 50 5 3 2 10-4 8-26-8-33-41-30-61 4-26 28-34 55-31 8-9 20-16 34-19-11-14-14-30-15-47-5-8-10-16-12-25v-2l-2-1-7-14c-1 4-10 6-13 2-15-21-22-44-38-64l-4-6-7 27c15 12 28 26 38 35 7 6-3 15-10 9l-29-23 4 6c1 4-1 6-4 7 2 18 6 61 27 68 5 2 3 8-2 8-31-2-36-38-41-58l-3-16-2-10c-1 19 3 40 4 61v2c4 12 6 25 5 37 0 3-7 5-8 1-2-9-5-18-9-26-2 1-5 2-7 1 3 18 7 35 12 51 1 7-10 10-12 3l-3-8c-2 4-9 6-13 1-5-5-7-11-9-18-3 2-8 3-11-1l-4-5 1 13c2 23 2 61 32 72 6 3 2 12-5 10-17-5-27-16-33-28 9 21 14 44 18 64 2 6-11 10-12 3-7-25-16-49-27-73l-2 9c4 9 8 18 10 28 2 1 3 2 3 4l-1 2 3 12c11 35 12 70 20 106 2 7-11 10-13 3-4-14-6-27-8-41l-7-7-10 14c0 11 2 22 4 33 2 2 2 3 1 5 6 19 16 37 33 50 6 5-2 13-8 9h-1c25 45 29 95-11 135h-1l-5 1c-5 20-14 40-21 56l-1 2c1 11 4 21 12 26 4 4-1 10-6 7-8-3-12-8-15-14v2l4 15c4 22 10 41 7 63 0 6-10 6-11 0l-8-39v13l2 6 7 36c2 8 1 18 1 27l27 30c5-2 10-3 15 0h2l-35-32c-4-2 1-9 4-6 14 10 27 21 40 33l1-2a232 232 0 0 1 13-198c67-134 236-146 356-61 48 34 88 106 94 172l3 1 2 1c2-2 4-3 8-2 19 4 37 11 55 16h15c12 1 27 2 39-2 6-3 11-7 17-8h6c9-4 19-8 28-8 3-66 40-136 86-170 116-85 286-73 359 61a247 247 0 0 1 26 185l5 5v1l30 31 8 8-1-9c-8-10-15-20-20-31-2-4 2-9 7-6 4 2 7 6 10 11l-2-15c-2-17-6-36 7-50l2-2c0-12 4-23 12-34 0-24-8-48-17-71l-8-18c0 18 3 36 8 52zm-1-164l-3 1v4l3-5zm-58-371l2 25c2-7 4-14 8-20 1-2 3-3 5-3-3-9-7-17-12-26l-3 24zm-13-70l5 2-1-1-4-1zm-25-143l-2-24-2 15 4 9zm-78-132l5 40c5 20 10 40 9 61 0 3-4 5-7 5l-1 3-1 8 2 6c2 4-1 7-5 8-12 43-37 84-53 124 0 2-1 3-3 3l-2 19c3-9 7-20 18-23l22-45c10-19 19-50 33-74 3-14 4-29 6-43-5-13-9-26-10-39l1-2-5-6c-4-6 0-11 6-11-4-12-9-24-15-34zm-11 56l-2-16-5-20-1 8 8 28zm-93-37v-10l-5-37c-4 5-6 11-8 18 5 9 10 18 13 29zm-111-84c3 1 6 3 5 7l-1 5 5 23c0 4-4 6-8 6v5h1l3 2h1c1-1 3-2 5-1 2-12 5-23 9-33l-6-13-24-32 10 31zm-26 34l6 6-12-24 6 18zm-26 21l-7-11c4 10 7 21 13 30l-6-19zm114 113c-3-3-5-8-7-12v4l10 21-3-13zm-29-119c6 0 8 4 8 8l5 9-5-17-6-9-2 9zm29 68c4 5 7 11 9 17h2l-11-18v1zm-23 7l3 7 2-5c-4-13-6-26-8-38l3-4-9-13a208 208 0 0 0-1 32l10 21zm-104-133zm-3-5l-5-11 5 11zm154 119l-5-5-2-3-11-13-1 9c9 12 19 24 25 37l-6-25zm49 210c-1-1-2-3-1-4 1-5 1-17-1-31l-1-1c-1 13-1 26 1 39l2-3zm-57 147h2c-3-2-4-5-3-8l-6 3-9 4 16 1zm-130 45l4-1c6 0 10 3 10 7h1c9-9 20-17 31-25-16 5-33 11-46 19zm-53-12l13-4c11-4 22-8 34-9l5-4c-15 2-30 3-43 10l-9 7zm-42 22h-3c-5 6-8 14-10 21 3-8 7-15 13-21zm-13 40v-18l-2 19 2-1zm-40 6l1-4-2 5 1-1zm349-99c2 1 2 2 2 3 9 2 17 5 25 10-4-5-10-10-18-13l-14-4 5 4zm-21-31c-2-2-3-4-2-6 5-9 8-19 12-28l-6 8-1 3c0 2-2 3-4 4l-19 27 22-2-2-6zm22-199c1-17 0-34-5-53l-1 23 6 30zm-24-93l-1-5v1l1 4zm-197 384l-2 5 13-6 5-3-16 4zm-41-1l-13 12h1c5-5 13-9 18-12l13-6 10-11 1-2-4 1c-9 5-17 12-26 18zm17 35l-5 2-2 6 12-4-5-4zm45-17l-28 14h-2v3a183 183 0 0 0 34-18l-4 1zm-36-6zm-39 19l-2-1-2-2-4-4-6 14-3 9c9-7 19-12 29-17l2-6-2 1-1 1c1 4-6 9-11 5zm-15 27l-4 3 2 2 2-5zm3-2l21-8v-1l1-3c-9 3-16 7-23 12h1zm23-31zm277-387h-2l1 6 1-6zm28 11l-1 12 4-4-3-8zm115 164c3-1 5 0 7 1h1l3 2-2-3c-3-4-4-9-6-14l-3 14zm-7-39v-1l-1-4-1 1 2 4zm72 400c1-5 5-9 11-10l2-12a819 819 0 0 0-5-38c-6 25-14 49-17 71l3-7c1-2 3-4 6-4zm-6-178l1-5-3 14 2-9zm-262-43l3-2-7 1 4 1zm-76 48a637 637 0 0 0-34 7c-9 5-16 14-24 19-11 6-21 14-32 19-9 5-19 9-29 12l5 1c12-4 25-9 37-16 20-12 38-27 61-34 10-4 17-5 24-5l-8-3zm-182-348v4c1-11 7-23 11-34l1-16c-5 15-9 30-12 46zm-16-201l18 34 6-5c1-2 4-2 6-2l-23-47-7 20zm-25-158l5-4-3-2-2 6zm-48-3h-1l-6 20 3-4c3-2 8 1 7 4l-6 18 4 18c1 7-10 10-14 4v57l4 9 8 16 14-20-19-47c-2-5 5-9 10-6 11 6 19 16 25 28l4-4-2-11v-11c-6 0-10-5-7-10l1-2c1-1 3-3 5-3v-2c-5-20-8-42-4-61-9-1-19 1-26 7zm-63 82c3 2 5 6 3 10l-1 2h4l3-16-2-8-7 12zm-64 15a367 367 0 0 1 0-1v1zm-20-22h3c4-10 10-20 18-29l-7 3-14 26zm-173 97l-2-16c-16 18-25 53-31 74l-3 24c11-27 18-58 36-82zm-66 133l16-24v-1l-17 22 1 3zm-91 119l1-1-1-1v2zm-2 55h-1 1zm-67 68h1c5 0 10 1 14 4 3-11 6-21 11-31-11 6-18 13-23 22 0 2-1 4-3 5zm-36 147c4 0 7 5 5 8l-1 2 1 3v17c5 4 2 2 8 10 2 4-4 7-7 3l-2-2-1 8 2 12 1 11a298 298 0 0 1 9 44c-1-20 1-40 8-60l3-16v-1c-4 1-9 0-10-4 0-9 0-17 2-25l-2-5c-7-3-12-6-17-11l1 6zm-41 510v-2h-1l1 2zm-48-14c3-2 6-2 8 0 7 4 7 5 11 12 2 3-1 8-5 7 6 23 23 49 33 67l16 29 3-17c1-4 7-2 8 1 1 9 1 17-1 26l1-1 1-8 1-11-3-17-15-26-7 9c-2 6-15 3-12-3 3-9 4-19 6-28l-16-29c-10-19-24-43-34-67l5 56zm37 168l2-2-2-2c-8-14-17-28-23-44-4-10-11-24-6-34 2-3 6-4 9-2l9 6c4 3 2 8-2 8h-3c1 8 5 16 7 22 5 13 12 24 19 36l11-23c-14-20-26-41-37-63-6-11-15-25-20-39l-1 16c-2 19-9 45-10 69l3 5 17 20 27 27zm72-24l-1 1c1 6 2 14 6 12 2 0 4 1 3 3s-2 4-5 5h-5c-6-2-8-8-9-13l-6 4-3 6c-2 2-5 2-7 1l-11 7v1c0 2-2 2-4 2l-15 10c2 6-6 8-9 4l-1-3-1-3-3 1c-6 4-12 9-14 14 22-5 46-7 67-13l45-14-27-25zm67-28l-16-15-1 1c-4 1-7 3-11 6 11 12 22 23 31 36 2 2-1 6-4 4-13-9-24-21-35-33l-22 21 32 29c20-6 40-12 60-16-13-9-24-20-34-33zm-75-32l-2-2c1 6 3 15 6 21l16-10a1416 1416 0 0 0-13-15h1c3 5-4 9-8 6zm49-312h-1l-4 1-7-2c-7-8-11-19-14-30l-3 26 1 5 8-4c3 0 5 1 7 3 14 15 1 44-2 62v6a118 118 0 0 0 15-67zm-10-32c2 10 5 19 8 23l-8-23zm-84 423l-7 8 8-7-1-1zm60-460l-2-5-3 9-8 9c4 5 7 12 9 18l2-7c1-2 4-3 7-2l-5-22zm-9-30l-3 11 7 4-4-15zm-20 82l3 1-7-18-2 3 6 14zm-10 46l8-8-4-12-6 15 2 5zm-13 125l7 11 9-19-2-9c-3 1-7 2-10-1l-4 12v6zm29 208v5l1-1-1-4zm-5-316c0 11-2 22-5 33l2 3 4-26 1-17c-2 0-4-1-5-3l-4 5c3 0 7 2 7 5zm18 11v0zm8 289l-1 1-4 4 1 2 15-14h-1l-10 7zm-39-53l1-10c-3-15-4-28-3-32 0-2 2-3 4-4l-8-18h-1c-1 13-4 26-7 39l14 25zm20-634l-1 13c0 4-5 5-8 3 3 13 9 26 16 37l4-1h2l4 1 1-11c-7-13-13-27-18-42zm43-47l-16-16a132 132 0 0 0-2 45 75 75 0 0 1 12 51l6 12-3-29c-2-17-3-38 3-56v-7zm28-10l-6 11 3 4c5 7 8 13 11 20l-8-35zm18 70zm-31-78l10-7-1-6-3-12-6 25zm37-48l3-9-6-3c-3 10-4 20-5 29l6 10c0-8 0-17 2-27zm87-22v-1c-5-8-8-18-11-26l-3-8c-7-3-15-4-23-3 16 21 27 45 39 68-4-10-5-21-2-30zm103 162c7 2 15 5 21 9l12 4 3 2h1v-1c-1-3 1-6 4-7l5-1-8-4c3 4-2 9-9 7-13-5-24-12-37-15l-11 2v1c6 0 13 1 19 3zm136 95l-9-2c-5-1-10-4-15-7l-15-7-2-1 1 7c16 4 29 9 43 15l-3-5zm28-22l-5-7-5-5c6 11 12 23 20 33l-10-21zm108 73l1-24-1-10c-1-7-4-15-4-22a97 97 0 0 0-14-27l6 26c1 2-2 5-5 5l2 9 3 12-2 4v5c0 5-7 6-8 1-4-8-7-17-9-26l-10-14 5 9c2 5-7 9-12 5-11-10-21-23-30-36 13 32 36 72 77 83h1zm-77-144c0-2 1-3 3-4-5-4-12-6-20-4 6 2 12 4 17 8zm-105 13l11-1-9-5-9-4 7 10zm-6 37v2h2l4 4 10 5-16-11zm43-2c3 3 0 7-3 9l21 25c-4-9-6-18-6-27 0-3 3-5 6-5l-3-3c-7-6-21-15-34-19l19 20zm-137-74l-1 3h6c13-2 25 0 39 5-12-7-27-11-44-8zm12-278v-4c-3 3-12 3-14-2l-4-21-5 67c2-2 5-1 7 0l4-10v-7c0-2 2-3 4-3a198 198 0 0 1 9-15l-1-5zm-1-33l3-24-8-17 5 41zm-133 33c2-16 7-31 15-45a833 833 0 0 0-1-41v-1c-11 19-16 43-17 57l-2 33 5-3zm62 194v-10l-5 1 5 9zm4-40l-13-18h-3c6 7 11 14 15 22l1-4zm42 102c-10-10-7-26-8-39a292 292 0 0 1-12 24c6 8 13 15 21 22l-1-7zm2-317zm-71 117c4-11 9-23 15-33v-1c-8-9-15-18-21-28 1 21 2 42 6 62zm16 58l-5-11v2l2 7 3 2zm39 154c0 2-2 4-5 4l1 3 8-4-4-3zm-28-170c9 8 15 21 18 34 2 1 4 2 3 4v2c4-2 9 0 9 4v3h2l-1-31c-8-30-7-64-6-94l1-21c-7 10-13 20-18 31-4 23-6 46-8 68zm-52-53l-1 3 6 15a339 339 0 0 1-4-53c-2 12-2 23-1 35zm-17-19l1 2v-5l-1 3zm86-44l9-9c1-16 4-31 11-44 1-2 3-3 5-3l-1-6c-11 20-19 41-24 62zm-108 100l9 10c5-7 14-7 24-6-6-14-11-27-19-41l-7 28c-1 3-3 3-5 3l-2 6zm-5 41l6-9-5-6-1 15zm91-167l-2-5-17 24 15 30c8-38 23-75 46-106l-4-26-19 47-12 18 2 16c1 4-7 5-9 2zm66-157l-12 4 2 10c4-1 8 3 6 6l-4 7 11 43c9-8 20-16 31-22-7-17-17-39-34-48zm206 146l2 16h2c1-8 0-17-2-26-3 0-5 0-7-2v7c3 0 5 2 5 5zm23 49l-1-2c-2-3 0-7 3-9 3-24 8-46 26-65-1-10-2-20-1-30l-4-17c-2 13-6 26-11 38-2 4-10 4-10-1 0-31 7-62 11-93-9 10-16 22-20 36v1l-1 2c1 13 2 26 5 39l1 1 1 5c2 9 5 17 9 25 4 6-6 11-10 5l-10-17 3 13c5 19 13 39-4 54h-1l-1 10 13 29 2-24zm15 32l-2 18 8 11-6-29zm94 53l2-22c-2-17-1-33 0-50-2 1-5 0-6-3l-4-13c-1 8-5 16-7 24v4c2 0 6 1 6 3 4 15 5 30 4 44l5 13zm25-238c-1 3-5 4-9 4l4 30c0 4-3 6-7 6l2 52c5-24 10-51 24-72l-14-20zm-10-86l-1 1 6 30 4-15-9-16zm9-19c4 1 5 5 3 7l3 7 5-23-11 9zm7-70l-5-5c-5 21-13 40-14 62l2 2a138 138 0 0 1 23-14c2-15 1-30-4-44l-2-1zm-95 131l-1 1 5 32h1l6-15-11-18zm-16-77l3-5 1-5a164 164 0 0 0-4 10zm-37 68l-1 9 18-39-10 8-7 22zm23-7l-6 13 6-2v-11zm17 231l-2-61c-5 13-9 27-11 41 6 6 10 13 13 20zm36-10l-6-32-1-3-3-1c3 19 4 38 1 57 0 3-4 5-7 5a923 923 0 0 1-8 62l4 6 10-16c2-2 5-3 8-2 3-11 5-21 5-32 1-15-1-30-3-44zm28-39c-4 1-9-1-10-6v-26c-3 6-5 12-6 19a246 246 0 0 1 5 26l1 13 1-2c2-2 4-4 7-3a2360 2360 0 0 0 6 1l-4-22zm25-142l1-2-1-1v3zm-52 99l1 3c3-4 7-7 12-9l4-1 1-28c-4 0-8-1-9-4-6-14-9-28-10-43-4 12-8 24-10 36l11 46zm49 44l-4-1 1 18 3-17zm22-32c-7 25-12 51-13 76 2-4 7-5 11-3-1-24-3-49 2-73zm-115-72h1l-1-3v3zm-96-90a397 397 0 0 0 0 11l3-11-1-4-2 4zm-14-26c1 2 1 4-1 5l-5 3c-6 14-12 29-21 41-3 3-9 3-12 0-6 18-9 38-7 58l15-15c4-13 7-25 14-37 1-2 4-3 6-2l7-25c1-10 3-20 6-29l-2 1zm-63 124c-3-16-2-32 0-49-5 15-6 30-4 45v1l2 5 2-2zm22 2l-2 1v3l2-4zm29-29l-3 3-8 25 13-17-2-11zm10-8v1l1-2-1 1zm-106-25h-1l1 1v-1zm17 43v2l6 21 1-7c-2-7-3-15-3-22l-4 6zm137-38l3 19 2 2a455 455 0 0 1 1 18l3 10c-2-16-1-33 1-47v-2l-2-12-8 12zm216 39h-2c-10 15-18 33-26 52l11-17c4-5 15-2 13 5-8 18-12 36-15 55a408 408 0 0 0 19-95zm-94 247l1-6c-5 13-11 26-11 40l3 2c3-12 6-24 7-36zm-52 49l7-28c-3 9-6 19-7 28zm-143-242c3-1 6-1 8 1l5-22-17 21 1 2 3-2zm-44 33v-1h1c9-8 15-21 19-35l-6-12c-1 4-6 7-11 3l-3 3a357 357 0 0 1-9 36l-4 15c4-4 8-7 13-9zm-79 316l-3-9c0 4 0 8 3 9zm235 182l-17-16-9-10 7 16c5 4 12 7 19 10zm-273-136c8-2 15-3 24-3-3-1-4-3-5-5h-3c-2 2-5 3-8 1h-1l-7 7zm136 705h14c22-8 42-19 59-35-13-1-19-20-7-28 133-82 37-243-80-279-106-32-204-12-263 82-61 97-21 192 66 240 73-4 139 15 211 20zm194-41l-50-56c-4 10-9 19-17 28-7 30-25 53-49 69l156-6c-15-6-30-25-40-35zm162-28c-19-21-28-48-30-76-9 4-21 12-28 14-14 6-23 10-38 10-16 0-43 0-66-6-14 0-28-2-40-10-1 11-3 22-7 32 29 33 57 70 93 96v2h158c-19-15-34-36-42-62zm407 38c-8 8-16 15-26 22l35-4c-4-6-8-13-9-18zm58 14l-13-18c-3-4-7-8-8-12l-11-9-6-3-13 20 1 2c3 8 8 15 13 23 12-2 25-3 37-3zm6-8l2 3c2 2 1 4 0 5h8l-10-8zm24-98l4 31v-32l-4 1zm10 95l4-7-6 6 1 2 1-1zm-71-45l9 5-8-8-1 3zm95-118l-3-1c-6 6-12 12-15 18l-4 7v1c-2 5-4 9-4 13 2-8 6-16 12-24l5-2 3-7 4-3 2-2zm-10 106l-1-25-1 3-1 1v6c-1 13-7 33-5 48l6-10 2-23zm-389 82c59 3 118-9 177-4l6 1c104-43 154-147 82-254-63-94-162-114-266-82-116 36-205 197-68 279 13 8 7 27-5 28 15 13 31 23 49 31l25 1zm-894-407l3 8 5-13v-1l-8 6zm350-806l-12 3 8 8 1-2 3-5-1-4zm23-3l-2 28 2-3c0-10 1-19 3-28l-3 3zm173-105c-6 33-40 66-49 98l3 9 14-18c2-11 5-21 11-29 1-2 3-2 4-2 6-13 13-25 22-36l-5-22zm382 212l-2 2 4 5-2-7zm95 28l-7 18 7 46 4-15c1-2 3-4 5-4v-11c-2-11-5-23-9-34zm142 150l-2 6 2 5v-11zm90 502l-5 16a478 478 0 0 0-1 27l6-5c4-2 11 1 9 6-8 18-14 38-19 60 11-28 24-56 43-79l-33-25zm1 140l11 26 2-5c-4-8-9-16-11-25l-2 4zm96-4l-1 1c-2 3-5 1-6-1l-17 18-19 22c7 7 9 21 11 30a434 434 0 0 1 36-39l-4-31zm-12 355c-27-16-55-35-83-37-68-5-132 17-201 8l-14-2c-17 4-37 6-56 7l67-1a522 522 0 0 1 245 34l42-9zm-1362 14c13-11 23-18 39-23 26-7 57-19 83-23s57 0 84-1c18-1 37-2 54 5 3 1 1 6-2 5-20-5-46-1-66 0-27 3-56-2-82 5-36 10-71 26-107 38h-2l28 2c89 4 178 0 267-5 116-6 241 14 357 31 215 32 439 5 652-36-81-14-158-28-244-26-84 3-183-4-266 9-2 1-4-4-1-4 56-10 119-13 181-14-16 0-33-2-48-4h-32c-80-3-161-4-242-3l-119 4c61 8 122 19 184 14 3 0 3 3 1 4-96 24-198-12-296-19a422 422 0 0 1-213-25c-28 0-57 2-86 6l4 4c3 2 0 7-3 6l-14-7c-18 3-36 8-53 15-27 11-53 29-79 46l22 2c-2-1-3-4-1-6zm659 950c27 0 41-13 61-27 14-9 33-15 46-25 6-6 7-4 8-8-13 1-26 0-39-2-20-2-45-6-66-4-11 1-28 7-41 17 3 5 6 9 7 14 6 15-13 24-24 15 0 19 34 19 48 20zm890-871c-11 117-27 239-98 334-20 26-44 46-68 67-42 38-51 68-72 116-26 57-64 119-112 159-59 50-140 73-214 91-59 15-115 53-176 35l-11 5c14 34-50 51-73 66-30 21-57 15-93 8-13-2-33 0-45-5-23-10-18-32-5-53-43-25-113-25-156-40-78-28-161-47-237-79-62-26-128-57-182-96-52-37-66-93-104-140-86-109-156-204-161-347-2-70-10-139 32-198 42-57 79-57 142-73l4-1c-7-15-9-34-7-48 5-30 28-57 32-89 4-42-10-81-16-121a211 211 0 0 1 70-189c-1-7-1-13 1-20 1-5 8-6 12-3l3-2-6-11c-21-44-19-80 8-121 1-3 7-2 8 0 0-8 2-16 4-24l-5-31c0-4 6-7 10-3l2 2c-12-39-16-99 9-132 0-9 3-18 8-26 9-28 26-53 56-60 6-27 11-55 11-81 0-15-9-34 9-42 5-2 9 1 9 6l-1 17c1-21 7-40 18-59-2-13-3-25-3-38-1-7 12-7 13 0l2 20 12-15-10-16c-3-4 3-7 7-5 5 4 9 8 12 13 8-8 16-15 25-21l12-15c0-13 2-25 5-38l-2 2c-4 4-13 0-11-5 11-24 37-39 63-50l6-2 9-9c22-18 50-43 85-36l4 3c5-14 11-28 19-39 5-8 19-1 14 7 5-3 13 1 11 7l-2 8 18-6c11-13 22-25 37-34 9-17 26-44 51-36l14-24c-2-4-5-8-9-11-4-4-2-11 5-11 9 0 15 3 20 7 5 0 9 6 6 10l2 11c6 8 9 16 12 26l5 16 6-6 2-1 11-22c-6-14-15-27-21-41-2-4 4-6 8-5 12 5 18 17 23 28l12-13c11-18 27-30 55-24 3 0 4 1 5 3l10-5c5-2 12 2 8 7l-8 11h8c48 29 61 86 67 131l1 2 12 22 1-6 1-3-13-36c-2-7 10-12 15-5l6 9c5-18 12-51-10-42-9 3-16-7-8-11 25-10 40 4 43 25v8c5 6 8 13 11 20l13 13 4-5c7-6 14-10 23-11 0-17 3-33 11-44 3-4 10-6 14-2l5 5c5 4 1 10-6 9l5 36c6 3 12 7 16 13 4 5-5 10-10 5l-5-5 2 14c14 11 25 26 33 43l8-6c4-2 8-3 13-1 15 7 27 18 35 30 4-1 9 0 10 4l2 8a47 47 0 0 1 20 8c4-15 9-29 16-43 1-3 6-3 9-2l7 3c6 3 2 12-5 9-3-1-8 24-12 47 2 0 3 2 3 4l8 11c11-18 23-34 34-47 3-3 11-1 9 4l-11 20c2 1 4 3 5 6v9l13 15 6-2 1 1-1-3c-1-7 9-11 13-5 3 4 6 9 8 15 28 17 44 61 52 85 6 16 9 34 10 51 5-22 19-39 54-28 7 3 6 11-2 12-46 5-32 51-31 81 0 18-1 41 1 62 4-6 9-11 15-15 3-2 8-1 11 0l8 4c7 3 4 13-4 13-9 0-16 12-21 30l5 9c2 4 0 8-4 9l4 7c1-17 5-33 14-45 5-8 17-4 19 4l1 8c0 3-2 5-5 5-3 9-4 18-5 28 6 16 11 33 15 49l3-6c3-4 10-5 15-3l5 3c8 3 6 15-4 14-2 0-6 12-11 31l4 26c33 2 44 45 48 66 8 53-11 100-22 151a218 218 0 0 1 104 207c-6 40-18 79-11 121 3 19 13 37 21 54h6l2 1c103 23 132 143 124 233" id="path4115"/><path d="M2290 3279c22 22 47 45 62 73 3 6-2 12-8 9-13-8-23-22-33-34-12-13-20-27-29-42-4-5 3-10 8-6" id="path4117"/><path d="M2320 3173c-5-6-23-22-13-24-7 1-11-5-9-10l1-2c2-4 8-4 12-1 75 63 108 169 170 243 5 5-1 15-8 10-32-21-54-72-75-104l-48-71-30-41" id="path4119"/><path d="M2451 3279c3-6-15-28-18-33-7-11-18-23-21-36-2-5 5-10 10-5 12 12 21 29 29 45 4 8 10 21 6 30-1 4-7 2-6-1" id="path4121"/><path d="M2911 3233l72 66c26 22 53 41 77 65 4 5 0 14-6 11-61-25-109-85-153-132-7-7 3-17 10-10" id="path4123"/><path d="M3055 3259c42 37 86 66 133 96 4 3 2 11-4 9-56-17-98-54-142-91-9-8 4-22 13-14" id="path4125"/><path d="M3180 3296c-11-11 6-29 17-17l5 6 1 2 1 1c4 5 7 8 5 15-1 4-4 6-8 6-8 1-16-7-21-13" id="path4127"/><path d="M2655 2770l-9-9c-4-3-1-9 3-6 5 2 12 8 10 14 0 2-3 3-4 1" id="path4129"/><path d="M2043 3874c0 5-7 5-8 0-11-99-83-219 2-307 3-3 7 1 4 4-48 59-39 131-22 199 8 35 27 68 24 104" id="path4131"/><path d="M2056 3694c0 4-5 5-5 2-10-45 6-98 38-131 2-2 6 0 5 3-7 17-20 31-27 48-11 24-15 53-11 78" id="path4133"/><path d="M2108 3607c-4 6-16 22-11 30 3 4-3 8-6 5-10-11-1-28 5-39 7-11 16-29 32-26 4 1 3 6 1 8-9 6-15 12-21 22" id="path4135"/><path d="M2160 3592c-6 3-11 8-17 12-4 2-9-4-5-7 9-7 25-28 38-18 2 1 2 3 1 4-5 4-12 5-17 9" id="path4137"/><path d="M2234 3580l-15 4-16 8c-4 3-8-4-4-6 11-6 21-18 35-13 2 1 4 5 0 7" id="path4139"/><path d="M2801 3949c3 0 2 4-1 4l-3 1c-1 0-2-1-2-3-13-45-1-104 21-145 1-2 4 0 3 2-7 24-12 49-16 74-1 6-12 64-2 67" id="path4141"/><path d="M2836 3775c-1 2-3 1-3-1 4-10 6-19 11-28 6-13 14-24 21-36l2 1c-2 12-10 21-16 32-6 10-10 21-15 32" id="path4143"/><path d="M3024 3635c-10-5-14-20-28-15-4 1-8-6-3-8 7-4 14-4 22 0 7 3 13 10 15 18 2 4-3 6-6 5" id="path4145"/><path d="M3064 3619l-10-8-8-8c-7-3-1-13 5-9l8 7 10 13c1 3-2 7-5 5" id="path4147"/><path d="M3335 3561c25 5 37 33 43 55 2 5-6 8-8 2-4-12-10-24-18-34l-11-9c-4-3-7-3-10-6-3-4-1-8 4-8" id="path4149"/><path d="M3296 3612l-13-19c-5-6-12-10-18-13-5-2-1-8 3-7 7 1 14 4 19 10 7 7 9 16 15 23 4 4-2 11-6 6" id="path4151"/><path d="M3226 3616c-8-6-16-11-27-14-9-3-19-4-29-6-4-1-4-7 0-8 23-5 44 6 62 18 6 4 0 13-6 10" id="path4153"/><path d="M1921 3931c-8-33-26-64-28-99 0-3 5-3 5 0 4 34 33 64 28 99 0 3-4 2-5 0" id="path4155"/><path d="M2079 3953c27 4 40 33 49 56 13 30 6 67 24 95 2 3-2 5-4 3a62 62 0 0 1-15-39c-2-36-18-95-56-110-3-1-2-6 2-5" id="path4157"/><path d="M2191 4066c-3 2-7-1-6-4 4-14-5-35-10-48-7-20-15-37-26-55-3-5 5-8 8-4 15 22 26 45 34 70 3 12 14 33 0 41" id="path4159"/><path d="M2230 4007c1 9-3 20-4 29-2 11-6 23-7 34-1 4-7 3-7-1 2-21 2-45 11-64 2-3 7-1 7 2" id="path4161"/><path d="M2308 3999c-8 3-12 12-16 19-2 4-9 1-7-3 4-8 11-29 24-22 3 2 2 5-1 6" id="path4163"/><path d="M2813 4301c4 0 5 5 2 7-11 7-20 16-28 25-9 10-17 17-27 24-3 2-6-2-4-4l31-33c6-7 15-19 26-19" id="path4165"/><path d="M2882 4324c-16 7-32 16-48 25-11 7-22 15-35 18-3 1-4-4-1-5 28-11 51-46 83-45 5 0 5 5 1 7" id="path4167"/><path d="M3103 4244c2-2 5 1 3 3-36 36-86 51-129 76-21 13-44 23-66 33-21 10-42 10-63 17-5 1-7-6-2-8 25-10 49-12 74-26l54-29c43-24 88-40 129-66" id="path4169"/><path d="M3191 4156c3-1 4 2 3 4-9 9-16 21-23 31-9 11-19 22-26 34-3 4-8 1-6-3 9-14 21-28 31-42 5-6 13-22 21-24" id="path4171"/><path d="M3226 4096c-1 5-10 3-9-3s5-11 8-17c3-5 5-11 10-14 3-2 6 1 5 4l-6 14c-3 5-7 10-8 16" id="path4173"/><path d="M3127 4206c-14 4-27 16-39 23-13 8-26 13-40 19-30 12-66 24-92 46-3 2-8 0-7-4 7-19 50-34 67-40 23-10 46-17 67-29 14-7 27-20 42-23 5-1 7 6 2 8" id="path4175"/><path d="M3045 4180c-18 16-39 29-58 42-6 4-11-5-5-9 18-14 36-30 58-40 4-2 10 4 5 7" id="path4177"/><path d="M2595 3422l14 9 13 7c3 3-1 7-4 6-10-4-19-9-27-15-4-3 0-10 4-7" id="path4179"/><path d="M2610 3378c7 11 16 20 26 29 8 8 18 15 26 24 2 2-1 7-4 5-20-14-40-34-54-54-3-4 3-7 6-4" id="path4181"/><path d="M2739 3418c6 6 13 10 18 17 2 2-2 5-4 3-5-6-13-10-19-16l-22-23-39-42c-2-3 2-7 5-4l40 44 21 21" id="path4183"/><path d="M2716 3350l43 41c13 12 29 21 40 34 2 2 0 6-3 4-33-19-58-46-86-72-5-4 2-11 6-7" id="path4185"/><path d="M2777 3373c10 1 18 8 26 14 10 9 21 19 30 30 2 2 0 6-3 4l-25-18c-8-7-17-18-28-19-7-1-7-12 0-11" id="path4187"/><path d="M1327 3647c9-8 17-17 23-30l-2-11c3-1 4-2 4-5v-2c0-8-2-13-6-15h-5l-11 9c-11-6-20-16-27-32-7 0-17-16-29-49-3-1-11-19-23-53l2-7c-5 0-8-13-10-38 3-31 6-55 10-74h-2c0-2 0-3 2-3l-6-25c4-11 6-21 6-28v-3l-33-121c-8 0-19-12-33-35v-2c31-30 47-56 47-79 9-25 14-46 17-63-3-3-4-6-4-9v-7c0-5 1-10 4-13l-4-13v-5c0-5 1-9 4-11-3-21-5-31-8-31 3-14 4-30 4-48l-2-13c4-7 6-14 6-20h-4l4-5c0-72 16-121 48-145 4-12 12-27 26-46l7-15c-10-26-36-53-79-81h-8c-46 46-73 82-79 108-14 23-26 54-35 95 2 3 3 6 3 10l-6 16c0 17 2 47 6 88-2 3-3 6-3 10 0 2 1 2 3 2l-3 16v94l-3 21c2 2 3 5 3 9-9 49-25 74-46 74-24 4-35 11-35 22l-3 11 5 12-7 13c1 10 2 15 5 15l-3 5c6 24 13 36 23 36 12 3 26 17 42 40l12 40-2 5c10 39 14 61 14 67-1 6-3 9-5 9l3 16v24l-6 7v3c0 1 1 2 3 2l-3 4v3l8 7c0 4-1 10-5 18 3 4 5 19 8 44l-3 9c0 32 12 68 35 110 0 6 17 31 51 76 0 3 13 16 38 38 11 0 34-17 67-51" id="path4211"/><path d="M4202 3634c26-38 43-77 50-118 0-54-3-81-7-81 0-3 0-5 2-7l-5-33a499 499 0 0 0 0-72c0-43 8-74 23-92 13-30 30-44 49-44 16-10 23-21 23-32l-18-40v-7l2-33c0-7-8-10-25-12-19-14-36-36-51-65-5-4-13-19-24-45l2-4c-9-21-14-40-14-58v-16l3-26c-2-3-3-7-3-12 0-2 1-2 3-2l-3-16v-21c0-1 0-2-2-2l2-5v-26c0-3 0-6-2-9l2-5c0-9-2-13-4-13l2-5c-14-68-29-107-47-119l-20-38c-4 0-10-8-19-26-3 0-12-7-26-20h-14c-4 1-14 10-28 26-3-15-7-22-14-22 0 11-5 20-16 29l-2 20h2l-2 5c0 14 10 31 32 54 10 3 16 7 17 11-2 0-2 1-2 2l-12-2h-12c-10 6-14 10-14 11 0 4 10 9 31 15 0 5 1 7 4 7 4 0 9-2 16-7h3c0 2 0 4 2 7-5 0-7 2-7 5v7c11 8 16 14 16 18 0 5 5 27 14 65l-3 22 5 56-2 4c0 2 0 2 2 2l-2 16 2 14c0 2-1 2-2 2l2 13v14l-2 32c3 4 6 26 10 66 24 62 47 93 70 93v2c-12 15-30 35-52 58-15 25-23 55-23 89 0 2 1 3 3 3l-3 34c0 34 2 51 5 51l-2 9 2 56c0 60-14 109-42 148-4 4-14 19-29 47-2 0-5 3-9 9 0 5 19 22 56 51 24 15 41 23 51 23 16-22 35-42 56-61" id="path4213"/></g></g></svg>