<?xml version="1.0" encoding="UTF-8" standalone="no"?>
<!-- Created with Inkscape (http://www.inkscape.org/) -->

<svg
   xmlns:dc="http://purl.org/dc/elements/1.1/"
   xmlns:cc="http://creativecommons.org/ns#"
   xmlns:rdf="http://www.w3.org/1999/02/22-rdf-syntax-ns#"
   xmlns:svg="http://www.w3.org/2000/svg"
   xmlns="http://www.w3.org/2000/svg"
   xmlns:sodipodi="http://sodipodi.sourceforge.net/DTD/sodipodi-0.dtd"
   xmlns:inkscape="http://www.inkscape.org/namespaces/inkscape"
   version="1.1"
   id="svg4103"
   xml:space="preserve"
   width="438.95865"
   height="325.76572"
   viewBox="0 0 438.95865 325.76571"
   sodipodi:docname="beardy-bytes-logo-no-text.svg"
   inkscape:version="0.92.3 (2405546, 2018-03-11)"><metadata
     id="metadata4109"><rdf:RDF><cc:Work
         rdf:about=""><dc:format>image/svg+xml</dc:format><dc:type
           rdf:resource="http://purl.org/dc/dcmitype/StillImage" /><dc:title></dc:title></cc:Work></rdf:RDF></metadata><defs
     id="defs4107" /><sodipodi:namedview
     pagecolor="#ffffff"
     bordercolor="#666666"
     borderopacity="1"
     objecttolerance="10"
     gridtolerance="10"
     guidetolerance="10"
     inkscape:pageopacity="0"
     inkscape:pageshadow="2"
     inkscape:window-width="1600"
     inkscape:window-height="837"
     id="namedview4105"
     showgrid="false"
     inkscape:zoom="0.63"
     inkscape:cx="58.034466"
     inkscape:cy="91.444049"
     inkscape:window-x="-8"
     inkscape:window-y="-8"
     inkscape:window-maximized="1"
     inkscape:current-layer="g4113"
     fit-margin-top="0"
     fit-margin-left="0"
     fit-margin-right="0"
     fit-margin-bottom="0" /><g
     id="g4111"
     inkscape:groupmode="layer"
     inkscape:label="ink_ext_XXXXXX"
     transform="matrix(1.3333333,0,0,-1.3333333,-123.46965,468.17163)"><g
       id="g4113"
       transform="matrix(0.1,0,0,0.1,-11.904762,-97.61905)"><path
         d="m 3571.22,3517.7 c -15.88,-45.48 -49.95,-91.27 -93.85,-113.47 1.73,11.17 1.16,24.45 -2.02,36.82 11.5,0.94 19.56,5.44 25.75,12.04 -4.61,-8.46 -9.37,-16.86 -14.8,-24.98 -3.83,-5.72 4.24,-10.59 8.88,-6.85 10.72,8.68 14.61,25.15 21.06,37.05 10.69,19.76 25.05,36.68 38.08,54.87 26.37,36.78 27.08,61.57 23.62,105.47 -0.41,5.21 -8.18,5.36 -8.21,0 -0.33,-46.58 -9.25,-76.11 -37.64,-113.51 -4.51,-5.94 -8.53,-12.08 -12.29,-18.31 2.77,6.41 5.68,12.87 9.23,18.92 21.03,35.87 22.13,83.37 20.14,123.82 -0.17,3.61 -6.07,4.9 -6.69,0.9 -4.89,-31.1 -1.52,-66.27 -10.75,-95.95 -5.8,-18.64 -37.3,-85.58 -57.7,-87.46 -0.16,-0.01 -0.27,-0.09 -0.41,-0.12 -1.61,4.82 -3.69,9.35 -6.18,13.48 19.54,16.87 31.16,46.13 39.81,68.91 15.61,41.1 1.53,82.9 8.64,124.4 0.65,3.73 -4.96,5.4 -5.76,1.59 -6.88,-32.75 -0.8,-66.93 -8.07,-99.85 -6.67,-30.15 -25.42,-58.71 -42.46,-85.15 -6.58,6.3 -14.93,10.19 -25.34,9.9 -11.68,-0.33 -18.52,-14.76 -10.17,-23.28 22.46,-22.93 13.6,-62.09 5.98,-95.27 -1.44,2.84 -3.44,5.51 -5.4,8.32 -6.56,9.45 -13.34,18.76 -19.78,28.3 -8.82,13.04 -17.02,32.91 -32.63,39 -4.75,1.86 -7.53,-5.54 -3.39,-8.02 13.48,-8.07 21.92,-31.04 30.32,-43.8 7.76,-11.74 17.61,-23.4 23.89,-35.93 0.89,-1.77 2.3,-2.47 3.73,-2.43 -1.07,-5.1 -1.98,-9.95 -2.57,-14.44 -5.67,-43.05 -0.16,-80 0.98,-122.65 0.11,-4.02 -0.04,-8.08 -0.13,-12.13 -5.82,9.99 -12.96,19.2 -19.35,28.85 -1.28,1.94 -5.02,0.74 -4.02,-1.69 0.94,-2.26 2.02,-4.45 3.07,-6.66 -5.69,6.93 -11.32,13.92 -17.21,20.76 -7.05,8.19 -13.69,16.2 -19.75,24.59 0.29,1.92 -0.88,3.95 -3.17,4.74 -2.75,8.39 -2.87,18.02 -2.24,27.62 2.27,-3.12 4.57,-6.23 7.02,-9.27 13.12,-16.26 25.55,-38.38 41.58,-51.74 2.96,-2.47 8.56,-2.05 9.42,2.48 2.5,13.07 -10.23,24.5 -16.41,35.23 -2.16,3.74 -8.19,1.25 -7,-2.96 0.45,-1.58 1.34,-3.45 2.39,-5.44 -4.84,6.64 -9.48,13.45 -14.29,19.13 -7.63,9.04 -14.99,17.98 -21.36,27.52 0.19,1.91 0.39,3.8 0.54,5.63 2.37,0.58 4.47,2.05 5.3,4.39 0.78,2.18 1.22,4.59 1.78,6.91 2.14,-8.96 5.18,-17.4 9.66,-24.48 3.52,-5.55 13.95,-7.43 17.27,0 2.01,4.52 3.14,9.33 3.67,14.32 1.12,-0.9 2.22,-1.85 3.39,-2.64 4.06,-2.8 8.38,1.06 8.84,5.07 1.22,10.68 -4.71,21.03 -11.88,28.65 -0.85,0.89 -1.93,1.24 -3.02,1.23 -2.63,13.07 -6.17,26.04 -7.29,37.43 -0.55,5.62 -3.87,9.21 -7.86,10.67 -5.4,19.83 -17.32,36.42 -36.24,36.36 1.82,0.35 3.66,0.62 5.46,1.03 37.27,8.49 66.68,36.57 94.78,61.37 3.95,-2.18 8.97,-2.79 13.95,-0.64 10.58,4.56 12.78,10.47 16.88,20.16 10.47,24.72 15.74,73.43 14.67,101.09 -2.08,53.41 -27.19,94.49 -41.07,143.75 -2.04,7.23 -13.54,4.11 -11.42,-3.13 9.59,-32.73 17.13,-63.22 21.27,-97.34 3.46,-28.47 3.83,-54 -2.68,-82.13 -2.04,-8.8 -4.44,-35.02 -9.48,-50.25 -18.5,6.53 -36.73,11.22 -55.11,14.59 48.78,41.47 39.48,92.08 26.12,152.32 -15,67.59 -59.71,118.79 -91.09,179.08 -1.93,3.7 -7.37,0.45 -5.57,-3.25 22.45,-46.16 57.32,-89.7 75.6,-137.65 25.62,-67.22 23.84,-128.07 -11.53,-188.24 -0.23,-0.38 -0.13,-0.7 -0.2,-1.06 -26.13,4.35 -52.79,6.39 -81.47,7.77 -56.46,2.73 -110.38,16.27 -166.55,21.71 -63.72,6.19 -128.79,16.99 -193.85,24.41 16.18,15.33 31.68,29.51 40.3,50.51 1.49,3.61 -3.38,6.73 -6.38,4.9 -3.58,-2.18 -5.26,-4.88 -7.47,-8.47 -3.23,-5.24 -7.06,-9.98 -11.08,-14.63 -7.55,-8.71 -15.85,-16.7 -23.67,-25.13 -1.85,-1.99 -1.85,-4.31 -0.9,-6.14 -7.07,0.76 -14.14,1.5 -21.21,2.17 1.24,0.25 2.43,0.89 2.97,2.26 9,22.62 8.54,49.36 6.22,73.14 -2.26,23.28 -13.62,43.47 -15.16,66.63 -0.33,4.99 -7.99,5.1 -7.85,0 0.58,-21.71 10.21,-39.87 12.64,-61.19 3.05,-26.62 -2.57,-51.34 -3,-77.62 -0.03,-1.7 0.91,-2.57 2.06,-3.04 -9.37,0.87 -18.73,1.61 -28.08,2.26 4.16,10.41 2.17,23.05 0.41,33.85 -3.24,19.94 -7.3,40.05 -13.79,59.12 -0.26,0.8 -1.47,0.48 -1.26,-0.34 4.08,-15.83 5.43,-31.69 7.42,-47.85 1.47,-11.93 5.15,-28.35 0.68,-40.3 -0.42,-0.34 -0.74,-0.79 -0.9,-1.37 -0.22,-0.81 -0.44,-1.63 -0.66,-2.45 -0.01,-0.04 0,-0.08 -0.01,-0.12 -8.74,0.54 -17.46,0.99 -26.18,1.28 5.24,12.95 -25.76,26.82 -33.63,40.44 -9.6,16.61 -11.82,43.11 -17.88,61.95 -14.01,43.64 -21.12,88.91 -35.12,132.61 -33.21,103.78 -74.84,204.86 -62.46,316.83 0.44,3.97 -5.68,3.9 -6.17,0 -6.83,-55.02 -6.81,-123.27 11.28,-175.65 27.57,-79.82 43.32,-149.02 52.69,-233.9 2.13,-19.2 14.54,-98.39 41.03,-142.21 -6.51,-0.22 -13.03,-0.5 -19.53,-0.92 -117.33,-7.61 -234.53,-33.55 -352.09,-42.45 -78.1,-5.92 -156.88,0.8 -235.13,0.56 -44.23,-0.14 -88.73,1.52 -132.95,-1.05 -19.59,-1.14 -42.03,-5.36 -63.3,-5.07 0.15,1.74 0.02,3.56 -0.77,5.43 -31.63,75.13 -29.63,157.87 -10.39,236.57 11.83,48.36 14.73,108.14 33.91,154.2 3.25,7.82 -9.35,11.28 -12.54,3.48 -11.92,-29.26 -12.6,-65 -22.86,-95.95 -11.82,-35.63 -27.46,-71.36 -37.73,-107.39 -15.54,-54.52 -14.06,-145.52 23.4,-192.67 -4.25,1.26 -8.37,2.9 -12.3,4.99 -39.99,60.14 -46.7,134.12 -34.58,206.35 12.53,74.62 67.65,127.61 63.98,207.11 -0.14,3.13 -4.7,3.14 -4.85,0 -3.13,-63.77 -38.17,-104.42 -59.67,-160.82 -13,-34.09 -14.99,-73.67 -15.15,-109.76 -0.22,-50.02 7.75,-100.32 34.07,-141.83 -6.05,-3.34 -9.75,-10.75 -8.5,-17.71 -0.37,-1.31 -0.53,-2.68 -0.42,-4.11 1.4,-18.94 19.05,-33.23 32.65,-45 6.11,-5.28 12.59,-9.51 18.13,-15.2 2.87,-2.95 5.73,-4.75 8.7,-5.98 -1.81,-0.59 -3.53,-1.33 -5.19,-2.18 -1.11,4.51 -4.1,8.57 -9.53,11.2 -2.23,1.09 -4.47,2.03 -6.71,3 1,1.04 1.26,2.87 -0.25,4.02 -96.58,73.12 -88.46,176.14 -76.66,284.75 0.33,3.01 -4.33,3.42 -5.14,0.69 -31.22,-105.07 -26.01,-221.52 72.56,-285.64 -27.87,10.36 -55.5,14.16 -79.51,26.22 -19.07,51.78 -43.28,106.55 -42.74,162.31 0.66,70.61 31.9,133.36 50.37,200.13 1.02,3.7 -4.42,5.09 -5.68,1.57 -42.48,-119.97 -90.89,-235.65 -18.59,-353.65 -10.76,8.26 -20.47,19.32 -28.73,34.98 -32.76,62.12 -16.57,195.06 8.19,259.86 41.56,108.79 128.94,190.76 185.59,290.87 71.26,125.89 235.12,188.77 368.79,221.39 -60.36,-24.74 -120.24,-45.93 -177.46,-85.17 -65.98,-45.25 -126.25,-104.94 -153.11,-182.04 -0.98,-2.82 3,-4.25 4.57,-1.94 55.85,82.24 122.5,142.59 207.61,194.57 57.33,35.01 133.02,51.79 187.03,90.2 19.93,4.06 40.01,7.36 59.6,8.55 30.87,1.87 54.02,-2.85 83.44,10.19 11.28,5 25.05,13.31 37.5,23.38 12.07,-12.58 24.49,-22.52 31.42,-26.03 5.32,-2.71 11.6,-4.34 18.3,-5.37 -5.72,-8.15 -8.19,-18.58 -9.59,-28.85 -2.93,-21.48 -3.04,-45.98 0.99,-67.18 1.33,-6.94 11.38,-3.85 10.52,2.88 -3.77,29.69 0.4,64.2 13.76,91.87 3.97,-0.07 7.98,-0.01 12.01,0.18 -0.77,-0.51 -1.38,-1.19 -1.37,-2.24 0.14,-13.82 10.57,-28.22 16.21,-40.5 4.17,-9.05 5.74,-25.07 14.79,-30.91 2.25,-1.46 5.71,0.99 4.73,3.64 -3.35,9.09 -5.86,18.41 -10.08,27.16 -6.11,12.64 -17.91,27.52 -19.78,41.4 -0.11,0.79 -0.52,1.3 -1.03,1.65 14.06,0.84 27.93,2.76 38.91,3.99 21.42,2.4 48.78,3.51 72.2,8.17 1.24,-0.78 2.73,-1.36 4.53,-1.67 46.39,-8.07 88.49,-22.46 133.75,-35.51 53.39,-15.4 107.22,-27.07 157.18,-48.22 -0.07,-3 1.34,-6.05 4.85,-7.38 58.63,-22.25 121.54,-130.77 148.06,-188.05 18.95,-40.96 35.89,-88.4 47.09,-131.95 5.52,-21.45 6.59,-42.41 14.61,-63 14.43,-37.08 39.47,-56.62 63.73,-87.08 3.11,-3.92 9.88,1.21 7.16,5.43 -22.75,35.27 -48.03,63.71 -57.41,105.81 -10.74,48.27 -20.21,89.08 -37.34,135.67 -15.05,40.96 -35.63,78.01 -61.55,112.79 -17.37,23.3 -32.65,49.2 -50.74,71.86 0.12,-0.1 0.24,-0.18 0.37,-0.28 46.16,-37.28 78.77,-91.56 101.92,-146.13 17.8,-41.94 22.92,-79.34 56.8,-110.19 -1.66,0.07 -3.44,-1.14 -3,-3.31 8.14,-39.75 28.04,-91.46 52.74,-124.8 14.79,-19.94 34.08,-32.31 46.42,-54.85 15.72,-28.74 30.63,-73.71 33.72,-105.01 0.3,-3.02 5.06,-3.06 4.77,0 -3.57,37.45 -20.12,93.96 -40.28,126.94 -14.76,24.17 -38.1,41.55 -52.27,67.13 -15.01,27.1 -31.49,62.23 -39.54,91.59 55.15,-50.02 102.38,-88.39 132.62,-159.84 14.53,-34.35 31.13,-67.72 42.32,-103.34 20.07,-63.95 42.16,-138.85 19.21,-204.53 z M 3381.4,3065.68 c -5.01,-6.57 -11.16,-12.56 -17.88,-18.29 -0.49,4.6 -2.89,9.07 -4.39,13.5 -0.76,2.21 -4.27,1.96 -4.22,-0.57 0.01,-0.66 0.22,-1.58 0.42,-2.51 -5.33,8.36 -11.14,16.48 -15.96,25.1 -8.08,14.44 -14.2,29.91 -20.63,45.13 -1.38,3.26 -5.88,2.43 -7.6,0.01 -0.29,1.46 -0.56,2.92 -0.81,4.39 1.37,0.49 2.57,1.38 3.31,2.74 2.1,3.81 4.26,7.99 6.42,12.33 9.69,-25.72 26.87,-50.63 45.03,-69.63 2.47,-2.59 6.7,-1.19 7.7,2.03 0.13,0.41 0.26,0.82 0.39,1.24 0.66,2.11 -0.62,3.7 -2.35,4.35 -9.3,13.28 -20.27,25.22 -29.05,39.04 -2.62,4.13 -5.04,8.36 -7.49,12.55 0.98,0.46 1.88,1.12 2.5,2.21 3.91,6.82 7.69,13.6 11.24,20.43 3.06,-4.28 6.24,-8.38 9.38,-12.24 11.45,-14.08 25.45,-40.5 42.5,-48.02 0.68,-0.31 1.36,-0.28 2.04,-0.34 -5.73,-11.73 -12.55,-22.96 -20.55,-33.45 z m -32.35,-142.52 c -2.75,0.03 -5.56,-1.11 -6.75,-3.92 -2.3,-5.37 -4.39,-10.86 -6.63,-16.27 -0.08,0.41 -0.15,0.82 -0.23,1.24 5.63,18.74 2.71,41.91 1.03,57.23 -0.53,4.83 -1.38,9.71 -2.39,14.6 0.79,0.38 1.58,0.76 2.37,1.15 3.23,-14.13 8.34,-33.19 12.6,-54.03 z m -23.93,-139.41 c 1.26,13.82 1.98,27.67 2.24,41.54 2.81,8.66 5.41,17.39 7.92,26.15 4.25,-2.39 9.69,1.36 8.93,5.56 -0.92,5.18 -1.89,10.36 -2.86,15.55 3.31,11.46 6.87,22.84 10.8,34.1 7.94,-47.09 8.38,-98.83 -27.03,-122.9 z m -144.64,-415.7 c 0.58,10.1 0.38,20.23 0.01,29.88 3.12,7.78 6.2,15.57 9.13,23.39 4.93,8.35 9.5,16.96 13.77,25.73 0.48,-0.79 0.86,-1.64 1.36,-2.42 1.59,-2.47 5.34,-2.67 7.82,-1.31 -5.52,-26.32 -16.01,-52.59 -32.09,-75.27 z m -26.11,-28.85 c 1.18,2.08 2.39,4.16 3.51,6.29 -0.22,-1.29 -0.42,-2.57 -0.65,-3.84 -0.93,-0.85 -1.91,-1.63 -2.86,-2.45 z m -48.05,-0.89 c 1.1,-4.62 2.62,-9.06 4.68,-13.25 -2.12,3.33 -4.17,6.7 -6.15,10.11 0.5,1.05 1,2.1 1.47,3.14 z m -24.8,1.97 c -0.31,2.58 -0.49,4.13 -0.5,4.23 0,0.37 0.04,0.74 0.03,1.11 0.54,-1 1.05,-1.99 1.59,-2.98 -0.36,-0.79 -0.75,-1.58 -1.12,-2.36 z m -23.37,-24.2 c 1.22,-1.48 2.58,-2.85 4.07,-4.11 -1.65,-1.41 -3.47,-2.47 -5.48,-3.18 0.5,2.43 0.94,4.86 1.41,7.29 z m -69.79,-58.73 c -0.08,0.01 -0.16,-0.02 -0.25,-0.02 9.66,21.15 16.28,43.59 21.96,61.44 3.18,-10.04 7.57,-19.27 13.59,-25.93 -6.93,-20.17 -17.89,-36.95 -35.3,-35.49 z m -34.45,-23.13 c 1.74,13.08 3.36,24.98 4.61,33.66 2.21,5.71 4.5,11.4 6.89,16.95 9.93,13.96 19.42,28.02 28.39,42.1 -8.65,-32.17 -19.87,-66.82 -39.89,-92.71 z m -50.43,-28.9 c 7.11,8.38 14.12,16.85 21.01,25.43 -2.65,-12.77 -5.06,-26.83 -6.18,-40.7 -6.19,3.69 -11.47,9.25 -14.83,15.27 z m -41.77,12.52 c 1.17,0.92 2.15,2.01 2.6,3.41 l 0.05,-0.03 c 2.93,7.76 5.82,15.62 8.73,23.46 2.71,-0.42 5.54,0.15 7.58,2.27 1.51,1.55 2.91,3.2 4.32,4.85 -0.01,-0.03 -0.02,-0.06 -0.03,-0.09 -2.13,-4.59 -3.69,-9.33 -4.73,-14.14 -2.21,-6.82 -4.36,-13.67 -6.53,-20.54 -3.07,-9.66 -7.77,-18.98 -12.45,-28.26 -1.41,5.11 -2.81,10.16 -3.89,15.08 -0.15,0.68 -0.26,1.36 -0.39,2.03 1.66,3.96 3.25,7.94 4.74,11.96 z m -50.6,0.91 c -0.39,-0.67 -0.79,-1.48 -1.18,-2.19 3.21,28.78 2.7,57.47 -0.48,87.05 0,0.28 0.02,0.55 0.02,0.82 0.04,12.48 -1.1,24.59 -2.74,36.54 4.68,-15.78 10.04,-35.12 21.18,-48.58 -1.65,-3.41 -2.62,-6.87 -1.19,-10.5 0.59,-1.47 1.82,-2.61 3.26,-3.47 -0.78,-9.89 -1.22,-19.88 -0.98,-29.88 -5.97,-9.92 -12.08,-19.77 -17.89,-29.79 z m -34.75,-101.03 c 0.89,8.11 0.98,16 0.95,22.23 -0.07,18.73 -2.95,38.63 -5.49,57.17 -1,7.3 -2.88,14.35 -5.16,21.27 5.52,9.13 11.38,18.46 16.79,27.96 -3.16,-17 -6.21,-34.01 -7.17,-51.25 -0.26,-4.87 6.14,-7.12 10.64,-5.63 -0.06,-4.38 0,-8.76 0.09,-13.15 -2.68,-3.16 -5.53,-6.05 -8.75,-8.22 -4.93,-3.33 -0.84,-9.52 4.54,-9.71 4.88,-0.15 9.15,1.2 12.95,3.49 -2.9,-9.41 -6.22,-18.73 -10.38,-27.8 -2.66,-5.79 -5.7,-11.19 -9.01,-16.36 z m -41.11,-38.68 c 1.21,0.41 2.32,0.9 3.47,1.36 -2.15,-2.76 0.22,-5.45 3.35,-6.28 -0.42,-0.52 -0.85,-1.02 -1.27,-1.54 -0.49,-0.59 -0.77,-1.23 -0.95,-1.86 -1.58,2.76 -3.26,5.53 -4.6,8.32 z m -21.75,-20.41 c 2.11,0.61 4.25,1.46 6.42,2.48 0.86,-0.97 1.91,-1.82 2.86,-2.74 -3.26,-0.31 -6.37,-0.24 -9.28,0.26 z m -122.85,60.43 c 2.2,1.96 2.84,4.84 -0.35,6.99 -1.45,0.98 -2.7,2.02 -4.06,3.03 -1.45,3.14 -2.95,6.28 -4.61,9.35 -0.88,1.64 -1.93,3.22 -2.88,4.83 1.97,-0.12 3.94,0.48 5.31,1.53 7.97,-14.14 13.91,-28.55 13.88,-42.01 -2.6,5.35 -4.95,10.81 -7.29,16.28 z m -36,13.58 c 2.96,-0.54 6.01,-0.91 9.15,-1.12 0.75,-0.7 1.57,-1.35 2.33,-2.03 2.1,-3.67 4.07,-7.36 5.96,-11.04 -5.77,0.49 -11.81,6.4 -17.44,14.19 z m -92.23,85.83 c 2.94,-4.99 6.02,-9.86 9.15,-14.58 -2.3,1.42 -4.54,2.87 -6.73,4.39 -0.85,3.36 -1.66,6.75 -2.42,10.19 z m -4.66,-42.22 c -4,7.35 -7.17,15.02 -9.7,22.94 1.09,-0.95 2.17,-1.93 3.3,-2.85 1.95,-6.6 4.11,-13.29 6.4,-20.09 z m -31.81,31.42 c -19.04,4.87 -33.68,10.56 -47.51,18.75 15.89,-4.31 31.94,-7.25 46.44,-7.48 0.92,-4.1 1.94,-8.14 3.06,-12.14 -0.57,0.37 -1.23,0.68 -1.99,0.87 z m -137.35,101.96 c 3.97,-2.1 10.33,0.79 8.97,5.39 -1.07,3.64 -2.02,7.28 -2.89,10.93 1.66,1.36 1.87,4.09 -0.43,5.1 -0.27,0.11 -0.5,0.29 -0.77,0.41 -2.9,13.93 -4.28,27.83 -3.74,41.55 5.07,-5.42 10.76,-10.51 17.05,-15.24 -0.4,-11.29 1.46,-22.8 5.6,-35.22 6.34,-19.01 17.26,-37.47 25.93,-55.75 1.91,-4.04 3.62,-7.99 5.72,-11.74 -1.25,0.47 -2.54,0.95 -3.75,1.41 -1.23,0.48 -2.34,1.07 -3.56,1.56 -15.92,13.3 -32.48,29.57 -31.97,46.56 0.22,7.15 -12.54,7.06 -13.2,0 -0.83,-8.89 2.08,-17.66 7.02,-26.06 -0.35,0.24 -0.68,0.5 -1.04,0.75 -4.71,9.57 -7.4,19.8 -8.94,30.35 z m -46.84,76.1 c 0.42,-1.13 0.77,-2.34 1.21,-3.43 -0.59,0.68 -1.19,1.36 -1.77,2.04 0.17,0.47 0.39,0.91 0.56,1.39 z m -24.99,31.13 c 3.18,17.46 6.78,34.93 9.55,52.03 0.18,1.13 0.33,2.28 0.5,3.41 2.17,-3.41 4.55,-6.71 7.15,-9.9 -3.57,-17.64 -2.5,-37.22 1.47,-55.25 -0.91,-3.99 -2.07,-7.9 -3.35,-11.76 -5.54,7.02 -10.7,14.17 -15.32,21.47 z m -19.01,86.22 c 2.59,-2.32 7.19,-3.14 10.82,-0.42 0.77,0.57 1.48,1.19 2.24,1.77 3.74,-20.07 -3.46,-42.82 -5.69,-62.13 -0.12,-0.98 -0.27,-1.97 -0.39,-2.95 -8.75,20.13 -12.26,41.33 -6.98,63.73 z m -16.19,12.38 c -2.44,15.14 -6.02,30.2 -10.1,45.14 1.58,5.25 3.05,10.53 4.44,15.82 3.93,-17.38 10.52,-33.83 19.97,-47.48 -7.74,-14.07 -11.89,-28.5 -13.11,-42.92 0.24,9.83 0.38,19.67 -1.2,29.44 z m -64.08,113.19 c 8.66,-14.94 22.34,-26.16 42.04,-30.56 -0.54,-2.43 -0.99,-4.84 -1.4,-7.25 -3.27,0.07 -6.62,-1.86 -6.93,-4.97 -16.62,8 -27.04,23.91 -33.71,42.78 z m -51.98,248.97 c 2.22,0.45 4.1,1.75 4.59,4.06 1.86,8.83 4.87,17.42 8.16,25.95 -0.06,-4.23 0.02,-8.55 0.21,-12.93 -5.54,-14.26 -8.3,-29.5 -8.01,-44.33 -1.02,9.09 -3,18.16 -4.95,27.25 z m -25.89,188.06 c -23.29,32.49 -35.01,72.07 -37.32,111.63 18.84,-3.38 32.28,31.57 38.85,43.15 2.64,4.66 -3.99,8.24 -7.01,4.11 -0.79,-1.06 -19.31,-24.23 -24.16,-28.71 3.05,4.23 10,23.48 10.56,24.96 7.79,20.44 17.13,41.1 26.92,61.06 2.76,-6.11 6.73,-12.01 10.57,-17.73 0.18,-5.8 0.4,-11.6 0.72,-17.41 -7.12,-15.14 -13.95,-30.43 -19.68,-46.21 -10.19,-28.07 -27,-68.96 -18.7,-99.13 1.63,-5.9 8.26,-6.69 12.52,-3.3 7.27,5.77 5.94,4.48 10.79,12.63 3.22,5.41 -3.78,9.73 -8.14,6.28 l -1.39,-0.85 c -0.48,30.75 13.66,67.11 24.28,94.79 0.23,-0.4 0.5,-0.78 0.72,-1.18 -0.2,-12.29 1.02,-23.21 4.53,-30.02 -10.97,-15.43 -11.8,-32.61 -5.45,-50.51 -5.98,-11.88 -11.66,-23.87 -16.22,-36.27 -0.01,-0.03 -0.04,-0.04 -0.05,-0.07 l -1.34,-3.34 c -3.16,-7.86 8.24,-10.77 12.49,-5.26 3.35,4.35 6.07,9.44 8.61,14.69 -1.12,-3.98 -2.2,-7.98 -3.29,-12.04 -0.81,-3.06 1.98,-6.02 5.24,-6.46 0.37,-2.75 0.84,-5.5 1.42,-8.2 -1.19,-4.21 -2.53,-8.52 -4.11,-13.01 -1.39,-3.95 -2.84,-7.92 -4.3,-11.9 -6.47,5.73 -12.35,11.73 -17.06,18.3 z m -24.83,391.26 c 7.21,7.02 4.19,17.94 -3.59,21.79 3.22,1.36 5.54,3.81 6.9,6.83 2.61,-0.8 5.24,-1.57 7.93,-2.24 -0.39,-0.48 -0.66,-1.04 -0.63,-1.75 0.35,-7.14 6.15,-13.66 12.62,-19.87 -13.07,-12.21 -26.19,-24.43 -37.76,-38.11 -0.3,-0.37 -0.72,-0.81 -1.07,-1.2 1.57,13.2 6.05,25.22 15.6,34.55 z m 1336.03,-33 c 5.94,-3.86 9.46,-11.5 11.59,-19.77 -3.27,7.31 -7.2,13.95 -11.59,19.77 z m -0.43,-117.13 c -0.38,3.36 -0.69,6.72 -0.94,10.09 0.39,-0.74 0.75,-1.51 1.16,-2.25 -0.01,-1.29 0.01,-2.59 -0.03,-3.86 -0.04,-1.28 -0.12,-2.64 -0.19,-3.98 z m 10.39,-117.45 c 0.03,0.07 0.04,0.14 0.06,0.22 1.83,-1.11 3.95,-1.77 6.31,-1.74 5.36,-7 11.07,-13.75 16.95,-20.26 10.09,-11.18 19.85,-24.08 30.85,-35.01 -2.34,-7.75 -5.19,-15.33 -8.35,-22.81 -1.23,2.83 -2.9,5.22 -4.65,8.33 -1.4,2.48 -5.49,1.67 -5.84,-1.07 -9.83,9.99 -18.16,23.02 -26.7,32.9 -5.37,6.22 -11.09,13.05 -16.25,20.31 2.88,6.22 5.55,12.53 7.62,19.13 z m -21.17,6.57 c 4.81,15.79 7.98,31.99 8.16,47.18 1.73,-1.62 3.53,-3.16 5.41,-4.63 -0.65,-4.42 -1.23,-8.85 -1.84,-13.28 -2.37,-0.65 -4.41,-2.81 -3.34,-5.45 0.57,-1.36 1.34,-2.6 1.96,-3.93 -1.45,-8.99 -3.31,-17.93 -6.58,-26.69 -0.17,-0.48 -0.42,-0.96 -0.61,-1.44 -1.24,2.71 -2.27,5.46 -3.16,8.24 z M 2820.93,2349.1 c -2.27,6.75 -4.31,13.46 -6.23,19.9 2.24,-6.59 4.3,-13.24 6.23,-19.9 z m 493.18,877.22 c 2.51,7.57 -11.08,10.72 -13.9,3.22 -12.59,-33.5 -9.86,-67.46 -4.74,-101.65 1.1,-7.29 1.73,-15.82 2.84,-24.53 -2.12,-0.93 -3.88,-2.54 -4.24,-4.99 -3.05,-20.34 1.38,-38.92 6.77,-57.57 0.12,-6.06 0.33,-12.1 0.64,-18.13 -1.52,9.92 -3.51,19.79 -5.78,29.29 -6.9,28.88 -24.73,67.54 -8.33,96.21 4.06,7.11 -8.05,13.42 -12.58,6.23 -14.52,-23 -9.42,-47.57 -5.15,-72.2 4.59,-26.52 6.15,-56.57 13.75,-83.34 -4.86,4.54 -15.73,3.29 -15.54,-4.5 0.51,-22.94 5.33,-45.53 10.62,-68.1 -3.44,0.52 -7.49,-1.07 -7.76,-4.89 -0.07,-1.05 -0.01,-2.09 -0.06,-3.13 -2.58,22.7 -3.88,45.52 -3.67,68.82 0.08,8.44 -15.24,8.44 -15.68,0 -2.88,-54.72 3.88,-105.41 13.74,-158.26 -1,-0.57 -1.83,-1.4 -2.53,-2.45 0.01,0.04 0.01,0.09 0.02,0.12 1.12,8.42 -14.2,8.18 -15.54,0 -1.57,-9.47 -2.6,-18.96 -3.35,-28.45 -3.57,0.23 -7.32,-1.11 -8.12,-4.5 -7.44,-31.28 -3.98,-66.33 0.81,-99.61 -1.36,-19.83 -2.71,-42.61 -8.92,-60.04 -5.81,37.58 -8.97,76.3 -13.53,112.32 -0.95,7.44 -15,7.69 -14.25,0 3.87,-39.25 10.55,-78.18 14.43,-117.44 0.68,-6.93 0.66,-14.99 1.29,-23.06 -7.15,35.49 -14.32,71.12 -15.63,107.65 -0.17,5.1 -9.28,5.17 -9.53,0 -1.05,-20.83 -0.42,-41.47 1.2,-62.07 -0.78,3.54 -1.53,7.1 -2.32,10.63 -1.57,7.07 -14.26,4.03 -12.93,-2.96 4.17,-21.98 6.32,-43.81 9.97,-65.69 -0.43,-7.83 -0.81,-15.65 -1.19,-23.47 -8.04,25.47 -14.63,51.19 -14.92,77.87 -0.08,7.92 -14.73,7.97 -14.76,0 -0.11,-31.39 6.26,-59.88 14.39,-89.52 -10.59,24.8 -24.3,48.38 -40.26,71.3 -2.49,3.59 -7.77,9.35 -14.22,16.23 -4.3,12.07 -8.51,24.16 -12.54,36.38 -2.34,7.12 -15.79,4.09 -13.44,-3.09 0.89,-2.69 1.8,-5.39 2.69,-8.08 -7.91,8.93 -15.26,17.95 -20.3,25.96 -1.94,4.43 -3.99,8.81 -6.14,13.11 -0.69,2.92 -0.67,5.48 0.39,7.5 0.78,1.47 0.54,2.77 -0.22,3.83 11.67,1.58 23.08,4.97 33.38,10.41 29.36,15.52 30.29,43.19 32.31,69.25 0.69,8.95 -14.64,8.36 -16.2,0 -0.88,-4.74 -1.72,-9.59 -2.72,-14.39 -0.02,-0.01 -0.05,-0.01 -0.08,-0.02 -12.87,-5.7 -21.73,-16.07 -34.93,-21.58 -10.03,-4.19 -21.86,-4.32 -32.44,-1.48 10.42,4.39 20.2,10.28 28.94,18.07 3.64,3.24 0.21,7.78 -4.69,7.03 -16.75,-2.53 -30.05,-9.14 -44.47,-13.92 -0.51,0.52 -1.12,0.97 -1.59,1.51 -4.41,5.11 -14.77,0.48 -10.87,-4.94 -7,-1.48 -14.52,-2.22 -22.98,-1.65 -2.23,1.44 -4.46,2.88 -6.53,4.58 14.17,2.15 27.66,7.1 39.52,16.1 7.42,5.63 -1.81,16.21 -10.37,11.59 -5.62,-3.04 -11.26,-5.17 -16.9,-6.87 -0.42,1.38 -1.57,2.57 -3.51,2.99 -6.34,1.37 -12.69,2.64 -19.03,3.89 6.1,3.91 11.44,8.68 15.8,14.3 4.79,2.56 9.81,5.63 15.51,9.24 2.78,1.76 2.65,6.71 -1.88,6.31 -16.21,-1.43 -33.05,-8.86 -49.93,-6.94 -22.76,2.58 -45.26,21.51 -62.8,32.09 -9.88,5.95 -19.34,10.68 -28.81,14.5 3.56,-0.45 7.05,-0.89 10.5,-1.42 1.63,-0.63 3.33,-1.22 4.83,-1.93 1.85,-0.87 3.86,-0.6 5.53,0.2 0.79,-0.15 1.68,-0.27 2.45,-0.42 4.11,-0.79 9.07,3.21 6.23,6.59 -6.4,7.61 -20.26,10.31 -32.91,11.89 -5.28,1.3 -10.89,2.39 -17.15,3.68 -19.2,3.98 -42.87,10.49 -62.95,5.95 -17.15,-3.88 -27.89,-12.74 -33.76,-23.75 -1.83,-2.04 -3.25,-4.24 -4.05,-6.61 -0.15,2.19 -0.25,4.4 -0.23,6.58 0.04,4.71 2.08,8.47 2.94,13.04 1.11,5.83 -8.86,11.19 -12.65,4.51 -2.04,-3.61 -4.26,-6.41 -5.89,-9.55 -2.3,0.53 -4.92,0.09 -6.33,-1.98 -22.43,-33.12 -1.12,-76.75 28.49,-100.74 0.44,-0.35 0.94,-0.61 1.47,-0.81 6.91,-14.55 21.9,-23.8 37.02,-28.02 3.13,-0.87 4.95,2.91 3.01,5.15 -4.12,4.73 -12.09,5.96 -17.34,9.46 -3.07,2.05 -5.99,4.34 -8.66,6.87 2.15,1.14 3.46,3.35 1.9,5.76 -10.72,16.58 -15.69,34.49 -19.82,52.65 1.06,-0.26 2.08,-0.23 3.13,0.1 0.05,-9.53 1.52,-18.92 4.81,-27.63 4.76,-12.57 21.97,-30.14 38.09,-32.62 1.05,-0.17 2.01,-0.12 2.9,0.03 5.11,-4.94 10.51,-9.63 16.24,-14.1 -3.82,2.22 -7.42,4.85 -11.13,8.04 -4.04,3.45 -9.91,-2.29 -5.88,-5.88 7.78,-6.95 19.77,-18.76 31.09,-13.92 0.53,0.22 0.78,0.62 1.05,1 2.45,-1.58 4.93,-3.14 7.51,-4.66 23.93,-14.07 39.76,-16.62 65.96,-4.95 4.38,1.96 1.54,8.43 -3.23,6.79 -19.65,-6.75 -35.97,-2.78 -50.59,5.74 16.15,-4.81 32.96,-6.17 47.25,-2.39 4.73,1.25 6.2,5.21 4.67,8.28 1.95,0.39 3.84,1.34 5.09,2.61 9.38,-3.34 19.19,-6.12 29.18,-8.19 7.17,-5.67 16.61,-5.74 26.42,-9.03 14.08,-4.72 27.66,-11.45 40.05,-18.65 27.18,-15.8 49.43,-42.08 47.36,-71.36 -0.22,-3.09 3.52,-5.53 7.06,-5.1 0.63,-2.17 1.26,-4.3 1.89,-6.52 1.28,-4.47 2.37,-8.8 3.58,-13.03 -0.88,0.89 -1.64,1.82 -2.56,2.69 -4.46,4.21 -13.57,-1.38 -9.71,-6.15 2.65,-3.3 5,-6.64 7.27,-9.98 -3.16,0.14 -6.36,-1.08 -7.04,-4.14 -6.68,-30.49 -1.64,-61.97 -1.19,-93.32 -0.01,-0.02 -0.02,-0.03 -0.03,-0.04 -3.74,-12.59 -7.1,-25.2 -10.31,-37.84 -4.54,1.31 -10.89,-1.71 -9.69,-6.97 1.31,-5.68 2.54,-11.38 3.72,-17.07 -0.56,-2.33 -1.16,-4.65 -1.73,-6.98 -0.15,2.27 -0.43,4.55 -0.95,6.84 -0.56,2.45 -3.58,3.71 -6.36,3.47 1.71,7.44 2.78,15.13 3.47,22.98 4.54,-1.36 10.52,1.41 9.17,6.63 -2.4,9.15 1.6,20.99 2.21,30.15 0.21,3.1 0.24,6.21 0.32,9.32 0.92,1.27 1.44,2.78 1.22,4.41 -0.41,3.08 -0.72,6.17 -0.94,9.27 0.01,3.03 0.02,6.06 0.07,9.09 0.16,10.66 0.34,21.31 0.02,31.93 0.43,10.22 0.85,20.42 0.63,30.51 -0.59,27.4 -5.87,54.44 -7.04,81.82 -0.28,6.64 -11.95,6.72 -12.41,0 -2.26,-33.44 1.94,-66.71 0.79,-100.17 -0.28,-8.42 -1.42,-17.19 -2.02,-25.93 -4.33,-14.66 -7.11,-29.53 -8.79,-44.5 -3.33,0.69 -7.39,-0.79 -7.59,-4.58 -0.42,-8.37 -1.38,-16.81 -2.56,-25.25 -3.46,1.3 -7.9,0.9 -9.87,-2.49 -8.66,-14.91 -16.95,-30.17 -24.68,-45.62 -0.1,5.9 -0.38,11.63 -0.98,16.79 -0.7,5.91 -9.92,5.88 -10.98,0 -2.21,-12.18 -3.62,-24.44 -5.85,-36.6 -3.86,1.17 -8.99,0.18 -9.79,-3.77 -1.6,-8.06 -3.17,-15.97 -5.27,-23.75 -4.97,-5.95 -8.82,-12.82 -11.66,-20.31 -2.88,3.46 -10.36,3.73 -12.48,-1.6 -1.3,-3.29 -2.75,-6.51 -4.13,-9.77 -0.19,0.02 -0.34,0.11 -0.53,0.13 1.39,7.27 2.84,14.36 4.65,21.04 2.09,7.72 -11.74,11.07 -14.15,3.28 -1.12,-3.65 -2.26,-7.31 -3.38,-10.96 -3.09,2.04 -7.71,2.55 -10.95,-0.37 -12.84,-11.62 -18.49,-25.31 -24.73,-39.56 1.45,10.14 5.03,19.86 9.29,30.23 3.28,7.92 -10.8,10.77 -14.52,3.37 -1.89,-3.77 -3.59,-7.58 -5.13,-11.4 -4.28,16.52 -11.3,32.6 -23.69,47.95 -3.13,3.88 -10.8,2.56 -11.71,-1.6 -8.42,21.73 -18.16,43.92 -24.37,65.71 -1.3,4.57 -9.08,3.37 -9.52,-1.07 -0.09,-0.82 -0.01,-1.65 -0.03,-2.47 -0.65,27.63 -2.81,62.6 8.49,85.09 2.6,5.2 -7.75,8.91 -10.77,3.83 -10,-16.88 -12.97,-39.9 -14.11,-62.21 -1.29,7.97 -2.72,15.87 -3.79,23.56 -0.88,6.46 -2.46,13 -4.1,19.59 -0.58,7.56 -2.38,15.38 -4.13,23.27 3.4,6.36 6.87,12.71 10.6,19.03 3.96,6.73 -5.39,12.71 -11.28,9.37 -0.6,1.13 -1.52,2.06 -2.72,2.68 0.6,5.97 2.24,11.85 5.55,17.55 2.87,4.95 -4.63,8.64 -8.57,4.25 -0.06,-0.07 -0.11,-0.15 -0.18,-0.22 -0.11,2.71 -0.36,5.42 -0.42,8.14 -0.14,6.17 -11.11,6.2 -11.49,0 -1.26,-20.52 -2.01,-41.56 -0.56,-62.33 -3.18,-5.98 -6.21,-11.98 -9.07,-18.03 -3.64,15.73 -8.53,31.33 -13.02,47.01 2.71,2.28 5.48,4.51 8.29,6.67 5.39,4.15 -1.52,12.33 -7.68,8.59 -1.34,-0.82 -2.71,-1.66 -4.11,-2.54 -1.59,6.05 -3.05,12.11 -4.26,18.21 -1.02,5.08 -11.42,4 -10.95,-1.23 0.76,-8.21 2.34,-16.25 4.2,-24.26 -1.77,-1.24 -3.54,-2.53 -5.28,-3.85 0.07,0.28 0.16,0.56 0.24,0.84 2.13,8.07 -11.79,11.5 -14.78,3.43 -0.67,-1.82 -1.49,-3.5 -2.2,-5.28 -1.8,7.24 -3.34,14.54 -4.62,21.88 -1.29,7.35 -12.27,6.07 -15.54,0.54 -0.9,0.06 -1.86,-0.09 -2.83,-0.62 -20.08,-10.97 -6.13,-39.29 -3.41,-55.53 0.71,-4.21 1.27,-8.39 1.89,-12.58 -4.85,-7.5 -9.89,-14.89 -15.07,-22.25 -1.19,12.5 -2.69,24.86 -4.95,36.96 -1.05,5.61 -11.57,4.16 -11.72,-1.33 -0.51,-19.06 0.05,-38.34 1.22,-57.62 -0.66,-0.95 -1.33,-1.92 -2,-2.88 0.59,4.33 0.98,8.68 0.99,13.06 0.02,6.27 -10.13,7.12 -12.66,1.44 -7.82,-17.52 -10.8,-35.05 -11.2,-52.66 -9.79,-22.2 -11.42,-43.91 -5.72,-68.39 -3.83,-0.08 -7.65,-2.16 -7.79,-6.3 -0.5,-14.41 -1.72,-28.65 -3.32,-42.8 -0.95,5.15 -1.75,10.31 -2.17,15.43 -0.42,5.2 -7.26,6.75 -11.25,4.72 -2.36,3.58 -4.77,6.99 -7,10.09 -11.97,16.7 -26.2,30.93 -41.62,45.47 -5.36,5.05 -14.02,-2.31 -9.07,-7.42 14.3,-14.77 26.86,-30.48 37.6,-47.26 7.77,-12.13 10.16,-26.43 20.76,-37.03 0.47,-0.47 1,-0.83 1.57,-1.1 1.64,-5.79 3.79,-11.35 6.67,-16.39 -1.46,-9.29 -3.05,-18.55 -4.73,-27.81 -6.06,7.44 -12.23,14.83 -18.55,22.13 -5.04,18.18 -10.26,36.31 -15.77,54.42 -1.7,5.6 -9.58,5.35 -12.95,1.81 -0.46,2.79 -0.93,5.58 -1.72,8.11 1.35,1.52 2.76,2.97 4.21,4.33 6.04,5.68 -3.2,13.86 -9.75,8.35 -0.04,-0.04 -0.08,-0.07 -0.12,-0.11 -2.92,5.17 -6.36,10.25 -10.53,15.77 -5.33,7.06 -8.88,14.83 -13.97,21.97 -6.31,8.87 -15.25,14.83 -18.08,25.57 -2.14,8.15 -15.8,4.46 -14.7,-3.37 1.25,-8.98 4.78,-14.65 10.47,-22.14 6.26,-8.24 10.35,-16.92 15.84,-25.52 5.65,-8.83 12.47,-16.76 17.39,-25.96 -0.57,-0.67 -1.1,-1.36 -1.64,-2.04 -4.58,11.17 -10.97,21.88 -22.16,26.62 -0.06,0.1 -0.06,0.2 -0.12,0.29 -9.14,13.49 -19.01,25.9 -26.82,40.15 -1.21,2.2 -2.63,4.52 -4.11,6.89 -0.7,4.75 -1.3,9.52 -1.63,14.34 -0.29,4.23 -5.69,5.54 -8.98,3.89 -2.88,6.03 -4.8,12.13 -4.29,18.01 0.37,4.32 -6.59,5.39 -9.2,2.1 -9.36,-11.83 3.01,-30.67 8.51,-41.8 1.83,-3.69 3.6,-7.41 5.4,-11.1 2.06,-11.88 4.88,-23.67 7.7,-35.47 1.83,-7.66 3.4,-15.31 4.82,-22.96 -0.1,-1 -0.18,-2 -0.29,-2.99 -2.34,2.22 -4.73,4.4 -7.04,6.64 -5.54,5.41 -14.63,-2.38 -9.54,-7.8 2.89,-3.09 5.89,-6.09 8.81,-9.16 -3.05,0.09 -6.15,-1.59 -6.64,-5.19 -0.53,-3.91 -1,-7.97 -1.43,-12.11 -2.32,5.22 -4.64,10.41 -6.96,15.52 -3.2,7.05 -15.29,4.49 -13.82,-3.17 2.09,-10.8 5.39,-21.81 9.71,-32.8 -6.39,4.83 -12.13,10.08 -17.53,15.55 6.61,22.23 13.45,44.42 18.59,67.01 0.69,3.04 -3.16,6.39 -6.49,5.03 0.05,32.31 -1.8,65.73 7.54,97.06 1.67,5.61 -8.36,7.99 -10.27,2.38 -3.19,-9.36 -5.34,-18.67 -6.82,-28.05 -1.27,5.49 -2.5,10.99 -3.62,16.49 2.16,18.96 3.35,37.87 8.41,56.74 1.36,5.05 -7.58,7.24 -9.26,2.15 -2.12,-6.41 -4.02,-12.92 -5.65,-19.5 -1.74,13.34 -3.15,26.7 -3.86,40.1 1.85,10.75 4.21,21.44 7.24,31.98 1.08,3.73 -3.85,6.6 -7.51,4.32 -0.06,0.28 -0.1,0.58 -0.16,0.87 0.63,26.65 3.35,53.41 8.83,80.34 0.51,2.49 -0.92,4.39 -2.93,5.41 0.77,4.01 1.53,6.68 2.23,6.93 5.12,1.82 1.9,7.34 -2.3,7.74 -0.6,0.05 -1.21,0.11 -1.81,0.17 -2.22,0.21 -4.82,-1.56 -5.33,-3.34 -0.01,-0.05 -0.02,-0.1 -0.04,-0.14 -0.28,0.5 -0.77,0.9 -1.61,0.84 -0.79,0.21 -1.58,0.42 -2.36,0.62 0.42,2.21 0.91,4.41 1.42,6.6 0.84,-0.08 1.66,-0.12 2.39,0.01 20.6,-4.95 40.55,-3.49 59.66,10.23 7.79,5.59 14.99,11.5 21.58,17.72 6.05,1.28 11.99,3.51 17.08,5.61 2.65,1.09 4.97,2.29 7.39,3.46 -2.04,-1.83 -4.07,-3.65 -6.11,-5.5 -5.42,-4.94 0.96,-11.23 7.83,-8.76 31.38,11.31 52.55,37.55 70.11,61.14 3.6,4.84 6.87,9.67 9.99,14.55 0.42,0.55 0.78,1.07 1.19,1.61 -0.07,-1.66 -0.21,-3.32 -0.09,-4.97 0.27,-3.95 4.45,-6.07 8.17,-5.52 -0.86,-1.11 -1.71,-2.26 -2.57,-3.35 -4.91,-6.26 -11.31,-13.47 -16.21,-21.05 -6.95,-4.25 -14.94,-6.14 -22.3,-10.32 -7.94,-4.51 -0.91,-15.25 7.23,-10.75 2.42,1.34 4.87,2.35 7.34,3.29 -0.28,-0.38 -0.58,-0.75 -0.85,-1.14 -14.81,-9.11 -29.57,-18.44 -47.08,-21.22 0.02,-0.04 0.04,-0.09 0.06,-0.14 -2.54,-0.72 -3.42,-5.18 -0.06,-6 5.79,-1.43 9.63,1.25 15.2,2.73 6.73,1.79 12.64,2.81 19.12,5.73 4.19,1.89 8.31,3.94 12.37,6.13 -0.44,-2.5 1.07,-5.01 4.98,-5.13 4.23,-0.12 8.29,0.29 12.18,1.15 -1.88,-1.56 -1.92,-5.16 1.15,-6.22 6.26,-2.16 11.64,-4.25 18.11,-1.86 5.74,2.13 10.74,6.06 15.12,10.25 4.5,4.31 8.43,9.19 11.84,14.39 1.74,0.17 3.39,0.89 4.39,2.53 0.18,0.3 0.38,0.59 0.56,0.87 0.1,0.06 0.22,0.08 0.33,0.15 6.17,3.95 11.85,8.28 17.1,12.91 -1.25,-2.29 -2.49,-4.58 -3.85,-6.82 -3.78,-6.17 -7.66,-16.49 -15.87,-16.74 -3.76,-0.12 -3.68,-5.49 0,-5.8 10.4,-0.84 13.78,4.7 18.96,12.8 3.36,5.25 8.18,11.56 10.47,18.11 0.47,0.19 0.93,0.39 1.31,0.68 1.92,1.43 3.54,3.12 5.08,4.88 0.17,-3.55 5.32,-6.93 9.97,-4.85 16.32,7.32 23.05,21.96 28.64,35.97 5.36,13.42 14.83,32.68 6.9,46.19 -1.41,2.4 -4.65,3.67 -7.74,3.76 l -2.61,0.08 c -2.45,0.08 -4.63,-1.49 -5.38,-3.37 -1.76,-4.4 -0.34,-6.15 -0.01,-10.73 0.55,-7.9 -2.67,-16.11 -5.14,-23.7 -4.18,-12.85 -8.35,-28.93 -20.79,-38.24 3.4,5.08 6.21,10.57 9.37,15.42 7.05,10.85 11.14,22.57 15.01,34.37 0.89,2.69 -0.28,4.77 -2.23,6.02 3.37,13.81 1.7,29.99 -0.9,42.24 -0.26,1.25 -1.25,2.04 -2.46,2.47 -0.67,2.7 -1.37,5.45 -2.11,8.37 -0.56,2.21 -3.34,2.86 -5.54,2.27 0.23,2.22 -1.52,4.55 -4.91,4.8 -8.39,0.63 -15.89,-1.05 -22.82,-3.91 -0.94,0.63 -2.05,1.09 -3.43,1.14 -10.84,0.4 -21.94,-2.02 -32.71,-6.27 -1.94,0.77 -4.42,0.69 -6.64,-0.9 -1.89,-1.35 -3.48,-2.98 -5.13,-4.56 -13.65,-7.34 -26.22,-17.52 -36.35,-28.97 0.05,0.11 0.08,0.23 0.11,0.34 5.68,9.7 10.99,19.71 16.06,30.21 2.38,4.95 -7.32,8.44 -10.17,3.63 -6.61,-11.16 -13.5,-22.23 -20.99,-33.02 -0.93,0.6 -2.06,1.03 -3.39,1.11 -18.1,1.05 -38.25,-9.4 -55.46,-13.77 -18.06,-4.57 -38.2,-5.39 -55.67,-10.87 -5.06,-1.59 -5.05,-6.8 -0.23,-8.43 13.78,-4.68 32.91,-1.14 48.1,1.94 -3.79,-7.47 -9.1,-14.52 -15.24,-21.06 -4.87,-1.24 -9.74,-2.59 -14.78,-3.24 -2.77,1.76 -6.91,1.56 -9.38,-0.61 -13.14,-0.31 -32.96,1.24 -28.46,11.86 1.22,2.88 -4.33,4.96 -5.91,2.1 -1.32,-2.38 -2,-4.57 -2.31,-6.63 -1.38,0.5 -2.71,1.03 -4.15,1.51 -7.03,2.31 -11.83,-7.19 -5.41,-10.19 6.94,-3.26 12.41,-8.15 19.6,-11.06 2.59,-1.05 5.43,-1.73 8.19,-2.55 -9.56,-2.06 -20.53,-4.33 -31.3,-6 -0.34,0.12 -0.67,0.19 -1,0.32 -2.84,1.08 -5.58,0.66 -7.59,-0.53 -2.55,1 -5.68,0.2 -7.43,-1.72 -17.23,-1.37 -30.79,0.43 -31.22,9.92 -0.26,5.52 -9.51,5.46 -10.19,0 -2,-15.72 19.16,-20.8 34.09,-22.42 2.48,-0.27 5.03,-0.36 7.58,-0.46 1.44,-2.82 3.56,-5.44 6.03,-7.66 -23.39,-2.8 -37.16,7.56 -56.48,17.91 -6.15,3.3 -15.52,-3.58 -10.88,-8.89 2.13,-2.45 4.43,-4.63 6.77,-6.76 0.61,-2.84 1.33,-5.66 2.69,-8.35 1.32,-2.64 3.11,-5.16 5.04,-7.63 -2.17,1.1 -4.15,2.38 -6.02,3.73 1.62,2.43 0.93,5.99 -2.85,6.59 -1.46,0.23 -2.93,0.4 -4.41,0.59 -1.19,1.65 -2.34,3.33 -3.12,5.23 -1.97,4.81 -11.05,2.92 -9.38,-2.14 0.19,-0.56 0.51,-1.03 0.72,-1.57 -14.81,1.99 -27.64,5.4 -30.19,21.56 -2.26,14.25 -0.43,42.73 16.72,50.53 4.81,2.19 1.78,9.12 -3.57,7.49 -26.57,-8.07 -33.21,-40.99 -30.09,-61.37 3.94,-25.73 27.64,-33.81 54.36,-30.49 8.07,-9.51 20.29,-15.94 34.24,-19.46 -11.31,-13.51 -13.54,-29.45 -14.5,-46.54 -5.68,-7.99 -10.15,-16.4 -12.31,-25.35 -0.11,-0.44 -0.06,-0.83 -0.07,-1.23 -0.61,-0.54 -1.23,-1.06 -1.7,-1.86 -2.42,-4.14 -5.04,-8.65 -7.62,-13.32 -1.1,4.2 -9.42,5.98 -12.71,1.49 -14.98,-20.44 -22.22,-43.75 -38.03,-63.81 -1.46,-1.87 -3.01,-3.69 -4.5,-5.54 -2.84,8.64 -5,17.39 -6.35,26.23 15.06,12.14 28.27,26.81 38.15,35.74 6.67,6.04 -3.25,14.66 -10.48,8.97 -9.7,-7.65 -18.76,-15.64 -28.55,-23.11 1.25,1.94 2.45,3.92 3.29,6.08 1.28,3.25 -0.54,5.59 -3.31,6.65 1.67,18.51 6.01,60.64 27.01,68.14 4.46,1.6 2.29,7.59 -2.2,7.44 -30.78,-1.09 -36.43,-37.59 -41.14,-57.53 -1.26,-5.34 -2.2,-10.71 -2.96,-16.08 -0.79,-3.3 -1.57,-6.64 -2.31,-10.07 -0.71,19.21 3.78,39.82 4.7,61.44 0.02,0.56 -0.08,1.06 -0.27,1.5 3.5,12.56 5.48,25.01 5.15,36.82 -0.1,3.72 -7.21,5 -8.19,0.93 -2.07,-8.65 -5.35,-17.17 -9.2,-25.62 -1.89,1.38 -4.48,2.02 -7.01,1.46 3.32,17.13 7.04,34.18 11.76,51.03 1.83,6.56 -9.67,9.35 -12.03,2.79 -0.99,-2.79 -1.75,-5.65 -2.69,-8.46 -1.85,4.01 -9.08,5.77 -13.05,1.03 -4.37,-5.23 -7.12,-11.19 -9.34,-17.37 -2.77,2.02 -7.6,2.11 -10.17,-1.18 -1.44,-1.84 -2.76,-3.73 -4.01,-5.65 0.09,4.4 0.3,8.8 0.67,13.14 2.02,23.49 2.03,61.69 31.87,72.74 6.57,2.43 2.19,11.72 -4.61,9.69 -16.96,-5.07 -27.05,-15.72 -33.28,-28.55 -0.06,0.04 -0.1,0.09 -0.16,0.14 8.78,21.33 14.3,43.98 18.51,63.78 1.48,6.94 -10.87,10.1 -12.76,2.97 -6.54,-24.59 -15.75,-48.68 -26.3,-72.36 -0.84,3.09 -1.69,6.18 -2.49,9.28 4.19,8.81 7.82,17.95 10.67,27.25 1.76,0.82 2.97,2.38 2.23,4.41 -0.17,0.47 -0.33,1 -0.5,1.47 1.13,4.24 2.03,8.49 2.76,12.74 10.66,34.31 11.57,69.55 20.22,105.47 1.69,7.02 -10.77,10.14 -12.89,2.99 -3.98,-13.38 -6.17,-26.81 -8.29,-40.28 -2.62,-2.21 -5.15,-4.5 -7.38,-7.01 -2.61,4.69 -5.72,9.21 -9.51,13.52 0.24,11.21 1.52,22.27 4.05,32.88 0.12,0.09 0.22,0.2 0.34,0.3 1.68,1.36 1.69,3.09 0.83,4.44 5.52,19.8 15.75,37.64 32.74,50.85 5.57,4.33 -1.62,12.89 -7.99,8.93 -0.28,-0.18 -0.49,-0.35 -0.76,-0.52 24.85,44.83 28.21,95.32 -11.69,135.04 -0.06,-0.07 -0.12,-0.15 -0.17,-0.23 -1.36,1.11 -3.34,1.35 -5.12,1 -4.82,20.23 -14.36,40.54 -21.35,56.58 -0.31,0.7 -0.64,1.4 -0.95,2.11 1.09,10.9 4.2,20.62 11.78,26.08 4.64,3.35 -1.06,9.49 -6.23,6.95 -7.12,-3.51 -11.49,-8.46 -14.34,-14.12 -0.21,0.44 -0.42,0.88 -0.63,1.32 1.54,5.54 3.03,10.85 4.09,15.62 4.72,21.32 10.01,40.94 7.8,62.7 -0.61,6.03 -10.01,5.91 -11.1,0 -2.41,-12.96 -5.2,-25.83 -8.1,-38.67 -0.06,4.36 -0.05,8.74 -0.15,13.1 0.47,1.82 0.97,3.6 1.4,5.47 2.82,11.97 5.94,23.97 7.9,36.05 1.29,7.98 0.28,18.06 0.74,27.58 9.37,9.52 18.02,19.77 26.64,30.01 5.45,-2.69 10.37,-3.89 15.38,-0.06 0.59,-0.04 1.18,-0.12 1.77,-0.14 -11.44,-11.1 -22.99,-22.07 -35.39,-31.94 -3.53,-2.8 1.2,-9.02 4.87,-6.3 13.15,9.72 26.57,20.79 39.12,32.62 0.59,-0.46 1.18,-0.95 1.78,-1.4 -4.17,-10.47 -7.78,-21.87 -10.68,-34.62 -12.79,-56.27 -2.49,-112.28 22.97,-163.33 67.19,-134.76 236.38,-145.98 356.1,-61.31 48.19,34.09 88.47,105.69 94.62,172.09 0.76,0.26 1.5,0.37 2.28,0.83 0.75,0.44 1.55,0.75 2.31,1.17 1.82,-2.11 4.54,-3.27 7.86,-2.56 19,4.05 37.22,11.53 55.53,16.29 4.82,0.22 9.59,0.4 14.23,0.57 12.8,0.47 27.17,1.85 39.39,-2.86 6.17,-2.38 10.58,-6.43 17.03,-7.94 2.08,-0.49 3.93,-0.11 5.54,0.68 9.21,-4.39 19.6,-8.48 28.02,-7.92 3.66,-65.9 40.44,-136.56 86.67,-170.35 115.84,-84.67 285.54,-73.45 358.89,61.31 27.8,51.05 40.66,107.06 30.42,163.33 -1.35,7.48 -3.03,14.42 -4.87,21.09 1.83,1.01 3.15,2.38 4.85,4.87 0.27,0.38 0.23,0.81 0.37,1.22 10.45,9.85 20.12,20.93 30.28,30.97 2.57,2.55 4.98,5.25 7.49,7.85 -0.29,-2.83 -0.61,-5.68 -0.91,-8.51 -7.43,-9.97 -14.55,-20.32 -19.46,-31.09 -1.88,-4.1 2.06,-8.95 6.45,-6.45 4.44,2.52 7.39,6.73 9.96,11.21 -0.59,-4.96 -1.07,-9.91 -1.72,-14.88 -2.2,-16.89 -5.78,-36.39 7.22,-50.33 0.45,-0.48 0.96,-0.79 1.48,-1.08 0.76,-11.99 4.48,-23.56 11.91,-34.28 0.16,-23.92 -7.69,-48.05 -16.09,-70.85 -2.14,-5.81 -5.14,-12 -8,-18.33 -0.05,18.24 2.23,36.01 7.62,52.29 z m -0.9,-164.22 c -0.92,0.4 -1.89,0.67 -2.93,0.78 -0.23,1.27 -0.43,2.53 -0.63,3.8 1.08,-1.61 2.27,-3.14 3.56,-4.58 z m -58.52,-371.02 c 1.1,8.32 1.87,16.64 2.39,24.95 1.86,-7.1 4.36,-13.92 7.71,-20.24 1.11,-2.1 3.33,-2.89 5.63,-2.82 -3.44,-8.54 -7.57,-17.36 -12.46,-25.74 -1.24,7.76 -2.32,15.77 -3.27,23.85 z m -12.55,-70.01 c 1.61,0.73 3.13,1.54 4.59,2.43 0.02,-0.11 0.04,-0.21 0.07,-0.31 -0.22,-0.51 -0.44,-1.03 -0.65,-1.54 -1.33,0.12 -2.73,-0.09 -4.01,-0.58 z M 3217,2477.9 c -0.38,-7.87 -1.17,-15.88 -2.45,-23.94 -0.29,4.89 -0.74,9.75 -1.38,14.58 1.31,3.11 2.59,6.23 3.83,9.36 z m -78.38,-132.25 c 1.96,13.44 3.97,26.95 5.59,40.44 5.27,19.93 9.87,39.86 8.7,60.83 -0.2,3.37 -3.84,5.43 -7.27,5.42 -0.13,1.05 -0.13,2.1 -0.27,3.14 -0.37,2.64 -0.84,5.28 -1.34,7.92 0.86,1.54 1.68,3.25 2.39,5.33 1.57,4.57 -1.56,7.67 -5.59,8.55 -11.37,42.41 -36.61,83.92 -52.46,124.2 -0.61,1.58 -1.76,2.52 -3.08,3.01 -0.2,6.26 -0.96,12.53 -2.14,18.76 3.23,-9.54 7.22,-20.14 17.77,-23.06 6.63,-15.2 14.62,-30.07 22.42,-44.84 10.1,-19.14 18.7,-50.02 32.87,-74.04 2.43,-14.41 4.23,-28.9 5.34,-43.44 -4.59,-12.92 -8.61,-25.78 -9.66,-38.39 -0.08,-0.93 0.24,-1.76 0.76,-2.5 -1.61,-2.15 -3.11,-4.33 -4.83,-6.47 -4.14,-5.16 0.48,-10.05 6.08,-10.93 -4.32,-11.55 -9.24,-23.12 -15.28,-33.93 z m -10.96,56.27 c -0.39,-5.23 -0.86,-10.46 -1.43,-15.7 -0.01,-0.02 -0.01,-0.04 -0.02,-0.06 -2.13,-6.82 -3.93,-13.67 -5.54,-20.55 -0.26,2.73 -0.5,5.44 -0.67,8.11 3,9.38 5.54,18.77 7.66,28.2 z m -92.45,-37.36 c -0.06,-3.24 -0.11,-6.47 -0.29,-9.71 -0.33,-5.66 -1.53,-20.54 -4.73,-37.01 -3.96,4.97 -6.48,11.32 -8.03,18.19 5.12,8.71 9.43,18.34 13.05,28.53 z m -111.09,-83.54 c 3.04,1.01 5.42,3.46 4.45,6.93 -0.42,1.53 -0.65,3.22 -1.01,4.8 2.11,7.6 3.94,15.19 5.19,22.79 0.66,4.07 -3.75,6.64 -8.14,6.74 0.02,1.56 0.03,3.12 0.11,4.7 0.47,0.2 1,0.24 1.46,0.46 1.09,0.54 2.15,1.17 3.18,1.87 0.19,-0.16 0.31,-0.33 0.5,-0.48 1.4,-1.11 3.47,-1.35 5.27,-0.95 1.88,-12.13 4.98,-23.29 9.07,-32.46 -2.08,-4.23 -4.04,-8.53 -5.81,-12.94 -8.22,-10.66 -16.24,-21.47 -24.15,-32.33 3.21,10.28 6.68,20.57 9.88,30.87 z m -26.13,33.83 c 2.05,1.96 4.05,3.95 5.96,6.01 -3.74,-7.95 -7.67,-15.87 -11.94,-23.7 2.05,5.9 3.99,11.79 5.98,17.69 z m -25.84,21.29 c -3.08,-3.56 -5.53,-7.44 -7.45,-11.56 4,10.39 7.71,20.99 13.36,30.72 -1.96,-6.39 -3.92,-12.78 -5.91,-19.16 z m 113.44,113.26 c -2.42,-3.9 -4.64,-7.95 -6.67,-12.14 -0.05,1.33 -0.06,2.65 -0.04,3.96 3.18,7.06 6.5,14.07 9.75,21.1 -0.94,-4.33 -1.96,-8.62 -3.04,-12.92 z m -28.17,-119.35 c 5.64,0.05 8.02,4.05 7.62,7.98 1.53,2.86 3.3,5.74 5.19,8.62 -1.37,-5.64 -3.16,-11.23 -5.3,-16.83 -2.15,-3.05 -4.25,-6.12 -6.29,-9.22 -0.37,3.1 -0.78,6.26 -1.22,9.45 z m 28.27,68.41 c 4,4.85 7.04,10.38 9.35,16.21 0.54,0 1.08,0.09 1.62,0.23 -3.31,-5.98 -6.91,-11.86 -10.7,-17.63 -0.09,0.4 -0.18,0.79 -0.27,1.19 z m -22.87,6.61 c 1.06,2.42 2.15,4.84 3.22,7.25 0.49,-1.91 0.99,-3.81 1.49,-5.72 -3.51,-12.81 -5.8,-25.62 -7.2,-37.23 -0.23,-1.84 1.17,-3.5 3.06,-4.4 -3.09,-4.31 -6.11,-8.64 -8.91,-13.02 -0.88,7.51 -1.46,15.04 -1.52,22.43 0.1,1.78 0.09,3.59 0.05,5.4 0.05,1.41 0.14,2.82 0.24,4.21 3.34,7.49 6.74,14.68 9.57,21.08 z m -104.18,-132.89 z m -2.46,-5.44 c -1.64,-3.61 -3.27,-7.31 -4.83,-11.05 -0.04,0.16 -0.06,0.33 -0.09,0.49 1.67,3.51 3.31,7.03 4.92,10.56 z m 153.39,119.39 c -1.37,-1.69 -2.76,-3.36 -4.14,-5.04 -0.98,-0.69 -1.71,-1.64 -2.23,-2.74 -3.8,-4.61 -7.59,-9.2 -11.35,-13.78 -0.26,3.13 -0.65,6.29 -1.15,9.47 9.52,12.01 19.03,24.3 25.53,36.89 -2.1,-8.28 -4.39,-16.54 -6.66,-24.8 z m 49.21,209.76 c -1.16,-1.04 -1.77,-2.51 -1.27,-4.24 1.3,-4.39 1.04,-16.17 -0.18,-30.99 -0.42,-0.04 -0.83,-0.09 -1.24,-0.18 -0.62,12.89 -0.6,25.79 0.76,38.7 0.62,-1.1 1.35,-2.19 1.93,-3.29 z m -56.83,147.52 c 0.72,-0.23 1.42,-0.47 2.16,-0.69 -3.08,-1.57 -4.43,-4.87 -3.45,-7.74 -1.96,1.02 -3.87,2.09 -5.89,3.08 -2.84,1.38 -5.77,2.63 -8.68,3.92 5.52,0.26 10.85,0.71 15.86,1.43 z m -130.41,44.69 c 1.63,-0.24 3.21,-0.58 4.87,-0.79 5.48,-0.7 9.24,2.91 9.84,6.47 0.12,-0.04 0.23,-0.08 0.35,-0.12 9.72,-8.48 20.37,-16.68 31.33,-24.48 -15.6,5.03 -32.78,10.44 -46.39,18.92 z m -53.01,-12.46 c 4.5,-1.31 9.09,-2.41 13.72,-3.22 10.67,-4.91 21.91,-8.28 33.43,-9.35 1.79,-1.34 3.59,-2.61 5.47,-3.77 -14.86,1.88 -29.83,2.81 -43.2,10.15 -3.2,1.76 -6.38,3.87 -9.42,6.19 z m -41.19,22.73 c -1.17,0.19 -2.37,-0.03 -3.45,-0.49 -4.4,6.56 -7.45,13.73 -9.42,21.21 2.17,-7.65 6.71,-14.61 12.87,-20.72 z m -13.43,39.21 c -1.31,-6.23 -1.11,-12.18 0.35,-17.76 -1.54,6.09 -2.35,12.37 -2.56,18.71 0.7,-0.35 1.41,-0.67 2.21,-0.95 z m -39.68,6.35 c 0.1,-1.21 0.12,-2.4 0.27,-3.62 -0.4,1.63 -0.81,3.25 -1.09,4.89 0.25,-0.43 0.53,-0.85 0.82,-1.27 z m 349.12,-99.32 c 1.18,0.92 1.65,2.04 1.7,3.15 8.49,1.86 17.34,5.57 25.35,10.3 -4.34,-5.35 -10.01,-9.98 -18.15,-13.22 -4.92,-1.95 -9.75,-3.06 -14.56,-3.82 1.95,1.03 3.86,2.17 5.66,3.59 z m -21.58,-30.95 c -1.75,-1.44 -2.69,-3.41 -1.63,-5.64 4.38,-9.2 8.05,-18.63 11.58,-28.1 -1.82,2.83 -3.69,5.65 -5.65,8.42 -0.27,0.97 -0.54,1.94 -0.81,2.9 -0.58,2.01 -2.18,3.2 -4.07,3.82 -6.52,8.86 -13.1,17.65 -18.8,26.91 7.11,-1.24 14.35,-1.81 21.64,-1.6 -1.27,-2.08 -1.99,-4.33 -2.26,-6.71 z m 21.89,-198.58 c 1.03,-17.02 0.17,-34.12 -4.42,-53.12 -0.51,7.65 -1.1,15.3 -1.73,22.93 3.06,10.03 4.69,20.5 6.15,30.19 z m -23.82,-92.92 c -0.12,-1.78 -0.31,-3.57 -0.47,-5.35 -0.09,0.45 -0.19,0.89 -0.28,1.34 0.26,1.35 0.49,2.67 0.75,4.01 z m -196.98,384.1 c -0.83,1.41 -1.52,2.92 -2.18,4.45 4.67,-2.03 9.43,-3.85 13.81,-5.56 1.45,-1.11 3.01,-2.11 4.58,-3.11 -5.56,1.13 -10.97,2.53 -16.21,4.22 z m -40.5,-1.03 c -4.52,3.59 -8.69,7.65 -12.88,11.73 0.06,0.15 0.16,0.31 0.23,0.46 5.49,-5.24 13.43,-9.65 18.62,-12.5 4.25,-2.34 8.61,-4.37 13.03,-6.21 2.94,-3.73 6,-7.44 9.23,-11.13 0.4,-0.46 0.88,-0.99 1.3,-1.47 -1.27,0.14 -2.52,0.33 -3.77,0.49 -9.06,5.47 -17.42,11.99 -25.76,18.63 z m 16.9,35.12 c -1.69,0.67 -3.39,1.34 -5.09,2.01 -0.68,1.95 -1.27,3.92 -1.76,5.94 4.09,-1.49 8.07,-3.11 12.09,-4.71 -2.06,-0.42 -3.92,-1.48 -5.24,-3.24 z m 45.18,-17.84 c -9.82,5.12 -19.27,10.12 -28.24,14.35 -0.65,0.3 -1.27,0.42 -1.9,0.55 0.07,0.83 -0.02,1.59 -0.29,2.28 5.42,-2.4 10.74,-4.91 15.76,-7.74 5.99,-3.39 11.99,-6.87 17.93,-10.42 -1.12,0.3 -2.16,0.67 -3.26,0.98 z m -36.23,-5.37 c 0.09,-0.06 0.18,-0.1 0.26,-0.16 -0.03,-0.02 -0.08,-0.03 -0.11,-0.04 -0.04,0.07 -0.1,0.13 -0.15,0.2 z m -39.54,18.83 c -0.47,-0.34 -0.85,-0.69 -1.31,-1.03 -0.86,-0.45 -1.63,-1 -2.23,-1.77 -1.68,-1.37 -3.2,-2.76 -4.58,-4.17 -1.94,4.5 -3.68,9.08 -5.13,13.93 -0.7,2.39 -1.84,5.57 -3,9.05 8.32,-6.67 18.26,-12.41 28.79,-17.23 0.61,-2.05 1.38,-4.04 2.16,-6.03 -0.76,0.54 -1.46,1.12 -2.26,1.62 -0.55,0.34 -0.88,0.47 -1.13,0.53 1.17,4.58 -5.84,9.01 -11.31,5.1 z m -14.17,26.63 c -1.52,1.19 -2.95,2.46 -4.34,3.78 0.73,0.51 1.47,1.03 2.24,1.47 0,-0.07 0,-0.14 0,-0.2 0,-1.7 0.75,-3.63 2.1,-5.05 z m 2.29,-1.62 c 7.05,-2.66 14.32,-5.2 21.61,-7.74 -0.09,-0.4 -0.27,-0.76 -0.24,-1.21 0.06,-1.1 0.26,-2.13 0.37,-3.21 -8.13,3.6 -15.83,7.62 -22.51,12.62 0.26,-0.14 0.48,-0.35 0.77,-0.46 z m 22.78,-31.26 c 0,0.01 0.01,0.02 0.01,0.03 0,-0.02 -0.01,-0.02 -0.01,-0.03 z m 277.91,-387.17 c -0.86,0.26 -1.78,0.35 -2.72,0.3 0.58,2.01 1.11,3.98 1.66,5.96 0.32,-2.09 0.68,-4.18 1.06,-6.26 z m 27.22,11.06 c -0.2,4.05 -0.32,8.11 -0.43,12.17 1.16,-1.2 2.39,-2.31 3.63,-3.37 -1.17,-2.91 -2.18,-5.85 -3.2,-8.8 z m 115.39,163.97 c 0.03,0 0.05,0 0.08,0.01 2.52,-0.38 5.24,0.03 7.21,1.55 0.06,0.04 0.1,0.11 0.15,0.16 1.24,0.4 2.47,0.8 3.64,1.29 -1.1,-0.6 -2.04,-1.43 -2.57,-2.55 -2.1,-4.51 -4.04,-9.02 -5.9,-13.55 -0.89,4.35 -1.82,8.68 -2.61,13.09 z m -7.52,-38.52 c 0.17,-0.27 0.34,-0.53 0.5,-0.79 -0.49,-1.48 -1,-2.96 -1.48,-4.44 -0.09,0.53 -0.21,1.05 -0.31,1.57 0.35,1.28 0.76,2.51 1.29,3.66 z m 72.11,399.98 c 1.27,-4.98 5.24,-8.93 11.57,-9.59 0.48,-4.17 0.98,-8.35 1.5,-12.53 -0.77,-8.4 -1.57,-16.8 -2.6,-25.18 -0.5,-4.12 -1.11,-8.21 -1.76,-12.3 -6.86,24.51 -14.5,48.51 -17.08,70.34 0.75,-2.1 1.42,-4.25 2.26,-6.29 1.05,-2.55 3.48,-4.02 6.11,-4.45 z m -5.57,-177.78 c 0.25,-1.63 0.47,-3.32 0.71,-4.97 -0.88,4.62 -1.65,9.29 -2.34,13.9 0.55,-2.97 1.15,-5.95 1.63,-8.93 z m -262.22,-43.66 c 1.01,-0.69 1.99,-1.38 3.05,-2.02 -2.36,0.34 -4.63,0.86 -6.94,1.3 1.29,0.25 2.61,0.42 3.89,0.72 z m -75.94,48.51 c -7.67,1.56 -15.34,3.17 -22.98,5.02 -3.3,0.79 -6.97,1.55 -10.79,2.29 -8.86,4.55 -16.5,13.3 -24.37,18.27 -10.43,6.59 -20.88,14 -32.22,19.54 -8.84,4.33 -18.38,8.44 -28.13,12.2 1.49,0.04 3.01,0.14 4.54,0.28 12.48,-3.53 24.59,-8.43 37.23,-15.97 19.79,-11.78 38.03,-26.3 60.9,-34.05 9.51,-3.23 17.2,-4.68 24.12,-4.95 -2.71,-1.04 -5.48,-1.91 -8.3,-2.63 z m -181.87,-348.44 c -0.01,1.46 0.02,2.8 0,4.32 1.1,-11.22 6.84,-22.87 10.71,-33.78 0.2,-5.47 0.59,-10.92 1.11,-16.35 -4.83,15.09 -9.02,30.3 -11.82,45.81 z m -16.28,-200.99 c 5.06,11.51 11.28,22.8 18.6,33.96 1.71,-1.72 3.24,-3.53 5.15,-5.13 1.95,-1.65 4.33,-1.99 6.54,-1.6 -4.12,-9.48 -13.14,-27.47 -23.43,-46.53 -2.47,6.39 -4.84,12.8 -6.86,19.3 z m -24.85,-157.38 c 1.6,-1.64 3.35,-3.19 5.23,-4.69 -1.2,-0.51 -2.42,-0.97 -3.65,-1.43 -0.67,2.02 -1.04,4.08 -1.58,6.12 z m -48.3,-3.65 c -0.2,0.14 -0.41,0.16 -0.61,0.27 -2.28,6.2 -4.19,12.87 -5.77,19.83 0,0.01 0,0.01 0,0.02 0.97,-1.12 1.88,-2.27 2.89,-3.35 2.68,-2.89 7.46,0.33 6.85,3.29 -1.23,6.01 -3.33,12.08 -5.91,18.12 1.14,5.9 2.24,11.8 3.5,17.68 1.5,7.04 -9.88,10.4 -13.25,4.74 -1.82,22.98 -1.33,44.41 -0.12,57.13 1.28,2.94 2.55,5.78 3.86,8.29 2.77,5.34 5.49,10.7 8.2,16.06 4.14,-6.87 8.65,-13.43 13.59,-19.61 -6.07,-15.73 -12.56,-31.37 -18.75,-47.07 -1.82,-4.63 4.71,-8.97 9.71,-6.36 11.46,5.97 19.36,16.37 25.14,28.45 1.18,-1.54 2.42,-3.04 3.66,-4.54 -0.45,-3.59 -0.96,-7.13 -1.27,-10.8 -0.29,-3.43 -0.55,-6.96 -0.77,-10.53 -5.79,-0.31 -9.64,-5.64 -6.93,-10.31 0.28,-0.49 0.56,-0.98 0.85,-1.47 1.12,-1.95 3.31,-3.08 5.72,-3.49 0.02,-0.8 0.03,-1.6 0.05,-2.4 -5.65,-19.49 -8.49,-41.57 -4,-61.01 -9.62,-0.2 -19,1.85 -26.64,7.06 z m -62.66,82.68 c 3.24,1.88 5.25,5.7 3.51,9.27 -0.39,0.79 -0.77,1.69 -1.16,2.52 1.31,-0.21 2.63,-0.36 3.97,-0.44 0.37,-4.19 1.14,-9.36 2.35,-15.3 -0.77,-2.84 -1.48,-5.68 -2.15,-8.54 -2.42,4.14 -4.64,8.29 -6.52,12.49 z m -63.78,14.7 c 3.07,-5.17 6.71,-10.71 10.6,-16.51 -3.78,5.2 -7.43,10.52 -10.87,15.96 0.09,0.18 0.18,0.37 0.27,0.55 z m -20.3,-21.59 c 0.91,-0.1 1.76,-0.29 2.7,-0.36 4.66,-10.31 10.68,-20.1 18.3,-29.1 -2.47,0.9 -4.87,1.96 -7.21,3.13 -6.36,11.1 -11.43,22.28 -13.79,26.33 z m -172.79,96.84 c -0.73,-5.31 -1.37,-10.6 -1.9,-15.9 -16.56,17.5 -24.87,52.6 -30.89,73.6 -2.37,8.3 -3.44,16.39 -3.75,24.44 11.11,-27.6 17.97,-58.34 36.54,-82.14 z m -66.52,132.67 c 5.38,-7.88 11.22,-15.65 16.32,-23.56 -0.09,-0.33 -0.16,-0.67 -0.25,-1 -5.78,6.97 -11.6,13.86 -16.8,21.12 0.25,1.15 0.46,2.3 0.73,3.44 z m -90.26,118.58 c 0.08,-0.09 0.14,-0.19 0.22,-0.28 -0.28,-0.38 -0.57,-0.76 -0.85,-1.14 0.19,0.47 0.43,0.95 0.63,1.42 z m -2.78,55.62 c -0.03,-0.09 -0.05,-0.18 -0.07,-0.27 -0.03,0.08 -0.05,0.15 -0.07,0.23 0.04,0.01 0.09,0.03 0.14,0.04 z m -66.44,67.86 c -0.06,0.14 -0.13,0.27 -0.19,0.42 0.38,-0.09 0.75,-0.21 1.14,-0.24 5.37,-0.42 10.02,1.25 14.18,3.92 2.29,-10.9 5.97,-21.46 10.72,-31.06 0.03,-0.07 0.11,-0.11 0.15,-0.18 -11.09,5.99 -18.58,13.31 -23.44,21.95 0.44,1.96 -0.3,3.99 -2.56,5.19 z m -36.09,146.86 c 3.91,0.49 7.28,4.7 5.47,8.34 -0.37,0.74 -0.66,1.51 -1.02,2.26 0.46,0.62 0.81,1.35 0.86,2.28 0.31,5.57 0.17,11.21 -0.17,16.87 5.24,4.5 2.13,2.87 7.45,10.78 2.33,3.48 -3.63,6.43 -6.23,3.1 -0.8,-1.02 -1.5,-1.7 -2.18,-2.23 -0.28,2.58 -0.59,5.17 -0.92,7.76 0.65,4.32 1.24,8.54 1.81,12.42 0.49,3.38 0.89,6.78 1.27,10.17 4.18,14.76 6.12,30.27 7.94,45.3 0.12,-0.21 0.24,-0.42 0.37,-0.64 -0.52,-20.46 1.35,-40.65 8.39,-59.8 0.38,-5.49 1.25,-10.89 3.05,-16.04 -0.13,-0.57 -0.31,-1.12 -0.44,-1.7 -3.44,1.68 -8.97,0.36 -9.3,-4.09 -0.6,-8.28 0.04,-16.44 1.14,-24.56 -0.53,-1.62 -1,-3.24 -1.54,-4.87 -0.06,-0.03 -0.14,-0.02 -0.2,-0.05 -6.58,-2.84 -12.19,-6.62 -16.95,-11.1 0.41,1.94 0.77,3.87 1.2,5.8 z m -41.36,510.35 c 0.05,-0.86 0.07,-1.72 0.12,-2.59 -0.12,0.11 -0.22,0.23 -0.34,0.34 -0.22,0.2 -0.48,0.29 -0.71,0.46 0.3,0.6 0.63,1.2 0.93,1.79 z m -47.34,-14.06 c 2.44,-1.69 5.68,-2.33 8.08,-0.52 6.42,4.86 6.83,4.99 10.51,12.33 1.74,3.48 -1.25,7.86 -4.88,7.33 5.53,22.58 23.24,48.91 32.49,66.78 5.16,9.95 10.67,19.7 16.26,29.4 1.37,-5.7 2.56,-11.5 3.69,-17.42 0.69,-3.62 6.57,-2.27 7.08,0.8 1.51,9.05 1.18,17.64 -0.58,26.03 0.5,-0.39 1.01,-0.76 1.52,-1.14 0.06,-2.73 0.29,-5.43 0.88,-8.05 0.05,-3.63 0.19,-7.26 0.32,-10.89 -1.32,-5.57 -1.99,-11.13 -2.2,-16.68 -5.48,-8.54 -10.8,-17.24 -15.97,-25.99 l -6.31,8.48 c -2.58,6.36 -14.91,3.62 -12.3,-2.82 2.81,-9.23 4.58,-18.44 5.96,-27.65 -5.47,-9.82 -10.74,-19.61 -15.74,-29.22 -9.83,-18.93 -24.35,-42.63 -33.96,-66.49 1.86,18.98 4.06,37.19 5.15,55.72 z m 36.65,168 c 0.71,-0.68 1.34,-1.37 2.01,-2.05 -0.62,-0.47 -1.2,-1.07 -1.67,-1.88 -8.49,-14.44 -17.31,-28.66 -23.57,-44.26 -3.91,-9.76 -10.57,-23.61 -5.75,-33.89 1.54,-3.28 5.82,-3.63 8.68,-2.28 3.66,1.74 5.96,4.49 9.36,6.68 3.65,2.37 1.87,7.19 -2.08,7.67 -1.2,0.14 -2.26,0.09 -3.24,-0.07 1.63,7.78 5.18,16.01 7.77,22.4 4.98,12.33 11.82,23.79 18.35,35.36 4.52,-7.34 7.96,-14.81 10.68,-22.44 -13.25,-20.66 -25.79,-41.68 -36.84,-63.74 -5.44,-10.86 -14.46,-24.68 -19.82,-38.59 -0.15,5.13 -0.43,10.31 -0.89,15.6 -1.66,19.31 -8.8,45.21 -10.19,69.71 1.01,1.39 2.06,2.76 3.09,4.14 5.22,7.03 10.77,13.75 16.7,20.2 8.75,9.52 18.1,18.47 27.41,27.44 z m 71.87,-24.31 c -0.08,0.06 -0.14,0.13 -0.22,0.18 -0.24,0.2 -0.67,0.53 -1.06,0.83 1.09,6.41 2.8,14.18 6.51,12.62 2.04,-0.87 3.99,0.85 3.1,2.54 -1.26,2.4 -2.58,3.84 -5.05,5.41 -1.37,0.87 -3.66,0.7 -5.11,0 -5.81,-2.84 -8,-8.08 -9.32,-13.52 -1.8,1.25 -3.74,2.61 -5.77,4.01 -0.68,2.26 -1.71,4.4 -3.33,6.3 -1.77,2.08 -4.61,2.2 -6.74,0.65 -3.53,2.42 -7.05,4.83 -10.42,7.13 -0.08,0.29 -0.19,0.57 -0.28,0.86 -0.53,1.65 -2.41,2.34 -4.13,2.16 -8.51,5.8 -14.94,10.16 -14.94,10.17 2.24,5.33 -6.09,8.19 -8.97,3.78 -0.53,-0.83 -1.07,-1.65 -1.61,-2.47 -0.64,-0.98 -0.7,-2.4 -0.43,-3.69 -0.95,0.72 -2.07,1.16 -3.27,1.16 -5.54,4.25 -11.47,8.82 -13.41,13.59 22.07,-4.74 45.74,-6.7 66.83,-12.61 15.09,-4.21 30.03,-8.99 44.99,-13.75 -9.6,-7.72 -18.53,-16.67 -27.37,-25.35 z m 67.57,-27.58 c -5.4,-4.89 -10.73,-9.87 -15.99,-14.94 -0.57,0.4 -1.13,0.86 -1.79,1.04 -3.48,0.93 -6.89,2.94 -10.19,5.39 -0.28,0.26 -0.58,0.48 -0.86,0.74 11.07,11.46 22.85,22.22 31.88,35.45 1.69,2.48 -1.72,5.99 -4.22,4.21 -12.95,-9.22 -24.49,-20.82 -35.21,-32.76 -7.38,6.88 -14.68,13.81 -22.04,20.43 10.82,9.55 21.53,19.18 32.1,28.99 19.7,-6.19 39.54,-11.96 59.79,-16.17 -12.98,-9.01 -24.1,-19.61 -33.47,-32.38 z m -75.66,-32.57 c -0.81,-0.66 -1.51,-1.4 -2.25,-2.13 1.55,6.07 3.91,15.09 6.74,21.38 5.22,-3.4 10.53,-6.7 15.89,-9.77 -3.08,-3.75 -6.19,-7.48 -9.31,-11.2 -0.35,-0.42 -1.68,-2.12 -3.49,-4.44 0.18,0.28 0.29,0.6 0.48,0.86 3.19,4.27 -3.76,8.81 -8.06,5.3 z m 48.83,-311.59 c -0.04,0 -0.06,0.04 -0.1,0.05 -1.55,0.22 -3.09,0.44 -4.64,0.66 -2.9,0.42 -5.08,-0.34 -6.85,-2.31 -6.71,-7.44 -10.6,-18.29 -13.51,-29.68 -0.25,8.65 -2.01,17.51 -3.32,26.24 0.34,1.48 0.68,2.96 1.01,4.47 1.8,-1.57 4.2,-2.79 7.64,-3.38 3,-0.5 5.41,0.4 7.21,2.44 13.92,15.7 1.32,44.85 -1.66,62.46 0.03,2 -0.02,4.02 -0.15,6.05 9.09,-19.12 16.4,-36.85 15.21,-59.4 -0.14,-2.57 -0.47,-5.09 -0.84,-7.6 z m -9.29,-32.21 c 2.08,9.81 4.58,18.76 7.52,23.01 -1.89,-7.79 -4.57,-15.42 -7.52,-23.01 z m -84.59,422.81 c -1.9,2.75 -4.09,5.33 -6.25,7.93 2.34,-2.21 4.8,-4.36 7.41,-6.44 -0.45,-0.42 -0.84,-0.91 -1.16,-1.49 z m 59.94,-459.78 c -0.56,-1.73 -1.11,-3.45 -1.67,-5.18 -0.11,3.13 -1.07,6.34 -3.24,9.14 -2.45,3.15 -5.17,6.14 -8,9.07 3.88,5.46 6.93,11.8 9.37,18.28 0.65,-2.25 1.32,-4.52 2.02,-6.87 0.71,-2.43 4.25,-3.37 6.74,-2.49 -1.64,-8.01 -3.18,-15.69 -5.22,-21.95 z m -9,-29.73 c -0.52,3.7 -1.28,7.27 -2.25,10.8 2.77,0.84 4.99,2.37 6.6,4.36 -1.57,-5.05 -3.06,-10.11 -4.35,-15.16 z m -19.15,82.1 c 0.82,0.12 1.6,0.33 2.33,0.63 -1.5,-5.91 -3.95,-11.88 -7.19,-17.88 -0.37,1.02 -0.75,2.05 -1.14,3.08 2.03,4.71 4.04,9.44 6,14.17 z m -10.6,45.98 c 2.7,-2.9 5.44,-5.81 8.24,-8.7 -1.47,-3.84 -2.95,-7.68 -4.43,-11.53 -2.31,4.65 -4.02,9.74 -5.44,14.99 0.55,1.74 1.14,3.49 1.63,5.24 z m -12.62,125.16 c 2.47,3.58 4.79,7.13 6.94,10.65 3.03,-6.48 5.93,-13.01 8.7,-19.58 -0.65,-3 -1.2,-5.97 -1.57,-8.89 -3.02,1.81 -7.44,2.12 -10.24,-0.14 -1.2,3.79 -2.6,7.52 -4.28,11.16 0.12,2.21 0.26,4.45 0.45,6.8 z m 28.62,207.88 c -0.02,0.58 -0.05,1.16 -0.06,1.75 -0.02,0.99 0,2.01 0.03,3.04 0.46,-0.33 0.95,-0.66 1.41,-0.99 -0.45,-1.27 -0.86,-2.55 -1.38,-3.8 z m -5.16,-316.48 c 0.55,10.75 -1.61,21.95 -4.46,32.99 0.53,1.06 1.02,2.12 1.57,3.17 1.45,-8.58 2.92,-17.16 4.35,-25.75 -0.13,-5.76 0.11,-11.46 0.6,-17.1 -2.11,-0.19 -4.01,-1.41 -4.53,-3.51 -1.42,1.85 -2.79,3.67 -4.09,5.44 3.2,-0.28 6.42,1.95 6.56,4.76 z m 18.47,10.91 c -0.2,0.88 -0.39,1.78 -0.59,2.67 0.1,0.48 0.22,0.98 0.33,1.47 0.16,-0.92 0.3,-1.84 0.44,-2.77 -0.06,-0.46 -0.13,-0.92 -0.18,-1.37 z m 7.94,289.48 c -0.4,0.48 -0.88,0.88 -1.47,1.2 -1.34,1.16 -2.58,2.36 -3.68,3.59 0.38,0.59 0.75,1.22 1.13,1.81 4.96,-4.6 9.84,-9.4 14.74,-14.23 -0.15,0.1 -0.33,0.15 -0.49,0.25 -2.41,1.63 -6.45,4.3 -10.23,7.38 z m -39.62,-53.29 c 0.32,-3.28 0.67,-6.57 1.03,-9.86 -2.52,-15.27 -3.36,-28.36 -2.62,-32.39 0.36,-1.99 2.12,-3.1 4.17,-3.47 -2.63,-6.07 -5.35,-12.11 -8.15,-18.11 -0.3,-0.02 -0.61,-0.01 -0.91,-0.07 -1.32,13.26 -3.63,26.41 -6.92,39.16 4.36,8.26 8.86,16.51 13.4,24.74 z m 20.79,-634.05 c -0.29,4.7 -0.57,9.11 -0.92,12.88 -0.38,4.13 -5.3,5.17 -8.27,3.26 2.85,13.12 8.41,25.97 15.7,37.41 1.27,-0.84 2.75,-1.47 4.56,-1.43 0.43,0.01 0.87,0.02 1.3,0.03 1.53,0.04 2.81,0.55 3.96,1.22 0.68,-3.87 1.24,-7.76 1.72,-11.66 -7.84,-12.75 -13.32,-26.18 -18.05,-41.71 z m 42.36,-46.67 c -4.9,-6.26 -10.31,-11.91 -16.11,-15.91 -2.2,10.07 -2.5,21.38 -1.9,33.95 0.17,3.5 0.39,7.05 0.67,10.62 6.55,10.5 11.27,21.63 12.22,34.25 0.43,5.65 0.05,11.25 -0.62,16.84 1.81,4.04 3.95,7.97 6.34,11.8 -1.86,-10 -2.7,-20.07 -3.52,-29.03 -1.51,-16.41 -2.31,-37.27 3.12,-55.27 -0.16,-2.42 -0.22,-4.83 -0.2,-7.25 z m 28.73,-10.14 c -2.38,3.44 -4.4,7.02 -6.14,10.7 0.96,1.5 1.89,2.95 2.76,4.21 4.5,6.54 8.27,13.28 11.39,20.26 -2.8,-11.71 -5.41,-23.45 -8.01,-35.17 z m 17.39,69.82 c 0.03,0.11 0.07,0.23 0.1,0.34 -0.03,-0.11 -0.07,-0.23 -0.1,-0.34 z m -30.42,-78.22 c 2.83,-2.54 6,-4.82 9.64,-6.74 -0.43,-1.88 -0.84,-3.78 -1.28,-5.67 -0.86,-3.76 -1.99,-7.83 -3.22,-12.06 -2.95,8.4 -4.58,16.51 -5.14,24.47 z m 37.09,-47.58 c 0.74,-3.46 1.74,-6.58 2.87,-9.53 -2.2,-0.83 -4.47,-1.52 -6.76,-2.15 -2.24,9.56 -3.76,19.2 -4.25,28.8 1.96,3.35 3.88,6.78 5.75,10.25 -0.35,-8.68 0.29,-17.63 2.39,-27.37 z m 86.18,-21.93 c 0.12,-0.39 0.35,-0.67 0.53,-1.01 -4.72,-8.6 -7.92,-18.04 -11.38,-26.49 -1.02,-2.49 -1.99,-4.99 -2.97,-7.48 -7.19,-2.86 -14.73,-4 -22.57,-2.84 15.43,21.12 26.99,44.19 38.33,67.18 -3.27,-10.02 -4.68,-20.09 -1.94,-29.36 z m 103.73,161.96 c 7.09,2.11 14.22,4.96 20.86,8.46 4.31,1.24 8.41,2.8 12.04,4.51 0.96,0.45 1.86,1.05 2.81,1.53 0.33,0.04 0.65,0.11 0.97,0.15 -0.09,-0.31 -0.18,-0.62 -0.27,-0.92 -0.96,-3.21 1.02,-5.78 4.52,-6.94 1.56,-0.52 3.15,-0.85 4.76,-1.03 -2.51,-1.46 -5.04,-2.84 -7.6,-4.11 2.39,4.69 -2.78,9.51 -9.25,7.14 -13.12,-4.81 -24.39,-11.53 -37.16,-15.26 -3.5,0.63 -7.04,1.52 -10.63,2.81 -0.15,0.06 -0.3,0.04 -0.45,0.09 6.32,0.55 12.77,1.59 19.4,3.57 z m 135.22,95.28 c -2.74,-0.65 -5.5,-1.28 -8.31,-2.09 -5.47,-1.59 -10.3,-4.72 -15.36,-7.04 -5.02,-2.31 -10.32,-4.07 -15.08,-6.78 -0.8,-0.45 -1.53,-0.95 -2.31,-1.42 0.82,2.44 1.37,4.88 1.92,7.33 15.07,3.63 28.76,8.37 42.61,14.48 -1.14,-1.5 -2.29,-2.99 -3.47,-4.48 z m 28.19,-22.13 c -1.49,-2.36 -3.12,-4.57 -4.69,-6.83 -1.71,-1.67 -3.41,-3.35 -5.08,-5.05 5.54,11.04 12.09,22.37 19.96,32.97 -3.08,-7.55 -6.25,-14.84 -10.19,-21.09 z m 108.32,72.9 c 0.57,-8.5 1.05,-16.37 0.95,-24.05 -0.51,-3.48 -0.97,-6.96 -1.47,-10.43 -1.01,-7.06 -3.22,-14.31 -3.85,-21.45 -1.1,-3.14 -2.36,-6.32 -3.91,-9.59 -2.86,-6.05 -6.33,-11.76 -10.13,-17.29 2.17,8.51 3.16,17.04 6.42,25.26 1.03,2.58 -1.81,5.49 -4.87,5.55 0.77,3.02 1.38,6.05 1.9,9.1 1.35,4 2.4,8.02 2.75,12.04 0.13,1.61 -0.48,2.79 -1.45,3.62 0.01,1.84 0.1,3.67 0,5.51 -0.25,4.21 -7.1,5.15 -8.83,1 -3.63,-8.68 -6.14,-17.48 -8.78,-26.21 -2.87,-4.63 -6.35,-9.3 -10.19,-13.87 1.79,2.75 3.55,5.5 4.94,8.38 2.55,5.25 -6.67,9.57 -11.09,5.48 -11.57,-10.71 -21.39,-23.4 -30.89,-35.89 13.6,32.14 36.62,71.34 77.57,82.44 0.37,0.1 0.63,0.26 0.93,0.4 z m -76.98,-144.17 c 0.14,-1.72 1.32,-3.16 2.95,-3.94 -5.5,-4.17 -11.78,-6.32 -19.79,-4.28 -0.24,0.06 -0.43,0.02 -0.65,0.04 6.28,1.71 12.1,4.55 17.49,8.18 z M 2479.48,2759 c 3.45,-0.89 6.97,-1.45 10.59,-1.37 -2.89,-1.65 -5.89,-3.19 -9.14,-4.51 -2.19,-0.89 -5.21,-2.26 -8.56,-3.68 2.54,3.1 4.92,6.28 7.11,9.56 z m -6.39,37.05 c 0.16,0.62 0.18,1.23 0.11,1.83 0.46,0.14 0.89,0.2 1.35,0.34 2.32,0.72 3.6,2.2 3.96,3.78 3.6,1.42 6.78,3.25 10.04,5.21 -4.97,-3.9 -10.13,-7.65 -15.46,-11.16 z m 43.09,-1.78 c 2.75,3.17 0.21,7.16 -3.49,8.54 8.02,8.29 15.09,16.8 21.6,25.53 -4.31,-9.38 -6.71,-18.75 -6.29,-27.41 0.15,-3.1 2.71,-4.8 5.5,-4.98 -0.86,-0.82 -1.66,-1.67 -2.54,-2.47 -7.17,-6.46 -20.76,-15.32 -34.1,-19.12 7.03,6.57 13.57,13.29 19.32,19.91 z m -136.89,-74 c -0.29,0.84 -0.75,1.61 -1.45,2.27 2.03,0.28 4.07,0.51 6.06,0.89 13.46,-2.45 25.48,-0.68 39.29,4.25 -12.47,-6.93 -26.84,-10.18 -43.9,-7.41 z m 11.88,-278.05 c -0.09,-1.5 -0.19,-3.01 -0.3,-4.52 -3.33,3.76 -12.34,3.79 -13.54,-1.87 -1.45,-6.84 -2.7,-13.67 -4.02,-20.5 -0.82,25.75 -5.59,57.56 -5.71,66.23 2.19,-1.08 5.15,-0.99 7.01,0.27 1.26,-3.44 2.57,-6.84 3.98,-10.19 0.16,-2.16 0.28,-4.32 0.55,-6.47 0.26,-2.1 1.94,-3.16 3.72,-3.27 2.16,-4.51 4.48,-8.92 6.96,-13.23 0.42,-0.74 1.05,-1.18 1.73,-1.48 -0.11,-1.66 -0.29,-3.3 -0.38,-4.97 z m -1.61,-32.92 c 0.1,-8.19 0.99,-16.3 3.34,-24.26 -3.35,-5.48 -6.08,-11.37 -8.33,-17.49 1.86,13.95 3.5,27.87 4.99,41.75 z m -132.77,32.36 c 2.32,-15.43 7.27,-30.43 15.04,-44.3 -0.09,-4.05 -0.19,-8.11 -0.34,-12.18 -1.58,-9.77 -1.91,-19.56 -0.93,-29.2 0,-0.18 0,-0.36 -0.01,-0.53 -10.13,18.46 -15.22,42.13 -16.76,56.77 -1.14,10.89 -1.77,21.86 -1.95,32.85 1.56,-1.19 3.28,-2.28 4.95,-3.41 z m 61.74,194.44 c -0.03,-3.23 0.06,-6.45 0.18,-9.67 -1.61,0.46 -3.32,0.61 -5.06,0.31 1.5,3.16 3.22,6.25 4.88,9.36 z m 4.93,-39.92 c -4.18,-5.99 -8.75,-12.17 -13.69,-18.13 -0.8,-0.02 -1.57,-0.15 -2.33,-0.39 5.72,7.03 10.62,14.64 14.82,22.67 0.36,-1.39 0.77,-2.77 1.2,-4.15 z m 41.29,102.31 c -9.26,-10.93 -7.07,-26.83 -8.05,-39.93 -3.33,7.32 -6.85,14.57 -10.7,21.46 -0.31,1.11 -0.62,2.23 -0.92,3.34 6.19,7.63 13.42,14.52 20.95,21.21 -0.49,-2.02 -0.87,-4.05 -1.28,-6.08 z m 2.2,-317.75 c -0.11,-0.04 -0.22,-0.03 -0.34,-0.08 0.14,0.06 0.24,0.23 0.38,0.3 -0.01,-0.07 -0.03,-0.15 -0.04,-0.22 z m -71.26,117.73 c 4.08,-11.77 9.28,-23.15 15.17,-33.92 0.04,-0.24 0.07,-0.49 0.11,-0.73 -7.76,-8.59 -14.67,-17.93 -20.52,-27.79 0.6,21.02 2.03,41.83 5.24,62.44 z m 16.12,57.7 c -1.56,-3.82 -3.06,-7.67 -4.48,-11.56 -0.09,0.7 -0.16,1.41 -0.24,2.11 0.77,2.37 1.42,4.75 2.25,7.11 0.82,0.78 1.67,1.54 2.47,2.34 z m 39.67,153.83 c -0.34,2.18 -2.86,4.14 -5.7,3.92 0.5,1.05 1.06,2.07 1.64,3.08 2.48,-1.5 5.05,-2.82 7.79,-3.96 -1.25,-1.01 -2.49,-2.01 -3.73,-3.04 z m -28.52,-170 c 9.18,8.31 14.75,21.04 18.54,33.98 1.88,0.78 3.24,2.23 2.99,4.33 -0.05,0.42 -0.1,0.83 -0.15,1.24 3.33,-1.33 8.42,0.4 8.63,4.23 0.07,1.23 0.02,2.46 0.02,3.69 0.58,-0.21 1.17,-0.38 1.79,-0.48 -0.87,-10.58 -1.09,-20.95 -0.61,-30.96 -8.15,-30.17 -7.4,-64.46 -5.9,-93.61 0.35,-6.74 0.36,-14.01 0.38,-21.5 -6.59,10.04 -12.69,20.18 -18.1,30.67 -3.41,23.59 -5.48,46.85 -7.59,68.41 z m -52.35,-52.93 c 0.1,1.27 -0.3,2.23 -0.87,3.05 2.34,4.8 4.35,9.76 6.26,14.72 -2.54,-17.31 -3.16,-34.99 -3.01,-51.97 -0.51,-0.1 -0.99,-0.25 -1.46,-0.47 -1.6,11.41 -1.87,23 -0.92,34.67 z m -17.04,-18.83 c 0.62,0.54 1.24,1.09 1.83,1.65 -0.07,-1.61 -0.08,-3.21 -0.11,-4.82 -0.6,1.05 -1.14,2.12 -1.72,3.17 z m 86.17,-43.89 c 3.09,-3.26 6.26,-6.28 9.48,-9.09 0.92,-15.86 3.42,-31.44 10.47,-44.35 0.88,-1.6 2.94,-2.53 5.1,-2.79 -0.31,-1.93 -0.67,-3.86 -0.99,-5.8 -10.93,19.26 -18.52,40.35 -24.06,62.03 z m -107.46,99.44 c 3,3.17 5.81,6.43 8.55,9.73 5.48,-6.11 14.47,-6.93 23.72,-5.22 -5.33,-13.88 -10.91,-27.61 -18.18,-40.9 -2.06,9.25 -4.67,18.54 -7.85,28.05 -0.7,2.1 -2.79,2.83 -4.78,2.62 -0.49,1.91 -1.02,3.8 -1.46,5.72 z m -5.12,41.21 c 1.76,-3.13 3.83,-6.17 6.06,-9.17 -1.7,-2.03 -3.4,-4.06 -5.1,-6.08 -0.51,5.05 -0.81,10.14 -0.96,15.25 z m 91.24,-167.16 c -0.93,-1.71 -1.66,-3.4 -2.48,-5.09 -6.1,8.07 -12.23,16.29 -17.18,24.62 3.82,10.03 8.85,19.86 15.35,29.4 7.88,-37.55 22.74,-74.59 45.85,-105.59 -1.7,-8.67 -3.35,-17.3 -4.3,-25.97 -5.84,15.78 -11.54,31.62 -19.04,46.84 -2.94,5.94 -6.96,12.02 -11.39,18.19 0.62,5.14 1.32,10.32 2.02,15.59 0.51,3.81 -6.87,5.62 -8.83,2.01 z m 65.92,-156.53 c -4.07,1.23 -8.09,2.51 -12.09,3.82 0.46,3.23 0.86,6.48 1.41,9.69 3.97,-1.18 8.61,2.69 6.38,6.36 -1.36,2.23 -2.55,4.53 -3.8,6.8 3.03,14.51 6.77,28.88 10.88,43.16 9.28,-8.33 19.45,-15.82 30.54,-22.31 -6.76,-17.23 -17.03,-38.34 -33.32,-47.52 z m 206.13,145.39 c 0.3,5.72 0.83,11.2 1.58,16.52 0.55,-0.04 1.11,-0.07 1.67,-0.01 0.93,-8.48 -0.01,-17.44 -1.94,-26.47 -2.36,0.3 -4.86,-0.1 -6.79,-1.33 0.05,1.94 0.11,3.9 0.16,5.82 0,0.14 -0.08,0.23 -0.09,0.37 2.76,0.51 5.26,2.29 5.41,5.1 z m 22.88,49.35 c -0.54,-0.85 -0.93,-1.7 -1.5,-2.54 -1.99,-2.96 -0.25,-6.79 2.81,-8.42 3.09,-24.12 8.03,-45.91 26.01,-64.67 -0.95,-10.01 -1.41,-20.15 -0.98,-30.13 -1.31,-5.86 -2.46,-11.75 -3.54,-17.64 -2.4,13.31 -5.88,26.33 -11.24,38.66 -1.79,4.1 -9.79,3.91 -9.79,-1.1 0,-31.19 6.84,-61.77 10.57,-92.79 -9.04,9.39 -15.24,21.67 -19.37,35.1 -0.04,0.38 -0.12,0.75 -0.16,1.12 -0.07,0.84 -0.36,1.55 -0.73,2.21 0.84,13.09 2.07,26.31 4.89,39.16 0.24,0.34 0.41,0.72 0.66,1.05 1.34,1.83 1.45,3.59 0.82,5.09 2.28,8.48 5.32,16.77 9.71,24.68 3.31,5.98 -6.25,11.15 -10.57,5.25 -4.14,-5.64 -7.29,-11.53 -9.98,-17.54 1.29,4.34 2.46,8.69 3.47,13.06 4.39,19.06 12.13,39.29 -4.71,54.37 -0.23,0.21 -0.52,0.32 -0.78,0.47 -0.25,3.09 -0.45,6.17 -0.63,9.24 3.23,10.28 7.38,20.12 12.47,29.8 0.79,-8.18 1.64,-16.33 2.57,-24.43 z m 14.21,31.83 c -0.56,5.94 -1.05,11.89 -1.52,17.83 2.41,3.58 4.94,7.22 7.58,10.88 -1.48,-9.7 -3.32,-19.26 -6.06,-28.71 z m 94.94,52.96 c 0.23,-7.53 0.82,-15.11 1.89,-22.22 -1.9,-16.16 -1.63,-32.87 0,-49.64 -2.43,0.6 -5.32,-0.14 -6.19,-2.76 -1.41,-4.26 -2.63,-8.54 -3.7,-12.83 -1.82,7.96 -5.74,15.63 -7.28,23.74 -0.24,1.31 -0.38,2.65 -0.58,3.98 2.61,-0.58 5.89,0.4 6.61,2.91 4.25,15 5.16,29.61 4.16,44.01 1.56,4.32 3.36,8.56 5.09,12.81 z M 2747.26,2283 c -1.5,3.14 -5.58,4.39 -9.08,3.72 1.48,10.19 2.74,20.41 3.4,30.64 0.2,3.22 -2.94,5.2 -6.24,5.51 0.64,17.45 0.76,34.91 1.61,52.45 4.94,-24.51 9.83,-51.1 24.41,-72.58 -5.17,-6.57 -9.79,-13.15 -14.1,-19.74 z m -10.59,-86.03 c -0.19,0.18 -0.37,0.38 -0.54,0.56 1.46,10.21 3.52,20.21 6.27,30.01 1.29,-4.67 2.61,-9.39 3.95,-14.13 -3.29,-5.74 -6.55,-11.3 -9.68,-16.44 z m 9.77,-19.07 c 3.11,1.3 4.85,4.76 2.43,7.45 1.16,2.09 2.31,4.17 3.4,6.29 1.91,-7.51 3.62,-15.03 4.96,-22.52 -3.76,2.7 -7.37,5.62 -10.79,8.78 z m 6.36,-70.17 c -1.48,-1.54 -3.18,-3 -4.95,-4.41 -5.04,20.81 -12.57,39.6 -13.85,61.32 0.6,0.61 1.1,1.3 1.68,1.94 6.61,-4.96 13.73,-9.47 21.44,-13.3 0.8,-0.41 1.6,-0.57 2.37,-0.72 1.32,-14.88 0.48,-29.45 -4.14,-43.28 -0.89,-0.29 -1.76,-0.73 -2.55,-1.55 z m -94.52,130.91 c -0.33,0.73 -0.91,1.25 -1.72,1.69 1.66,10.53 3.43,21.03 5.33,31.48 0.35,0.03 0.69,0.14 1.03,0.22 1.89,-5.14 3.98,-10.17 6.27,-15.14 -3.69,-6.06 -7.38,-12.11 -10.91,-18.25 z m -16.19,-76.21 c 1.03,-1.92 2.11,-3.8 3.16,-5.7 0.24,-1.61 0.48,-3.21 0.76,-4.81 -1.46,3.32 -2.81,6.68 -4.04,10.07 0.04,0.14 0.08,0.29 0.12,0.44 z m -37.13,68.01 c -0.2,2.82 -0.37,5.63 -0.47,8.49 5.03,-13.03 11.13,-25.8 17.76,-38.56 -3.53,2.15 -6.91,4.59 -10.14,7.34 -2.59,7.1 -5.03,14.73 -7.15,22.73 z m 23.02,-7.54 c -2.16,4.41 -4.23,8.84 -6.16,13.31 1.85,-1.03 3.77,-1.96 5.88,-2.64 0.16,-3.55 0.27,-7.1 0.28,-10.67 z m 17.12,231.34 c 0.15,-20.24 -0.66,-40.62 -2.37,-61.37 -4.97,13.26 -8.34,26.98 -10.77,40.95 5.91,5.95 10.15,12.86 13.14,20.42 z m 35.8,-10.59 c -1.75,-8.8 -4.37,-19.81 -5.91,-31.18 -0.27,-1.19 -0.53,-2.37 -0.8,-3.55 -1.22,0.08 -2.41,-0.15 -3.5,-0.59 2.89,18.58 4.02,37.42 1.7,56.84 -0.37,3.06 -4.46,5.04 -7.55,4.43 -0.78,11.39 -1.91,22.72 -3.09,33.89 -1.03,9.66 -2.61,19.14 -4.34,28.6 1.14,2.05 2.27,4.11 3.33,6.17 0.07,0 0.14,-0.01 0.21,-0.01 2.94,-5.58 6.23,-10.95 10.19,-15.78 1.98,-2.42 5.15,-3.02 7.88,-2.38 2.78,-10.7 5.14,-21.44 5.29,-32.25 0.22,-14.8 -1.18,-29.52 -3.41,-44.19 z m 28.55,-38.97 c -4.14,1.45 -9.91,-0.23 -10.08,-5.2 -0.3,-8.87 -0.34,-17.74 -0.32,-26.61 -3.06,5.64 -4.94,12.09 -5.79,19.14 1.96,8.5 3.29,17.22 4.3,25.57 0.01,0.04 0.02,0.08 0.04,0.11 0.04,0.15 -0.01,0.27 0.03,0.42 0.53,4.44 0.99,8.74 1.4,12.84 0.5,-0.7 0.85,-1.47 1.39,-2.14 1.4,-1.74 3.75,-3.41 6.52,-3.17 0.81,0.07 1.63,0.14 2.45,0.21 1.56,0.14 2.79,0.69 3.75,1.43 -1.62,-7.5 -2.84,-15.03 -3.69,-22.6 z m 24.95,-142.06 c 0.06,-0.4 0.14,-0.82 0.2,-1.22 -0.18,-0.36 -0.4,-0.71 -0.58,-1.07 0.13,0.76 0.25,1.53 0.38,2.29 z m -52.8,99.1 c 0.62,0.98 1.19,2.01 1.77,3.05 3.02,-3.52 6.8,-6.57 11.72,-8.85 1.47,-0.68 2.85,-0.84 4.15,-0.76 0.16,-9.54 0.34,-19.07 0.58,-28.6 -3.36,0.6 -7.39,-0.64 -8.84,-3.96 -5.88,-13.45 -8.94,-27.84 -9.6,-42.42 -4.66,11.61 -8.39,23.45 -10.73,35.39 3.36,15.38 6.94,30.74 10.95,46.15 z m 49.18,44.3 c -1.25,-0.06 -2.46,-0.37 -3.62,-0.83 0.28,5.87 0.49,11.75 0.66,17.64 0.92,-5.65 1.9,-11.25 2.96,-16.81 z m 22.29,-31.61 c -7.07,24.85 -11.61,50.73 -13.36,75.78 1.88,-4.37 7.4,-5.2 11.35,-3.26 -1.25,-24.27 -2.64,-49.01 2.01,-72.52 z m -115.18,-72.17 c 0.34,-0.14 0.72,-0.19 1.08,-0.27 -0.25,-0.95 -0.5,-1.9 -0.75,-2.85 -0.12,1.04 -0.2,2.08 -0.33,3.12 z m -96.16,-89.96 c -0.7,5.17 -1.31,10.38 -1.81,15.63 0.73,-1.67 1.53,-3.34 2.36,-4.98 0.47,-3.54 1.26,-7.11 2.35,-10.72 -0.26,-1.38 -0.5,-2.76 -0.75,-4.15 -0.75,1.41 -1.44,2.81 -2.15,4.22 z m -13.65,-26.38 c 1.14,1.75 1.04,4.08 -1.49,5.44 -1.66,0.89 -3.18,1.89 -4.78,2.82 -6.1,14.16 -11.85,28.65 -20.91,40.44 -2.63,3.43 -9.35,3.53 -12.12,0.56 -6.23,17.99 -8.38,38.23 -6.96,57.8 5.05,-5.07 10.06,-10.17 15.12,-15.24 3.61,-12.36 7.55,-24.62 13.67,-36.36 1.4,-2.69 4.09,-3.36 6.69,-2.86 1.51,-8.09 3.65,-16.15 6.46,-24.05 1.22,-10.07 3.32,-20.01 6.45,-29.62 -0.71,0.36 -1.44,0.7 -2.13,1.07 z M 2465,2309.92 c -2.7,-15.89 -2.5,-32.34 -0.41,-48.5 -4.19,14.51 -5.9,29.47 -3.37,45 0.04,0.29 -0.05,0.5 -0.05,0.77 0.5,1.68 0.98,3.36 1.57,5.01 0.75,-0.76 1.51,-1.52 2.26,-2.28 z m 21.58,1.77 c -0.63,0.59 -1.25,1.2 -1.88,1.79 0.18,0.84 0.33,1.69 0.52,2.52 0.44,-1.49 0.89,-2.94 1.36,-4.31 z m 29.7,-28.25 c -1.06,0.95 -2.11,1.91 -3.16,2.87 -2.55,8.14 -5.24,16.24 -8.1,24.31 4.45,-5.65 8.91,-11.3 13.41,-16.94 -0.88,-3.34 -1.6,-6.76 -2.15,-10.24 z m 10.2,-8.76 c 0.02,0.37 -0.01,0.73 0.02,1.1 0.11,-0.46 0.22,-0.92 0.33,-1.38 -0.12,0.09 -0.23,0.18 -0.35,0.28 z m -106.71,-24.65 c -0.43,-0.09 -0.85,-0.25 -1.26,-0.4 0.38,0.6 0.76,1.19 1.13,1.81 0.05,-0.46 0.08,-0.94 0.13,-1.41 z m 17.59,43.31 c -0.01,0.4 -0.02,0.8 -0.03,1.2 2.12,7.31 3.96,14.69 5.55,21.87 0.29,-2.33 0.61,-4.65 0.88,-6.99 -1.89,-7.36 -2.72,-15.09 -3.02,-22.71 -1.14,2.21 -2.28,4.41 -3.38,6.63 z m 136.37,-38.25 c 1.28,6.1 2.44,12.24 3.43,18.43 0.64,0.73 1.21,1.45 1.89,2.18 2.32,2.48 1.56,5.21 -0.46,7.2 0.52,3.65 0.97,7.3 1.4,10.95 1.09,3.26 2.19,6.52 3.35,9.77 -2.17,-15.94 -1.35,-32.44 0.2,-46.27 0.09,-0.79 0.17,-1.68 0.25,-2.5 -0.51,-4.04 -1,-8.14 -1.39,-12.27 -2.98,4.28 -5.87,8.46 -8.67,12.51 z m 216.73,39.32 c -0.75,-0.14 -1.46,-0.35 -2.12,-0.71 -10.06,15.59 -18.71,33.34 -25.86,52.23 2.8,-5.78 6.12,-11.44 10.21,-16.92 3.95,-5.27 15.56,-2.03 12.9,4.51 -7.48,18.45 -11.74,36.65 -14.11,55.06 7.59,-25.17 15.18,-50.42 17.84,-77 0.58,-5.74 0.93,-11.46 1.14,-17.17 z m -94.34,246.5 c 0.23,-2.04 0.4,-4.1 0.58,-6.15 -4.47,13.27 -10.45,26.52 -10.2,40.14 0.7,0.74 1.42,1.46 2.14,2.19 3.06,-11.92 6.11,-23.87 7.48,-36.18 z m -51.68,49.56 c 1.74,-9.22 3.81,-18.71 6.66,-28.02 -0.08,-0.15 -0.15,-0.3 -0.23,-0.45 -2.6,8.68 -5.79,19.46 -6.43,28.47 z m -142.98,-242.64 c 2.16,-1.16 5.3,-0.63 7.22,0.86 1.8,-7.1 3.55,-14.19 5.32,-21.29 -5.8,6.75 -11.46,13.58 -17.03,20.46 0.4,0.72 0.83,1.41 1.24,2.11 0.99,-0.72 1.95,-1.44 3.25,-2.14 z m -44.95,32.8 c 0.14,-0.07 0.28,-0.08 0.42,-0.14 0.22,-0.27 0.37,-0.54 0.68,-0.8 9.52,-7.6 15.16,-20.71 19.4,-34.32 -2.22,-4.08 -4.12,-8.26 -5.76,-12.52 -0.85,4.09 -6.61,6.89 -11.25,3.26 -1.11,1.01 -2.21,2.02 -3.33,3.03 -1.64,8.85 -3.77,17.63 -6.09,26.38 0.13,1.84 0.24,3.49 0.27,4.76 0.06,2.21 -1.15,3.68 -2.81,4.58 -1.37,4.97 -2.76,9.93 -4.14,14.91 3.62,-3.39 7.72,-6.5 12.61,-9.14 z m -78.99,316.65 c 0.03,0.01 0.03,0.04 0.05,0.05 -0.87,-3.07 -1.74,-6.22 -2.61,-9.37 -0.1,4.38 0.4,8.21 2.56,9.32 z m 235.32,181.86 c -5.85,-5.19 -11.3,-10.71 -16.46,-15.78 -3.16,-3.1 -6.18,-6.48 -9.09,-9.97 1.93,5.33 4.01,10.61 6.26,15.34 5.92,4.09 12.37,7.57 19.29,10.41 z m -272.61,-135.91 c 7.37,-2.16 15.16,-3.25 23.31,-3.14 -2.36,-1.11 -3.97,-3.06 -4.2,-5.11 -1.11,0.04 -2.26,0.12 -3.39,0.19 -1.92,1.73 -5.12,2.34 -8.19,0.77 -0.38,0.05 -0.75,0.09 -1.14,0.13 -2.2,2.36 -4.3,4.77 -6.39,7.16 z m 135.8,704.32 c 4.59,0.28 9.2,0.36 13.8,0.55 21.89,-7.95 41.97,-19.45 58.91,-35.14 -12.37,-0.71 -18.37,-20.31 -6.43,-27.66 133.14,-81.98 37.14,-242.95 -80.68,-278.86 -105.51,-32.15 -203.38,-12.65 -262.5,81.51 -60.78,96.8 -20.91,192.02 66.2,240.39 72.49,-4.27 138.47,14.95 210.7,19.21 z m 193.94,-41.01 c -16.86,-18.33 -33.2,-37.09 -49.79,-55.64 -4.16,9.96 -9.64,19.29 -16.71,27.68 -7.62,30.78 -25.42,53.49 -49.27,69.83 52.1,-1.32 104.47,-5.47 155.99,-6.89 -15.1,-5.71 -30.31,-24.21 -40.22,-34.98 z m 161.86,-27.96 c -18.47,-20.79 -27.81,-47.14 -30.09,-75.45 -9,4.16 -20.85,11.5 -27.56,14.32 -13.88,5.84 -23.49,9.1 -38.42,9.1 -15.77,0 -43.05,0.77 -66.04,-5.45 -14.13,0 -28.09,-2.23 -40.08,-10.51 -0.92,11.44 -3.11,22.47 -6.66,32.9 29.28,32.7 57.38,69.44 92.56,95.59 0.81,0.61 0.99,1.52 0.8,2.3 52.54,-1.32 105.33,-1.44 158.02,-0.14 -19.72,-15.63 -34.76,-36.17 -42.53,-62.66 z m 407.1,38.64 c -7.63,8.14 -16.27,15.24 -25.98,21.52 11.63,-1.24 23.31,-2.64 34.98,-3.94 -4.22,-5.94 -8.1,-12.46 -9,-17.58 z m 57.67,13.68 c -4.36,-5.88 -8.22,-12.12 -12.59,-17.98 -2.95,-3.97 -6.61,-7.54 -8.31,-12.16 -3.71,-2.79 -7.37,-5.66 -11.2,-8.27 -1.8,-1.22 -3.66,-2.37 -5.5,-3.55 -3.84,7.25 -8.16,13.89 -12.95,19.99 0.61,0.33 1.09,0.87 1.28,1.59 2.21,8.3 7.34,15.78 12.6,23.01 12.35,-1.24 24.65,-2.16 36.79,-2.51 -0.04,-0.05 -0.08,-0.06 -0.12,-0.12 z m 6.49,-8.2 c 0.72,1.05 1.4,2.12 2.14,3.16 1.34,1.88 1.07,3.69 0.04,5.03 2.63,-0.01 5.26,-0.01 7.87,0.05 -3.39,-2.67 -6.74,-5.44 -10.05,-8.24 z m 24.31,-97.87 c 0.28,10.51 1.9,21.27 3.42,31.59 0.45,-11.02 -0.04,-21.89 0.15,-32.5 -1.08,0.52 -2.3,0.84 -3.57,0.91 z m 9.4,95.35 c 1.6,-2.22 2.98,-4.46 4.23,-6.71 -2.01,2.09 -4.1,4.05 -6.38,5.76 0.58,0.65 1.15,1.3 1.71,1.95 0.17,-0.34 0.19,-0.66 0.44,-1 z m -71.14,-45.4 c 3.08,1.59 6.28,3.46 9.55,5.57 -2.82,-2.88 -5.57,-5.8 -8.31,-8.73 -0.41,1.06 -0.82,2.12 -1.24,3.16 z m 94.98,-117.61 c -0.98,-0.16 -1.85,-0.51 -2.63,-0.99 -6.26,5.75 -11.6,12.08 -15.04,17.48 -1.01,2.63 -2.18,5.18 -3.55,7.62 -0.25,0.45 -0.58,0.75 -0.9,1.05 -1.76,4.23 -3.04,8.57 -3.83,13 2.42,-8.27 6.34,-16.29 12.78,-23.99 1.09,-1.31 2.79,-1.87 4.47,-1.89 0.88,-2.78 1.93,-5.47 3.48,-7.91 0.69,-1.07 2.09,-1.84 3.6,-2.15 0.52,-0.75 1.09,-1.48 1.62,-2.22 z m -10.1,106.06 c -0.91,-8.28 -0.84,-16.88 -0.54,-25.47 -0.36,0.98 -0.77,1.92 -1.1,2.92 -0.22,0.67 -0.56,1.22 -0.95,1.66 -0.11,1.97 -0.21,3.93 -0.35,5.92 -0.87,13.14 -6.42,32.66 -5.01,48.21 2.34,-3.31 4.61,-6.69 6.83,-10.14 0.95,-7.63 1.09,-15.35 1.12,-23.1 z m -388.8,81.51 c 59.68,3.59 117.96,-8.54 177.63,-3.44 1.85,0.16 3.71,0.2 5.57,0.32 104,-42.28 154.35,-147.04 82.54,-253.67 -63.42,-94.16 -162.19,-113.66 -266.23,-81.51 -116.18,35.91 -204.83,196.88 -67.95,278.86 12.28,7.35 7.17,26.95 -5.16,27.66 14.58,12.96 31.18,23.01 49.04,30.62 8.19,0.41 16.39,0.66 24.56,1.16 z M 2068.05,3037.9 c 1.01,2.87 2.05,5.72 3.12,8.56 1.71,-4.21 3.69,-8.44 5.1,-12.98 -0.21,-0.47 -0.42,-0.94 -0.64,-1.41 -2.54,1.94 -5.09,3.88 -7.58,5.83 z m 349.45,-805.52 c -3.64,0.82 -7.34,1.74 -11.07,2.69 2.69,2.34 5.24,5.11 7.66,8.24 0.09,-0.63 0.21,-1.26 0.59,-1.92 1.12,-1.93 2.28,-3.88 3.5,-5.83 -0.74,-0.9 -1.09,-1.99 -0.68,-3.18 z m 23.9,-3.59 c -1.36,9.22 -2.19,18.59 -2.75,28.02 0.71,-0.97 1.37,-1.95 2.09,-2.91 0.51,-9.69 1.75,-19.02 3.48,-28.21 -0.96,0.99 -1.89,2.07 -2.82,3.1 z m 172.87,-105.03 c -6.27,33.62 -39.93,65.77 -49.25,98.48 0.91,2.78 1.74,5.61 2.57,8.43 4,-5.33 8.96,-11.63 14.73,-17.71 1.33,-10.7 4.55,-20.77 11.07,-29.27 0.99,-1.29 2.3,-1.91 3.65,-2.09 5.65,-12.41 13.08,-24.18 22,-35.14 -1.72,-6.89 -3.09,-14.73 -4.77,-22.7 z m 381.99,212.48 c -0.45,0.77 -1.03,1.48 -1.77,2.06 1.17,1.55 2.32,3.11 3.51,4.66 -0.57,-2.23 -1.15,-4.45 -1.74,-6.72 z m 94.93,27.58 c -2.39,5.77 -4.79,11.9 -6.97,18.23 2.27,15.26 5.06,30.47 6.37,45.8 1.27,-5.13 2.69,-10.23 4.41,-15.32 0.67,-1.98 2.52,-3.29 4.66,-3.83 0.26,-3.56 0.51,-7.12 0.79,-10.67 -2.59,-11.47 -5.43,-22.92 -9.26,-34.21 z m 141.78,150.38 c -0.52,1.8 -1.08,3.64 -1.67,5.53 0.48,1.59 0.98,3.18 1.43,4.78 0.06,-3.48 0.15,-6.93 0.24,-10.31 z m 89.91,502.06 c -1.7,5.39 -3.39,10.78 -5,16.17 -0.39,7.97 -0.63,15.96 -0.62,23.97 0,0.85 -0.27,1.54 -0.54,2.22 2.01,-1.75 4.17,-3.37 6.65,-4.74 4.1,-2.24 10.8,1.55 8.99,5.68 -7.94,18.12 -14.84,38.67 -19.51,59.99 11.45,-27.54 23.8,-55.33 42.75,-78.55 -10.6,-8.29 -21.96,-16.27 -32.72,-24.74 z m 1.17,139.54 c 3.84,8.22 7.56,17.06 10.9,26.24 0.8,-1.76 1.62,-3.51 2.52,-5.25 -4.4,-7.99 -9.28,-16.05 -11.7,-24.3 -0.58,1.1 -1.16,2.2 -1.72,3.31 z m 95.82,-4.09 c -0.39,0.48 -0.78,0.96 -1.17,1.44 -1.95,2.39 -4.61,0.74 -5.35,-1.55 -5.69,6.26 -11.28,12.61 -17.02,18.75 -6.61,7.08 -13.33,14.18 -19.6,21.63 7.33,6.98 8.84,21.2 11.04,29.96 0.04,0.14 0.04,0.28 0.07,0.43 10.29,-12.98 20.6,-25.92 32.31,-37.65 1.31,-1.31 2.78,-1.7 4.17,-1.56 -0.84,-10.5 -2.24,-21.02 -4.45,-31.45 z m -11.66,355.6 c -26.89,-16.41 -55.14,-35.07 -83.48,-37.23 -67.24,-5.11 -132.15,16.43 -200.71,7.55 -4.6,-0.6 -9.26,-0.88 -13.9,-1.25 -17.62,3.37 -36.67,5.8 -56.3,6.95 22.85,-0.42 45.33,-0.78 66.93,-1.41 79.12,-2.32 171.77,-4.06 244.26,32.42 0.72,0.36 1.13,0.85 1.4,1.38 13.98,-2.76 27.92,-5.55 41.8,-8.41 z m -1362.13,13.73 c 12.81,-10.82 22.7,-17.58 39.25,-22.55 25.54,-7.67 56.47,-19.77 82.38,-23.58 26.11,-3.85 57.71,-0.13 84.43,-1.06 18.03,-0.64 36.97,-2.27 53.72,4.94 3.21,1.38 0.91,6.45 -2.33,5.55 -19.97,-5.56 -45.06,-1.68 -65.35,0.07 -26.77,2.31 -56.3,-2.48 -82.23,4.63 -36.43,9.99 -71.37,25.48 -106.46,37.85 -0.77,0.28 -1.52,0.18 -2.18,-0.11 9.39,0.96 18.57,1.86 27.28,2.23 89.15,3.83 178.85,0.19 267.54,-4.67 116,-6.37 240.98,13.92 356.47,31.08 215.61,32.03 439.32,4.64 652.74,-36.75 -81.79,-14.1 -158.81,-27.99 -244.15,-25.33 -84.64,2.64 -182.78,-4.73 -265.76,8.95 -2.82,0.46 -4.04,-3.83 -1.19,-4.33 56.17,-9.82 119.11,-12.56 180.62,-13.96 -16.18,-0.3 -32.38,-1.59 -48.19,-4.02 -10.51,0.29 -20.99,0.43 -31.35,0.04 -80.59,-3.04 -161.19,-4.28 -242,-2.76 -40.19,0.75 -79.68,3.19 -119.25,4.02 61.1,7.9 122.31,18.56 184.34,13.72 2.27,-0.18 2.7,3.39 0.54,3.94 -96.4,24.56 -197.79,-12.3 -295.47,-19.32 -60.05,9.76 -127.4,2.41 -175.1,-11.62 -13.74,-4.04 -26.39,-8.4 -38.06,-13.27 -28.59,0.27 -57.69,1.88 -85.97,6.5 1.3,1.21 2.62,2.42 3.93,3.63 2.47,2.3 -0.09,7.26 -3.45,5.94 -4.76,-1.88 -9.23,-4.36 -13.58,-7.06 -18.42,3.66 -36.42,8.54 -53.49,15.43 -26.61,10.74 -52.79,29.16 -79.23,45.41 7.62,0.62 15.22,1.43 22.69,2.19 -2.03,-0.97 -3.12,-4.06 -1.14,-5.73 z m 658.92,949.6 c 27.46,0.78 41.2,-12.25 61.44,-26.25 13.8,-9.53 32.88,-15.11 45.31,-25.77 6.44,-5.51 7.29,-4.07 8.11,-7.39 -12.75,0.63 -25.87,-0.62 -38.48,-2.15 -20.55,-2.5 -45.2,-6.07 -65.95,-4.29 -11.68,1 -28.4,7.38 -40.97,17.26 3.01,4.52 5.43,9.11 6.98,13.72 5.07,15.08 -13.9,23.94 -24.31,14.88 0.03,19.47 33.63,19.58 47.87,19.99 z m 889.84,-870.14 c -10.38,116.01 -26.85,238.21 -97.7,333.43 -19.76,26.56 -43.77,45.78 -67.87,67.37 -42.17,37.76 -50.94,67.83 -72.45,115.68 -25.54,56.82 -63.58,119.04 -111.92,159.43 -58.98,49.29 -140.08,72.82 -213.47,91.01 -59.29,14.69 -114.97,52.63 -176.37,34.77 -3.62,1.96 -7.32,3.67 -11.18,4.94 14.57,33.39 -50.36,50.72 -72.71,65.9 -30.41,20.64 -57.62,15.06 -93.31,8.28 -12.99,-2.47 -33.07,-0.11 -44.53,-5.3 -22.92,-10.37 -18.73,-31.87 -5.55,-52.96 -42.99,-25.24 -112.63,-24.67 -155.62,-40.06 -78.55,-28.11 -160.74,-46.74 -237.6,-79.08 -61.52,-25.89 -127.75,-56.75 -181.97,-96.13 -51.17,-37.16 -66.08,-92.93 -103.69,-140.23 -85.96,-108.1 -156.08,-203.76 -160.57,-346.36 -2.21,-70.16 -10.48,-139.53 31.97,-198.28 41.21,-57.07 78.77,-56.77 141.77,-73.12 1.25,-0.32 2.48,-0.49 3.69,-0.57 -6.5,-15.6 -8.51,-34.12 -6.27,-48.32 4.72,-29.89 27.45,-57.05 31.18,-89.27 4.79,-41.32 -9.52,-80.34 -16.17,-120.83 -9.14,-55.67 7.77,-117.4 42.86,-161.17 6.17,-7.7 15.93,-17.84 27.27,-27.61 -0.56,-6.74 -0.36,-13.49 1.01,-20.24 1,-4.92 8.82,-5.41 12.52,-2.59 0.63,-1.03 1.61,-1.78 2.79,-2.2 -2.25,-3.72 -4.34,-7.43 -6.07,-11.1 -20.68,-44.1 -18.49,-80.16 7.69,-121.22 1.73,-2.71 7.1,-2.09 8.15,0.67 0.56,-8.39 2.06,-16.57 4.65,-24.27 -2.55,-10.38 -4.63,-20.75 -5.37,-31.09 -0.28,-4.11 6.39,-6.55 9.84,-3.44 0.67,0.61 1.19,1.36 1.83,2 -12.09,-38.82 -15.61,-98.25 9.57,-131.71 0.25,-9.06 2.4,-17.71 7.6,-25.38 8.9,-28.83 25.8,-53.48 55.72,-60.91 6.33,-26.53 11.6,-54.12 11.22,-80.98 -0.2,-14.3 -8.59,-33.84 8.89,-41.55 4.99,-2.2 9.74,1.41 9.08,5.73 -0.84,5.59 -1.12,11.21 -1.18,16.85 1.19,-20.14 7.76,-39.95 18.44,-58.4 -1.79,-12.77 -3.35,-25.56 -3.47,-38.26 -0.07,-7.06 12.47,-7.01 13.07,0 0.56,6.7 1.47,13.48 2.45,20.28 3.87,-5.12 7.94,-10.13 12.37,-14.92 -2.9,-5.66 -6.28,-11.1 -10.28,-16.23 -2.99,-3.84 3.16,-7.17 6.96,-4.57 4.97,3.39 8.87,7.51 12.04,12.03 7.66,-7.34 15.89,-14.21 24.64,-20.43 3.5,-5.41 7.47,-10.5 11.98,-14.67 0.51,-13 1.97,-25.76 5.23,-38.02 -0.61,0.62 -1.31,1.14 -1.91,1.77 -3.81,4 -12.62,-0.29 -10.62,-5.1 10.03,-24.18 36.04,-39.44 62.79,-49.94 1.71,-0.67 3.6,-1.38 5.4,-2.07 3.43,-3.03 6.76,-5.9 9.8,-8.56 21.59,-18.9 49.32,-43.24 84.2,-36.37 2.2,0.43 3.55,1.61 4.24,3.03 4.61,-14.44 10.69,-27.9 18.64,-39.56 5.21,-7.61 19.52,-0.74 14.41,6.95 -0.05,0.08 -0.09,0.16 -0.14,0.23 5.21,-2.43 13.62,0.91 11.64,7.16 -0.87,2.74 -1.75,5.56 -2.63,8.43 5.83,-2.71 12.05,-4.75 18.62,-6.07 10.13,-13.04 21.85,-25.42 36.29,-34.08 0.11,-0.2 0.23,-0.38 0.34,-0.57 9.2,-16.25 25.75,-43.66 50.73,-35.33 4.34,-8.46 8.91,-16.74 14.64,-24.62 -2.3,-3.77 -5.36,-7.39 -9.37,-10.81 -4.41,-3.77 -1.78,-11.3 5.11,-10.92 8.77,0.49 14.96,3.23 19.32,7.38 5.03,-0.13 9.64,5.41 6.37,9.97 1.31,3.43 2.11,7.16 2.54,11.04 5.15,7.26 8.22,15.71 11.57,26.02 1.71,5.25 3.37,10.57 5.02,15.89 2.12,-2.04 4.23,-4.08 6.48,-6.03 0.46,-0.4 0.96,-0.59 1.45,-0.84 3.17,-7.78 6.73,-15.47 10.65,-22.74 -5.77,-13.92 -14.7,-26.57 -20.57,-40.41 -1.72,-4.06 3.78,-6.54 7.73,-5.05 12.73,4.79 18.74,17.23 23.58,28.16 3.54,-4.88 7.27,-9.36 11.22,-13.14 11.08,-18.22 27.81,-30.62 55.81,-24.35 2.25,0.5 3.71,1.56 4.53,2.85 3.08,-1.83 6.38,-3.52 10.03,-4.99 4.95,-1.99 12.07,2.36 8.5,6.95 -2.92,3.77 -5.47,7.54 -7.93,11.31 2.16,-0.9 4.7,-1 7.06,0.39 48.06,28.61 61.02,85.18 67.76,130.77 0.28,0.53 0.57,1.08 0.83,1.57 4.03,7.36 7.97,14.74 11.87,22.14 0.34,-2.05 0.52,-4.13 0.94,-6.17 0.18,-0.9 0.43,-1.85 0.63,-2.77 -4.43,-11.85 -8.63,-23.75 -12.37,-35.74 -2.32,-7.43 9.62,-11.89 14.66,-5.22 2.16,2.86 4.12,5.82 6.04,8.81 4.74,-17.28 11.8,-50.92 -10.38,-42.26 -8.04,3.13 -15.49,-6.67 -7.4,-10.2 24.81,-10.8 40.28,3.21 42.91,24.38 0.33,2.67 0.39,5.38 0.32,8.09 4.15,6.43 7.71,13.04 10.91,19.76 4.13,4.58 8.26,9.16 12.34,13.82 1.46,-1.83 3.03,-3.61 4.77,-5.31 6.27,-6.08 14.09,-9.56 22.26,-11.07 0.11,-17.31 3.1,-33.19 11.43,-44.25 2.88,-3.84 9.97,-5.34 14.11,-1.53 1.68,1.53 3.35,3.07 5.02,4.61 4.58,4.21 0.39,10.33 -6.17,9.23 0,0 1.92,15.19 4.53,35.54 6.5,3 12.39,7.33 16.78,13.19 4.14,5.52 -5.78,10.3 -10.13,5.02 -1.58,-1.92 -3.24,-3.44 -4.93,-4.78 0.6,4.7 1.23,9.54 1.86,14.42 13.95,10.65 24.7,25.65 33.23,42.17 2.67,-1.84 5.34,-3.67 7.99,-5.52 3.52,-2.42 7.92,-3.3 12.18,-1.31 15.65,7.29 27.18,17.76 35.47,30.34 4,-1.18 8.78,-0.15 9.96,4.32 0.66,2.5 1.24,5.01 1.87,7.52 3.8,0.59 7.87,1.76 12.27,3.75 2.78,1.26 5.38,2.82 7.91,4.49 4.04,-15.08 9.41,-29.61 16.06,-43.07 1.36,-2.76 5.97,-3.17 8.8,-1.94 2.21,0.96 4.42,1.92 6.63,2.88 6.08,2.65 2.08,11.66 -4.49,9.39 -3.45,-1.19 -8.03,23.06 -11.57,46.12 1.62,0.9 2.64,2.36 2.56,3.97 2.72,3.56 5.22,7.26 7.52,11.06 11.32,-17.28 23.59,-33.14 34.09,-46.33 2.9,-3.65 11.35,-1.51 9.29,3.24 -3.07,7.05 -6.78,13.79 -10.77,20.38 2.35,1.11 4.2,3 4.41,5.87 0.22,3.09 0.61,6.21 0.91,9.32 4.6,4.71 8.81,9.86 12.62,15.41 1.38,-1.43 3.71,-2.37 6.14,-2.09 0.25,0.02 0.48,0.1 0.72,0.14 -0.22,-0.97 -0.39,-1.95 -0.62,-2.92 -1.55,-6.38 8.76,-11.11 13.12,-4.67 3.05,4.49 5.3,9.49 7.24,14.66 28.77,17.46 44.76,61.2 52.74,85.01 5.61,16.74 8.65,34.1 9.84,51.47 4.84,-22.4 18.7,-38.92 53.45,-27.7 7.5,2.42 6.2,10.45 -1.51,11.27 -46.35,4.91 -32.4,50.85 -31.4,80.87 0.64,18.81 -1.15,41 1.19,62.07 3.83,-5.45 8.69,-10.33 15.1,-14.3 3.05,-1.89 7.76,-1.46 10.96,0 2.58,1.19 5.16,2.37 7.74,3.55 7.59,3.48 4.49,13.52 -3.98,13.44 -8.76,-0.07 -15.75,11.86 -21.25,29.78 1.46,3.09 3.08,6.12 5.03,9 2.71,4.04 0.04,7.7 -3.79,9.07 1.43,2.31 2.79,4.66 4.1,7.01 1.25,-16.94 4.72,-33.31 14.05,-45.52 5.48,-7.17 17.46,-3.96 18.63,4.2 0.4,2.81 0.8,5.63 1.2,8.45 0.39,2.7 -2.16,4.5 -5.05,5.03 -2.42,8.89 -3.88,18.07 -4.88,27.37 6.08,16.47 11.21,33.05 15.44,49.71 1.07,-2.08 2.02,-4.21 3.22,-6.22 2.54,-4.24 9.69,-5.61 14.53,-3.21 1.8,0.9 3.6,1.79 5.4,2.68 7.44,3.69 5.39,15.51 -4.32,14.56 -1.97,-0.19 -5.91,11.88 -10.69,30.35 1.55,8.91 2.87,17.84 3.96,26.78 32.33,1.71 43.68,44.48 47.17,65.23 8.93,52.95 -10.28,100.7 -21.87,151.45 21.55,13.37 42.51,32.84 53.34,45.62 37.09,43.77 56.82,105.5 50.22,161.17 -4.8,40.49 -17.33,79.51 -10.66,120.83 3.13,19.39 13.03,36.93 21.77,54.35 1.16,-0.12 2.38,-0.14 3.71,0.01 0.68,0.07 1.35,0.14 2.04,0.21 0.86,0.09 1.48,0.48 2.27,0.67 0.01,-0.1 0.03,-0.2 0.04,-0.3 102.45,22.99 131.55,143.18 123.43,233.93"
         style="fill:#231f20;fill-opacity:1;fill-rule:nonzero;stroke:none"
         id="path4115"
         inkscape:connector-curvature="0" /><path
         d="m 2289.67,3278.85 c 22.64,22.07 47.82,44.92 62.64,73.32 2.88,5.51 -2.61,11.73 -8.36,8.56 -13.38,-7.34 -22.64,-22.18 -32.69,-33.4 -11.84,-13.23 -20.42,-27.12 -29.66,-42.14 -3.15,-5.12 3.75,-10.55 8.07,-6.34"
         style="fill:#231f20;fill-opacity:1;fill-rule:nonzero;stroke:none"
         id="path4117"
         inkscape:connector-curvature="0" /><path
         d="m 2319.53,3172.62 c -4.43,-5.82 -22.41,-21.5 -12.78,-23.5 -6.33,1.31 -11,-4.82 -8.36,-10.57 0.16,-0.35 0.33,-0.7 0.49,-1.06 2.21,-4.8 8.6,-4.58 12.15,-1.57 74.6,63.32 107.96,169.05 170.17,242.73 4.59,5.44 -0.99,15.19 -7.91,10.56 -32.46,-21.7 -54.28,-72.39 -75.46,-104.15 -15.95,-23.92 -31.75,-47.94 -48.3,-71.45 -9.75,-13.86 -19.74,-27.49 -30,-40.99"
         style="fill:#231f20;fill-opacity:1;fill-rule:nonzero;stroke:none"
         id="path4119"
         inkscape:connector-curvature="0" /><path
         d="m 2451.43,3278.61 c 2.15,-5.55 -15.78,-27.7 -18.78,-32.41 -6.95,-10.94 -17.65,-23.4 -20.92,-35.88 -1.51,-5.73 5.43,-10.13 9.86,-5.82 12.64,12.3 21.1,29.98 28.98,45.49 4.29,8.43 10.12,20.75 6.84,30.26 -1.29,3.73 -7.39,1.99 -5.98,-1.64"
         style="fill:#231f20;fill-opacity:1;fill-rule:nonzero;stroke:none"
         id="path4121"
         inkscape:connector-curvature="0" /><path
         d="m 2910.84,3232.62 c 24.06,22.17 47.73,44.68 72.43,66.13 25.38,22.05 53.04,41.4 76.53,65.54 4.13,4.25 0.35,13.4 -6.03,10.77 -61.05,-25.21 -108.63,-85.18 -153.12,-132 -6.62,-6.97 3.11,-16.97 10.19,-10.44"
         style="fill:#231f20;fill-opacity:1;fill-rule:nonzero;stroke:none"
         id="path4123"
         inkscape:connector-curvature="0" /><path
         d="m 3055.48,3259.11 c 41.94,36.52 85.74,65.67 132.02,96.1 4.52,2.98 2.05,10.83 -3.61,9.05 -55.73,-17.53 -98.11,-53.86 -141.71,-91.55 -9.48,-8.19 3.87,-21.81 13.3,-13.6"
         style="fill:#231f20;fill-opacity:1;fill-rule:nonzero;stroke:none"
         id="path4125"
         inkscape:connector-curvature="0" /><path
         d="m 3180.13,3296.46 c -11.3,-11.5 6.28,-29.27 17.04,-17.43 1.63,1.79 3.32,3.63 4.64,5.66 0.43,0.87 0.74,1.54 0.97,2.02 0.53,0.57 1.04,1.13 1.58,1.68 4.05,4.42 6.57,8.11 4.9,14.27 -1.12,4.12 -4.56,6.4 -8.67,6.72 -7.72,0.6 -15.38,-7.74 -20.46,-12.92"
         style="fill:#231f20;fill-opacity:1;fill-rule:nonzero;stroke:none"
         id="path4127"
         inkscape:connector-curvature="0" /><path
         d="m 2654.62,2769.95 c -2.12,-3.89 -5.19,-6.8 -8.95,-9.16 -3.8,-2.4 -0.4,-8.3 3.54,-6.05 4.84,2.75 11.32,8.43 10.02,14.61 -0.45,2.12 -3.6,2.45 -4.61,0.6"
         style="fill:#231f20;fill-opacity:1;fill-rule:nonzero;stroke:none"
         id="path4129"
         inkscape:connector-curvature="0" /><path
         d="m 2042.99,3874.43 c -0.44,4.91 -7,4.8 -7.57,0 -11.75,-99.31 -83.71,-219.57 1.73,-307.73 2.64,-2.73 6.43,1.27 4.1,4.09 -48.63,58.82 -38.98,131.07 -22.42,199.14 8.44,34.68 27.36,68.02 24.16,104.5"
         style="fill:#231f20;fill-opacity:1;fill-rule:nonzero;stroke:none"
         id="path4131"
         inkscape:connector-curvature="0" /><path
         d="m 2055.76,3694.38 c 0.49,3.24 -4.34,4.74 -5.04,1.39 -9.4,-44.91 6.27,-97.39 37.81,-130.73 1.98,-2.1 6.18,0.06 5.07,2.95 -6.62,17.18 -19.13,31.12 -26.77,48.07 -10.64,23.61 -14.94,52.64 -11.07,78.32"
         style="fill:#231f20;fill-opacity:1;fill-rule:nonzero;stroke:none"
         id="path4133"
         inkscape:connector-curvature="0" /><path
         d="m 2107.59,3606.76 c -4.05,6.29 -15.37,21.91 -10.21,30.06 2.48,3.94 -3.41,8.65 -6.53,5.04 -9.61,-11.07 -1,-28.12 5.33,-38.57 6.78,-11.21 15.89,-29.04 31.52,-26.26 4,0.72 3.8,6.02 1.04,7.94 -9.11,6.33 -15.1,12.36 -21.15,21.79"
         style="fill:#231f20;fill-opacity:1;fill-rule:nonzero;stroke:none"
         id="path4135"
         inkscape:connector-curvature="0" /><path
         d="m 2159.98,3591.58 c -6,3.65 -11.37,8.21 -17.28,11.98 -3.95,2.53 -8.88,-3.59 -5.1,-6.6 8.96,-7.12 25.55,-27.68 38.7,-18.16 1.3,0.94 2.11,3.17 0.57,4.4 -4.93,3.94 -11.49,5.08 -16.89,8.38"
         style="fill:#231f20;fill-opacity:1;fill-rule:nonzero;stroke:none"
         id="path4137"
         inkscape:connector-curvature="0" /><path
         d="m 2234.41,3579.65 c -5.09,2.25 -10.58,2.38 -15.64,4.77 -5.22,2.47 -10.07,5.65 -15.34,8.07 -4.62,2.12 -8.62,-4.3 -4.05,-6.94 10.38,-6 21.1,-17.87 34.17,-12.48 2.46,1.02 4.03,5.17 0.86,6.58"
         style="fill:#231f20;fill-opacity:1;fill-rule:nonzero;stroke:none"
         id="path4139"
         inkscape:connector-curvature="0" /><path
         d="m 2800.91,3948.55 c 2.79,0.7 1.9,4.4 -0.63,4.68 -0.96,0.1 -1.93,0.21 -2.88,0.31 -1.26,0.14 -2.47,-1 -2.8,-2.12 -13.02,-45.03 -0.21,-104.6 21.06,-145.1 1.09,-2.06 4.41,-0.64 3.76,1.59 -7.05,24.16 -12.33,48.83 -16.57,73.62 -1.11,6.44 -11.99,64.48 -1.94,67.02"
         style="fill:#231f20;fill-opacity:1;fill-rule:nonzero;stroke:none"
         id="path4141"
         inkscape:connector-curvature="0" /><path
         d="m 2835.84,3775.34 c -0.66,1.48 -3.19,0.43 -2.64,-1.11 3.48,-9.8 6.03,-19.09 10.68,-28.54 6.11,-12.43 13.87,-23.76 20.77,-35.68 0.77,-1.32 2.7,-0.42 2.4,1.01 -2.48,11.67 -9.87,21.38 -15.77,31.5 -6.19,10.64 -10.45,21.73 -15.44,32.82"
         style="fill:#231f20;fill-opacity:1;fill-rule:nonzero;stroke:none"
         id="path4143"
         inkscape:connector-curvature="0" /><path
         d="m 3024.35,3634.68 c -10.08,-5.17 -14.34,-19.65 -27.94,-14.87 -4.68,1.64 -8.06,-6.1 -3.42,-8.11 7.51,-3.26 14.23,-3.94 21.72,0.01 7.04,3.72 13.26,10.73 15.68,18.33 1.14,3.6 -3.01,6.19 -6.04,4.64"
         style="fill:#231f20;fill-opacity:1;fill-rule:nonzero;stroke:none"
         id="path4145"
         inkscape:connector-curvature="0" /><path
         d="m 3063.55,3618.72 c -3.57,-2.02 -6.5,-4.8 -9.56,-7.53 -2.8,-2.51 -5.23,-6.34 -8.47,-8.14 -6.1,-3.37 -0.64,-12.73 5.47,-9.35 3.38,1.87 5.67,4.6 7.92,7.69 3.09,4.23 7.03,7.77 9.69,12.28 1.89,3.21 -1.87,6.85 -5.05,5.05"
         style="fill:#231f20;fill-opacity:1;fill-rule:nonzero;stroke:none"
         id="path4147"
         inkscape:connector-curvature="0" /><path
         d="m 3334.8,3561.48 c 24.9,4.47 37.23,32.44 43.64,54.45 1.59,5.44 -6.76,7.7 -8.46,2.33 -3.77,-11.87 -10.28,-24.37 -18.42,-33.92 -2.95,-3.45 -6.53,-6.96 -10.31,-9.47 -3.85,-2.55 -7.7,-2.51 -10.63,-6.21 -2.69,-3.4 -0.23,-7.97 4.18,-7.18"
         style="fill:#231f20;fill-opacity:1;fill-rule:nonzero;stroke:none"
         id="path4149"
         inkscape:connector-curvature="0" /><path
         d="m 3296.31,3612.34 c -5.33,-5.97 -8.75,-13.09 -13.59,-19.39 -4.8,-6.25 -11.24,-9.49 -18.17,-12.9 -4.52,-2.22 -1.02,-8 3.13,-7.42 7.73,1.06 14.1,4.15 19.47,9.93 6.47,6.96 9.2,16.39 15.24,23.69 3.46,4.2 -2.35,10.26 -6.08,6.09"
         style="fill:#231f20;fill-opacity:1;fill-rule:nonzero;stroke:none"
         id="path4151"
         inkscape:connector-curvature="0" /><path
         d="m 3226.43,3615.53 c -8.88,-5.8 -16.86,-10.6 -27.04,-13.86 -9.49,-3.04 -19.39,-3.34 -29.03,-5.52 -3.96,-0.9 -3.97,-7.12 0,-8.02 22.5,-5.1 43.59,5.8 61.54,18.05 5.71,3.89 0.42,13.2 -5.47,9.35"
         style="fill:#231f20;fill-opacity:1;fill-rule:nonzero;stroke:none"
         id="path4153"
         inkscape:connector-curvature="0" /><path
         d="m 1921.45,3931.21 c -8.13,-33.27 -26.9,-64.24 -28.2,-98.9 -0.12,-3.24 4.6,-3.08 4.95,0 3.87,33.98 32.64,64.19 27.94,98.9 -0.33,2.45 -4.15,2.19 -4.69,0"
         style="fill:#231f20;fill-opacity:1;fill-rule:nonzero;stroke:none"
         id="path4155"
         inkscape:connector-curvature="0" /><path
         d="m 2078.97,3952.68 c 26.99,4.6 39.84,32.83 49.39,55.89 12.79,30.86 6.02,67.81 23.87,95.33 1.91,2.93 -2.6,5.38 -4.59,2.69 -10.34,-13.95 -12.98,-22.09 -14.2,-38.96 -2.59,-36 -18.3,-94.59 -56.03,-109.27 -3.53,-1.37 -2.2,-6.31 1.56,-5.68"
         style="fill:#231f20;fill-opacity:1;fill-rule:nonzero;stroke:none"
         id="path4157"
         inkscape:connector-curvature="0" /><path
         d="m 2190.88,4066.48 c -2.93,1.81 -6.53,-1.17 -5.69,-4.37 3.77,-14.39 -5.65,-34.78 -10.4,-48.3 -6.79,-19.35 -14.45,-37.16 -25.45,-54.56 -3,-4.76 4.24,-8.73 7.42,-4.34 15.67,21.62 25.77,44.81 33.75,70.22 3.84,12.24 14.14,32.86 0.37,41.35"
         style="fill:#231f20;fill-opacity:1;fill-rule:nonzero;stroke:none"
         id="path4159"
         inkscape:connector-curvature="0" /><path
         d="m 2229.86,4006.99 c 0.67,9.41 -2.79,19.65 -4.3,28.98 -1.87,11.51 -5.22,22.74 -7.02,34.26 -0.55,3.56 -6.67,2.76 -6.33,-0.85 2.02,-21.04 1.48,-45 11.12,-64.16 1.67,-3.34 6.3,-1.43 6.53,1.77"
         style="fill:#231f20;fill-opacity:1;fill-rule:nonzero;stroke:none"
         id="path4161"
         inkscape:connector-curvature="0" /><path
         d="m 2308.29,3999.09 c -8.43,2.98 -12.68,11.54 -16.17,19.23 -1.8,4.01 -8.86,1.11 -7.16,-3.02 3.6,-8.78 10.86,-29.03 24.07,-21.93 2.53,1.36 1.65,4.87 -0.74,5.72"
         style="fill:#231f20;fill-opacity:1;fill-rule:nonzero;stroke:none"
         id="path4163"
         inkscape:connector-curvature="0" /><path
         d="m 2812.76,4301.13 c 3.78,0.06 4.98,4.99 1.88,6.96 -10.64,6.81 -19.29,15.62 -27.76,24.94 -8.65,9.51 -16.79,16.85 -27.18,24.37 -2.8,2.03 -6.16,-2.44 -3.67,-4.77 11.05,-10.34 20.6,-20.8 30.64,-32.16 6.37,-7.22 15.45,-19.48 26.09,-19.34"
         style="fill:#231f20;fill-opacity:1;fill-rule:nonzero;stroke:none"
         id="path4165"
         inkscape:connector-curvature="0" /><path
         d="m 2882.35,4323.98 c -16.61,6.86 -32.77,15.65 -48.03,25.11 -11.1,6.87 -21.95,14.66 -34.88,17.66 -3.45,0.79 -4.66,-4.01 -1.44,-5.23 28.1,-10.57 51.18,-45.31 83.38,-44.7 4.38,0.09 4.6,5.66 0.97,7.16"
         style="fill:#231f20;fill-opacity:1;fill-rule:nonzero;stroke:none"
         id="path4167"
         inkscape:connector-curvature="0" /><path
         d="m 3103.34,4243.79 c 2.03,-1.31 4.21,1.64 2.54,3.3 -36.16,36.17 -85.47,50.61 -128.53,76.28 -21.08,12.55 -44.02,22.86 -66.53,33.13 -20.8,9.5 -41.59,9.38 -62.71,16.1 -4.9,1.56 -6.69,-5.77 -2.08,-7.57 25.12,-9.83 48.91,-12.48 73.51,-25.89 18.25,-9.97 36.73,-19.39 54.94,-29.45 42.54,-23.5 87.8,-39.33 128.86,-65.9"
         style="fill:#231f20;fill-opacity:1;fill-rule:nonzero;stroke:none"
         id="path4169"
         inkscape:connector-curvature="0" /><path
         d="m 3191.02,4155.66 c 2.67,-0.82 4.43,2.62 2.64,4.52 -8.6,9.07 -15.73,20.32 -22.97,30.46 -8.43,11.8 -18.22,22.54 -26,34.81 -2.27,3.59 -8.01,0.27 -5.72,-3.35 9.22,-14.6 20.68,-27.87 30.87,-41.79 4.97,-6.79 12.97,-22.15 21.18,-24.65"
         style="fill:#231f20;fill-opacity:1;fill-rule:nonzero;stroke:none"
         id="path4171"
         inkscape:connector-curvature="0" /><path
         d="m 3225.87,4095.57 c -1.25,5.91 -10.11,3.38 -9,-2.48 1.22,-6.48 4.86,-11.42 7.96,-17.11 2.96,-5.44 4.93,-10.88 10.42,-14.23 2.43,-1.49 6,1 5.01,3.85 -1.69,4.85 -3.93,9.72 -6.42,14.22 -2.9,5.25 -6.7,9.73 -7.97,15.75"
         style="fill:#231f20;fill-opacity:1;fill-rule:nonzero;stroke:none"
         id="path4173"
         inkscape:connector-curvature="0" /><path
         d="m 3127.27,4205.68 c -13.92,3.86 -26.78,16.49 -39.21,23.6 -12.71,7.27 -26.13,13.11 -39.71,18.56 -30.6,12.28 -66.33,24.52 -92.42,45.8 -2.77,2.26 -8.06,0.26 -6.64,-3.86 6.49,-18.76 50.19,-33.61 66.51,-40.26 22.72,-9.28 45.77,-16.69 67.53,-28.34 13.78,-7.39 26.45,-19.71 41.88,-22.98 4.84,-1.03 6.9,6.13 2.06,7.48"
         style="fill:#231f20;fill-opacity:1;fill-rule:nonzero;stroke:none"
         id="path4175"
         inkscape:connector-curvature="0" /><path
         d="m 3045.29,4180.25 c -18.11,15.26 -38.89,28.25 -58.21,42 -5.79,4.11 -11.1,-5.32 -5.52,-9.44 18.87,-13.94 36.72,-29.84 58.12,-39.82 4.39,-2.04 9.93,3.62 5.61,7.26"
         style="fill:#231f20;fill-opacity:1;fill-rule:nonzero;stroke:none"
         id="path4177"
         inkscape:connector-curvature="0" /><path
         d="m 2594.88,3421.8 c 4.61,3.15 9.53,5.95 14.3,8.83 4.39,2.65 9.1,3.94 12.6,7.82 2.73,3.01 -0.66,6.86 -4.13,5.35 -9.37,-4.07 -18.41,-9.27 -26.82,-15.07 -4.23,-2.91 -0.23,-9.87 4.05,-6.93"
         style="fill:#231f20;fill-opacity:1;fill-rule:nonzero;stroke:none"
         id="path4179"
         inkscape:connector-curvature="0" /><path
         d="m 2609.92,3378.27 c 7.53,10.42 16.28,19.74 25.64,28.53 8.61,8.09 18.73,15.24 26.44,24.18 2.05,2.38 -0.61,6.58 -3.57,4.62 -20.53,-13.62 -40.15,-33.9 -54.56,-53.8 -2.65,-3.65 3.43,-7.16 6.05,-3.53"
         style="fill:#231f20;fill-opacity:1;fill-rule:nonzero;stroke:none"
         id="path4181"
         inkscape:connector-curvature="0" /><path
         d="m 2738.69,3417.78 c 6.63,5.76 13.46,9.82 18.39,17.22 1.47,2.23 -1.84,4.71 -3.68,2.83 -5.84,-5.96 -12.99,-10.07 -19.25,-15.52 -8.04,-6.99 -14.69,-15.46 -22.09,-23.09 -13.4,-13.81 -26.26,-27.25 -38.79,-41.89 -2.65,-3.1 1.87,-7.62 4.49,-4.49 13.01,15.55 26.61,29.39 40.64,43.95 6.74,7 12.93,14.59 20.29,20.99"
         style="fill:#231f20;fill-opacity:1;fill-rule:nonzero;stroke:none"
         id="path4183"
         inkscape:connector-curvature="0" /><path
         d="m 2716.34,3350.12 c 13.64,14.28 28.27,27.55 42.66,41.06 12.61,11.84 28.96,20.65 40.27,33.53 2.16,2.45 -0.57,6.53 -3.61,4.69 -32.86,-19.81 -58.07,-46.55 -86.11,-72.48 -4.55,-4.2 2.51,-11.3 6.79,-6.8"
         style="fill:#231f20;fill-opacity:1;fill-rule:nonzero;stroke:none"
         id="path4185"
         inkscape:connector-curvature="0" /><path
         d="m 2776.89,3373.2 c 10.35,1.29 18.03,7.32 25.74,13.96 10.68,9.19 21.77,19.08 30.82,29.89 1.9,2.25 -0.57,6.33 -3.39,4.39 -8.46,-5.81 -16.6,-12.44 -24.65,-18.78 -8.32,-6.56 -17.38,-17.7 -28.52,-18.91 -6.72,-0.72 -6.7,-11.39 0,-10.55"
         style="fill:#231f20;fill-opacity:1;fill-rule:nonzero;stroke:none"
         id="path4187"
         inkscape:connector-curvature="0" /><path
         d="m 1327.29,3647.03 c 9.14,-7.62 16.75,-17.52 22.85,-29.71 l -2.28,-11.43 c 3.04,-0.76 4.57,-2.28 4.57,-4.56 v -2.29 c 0,-8.38 -2.29,-13.33 -6.86,-14.86 H 1341 c -0.76,0 -4.57,3.05 -11.42,9.14 -10.67,-6.09 -19.43,-16.75 -26.28,-31.99 -7.62,0 -17.52,-16.37 -29.71,-49.13 -3.04,-1.52 -10.67,-19.42 -22.86,-53.7 1.53,-3.05 2.29,-5.34 2.29,-6.85 -4.57,0 -8,-12.57 -10.28,-37.71 3.04,-30.47 6.47,-55.23 10.28,-74.27 h -2.29 c 0,-1.53 0.76,-2.29 2.29,-2.29 -3.81,-12.95 -5.71,-21.33 -5.71,-25.13 3.8,-11.43 5.71,-20.95 5.71,-28.57 v -2.28 l -33.14,-121.12 c -7.61,0 -18.65,-11.8 -33.13,-35.42 v -2.29 c 31.23,-29.7 46.85,-55.99 46.85,-78.84 9.14,-24.37 14.85,-45.32 17.13,-62.84 -2.28,-3.05 -3.42,-6.1 -3.42,-9.14 v -6.86 c 0,-5.32 1.14,-9.51 3.42,-12.57 l -3.42,-13.71 v -4.56 c 0,-5.34 1.14,-9.14 3.42,-11.43 -2.28,-20.57 -4.95,-30.86 -7.99,-30.86 3.04,-13.7 4.57,-29.7 4.57,-47.98 l -2.29,-12.56 c 3.81,-6.87 5.71,-13.72 5.71,-20.57 h -3.42 l 3.42,-4.58 c 0,-72.36 16,-120.73 48,-145.12 3.8,-12.17 12.56,-27.41 26.27,-45.69 l 6.86,-14.86 c -9.9,-26.66 -36.18,-53.71 -78.84,-81.12 h -8 c -46.47,45.71 -72.74,81.5 -78.84,107.41 -14.47,22.85 -26.27,54.46 -35.42,94.83 2.29,3.05 3.43,6.47 3.43,10.29 l -5.71,15.99 c 0,17.51 1.9,46.84 5.71,87.98 -2.29,3.05 -3.43,6.47 -3.43,10.29 0,1.52 1.14,2.27 3.43,2.27 l -3.43,16.01 v 93.69 c 0,5.32 -0.76,12.19 -2.28,20.56 1.52,2.29 2.28,5.34 2.28,9.14 -9.14,49.51 -24.37,74.28 -45.7,74.28 -23.61,3.8 -35.42,11.04 -35.42,21.71 l -2.29,11.42 4.57,11.43 -6.85,13.72 c 0.76,9.9 2.28,14.85 4.57,14.85 l -2.29,4.56 c 5.33,24.38 12.95,36.56 22.86,36.56 12.19,3.06 26.27,16.38 42.27,40 l 11.43,39.99 -2.29,4.57 c 9.9,38.85 14.85,61.32 14.85,67.41 -1.52,6.1 -3.42,9.14 -5.71,9.14 l 3.43,16 v 24 l -5.71,6.85 v 2.28 c 0,1.53 0.76,2.29 2.28,2.29 l -2.28,4.57 v 2.28 c 0,1.53 2.66,3.81 7.99,6.86 0,4.57 -1.89,10.67 -5.71,18.28 3.05,4.58 5.71,19.43 8,44.57 -1.52,3.04 -2.29,6.09 -2.29,9.13 0,31.24 11.43,67.8 34.29,109.69 0,6.1 17.13,31.23 51.41,75.42 0,3.04 12.57,15.99 37.71,38.84 11.42,0 33.89,-17.13 67.41,-51.41"
         style="fill:#231f20;fill-opacity:1;fill-rule:nonzero;stroke:none"
         id="path4211"
         inkscape:connector-curvature="0" /><path
         d="m 4202.43,3634.46 c 25.9,-38.08 42.28,-77.7 49.14,-118.83 0,-54.08 -2.29,-81.12 -6.86,-81.12 0,-2.29 0.77,-4.57 2.28,-6.86 l -4.56,-33.14 c 1.52,-16.75 2.28,-31.61 2.28,-44.56 0,-7.62 -0.76,-16.76 -2.28,-27.42 0,-42.66 7.61,-73.13 22.85,-91.41 12.94,-29.71 29.31,-44.56 49.12,-44.56 15.24,-9.91 22.86,-20.57 22.86,-31.99 -12.2,-24.39 -18.28,-37.71 -18.28,-40 v -6.86 c 0,-8.37 0.76,-19.42 2.28,-33.13 0,-6.1 -8.36,-9.9 -25.13,-11.42 -19.05,-14.48 -36.18,-36.18 -51.42,-65.12 -4.57,-3.82 -12.58,-18.67 -24,-44.58 l 2.28,-4.56 c -9.13,-20.57 -13.7,-40 -13.7,-58.28 v -16 c 0,-6.09 0.75,-14.46 2.28,-25.13 -1.53,-3.05 -2.28,-7.24 -2.28,-12.56 0,-1.53 0.75,-2.29 2.28,-2.29 l -2.28,-16 v -20.57 c 0,-1.53 -0.76,-2.27 -2.28,-2.27 l 2.28,-4.58 v -26.28 c 0,-3.06 -0.76,-6.09 -2.28,-9.14 l 2.28,-4.58 c -0.76,-9.14 -2.28,-13.7 -4.57,-13.7 l 2.29,-4.58 c -13.71,-67.78 -29.33,-107.4 -46.85,-118.83 l -20.57,-37.69 c -3.81,0 -9.9,-8.77 -18.29,-26.28 -3.8,0 -12.56,-6.87 -26.28,-20.57 h -13.7 c -4.58,1.51 -14.09,10.27 -28.57,26.26 -2.29,-14.46 -6.85,-21.7 -13.71,-21.7 0,10.66 -5.32,20.2 -15.99,28.57 -1.53,8.37 -2.29,15.22 -2.29,20.57 h 2.29 l -2.29,4.56 c 0,13.71 10.66,31.62 31.99,53.71 10.66,3.8 16.38,7.61 17.15,11.43 -1.54,0 -2.3,0.76 -2.3,2.27 l -11.42,-2.27 h -12.56 c -9.14,6.08 -13.72,9.9 -13.72,11.42 0,3.8 10.29,8.75 30.86,14.86 0,4.56 1.52,6.85 4.56,6.85 3.81,0 9.14,-2.29 16,-6.85 h 2.29 c 0,1.52 0.75,3.8 2.27,6.85 -4.56,0 -6.85,1.52 -6.85,4.57 v 6.85 c 10.66,8.38 15.99,14.49 15.99,18.29 0,5.33 4.57,27.04 13.72,65.12 0,6.1 -0.77,13.34 -2.29,21.72 l 4.58,55.98 -2.29,4.58 c 0,1.51 0.76,2.27 2.29,2.27 l -2.29,16 2.29,13.72 c 0,1.51 -0.77,2.28 -2.29,2.28 l 2.29,12.57 v 13.7 c 0,8.38 -0.77,19.05 -2.29,32 3.05,4.58 6.47,26.67 10.29,66.28 23.6,61.7 46.84,92.54 69.7,92.54 v 2.29 c -12.19,15.24 -29.33,34.66 -51.42,58.27 -15.24,25.14 -22.86,54.85 -22.86,89.12 0,1.53 0.76,2.29 2.29,2.29 -1.53,15.24 -2.29,26.66 -2.29,34.28 0,34.28 1.53,51.42 4.58,51.42 l -2.29,9.14 c 1.53,36.56 2.29,55.22 2.29,55.98 0,59.42 -14.09,108.55 -42.29,147.4 -3.8,3.81 -13.33,19.42 -28.56,46.85 -2.28,0 -5.33,3.04 -9.14,9.14 0,5.33 18.66,22.47 55.98,51.41 23.62,15.24 40.76,22.86 51.43,22.86 16,-22.09 34.65,-42.28 55.98,-60.56"
         style="fill:#231f20;fill-opacity:1;fill-rule:nonzero;stroke:none"
         id="path4213"
         inkscape:connector-curvature="0" /></g></g></svg>